<svg xmlns="http://www.w3.org/2000/svg" xmlns:xlink="http://www.w3.org/1999/xlink" xmlns:lucid="lucid" width="1662.61" height="1200"><g transform="translate(-64.5538636510096 -60.000000000000014)" lucid:page-tab-id="0_0"><path d="M505.5 80c55.32 0 100.16 32.46 100.16 72.5S560.82 225 505.5 225H205c-55.3 0-100.15-32.46-100.15-72.5S149.7 80 205 80z" stroke="#000" stroke-width="2" fill="#3aa6dd"/><use xlink:href="#a" transform="matrix(1,0,0,1,104.85279739903382,80.00000000000001) translate(171.66666666666669 80.5)"/><path d="M516.04 261.25c49.5 0 89.62 16.23 89.62 36.25s-40.12 36.25-89.62 36.25H247.2c-49.5 0-89.63-16.23-89.63-36.25s40.12-36.25 89.62-36.25z" stroke="#000" stroke-width="2" fill="#99d2f2"/><use xlink:href="#b" transform="matrix(1,0,0,1,157.5696517244903,261.25) translate(121.27777777777777 44.5)"/><path d="M526.6 370c43.66 0 79.06 16.23 79.06 36.25s-35.4 36.25-79.07 36.25H289.35c-43.67 0-79.07-16.23-79.07-36.25S245.7 370 289.35 370z" stroke="#000" stroke-width="2" fill="#99d2f2"/><use xlink:href="#c" transform="matrix(1,0,0,1,210.2865060499468,370) translate(44.77777777777777 44.5)"/><use xlink:href="#d" transform="matrix(1,0,0,1,210.2865060499468,370) translate(153.66666666666666 44.5)"/><path d="M542.4 478.75c34.94 0 63.26 16.23 63.26 36.25s-28.32 36.25-63.26 36.25H352.62c-34.94 0-63.26-16.23-63.26-36.25s28.32-36.25 63.26-36.25z" stroke="#000" stroke-width="2" fill="#99d2f2"/><use xlink:href="#e" transform="matrix(1,0,0,1,289.36178753813147,478.75) translate(85.27777777777779 44.5)"/><path d="M1243.54 80c55.3 0 100.16 32.46 100.16 72.5s-44.85 72.5-100.16 72.5h-300.5c-55.3 0-100.15-32.46-100.15-72.5S887.72 80 943.04 80z" stroke="#000" stroke-width="2" fill="#ef8d22"/><use xlink:href="#f" transform="matrix(1,0,0,1,842.8887579554246,80.00000000000001) translate(138.44444444444443 80.5)"/><path d="M102.23 154.4l-.85 1.07-1.15 1.57-1.1 1.63-1.04 1.7-1 1.78-.92 1.86-.88 1.96-.82 2.05-.76 2.17-.7 2.28-.63 2.42-.56 2.56-.47 2.73-.38 2.9-.28 3.12-.15 3.34-.02 3.57.15 3.83.33 4.12.55 4.4.78 4.75 1.05 5.05 1.37 5.36 1.68 5.65 2.02 5.87 2.37 6.03 2.68 6.1 2.96 6 3.16 5.8 3.3 5.5 3.33 5.06 3.3 4.6 3.18 4.04 3.04 3.54 2.84 3.06 2.65 2.62 2.44 2.22.7.6" stroke="#000" stroke-width="5" fill="none"/><path d="M104 148.66l-.08 1.12-.07 2.7.02 1.3.1 2.23-3.7-3.2 3.66-4.2z"/><path d="M149.23 294.1l-14.9-1.77 3.9-8.42z" stroke="#000" stroke-width="5"/><path d="M207.8 408.27l-.1.17-1.42 2.13-1.23 2.06-1.1 2.03-.94 1.98-.82 1.96-.7 1.93-.62 1.9-.5 1.92-.43 1.9-.33 1.9-.24 1.93-.15 1.94-.06 1.96.03 2 .12 2.02.2 2.08.34 2.13.44 2.2.56 2.28.7 2.35.86 2.45 1.02 2.55 1.22 2.67 1.43 2.8 1.68 2.93 1.96 3.08 2.28 3.26 2.64 3.4 3.03 3.58 3.46 3.73 3.94 3.85 4.4 3.93 4.84 3.94 5.2 3.85 5.48 3.68 5.56 3.38 5.46 3 5.18 2.52 3.23 1.4" stroke="#000" stroke-width="5" fill="none"/><path d="M209.62 402.8v.04l-.2 1.14-.1 1.13-.03 1.15v.96l.1 1.14.18 1.14.04.2-3.87-2.83 3.28-4.5z"/><path d="M280.5 513.04l-14.95 1.04 2.24-9z" stroke="#000" stroke-width="5"/><path d="M558.22 587.5c26.2 0 47.44 16.23 47.44 36.25S584.42 660 558.22 660H415.88c-26.2 0-47.44-16.23-47.44-36.25s21.24-36.25 47.44-36.25z" stroke="#000" stroke-width="2" fill="#99d2f2"/><use xlink:href="#g" transform="matrix(1,0,0,1,368.43706902631624,587.5) translate(28.1111111111111 44.5)"/><path d="M285.9 515.36l-.32.13-.34.16-.33.2-.32.2-.33.26-.33.3-.33.34-.35.4-.35.46-.36.55-.36.66-.38.8-.4 1-.38 1.23-.38 1.58-.36 2.06-.28 2.74-.13 3.7.17 5 .66 6.58 1.36 8.1 2.06 8.7 2.47 7.97 2.43 6.37 2.2 4.72 1.85 3.4 1.57 2.44 1.32 1.8 1.12 1.32.58.62 3.27 3.07 5.15 4.2 7.94 5.55 10.9 6.54 11.93 6.06 6.67 2.83" stroke="#000" stroke-width="5" fill="none"/><path d="M288.52 512.5l-.1.75-.06 1.75.05 1.53.12.97-2.76-.04.08-5z"/><path d="M359.62 621.68l-14.98.83 2.37-8.95z" stroke="#000" stroke-width="5"/><path d="M154.16 298.1l-.37.2-.43.24-.44.32-.48.4-.52.48-.58.6-.64.8-.72 1-.83 1.33-.96 1.78-1.12 2.44-1.3 3.38-1.45 4.75-1.55 6.5-1.42 8.35-.98 9.3-.35 8.74.18 7.07.48 5.26.6 3.82.6 2.78.62 2.06.56 1.55.53 1.2.48.93.45.74.06.1 1.02 1.4 1.48 1.74 2.13 2.15 3.18 2.73 4.82 3.52 7.24 4.5 10.13 5.26 10.7 4.58" stroke="#000" stroke-width="5" fill="none"/><path d="M156.67 295.72l-.08.9-.03.87v.15l.03.88.08.9.1.56-2.7.08-.16-5 2.85-.1z"/><path d="M201.45 404.25l-14.97.95 2.3-8.98z" stroke="#000" stroke-width="5"/><path d="M1092.28 228.3l-212.4 480.47" stroke="#000" stroke-width="5" fill="none"/><path d="M1094.54 229.36l-4.57-2.03.6-1.33h5.46z"/><path d="M873.12 724.1l1.52-14.92 8.48 3.75z" stroke="#000" stroke-width="5"/><path d="M937.78 732.5c78.6 0 142.33 32.46 142.33 72.5s-63.7 72.5-142.32 72.5h-427c-78.62 0-142.34-32.46-142.34-72.5s63.72-72.5 142.33-72.5z" stroke="#000" stroke-width="2" fill="#7ab648"/><use xlink:href="#h" transform="matrix(1,0,0,1,368.4370690263163,732.5) translate(95.16666666666663 80.5)"/><use xlink:href="#i" transform="matrix(1,0,0,1,368.4370690263163,732.5) translate(219.49999999999994 80.5)"/><use xlink:href="#j" transform="matrix(1,0,0,1,368.4370690263163,732.5) translate(410.5 80.5)"/><path d="M487.4 663.47l.05.2.12.38.15.4.16.4.2.4.22.42.24.43.3.44.3.47.37.5.43.5.48.53.57.56.64.6.75.64.88.7 1.04.74 1.24.83 1.52.92 1.86 1.02 2.32 1.15 2.97 1.3 3.9 1.55 5.34 1.85 7.68 2.3 12.1 3.1 24.3 5.07 83.88 15.84 12.1 3.1 7.67 2.3 5.33 1.85 3.78 1.5" stroke="#000" stroke-width="5" fill="none"/><path d="M489.6 663.5l-5 .12-.05-2.62h5z"/><path d="M681.57 726l-13.6-6.34 6.32-6.8z" stroke="#000" stroke-width="5"/><path d="M1032.67 1095c113.55 0 205.6 32.46 205.6 72.5s-92.05 72.5-205.6 72.5h-616.8c-113.54 0-205.58-32.46-205.58-72.5s92.03-72.5 205.58-72.5z" stroke="#000" stroke-width="2" fill="#ff8f80"/><use xlink:href="#k" transform="matrix(1,0,0,1,210.28650604994687,1095) translate(315.3333333333333 80.5)"/><use xlink:href="#l" transform="matrix(1,0,0,1,210.28650604994687,1095) translate(477.44444444444446 80.5)"/><path d="M1082.97 806.7l5.9 5.38 6.16 6.12 4.97 5.37 4.04 4.76 3.34 4.27 2.76 3.86 2.3 3.52 1.93 3.25 1.63 3 1.36 2.8 1.15 2.63.97 2.48.8 2.36.66 2.24.53 2.15.42 2.06.33 2 .24 1.94.14 1.9.06 1.84v1.82l-.1 1.8-.16 1.77-.24 1.77-.3 1.76-.4 1.77-.47 1.77-.56 1.8-.64 1.8-.75 1.86-.85 1.9-.98 1.93-1.12 2-1.28 2.06-1.46 2.16-1.65 2.26-1.92 2.37-2.2 2.5-2.56 2.7-3 2.87-3.5 3.12-4.22 3.42-5.1 3.8-6.25 4.27-7.9 4.93-10.37 5.86-14.38 7.35-22.66 10.4-133.75 55.9-15.52 7.93-11.34 6.4-8.76 5.46-7 4.77-5.7 4.27-4.77 3.87-4 3.55-3.44 3.3-2.94 3.08-2.56 2.9-2.22 2.76-1.94 2.63-1.7 2.5-1.5 2.44-1.32 2.36-.74 1.46" stroke="#000" stroke-width="5" fill="none"/><path d="M1084.7 804.9l-3.37 3.68-.35-.32v-.02l.1-1.62.03-1.6v-.84l-.06-1.6-.1-1.12z"/><path d="M814.53 1086.14l-1.15-14.96 9 2.18z" stroke="#000" stroke-width="5"/><path d="M365.6 806.7l-3.15 2.86-4.16 4.13-3.5 3.77-2.98 3.5-2.53 3.23-2.17 3.03-1.87 2.85-1.6 2.7-1.38 2.55-1.2 2.44-1.02 2.35-.88 2.27-.74 2.18-.63 2.13-.5 2.1-.42 2.04-.33 2-.23 2-.15 1.97-.07 1.97v1.96l.1 1.97.2 1.98.26 2 .36 2.05.46 2.07.56 2.13.68 2.18.8 2.26.95 2.34 1.1 2.44 1.3 2.55 1.5 2.68 1.77 2.86 2.06 3.04 2.4 3.27 2.87 3.54 3.4 3.87 4.1 4.28 4.98 4.8 6.18 5.48 7.85 6.4 10.32 7.68 14.38 9.82 22.83 14.18 117.66 67.87 12.95 8.83 9.13 6.8 6.84 5.57 5.33 4.7 4.24 4.1 3.46 3.62 2.84 3.23 2.38 2.95 2 2.7 1.68 2.5.7 1.12" stroke="#000" stroke-width="5" fill="none"/><path d="M367.57 801.76l-.1 1.62-.03 1.6v.84l.07 1.6.08.83-.35.33-3.38-3.7 3.75-3.42z"/><path d="M601.63 1086.28l-8.7-12.2 8.84-2.8z" stroke="#000" stroke-width="5"/><path d="M1396.42 80H1660v580h-263.58z" fill="none"/><path d="M1396.42 660c20.02 0 36.25-16.23 36.25-36.25v-217.5c0-20.02 16.23-36.25 36.25-36.25-20.02 0-36.25-16.23-36.25-36.25v-217.5c0-20.02-16.23-36.25-36.25-36.25" stroke="#000" stroke-width="5" fill="none"/><use xlink:href="#m" transform="matrix(1,0,0,1,1505.1657283727177,80.00000000000006) translate(0 274)"/><use xlink:href="#n" transform="matrix(1,0,0,1,1505.1657283727177,80.00000000000006) translate(0 322)"/><path d="M1396.42 660H1660v326.25h-263.58z" fill="none"/><path d="M1396.42 986.25c11.26 0 20.4-9.13 20.4-20.4V843.53c0-11.27 9.12-20.4 20.38-20.4-11.26 0-20.4-9.12-20.4-20.4V680.4c0-11.27-9.12-20.4-20.38-20.4" stroke="#000" stroke-width="5" fill="none"/><g><use xlink:href="#o" transform="matrix(1,0,0,1,1457.5876033727177,660) translate(0 147.5)"/><use xlink:href="#p" transform="matrix(1,0,0,1,1457.5876033727177,660) translate(0 195.5)"/></g><path d="M1396.42 986.25H1660V1240h-263.58z" fill="none"/><path d="M1396.42 1240c8.75 0 15.86-7.1 15.86-15.86v-95.16c0-8.75 7.1-15.86 15.85-15.86-8.75 0-15.85-7.1-15.85-15.85v-95.16c0-8.75-7.1-15.85-15.86-15.85" stroke="#000" stroke-width="5" fill="none"/><g><use xlink:href="#q" transform="matrix(1,0,0,1,1443.9938533727177,986.25) translate(0 111)"/><use xlink:href="#p" transform="matrix(1,0,0,1,1443.9938533727177,986.25) translate(0 159)"/></g><defs><path d="M143 4C61 4 22-44 18-125c-5-107 100-154 193-111 17 8 29 25 37 43l-32 9c-13-25-37-40-76-40-61 0-88 39-88 99 0 61 29 100 91 101 35 0 62-11 79-27v-45h-74v-28h105v86C228-13 192 4 143 4" id="r"/><path d="M100-194c63 0 86 42 84 106H49c0 40 14 67 53 68 26 1 43-12 49-29l28 8c-11 28-37 45-77 45C44 4 14-33 15-96c1-61 26-98 85-98zm52 81c6-60-76-77-97-28-3 7-6 17-6 28h103" id="s"/><path d="M117-194c89-4 53 116 60 194h-32v-121c0-31-8-49-39-48C34-167 62-67 57 0H25l-1-190h30c1 10-1 24 2 32 11-22 29-35 61-36" id="t"/><path d="M59-47c-2 24 18 29 38 22v24C64 9 27 4 27-40v-127H5v-23h24l9-43h21v43h35v23H59v120" id="u"/><path d="M24-231v-30h32v30H24zM24 0v-190h32V0H24" id="v"/><path d="M96-169c-40 0-48 33-48 73s9 75 48 75c24 0 41-14 43-38l32 2c-6 37-31 61-74 61-59 0-76-41-82-99-10-93 101-131 147-64 4 7 5 14 7 22l-32 3c-4-21-16-35-41-35" id="w"/><path d="M135-143c-3-34-86-38-87 0 15 53 115 12 119 90S17 21 10-45l28-5c4 36 97 45 98 0-10-56-113-15-118-90-4-57 82-63 122-42 12 7 21 19 24 35" id="x"/><g id="a"><use transform="matrix(0.1111111111111111,0,0,0.1111111111111111,0,0)" xlink:href="#r"/><use transform="matrix(0.1111111111111111,0,0,0.1111111111111111,31.11111111111111,0)" xlink:href="#s"/><use transform="matrix(0.1111111111111111,0,0,0.1111111111111111,53.33333333333333,0)" xlink:href="#t"/><use transform="matrix(0.1111111111111111,0,0,0.1111111111111111,75.55555555555554,0)" xlink:href="#s"/><use transform="matrix(0.1111111111111111,0,0,0.1111111111111111,97.77777777777777,0)" xlink:href="#u"/><use transform="matrix(0.1111111111111111,0,0,0.1111111111111111,108.88888888888889,0)" xlink:href="#v"/><use transform="matrix(0.1111111111111111,0,0,0.1111111111111111,117.66666666666666,0)" xlink:href="#w"/><use transform="matrix(0.1111111111111111,0,0,0.1111111111111111,137.66666666666666,0)" xlink:href="#x"/></g><path d="M30 0v-248h187v28H63v79h144v27H63v87h162V0H30" id="y"/><path d="M115-194c55 1 70 41 70 98S169 2 115 4C84 4 66-9 55-30l1 105H24l-1-265h31l2 30c10-21 28-34 59-34zm-8 174c40 0 45-34 45-75s-6-73-45-74c-42 0-51 32-51 76 0 43 10 73 51 73" id="z"/><path d="M177-190C167-65 218 103 67 71c-23-6-38-20-44-43l32-5c15 47 100 32 89-28v-30C133-14 115 1 83 1 29 1 15-40 15-95c0-56 16-97 71-98 29-1 48 16 59 35 1-10 0-23 2-32h30zM94-22c36 0 50-32 50-73 0-42-14-75-50-75-39 0-46 34-46 75s6 73 46 73" id="A"/><g id="b"><use transform="matrix(0.1111111111111111,0,0,0.1111111111111111,0,0)" xlink:href="#y"/><use transform="matrix(0.1111111111111111,0,0,0.1111111111111111,26.666666666666664,0)" xlink:href="#z"/><use transform="matrix(0.1111111111111111,0,0,0.1111111111111111,48.888888888888886,0)" xlink:href="#v"/><use transform="matrix(0.1111111111111111,0,0,0.1111111111111111,57.666666666666664,0)" xlink:href="#A"/><use transform="matrix(0.1111111111111111,0,0,0.1111111111111111,79.88888888888889,0)" xlink:href="#s"/><use transform="matrix(0.1111111111111111,0,0,0.1111111111111111,102.11111111111111,0)" xlink:href="#t"/><use transform="matrix(0.1111111111111111,0,0,0.1111111111111111,124.33333333333336,0)" xlink:href="#s"/><use transform="matrix(0.1111111111111111,0,0,0.1111111111111111,146.55555555555557,0)" xlink:href="#u"/><use transform="matrix(0.1111111111111111,0,0,0.1111111111111111,157.66666666666669,0)" xlink:href="#v"/><use transform="matrix(0.1111111111111111,0,0,0.1111111111111111,166.44444444444446,0)" xlink:href="#w"/><use transform="matrix(0.1111111111111111,0,0,0.1111111111111111,186.44444444444446,0)" xlink:href="#x"/></g><g id="c"><use transform="matrix(0.1111111111111111,0,0,0.1111111111111111,0,0)" xlink:href="#r"/><use transform="matrix(0.1111111111111111,0,0,0.1111111111111111,31.11111111111111,0)" xlink:href="#s"/><use transform="matrix(0.1111111111111111,0,0,0.1111111111111111,53.33333333333333,0)" xlink:href="#t"/><use transform="matrix(0.1111111111111111,0,0,0.1111111111111111,75.55555555555554,0)" xlink:href="#s"/></g><path d="M141 0L90-78 38 0H4l68-98-65-92h35l48 74 47-74h35l-64 92 68 98h-35" id="B"/><path d="M114-163C36-179 61-72 57 0H25l-1-190h30c1 12-1 29 2 39 6-27 23-49 58-41v29" id="C"/><path d="M100-194c62-1 85 37 85 99 1 63-27 99-86 99S16-35 15-95c0-66 28-99 85-99zM99-20c44 1 53-31 53-75 0-43-8-75-51-75s-53 32-53 75 10 74 51 75" id="D"/><g id="d"><use transform="matrix(0.1111111111111111,0,0,0.1111111111111111,0,0)" xlink:href="#y"/><use transform="matrix(0.1111111111111111,0,0,0.1111111111111111,26.666666666666664,0)" xlink:href="#B"/><use transform="matrix(0.1111111111111111,0,0,0.1111111111111111,46.666666666666664,0)" xlink:href="#z"/><use transform="matrix(0.1111111111111111,0,0,0.1111111111111111,68.88888888888889,0)" xlink:href="#C"/><use transform="matrix(0.1111111111111111,0,0,0.1111111111111111,82.11111111111111,0)" xlink:href="#s"/><use transform="matrix(0.1111111111111111,0,0,0.1111111111111111,104.33333333333334,0)" xlink:href="#x"/><use transform="matrix(0.1111111111111111,0,0,0.1111111111111111,124.33333333333336,0)" xlink:href="#x"/><use transform="matrix(0.1111111111111111,0,0,0.1111111111111111,144.33333333333334,0)" xlink:href="#v"/><use transform="matrix(0.1111111111111111,0,0,0.1111111111111111,153.11111111111111,0)" xlink:href="#D"/><use transform="matrix(0.1111111111111111,0,0,0.1111111111111111,175.33333333333334,0)" xlink:href="#t"/></g><path d="M30-248c87 1 191-15 191 75 0 78-77 80-158 76V0H30v-248zm33 125c57 0 124 11 124-50 0-59-68-47-124-48v98" id="E"/><g id="e"><use transform="matrix(0.1111111111111111,0,0,0.1111111111111111,0,0)" xlink:href="#E"/><use transform="matrix(0.1111111111111111,0,0,0.1111111111111111,26.666666666666664,0)" xlink:href="#C"/><use transform="matrix(0.1111111111111111,0,0,0.1111111111111111,39.888888888888886,0)" xlink:href="#D"/><use transform="matrix(0.1111111111111111,0,0,0.1111111111111111,62.11111111111111,0)" xlink:href="#u"/><use transform="matrix(0.1111111111111111,0,0,0.1111111111111111,73.22222222222221,0)" xlink:href="#s"/><use transform="matrix(0.1111111111111111,0,0,0.1111111111111111,95.44444444444443,0)" xlink:href="#v"/><use transform="matrix(0.1111111111111111,0,0,0.1111111111111111,104.2222222222222,0)" xlink:href="#t"/><use transform="matrix(0.1111111111111111,0,0,0.1111111111111111,126.44444444444444,0)" xlink:href="#x"/></g><path d="M108 0H70L1-190h34L89-25l56-165h34" id="F"/><path d="M210-169c-67 3-38 105-44 169h-31v-121c0-29-5-50-35-48C34-165 62-65 56 0H25l-1-190h30c1 10-1 24 2 32 10-44 99-50 107 0 11-21 27-35 58-36 85-2 47 119 55 194h-31v-121c0-29-5-49-35-48" id="G"/><g id="f"><use transform="matrix(0.1111111111111111,0,0,0.1111111111111111,0,0)" xlink:href="#y"/><use transform="matrix(0.1111111111111111,0,0,0.1111111111111111,26.666666666666664,0)" xlink:href="#t"/><use transform="matrix(0.1111111111111111,0,0,0.1111111111111111,48.888888888888886,0)" xlink:href="#F"/><use transform="matrix(0.1111111111111111,0,0,0.1111111111111111,68.88888888888889,0)" xlink:href="#v"/><use transform="matrix(0.1111111111111111,0,0,0.1111111111111111,77.66666666666666,0)" xlink:href="#C"/><use transform="matrix(0.1111111111111111,0,0,0.1111111111111111,90.88888888888889,0)" xlink:href="#D"/><use transform="matrix(0.1111111111111111,0,0,0.1111111111111111,113.11111111111111,0)" xlink:href="#t"/><use transform="matrix(0.1111111111111111,0,0,0.1111111111111111,135.33333333333334,0)" xlink:href="#G"/><use transform="matrix(0.1111111111111111,0,0,0.1111111111111111,168.55555555555557,0)" xlink:href="#s"/><use transform="matrix(0.1111111111111111,0,0,0.1111111111111111,190.7777777777778,0)" xlink:href="#t"/><use transform="matrix(0.1111111111111111,0,0,0.1111111111111111,213.00000000000003,0)" xlink:href="#u"/></g><path d="M160-131c35 5 61 23 61 61C221 17 115-2 30 0v-248c76 3 177-17 177 60 0 33-19 50-47 57zm-97-11c50-1 110 9 110-42 0-47-63-36-110-37v79zm0 115c55-2 124 14 124-45 0-56-70-42-124-44v89" id="H"/><path d="M141-36C126-15 110 5 73 4 37 3 15-17 15-53c-1-64 63-63 125-63 3-35-9-54-41-54-24 1-41 7-42 31l-33-3c5-37 33-52 76-52 45 0 72 20 72 64v82c-1 20 7 32 28 27v20c-31 9-61-2-59-35zM48-53c0 20 12 33 32 33 41-3 63-29 60-74-43 2-92-5-92 41" id="I"/><path d="M143 0L79-87 56-68V0H24v-261h32v163l83-92h37l-77 82L181 0h-38" id="J"/><g id="g"><use transform="matrix(0.1111111111111111,0,0,0.1111111111111111,0,0)" xlink:href="#H"/><use transform="matrix(0.1111111111111111,0,0,0.1111111111111111,26.666666666666664,0)" xlink:href="#v"/><use transform="matrix(0.1111111111111111,0,0,0.1111111111111111,35.44444444444444,0)" xlink:href="#D"/><use transform="matrix(0.1111111111111111,0,0,0.1111111111111111,57.666666666666664,0)" xlink:href="#G"/><use transform="matrix(0.1111111111111111,0,0,0.1111111111111111,90.88888888888889,0)" xlink:href="#I"/><use transform="matrix(0.1111111111111111,0,0,0.1111111111111111,113.11111111111111,0)" xlink:href="#C"/><use transform="matrix(0.1111111111111111,0,0,0.1111111111111111,126.33333333333336,0)" xlink:href="#J"/><use transform="matrix(0.1111111111111111,0,0,0.1111111111111111,146.33333333333334,0)" xlink:href="#s"/><use transform="matrix(0.1111111111111111,0,0,0.1111111111111111,168.55555555555557,0)" xlink:href="#C"/></g><path d="M185-189c-5-48-123-54-124 2 14 75 158 14 163 119 3 78-121 87-175 55-17-10-28-26-33-46l33-7c5 56 141 63 141-1 0-78-155-14-162-118-5-82 145-84 179-34 5 7 8 16 11 25" id="K"/><g id="h"><use transform="matrix(0.1111111111111111,0,0,0.1111111111111111,0,0)" xlink:href="#K"/><use transform="matrix(0.1111111111111111,0,0,0.1111111111111111,26.666666666666664,0)" xlink:href="#u"/><use transform="matrix(0.1111111111111111,0,0,0.1111111111111111,37.77777777777777,0)" xlink:href="#C"/><use transform="matrix(0.1111111111111111,0,0,0.1111111111111111,50.99999999999999,0)" xlink:href="#s"/><use transform="matrix(0.1111111111111111,0,0,0.1111111111111111,73.22222222222221,0)" xlink:href="#x"/><use transform="matrix(0.1111111111111111,0,0,0.1111111111111111,93.22222222222221,0)" xlink:href="#x"/></g><path d="M233-177c-1 41-23 64-60 70L243 0h-38l-65-103H63V0H30v-248c88 3 205-21 203 71zM63-129c60-2 137 13 137-47 0-61-80-42-137-45v92" id="L"/><g id="i"><use transform="matrix(0.1111111111111111,0,0,0.1111111111111111,0,0)" xlink:href="#L"/><use transform="matrix(0.1111111111111111,0,0,0.1111111111111111,28.777777777777775,0)" xlink:href="#s"/><use transform="matrix(0.1111111111111111,0,0,0.1111111111111111,51,0)" xlink:href="#x"/><use transform="matrix(0.1111111111111111,0,0,0.1111111111111111,71,0)" xlink:href="#z"/><use transform="matrix(0.1111111111111111,0,0,0.1111111111111111,93.22222222222223,0)" xlink:href="#D"/><use transform="matrix(0.1111111111111111,0,0,0.1111111111111111,115.44444444444446,0)" xlink:href="#t"/><use transform="matrix(0.1111111111111111,0,0,0.1111111111111111,137.66666666666669,0)" xlink:href="#x"/><use transform="matrix(0.1111111111111111,0,0,0.1111111111111111,157.66666666666669,0)" xlink:href="#s"/></g><g id="j"><use transform="matrix(0.1111111111111111,0,0,0.1111111111111111,0,0)" xlink:href="#E"/><use transform="matrix(0.1111111111111111,0,0,0.1111111111111111,26.666666666666664,0)" xlink:href="#I"/><use transform="matrix(0.1111111111111111,0,0,0.1111111111111111,48.888888888888886,0)" xlink:href="#C"/><use transform="matrix(0.1111111111111111,0,0,0.1111111111111111,62.11111111111111,0)" xlink:href="#I"/><use transform="matrix(0.1111111111111111,0,0,0.1111111111111111,84.33333333333333,0)" xlink:href="#G"/><use transform="matrix(0.1111111111111111,0,0,0.1111111111111111,117.55555555555554,0)" xlink:href="#s"/><use transform="matrix(0.1111111111111111,0,0,0.1111111111111111,139.77777777777777,0)" xlink:href="#u"/><use transform="matrix(0.1111111111111111,0,0,0.1111111111111111,150.88888888888889,0)" xlink:href="#s"/><use transform="matrix(0.1111111111111111,0,0,0.1111111111111111,173.11111111111111,0)" xlink:href="#C"/><use transform="matrix(0.1111111111111111,0,0,0.1111111111111111,186.33333333333334,0)" xlink:href="#x"/></g><path d="M30 0v-248h33v221h125V0H30" id="M"/><path d="M101-234c-31-9-42 10-38 44h38v23H63V0H32v-167H5v-23h27c-7-52 17-82 69-68v24" id="N"/><g id="k"><use transform="matrix(0.1111111111111111,0,0,0.1111111111111111,0,0)" xlink:href="#M"/><use transform="matrix(0.1111111111111111,0,0,0.1111111111111111,22.22222222222222,0)" xlink:href="#v"/><use transform="matrix(0.1111111111111111,0,0,0.1111111111111111,31,0)" xlink:href="#N"/><use transform="matrix(0.1111111111111111,0,0,0.1111111111111111,42.111111111111114,0)" xlink:href="#s"/><use transform="matrix(0.1111111111111111,0,0,0.1111111111111111,64.33333333333334,0)" xlink:href="#x"/><use transform="matrix(0.1111111111111111,0,0,0.1111111111111111,84.33333333333334,0)" xlink:href="#z"/><use transform="matrix(0.1111111111111111,0,0,0.1111111111111111,106.55555555555557,0)" xlink:href="#I"/><use transform="matrix(0.1111111111111111,0,0,0.1111111111111111,128.7777777777778,0)" xlink:href="#t"/></g><path d="M30-248c118-7 216 8 213 122C240-48 200 0 122 0H30v-248zM63-27c89 8 146-16 146-99s-60-101-146-95v194" id="O"/><path d="M24 0v-261h32V0H24" id="P"/><g id="l"><use transform="matrix(0.1111111111111111,0,0,0.1111111111111111,0,0)" xlink:href="#O"/><use transform="matrix(0.1111111111111111,0,0,0.1111111111111111,28.777777777777775,0)" xlink:href="#s"/><use transform="matrix(0.1111111111111111,0,0,0.1111111111111111,51,0)" xlink:href="#F"/><use transform="matrix(0.1111111111111111,0,0,0.1111111111111111,71,0)" xlink:href="#s"/><use transform="matrix(0.1111111111111111,0,0,0.1111111111111111,93.22222222222223,0)" xlink:href="#P"/><use transform="matrix(0.1111111111111111,0,0,0.1111111111111111,102,0)" xlink:href="#D"/><use transform="matrix(0.1111111111111111,0,0,0.1111111111111111,124.22222222222224,0)" xlink:href="#z"/><use transform="matrix(0.1111111111111111,0,0,0.1111111111111111,146.44444444444446,0)" xlink:href="#G"/><use transform="matrix(0.1111111111111111,0,0,0.1111111111111111,179.66666666666669,0)" xlink:href="#s"/><use transform="matrix(0.1111111111111111,0,0,0.1111111111111111,201.8888888888889,0)" xlink:href="#t"/><use transform="matrix(0.1111111111111111,0,0,0.1111111111111111,224.11111111111114,0)" xlink:href="#u"/></g><g id="m"><use transform="matrix(0.1111111111111111,0,0,0.1111111111111111,0,0)" xlink:href="#y"/><use transform="matrix(0.1111111111111111,0,0,0.1111111111111111,26.666666666666664,0)" xlink:href="#u"/><use transform="matrix(0.1111111111111111,0,0,0.1111111111111111,37.77777777777777,0)" xlink:href="#v"/><use transform="matrix(0.1111111111111111,0,0,0.1111111111111111,46.55555555555555,0)" xlink:href="#D"/><use transform="matrix(0.1111111111111111,0,0,0.1111111111111111,68.77777777777777,0)" xlink:href="#P"/><use transform="matrix(0.1111111111111111,0,0,0.1111111111111111,77.55555555555554,0)" xlink:href="#D"/><use transform="matrix(0.1111111111111111,0,0,0.1111111111111111,99.77777777777777,0)" xlink:href="#A"/><use transform="matrix(0.1111111111111111,0,0,0.1111111111111111,122,0)" xlink:href="#v"/><use transform="matrix(0.1111111111111111,0,0,0.1111111111111111,130.77777777777777,0)" xlink:href="#w"/><use transform="matrix(0.1111111111111111,0,0,0.1111111111111111,150.77777777777777,0)" xlink:href="#I"/><use transform="matrix(0.1111111111111111,0,0,0.1111111111111111,173,0)" xlink:href="#P"/></g><path d="M63-220v92h138v28H63V0H30v-248h175v28H63" id="Q"/><path d="M206 0h-36l-40-164L89 0H53L-1-190h32L70-26l43-164h34l41 164 42-164h31" id="R"/><g id="n"><use transform="matrix(0.1111111111111111,0,0,0.1111111111111111,0,0)" xlink:href="#Q"/><use transform="matrix(0.1111111111111111,0,0,0.1111111111111111,24.333333333333332,0)" xlink:href="#C"/><use transform="matrix(0.1111111111111111,0,0,0.1111111111111111,37.55555555555556,0)" xlink:href="#I"/><use transform="matrix(0.1111111111111111,0,0,0.1111111111111111,59.77777777777777,0)" xlink:href="#G"/><use transform="matrix(0.1111111111111111,0,0,0.1111111111111111,93,0)" xlink:href="#s"/><use transform="matrix(0.1111111111111111,0,0,0.1111111111111111,115.22222222222224,0)" xlink:href="#R"/><use transform="matrix(0.1111111111111111,0,0,0.1111111111111111,144,0)" xlink:href="#D"/><use transform="matrix(0.1111111111111111,0,0,0.1111111111111111,166.22222222222223,0)" xlink:href="#C"/><use transform="matrix(0.1111111111111111,0,0,0.1111111111111111,179.44444444444446,0)" xlink:href="#J"/></g><g id="o"><use transform="matrix(0.1111111111111111,0,0,0.1111111111111111,0,0)" xlink:href="#E"/><use transform="matrix(0.1111111111111111,0,0,0.1111111111111111,26.666666666666664,0)" xlink:href="#C"/><use transform="matrix(0.1111111111111111,0,0,0.1111111111111111,39.888888888888886,0)" xlink:href="#D"/><use transform="matrix(0.1111111111111111,0,0,0.1111111111111111,62.11111111111111,0)" xlink:href="#B"/><use transform="matrix(0.1111111111111111,0,0,0.1111111111111111,82.11111111111111,0)" xlink:href="#v"/><use transform="matrix(0.1111111111111111,0,0,0.1111111111111111,90.88888888888889,0)" xlink:href="#G"/><use transform="matrix(0.1111111111111111,0,0,0.1111111111111111,124.1111111111111,0)" xlink:href="#I"/><use transform="matrix(0.1111111111111111,0,0,0.1111111111111111,146.33333333333334,0)" xlink:href="#P"/></g><path d="M140-251c81 0 123 46 123 126C263-46 219 4 140 4 59 4 17-45 17-125s42-126 123-126zm0 227c63 0 89-41 89-101s-29-99-89-99c-61 0-89 39-89 99S79-25 140-24" id="S"/><path d="M84 4C-5 8 30-112 23-190h32v120c0 31 7 50 39 49 72-2 45-101 50-169h31l1 190h-30c-1-10 1-25-2-33-11 22-28 36-60 37" id="T"/><g id="p"><use transform="matrix(0.1111111111111111,0,0,0.1111111111111111,0,0)" xlink:href="#S"/><use transform="matrix(0.1111111111111111,0,0,0.1111111111111111,31.11111111111111,0)" xlink:href="#T"/><use transform="matrix(0.1111111111111111,0,0,0.1111111111111111,53.33333333333333,0)" xlink:href="#u"/><use transform="matrix(0.1111111111111111,0,0,0.1111111111111111,64.44444444444444,0)" xlink:href="#w"/><use transform="matrix(0.1111111111111111,0,0,0.1111111111111111,84.44444444444444,0)" xlink:href="#D"/><use transform="matrix(0.1111111111111111,0,0,0.1111111111111111,106.66666666666666,0)" xlink:href="#G"/><use transform="matrix(0.1111111111111111,0,0,0.1111111111111111,139.88888888888889,0)" xlink:href="#s"/></g><g id="q"><use transform="matrix(0.1111111111111111,0,0,0.1111111111111111,0,0)" xlink:href="#O"/><use transform="matrix(0.1111111111111111,0,0,0.1111111111111111,28.777777777777775,0)" xlink:href="#v"/><use transform="matrix(0.1111111111111111,0,0,0.1111111111111111,37.55555555555555,0)" xlink:href="#x"/><use transform="matrix(0.1111111111111111,0,0,0.1111111111111111,57.55555555555555,0)" xlink:href="#u"/><use transform="matrix(0.1111111111111111,0,0,0.1111111111111111,68.66666666666666,0)" xlink:href="#I"/><use transform="matrix(0.1111111111111111,0,0,0.1111111111111111,90.88888888888889,0)" xlink:href="#P"/></g></defs></g></svg>