<svg xmlns="http://www.w3.org/2000/svg" xmlns:xlink="http://www.w3.org/1999/xlink" xmlns:lucid="lucid" width="1756.29" height="1272"><g transform="translate(-1.8558691413463748 -87.99870664903342)" lucid:page-tab-id="0_0"><path d="M21.86 900h1716.28v440H21.86z" stroke="#000" stroke-width="2" fill="#ffc374" fill-opacity=".72"/><use xlink:href="#a" transform="matrix(1,0,0,1,26.855869141346375,905) translate(0 414)"/><use xlink:href="#b" transform="matrix(1,0,0,1,26.855869141346375,905) translate(79.88888888888889 414)"/><use xlink:href="#c" transform="matrix(1,0,0,1,26.855869141346375,905) translate(204.22222222222223 414)"/><use xlink:href="#d" transform="matrix(1,0,0,1,26.855869141346375,905) translate(395.2222222222223 414)"/><path d="M958.16 1005.84c35.65 0 64.54 35.02 64.54 78.22 0 43.2-28.9 78.2-64.54 78.2H764.54c-35.64 0-64.54-35-64.54-78.2s28.9-78.22 64.54-78.22z" stroke="#000" stroke-width="2" fill="#b2b2b2"/><use xlink:href="#e" transform="matrix(1,0,0,1,705,1010.8433049910379) translate(62.16666666666666 57.5)"/><use xlink:href="#f" transform="matrix(1,0,0,1,705,1010.8433049910379) translate(10 105.5)"/><use xlink:href="#d" transform="matrix(1,0,0,1,705,1010.8433049910379) translate(169.7777777777778 105.5)"/><path d="M1088.83 1203.3c26.07 0 47.2 11.06 47.2 24.7 0 13.64-21.13 24.7-47.2 24.7H947.2c-26.06 0-47.2-11.06-47.2-24.7 0-13.64 21.14-24.7 47.2-24.7z" stroke="#000" stroke-width="2" fill="#b2b2b2"/><use xlink:href="#g" transform="matrix(1,0,0,1,905,1208.2956049699662) translate(72.44444444444444 32)"/><path d="M1088.83 1278.6c26.07 0 47.2 11.05 47.2 24.7 0 13.64-21.13 24.7-47.2 24.7H947.2c-26.06 0-47.2-11.06-47.2-24.7 0-13.65 21.14-24.7 47.2-24.7z" stroke="#000" stroke-width="2" fill="#b2b2b2"/><use xlink:href="#h" transform="matrix(1,0,0,1,905,1283.5912099399318) translate(72.44444444444444 32)"/><path d="M802.72 1164.27V1228H898" stroke="#000" stroke-width="2" fill="none"/><path d="M803.72 1164.3h-2v-1.03h2zM899 1228l.04 1h-1.07v-2h1.08z"/><path d="M802.72 1164.27v139.03H898" stroke="#000" stroke-width="2" fill="none"/><path d="M803.72 1164.3h-2v-1.03h2zM899 1303.3l.04 1h-1.07v-2h1.08z"/><path d="M551.32 1058.08c71.7 0 129.83 27.72 129.83 61.92s-58.12 61.92-129.83 61.92h-389.5C90.13 1181.92 32 1154.2 32 1120s58.13-61.92 129.83-61.92z" stroke="#000" stroke-width="2" fill="#c7e8ac"/><use xlink:href="#i" transform="matrix(1,0,0,1,37,1063.0783475044811) translate(3.8888888888888573 65)"/><use xlink:href="#j" transform="matrix(1,0,0,1,37,1063.0783475044811) translate(256.77777777777777 65)"/><use xlink:href="#k" transform="matrix(1,0,0,1,37,1063.0783475044811) translate(412 65)"/><use xlink:href="#l" transform="matrix(1,0,0,1,37,1063.0783475044811) translate(560.6666666666667 65)"/><path d="M1592.74 1040c74.7 0 135.26 23.73 135.26 53s-60.56 53-135.26 53h-405.77c-74.7 0-135.26-23.73-135.26-53s60.57-53 135.27-53z" stroke="#000" stroke-width="2" fill="#99d2f2"/><use xlink:href="#i" transform="matrix(1,0,0,1,1056.7117382826927,1045) translate(10.666666666666629 56)"/><use xlink:href="#j" transform="matrix(1,0,0,1,1056.7117382826927,1045) translate(263.55555555555554 56)"/><use xlink:href="#m" transform="matrix(1,0,0,1,1056.7117382826927,1045) translate(418.77777777777777 56)"/><use xlink:href="#l" transform="matrix(1,0,0,1,1056.7117382826927,1045) translate(580.8888888888889 56)"/><path d="M662.25 691v.13l.16 2.6.28 2.54.38 2.53.48 2.5.6 2.52.7 2.52.8 2.53.96 2.55 1.1 2.6 1.23 2.62 1.4 2.7 1.6 2.74 1.8 2.83 2.03 2.94 2.3 3.04 2.63 3.17 3 3.32 3.42 3.5 3.96 3.72 4.58 3.94 5.37 4.25 6.33 4.58 7.55 5 9.14 5.53 11.2 6.17 14.08 6.96 18.12 8.05 24.24 9.57 34.47 11.95 55.44 16.6 344.3 89.7 34.47 11.95 24.25 9.57 18.12 8.04 14.06 6.97 11.22 6.16 9.13 5.5 7.55 5.02 6.33 4.6 5.36 4.24 4.58 3.95 3.95 3.72 3.43 3.5 3 3.33 2.62 3.17 2.3 3.04 2.05 2.93 1.8 2.82 1.6 2.75 1.4 2.7 1.23 2.62.56 1.3" stroke="#000" stroke-width="5" fill="none"/><path d="M664.75 691.02l-5 .1-.05-2.62h5z"/><path d="M1388.24 1031.07l-7.4-13.05 9.1-1.85z" stroke="#000" stroke-width="5"/><path d="M662.25 691l.1 5.15.46 7.2.72 6.82.96 6.5 1.2 6.25 1.4 6.03 1.64 5.84 1.85 5.7 2.1 5.6 2.32 5.55 2.58 5.5 2.9 5.53 3.2 5.56 3.6 5.67 4.06 5.85 4.6 6.07 5.34 6.43 6.27 6.96 7.66 7.82 9.97 9.34 15.44 13.27 57.78 47.35 9.96 9.34 7.66 7.8 6.27 6.97 5.33 6.42 4.6 6.08 4.07 5.83 3.6 5.67 3.2 5.57 2.9 5.5 2.6 5.52 2.32 5.53 2.07 5.6 1.86 5.72 1.63 5.84 1.4 6.02 1.2 6.24.5 3.4" stroke="#000" stroke-width="5" fill="none"/><path d="M664.75 691.02l-5 .1-.05-2.62h5z"/><path d="M860.77 996.77l-5.65-13.9 9.25-.66z" stroke="#000" stroke-width="5"/><path d="M680.65 108.5c55.32 0 100.16 32.46 100.16 72.5s-44.83 72.5-100.15 72.5h-300.5C324.86 253.5 280 221.04 280 181s44.84-72.5 100.16-72.5z" stroke="#000" stroke-width="2" fill="#ff8f80"/><use xlink:href="#n" transform="matrix(1,0,0,1,279.99999999999994,108.49999998771456) translate(171.66666666666669 80.5)"/><path d="M691.2 288.75c49.5 0 89.6 16.23 89.6 36.25s-40.1 36.25-89.6 36.25H422.33c-49.5 0-89.62-16.23-89.62-36.25s40.12-36.25 89.62-36.25z" stroke="#000" stroke-width="2" fill="#ff8f80"/><use xlink:href="#o" transform="matrix(1,0,0,1,332.71685432545644,288.74870663674795) translate(121.27777777777777 44.5)"/><path d="M701.73 397.5c43.68 0 79.08 16.23 79.08 36.25S745.4 470 701.74 470H464.5c-43.66 0-79.07-16.23-79.07-36.25s35.4-36.25 79.08-36.25z" stroke="#000" stroke-width="2" fill="#ff8f80"/><use xlink:href="#p" transform="matrix(1,0,0,1,385.43370865091305,397.49870663674795) translate(44.77777777777777 44.5)"/><use xlink:href="#q" transform="matrix(1,0,0,1,385.43370865091305,397.49870663674795) translate(153.66666666666666 44.5)"/><path d="M717.55 506.25c34.94 0 63.26 16.23 63.26 36.25s-28.3 36.25-63.25 36.25H527.77c-34.94 0-63.26-16.23-63.26-36.25s28.33-36.25 63.27-36.25z" stroke="#000" stroke-width="2" fill="#ff8f80"/><use xlink:href="#r" transform="matrix(1,0,0,1,464.5089901390976,506.248706636748) translate(85.27777777777779 44.5)"/><path d="M733.36 615c26.2 0 47.45 16.23 47.45 36.25s-21.23 36.25-47.44 36.25H591.03c-26.2 0-47.45-16.23-47.45-36.25S564.83 615 591.03 615z" stroke="#000" stroke-width="2" fill="#ff8f80"/><use xlink:href="#s" transform="matrix(1,0,0,1,543.5842716272823,614.998706636748) translate(28.1111111111111 44.5)"/><path d="M530.4 257v5.9" stroke="#000" stroke-width="5" fill="none"/><path d="M532.9 257.06h-5v-2.56h5z"/><path d="M530.4 279.66l-4.63-14.27h9.27z" stroke="#000" stroke-width="5"/><path d="M556.76 364.75v6.9" stroke="#000" stroke-width="5" fill="none"/><path d="M559.26 364.8h-5v-2.55h5z"/><path d="M556.76 388.4l-4.63-14.26h9.27z" stroke="#000" stroke-width="5"/><path d="M583.12 473.5v6.9" stroke="#000" stroke-width="5" fill="none"/><path d="M585.62 473.56h-5V471h5z"/><path d="M583.12 497.16l-4.63-14.27h9.26z" stroke="#000" stroke-width="5"/><path d="M622.66 582.25v6.9" stroke="#000" stroke-width="5" fill="none"/><path d="M625.16 582.3h-5v-2.55h5z"/><path d="M622.66 605.9l-4.64-14.26h9.27z" stroke="#000" stroke-width="5"/><path d="M1401.33 108c55.3 0 100.16 32.46 100.16 72.5s-44.86 72.5-100.17 72.5h-300.5c-55.3 0-100.15-32.46-100.15-72.5s44.84-72.5 100.16-72.5z" stroke="#000" stroke-width="2" fill="#d1bcd2"/><g><use xlink:href="#t" transform="matrix(1,0,0,1,1000.6771790127598,107.99870664903342) translate(138.44444444444443 80.5)"/></g><path d="M1251.08 256.5v617.64" stroke="#000" stroke-width="5" fill="none"/><path d="M1253.58 256.57h-5V254h5z"/><path d="M1251.08 890.9l-4.63-14.26h9.27z" stroke="#000" stroke-width="5"/><path d="M662.15 691l-.1 4.32-.4 6.5-.66 6.27-.9 6.03-1.12 5.86-1.34 5.7-1.56 5.6-1.8 5.5-2.02 5.45-2.27 5.4-2.55 5.4-2.83 5.42-3.16 5.46-3.52 5.55-3.94 5.66-4.43 5.83-5 6.05-5.7 6.32-6.57 6.7-7.7 7.23-9.2 7.93-11.4 9.03-15.04 10.9-23.27 15.4-95.9 59.92-15.02 10.9-11.4 9.02-9.2 7.94-7.7 7.23-6.58 6.7-5.7 6.33-5 6.04-4.43 5.83-3.94 5.67-3.52 5.54-3.14 5.47-2.84 5.43-2.54 5.4-2.27 5.4-2.02 5.44-1.78 5.5-1.57 5.6-1.34 5.72-1.12 5.85-.13.88" stroke="#000" stroke-width="5" fill="none"/><path d="M664.64 691.12l-5-.1.06-2.52h5z"/><path d="M357.22 1049l-3.5-14.57 9.25.73z" stroke="#000" stroke-width="5"/><defs><path fill="#23373b" d="M127-220V0H93v-220H8v-28h204v28h-85" id="u"/><path fill="#23373b" d="M106-169C34-169 62-67 57 0H25v-261h32l-1 103c12-21 28-36 61-36 89 0 53 116 60 194h-32v-121c2-32-8-49-39-48" id="v"/><path fill="#23373b" d="M100-194c63 0 86 42 84 106H49c0 40 14 67 53 68 26 1 43-12 49-29l28 8c-11 28-37 45-77 45C44 4 14-33 15-96c1-61 26-98 85-98zm52 81c6-60-76-77-97-28-3 7-6 17-6 28h103" id="w"/><g id="a"><use transform="matrix(0.1111111111111111,0,0,0.1111111111111111,0,0)" xlink:href="#u"/><use transform="matrix(0.1111111111111111,0,0,0.1111111111111111,24.333333333333332,0)" xlink:href="#v"/><use transform="matrix(0.1111111111111111,0,0,0.1111111111111111,46.55555555555556,0)" xlink:href="#w"/></g><path fill="#23373b" d="M185-189c-5-48-123-54-124 2 14 75 158 14 163 119 3 78-121 87-175 55-17-10-28-26-33-46l33-7c5 56 141 63 141-1 0-78-155-14-162-118-5-82 145-84 179-34 5 7 8 16 11 25" id="x"/><path fill="#23373b" d="M59-47c-2 24 18 29 38 22v24C64 9 27 4 27-40v-127H5v-23h24l9-43h21v43h35v23H59v120" id="y"/><path fill="#23373b" d="M114-163C36-179 61-72 57 0H25l-1-190h30c1 12-1 29 2 39 6-27 23-49 58-41v29" id="z"/><path fill="#23373b" d="M135-143c-3-34-86-38-87 0 15 53 115 12 119 90S17 21 10-45l28-5c4 36 97 45 98 0-10-56-113-15-118-90-4-57 82-63 122-42 12 7 21 19 24 35" id="A"/><g id="b"><use transform="matrix(0.1111111111111111,0,0,0.1111111111111111,0,0)" xlink:href="#x"/><use transform="matrix(0.1111111111111111,0,0,0.1111111111111111,26.666666666666664,0)" xlink:href="#y"/><use transform="matrix(0.1111111111111111,0,0,0.1111111111111111,37.77777777777777,0)" xlink:href="#z"/><use transform="matrix(0.1111111111111111,0,0,0.1111111111111111,50.99999999999999,0)" xlink:href="#w"/><use transform="matrix(0.1111111111111111,0,0,0.1111111111111111,73.22222222222221,0)" xlink:href="#A"/><use transform="matrix(0.1111111111111111,0,0,0.1111111111111111,93.22222222222221,0)" xlink:href="#A"/></g><path fill="#23373b" d="M233-177c-1 41-23 64-60 70L243 0h-38l-65-103H63V0H30v-248c88 3 205-21 203 71zM63-129c60-2 137 13 137-47 0-61-80-42-137-45v92" id="B"/><path fill="#23373b" d="M115-194c55 1 70 41 70 98S169 2 115 4C84 4 66-9 55-30l1 105H24l-1-265h31l2 30c10-21 28-34 59-34zm-8 174c40 0 45-34 45-75s-6-73-45-74c-42 0-51 32-51 76 0 43 10 73 51 73" id="C"/><path fill="#23373b" d="M100-194c62-1 85 37 85 99 1 63-27 99-86 99S16-35 15-95c0-66 28-99 85-99zM99-20c44 1 53-31 53-75 0-43-8-75-51-75s-53 32-53 75 10 74 51 75" id="D"/><path fill="#23373b" d="M117-194c89-4 53 116 60 194h-32v-121c0-31-8-49-39-48C34-167 62-67 57 0H25l-1-190h30c1 10-1 24 2 32 11-22 29-35 61-36" id="E"/><g id="c"><use transform="matrix(0.1111111111111111,0,0,0.1111111111111111,0,0)" xlink:href="#B"/><use transform="matrix(0.1111111111111111,0,0,0.1111111111111111,28.777777777777775,0)" xlink:href="#w"/><use transform="matrix(0.1111111111111111,0,0,0.1111111111111111,51,0)" xlink:href="#A"/><use transform="matrix(0.1111111111111111,0,0,0.1111111111111111,71,0)" xlink:href="#C"/><use transform="matrix(0.1111111111111111,0,0,0.1111111111111111,93.22222222222223,0)" xlink:href="#D"/><use transform="matrix(0.1111111111111111,0,0,0.1111111111111111,115.44444444444446,0)" xlink:href="#E"/><use transform="matrix(0.1111111111111111,0,0,0.1111111111111111,137.66666666666669,0)" xlink:href="#A"/><use transform="matrix(0.1111111111111111,0,0,0.1111111111111111,157.66666666666669,0)" xlink:href="#w"/></g><path fill="#23373b" d="M179-190L93 31C79 59 56 82 12 73V49c39 6 53-20 64-50L1-190h34L92-34l54-156h33" id="F"/><path fill="#23373b" d="M210-169c-67 3-38 105-44 169h-31v-121c0-29-5-50-35-48C34-165 62-65 56 0H25l-1-190h30c1 10-1 24 2 32 10-44 99-50 107 0 11-21 27-35 58-36 85-2 47 119 55 194h-31v-121c0-29-5-49-35-48" id="G"/><g id="d"><use transform="matrix(0.1111111111111111,0,0,0.1111111111111111,0,0)" xlink:href="#x"/><use transform="matrix(0.1111111111111111,0,0,0.1111111111111111,26.666666666666664,0)" xlink:href="#F"/><use transform="matrix(0.1111111111111111,0,0,0.1111111111111111,46.666666666666664,0)" xlink:href="#A"/><use transform="matrix(0.1111111111111111,0,0,0.1111111111111111,66.66666666666666,0)" xlink:href="#y"/><use transform="matrix(0.1111111111111111,0,0,0.1111111111111111,77.77777777777777,0)" xlink:href="#w"/><use transform="matrix(0.1111111111111111,0,0,0.1111111111111111,100,0)" xlink:href="#G"/></g><path fill="#23373b" d="M205 0l-28-72H64L36 0H1l101-248h38L239 0h-34zm-38-99l-47-123c-12 45-31 82-46 123h93" id="H"/><path fill="#23373b" d="M84 4C-5 8 30-112 23-190h32v120c0 31 7 50 39 49 72-2 45-101 50-169h31l1 190h-30c-1-10 1-25-2-33-11 22-28 36-60 37" id="I"/><path fill="#23373b" d="M24-231v-30h32v30H24zM24 0v-190h32V0H24" id="J"/><path fill="#23373b" d="M96-169c-40 0-48 33-48 73s9 75 48 75c24 0 41-14 43-38l32 2c-6 37-31 61-74 61-59 0-76-41-82-99-10-93 101-131 147-64 4 7 5 14 7 22l-32 3c-4-21-16-35-41-35" id="K"/><g id="e"><use transform="matrix(0.1111111111111111,0,0,0.1111111111111111,0,0)" xlink:href="#H"/><use transform="matrix(0.1111111111111111,0,0,0.1111111111111111,26.666666666666664,0)" xlink:href="#I"/><use transform="matrix(0.1111111111111111,0,0,0.1111111111111111,48.888888888888886,0)" xlink:href="#y"/><use transform="matrix(0.1111111111111111,0,0,0.1111111111111111,60,0)" xlink:href="#D"/><use transform="matrix(0.1111111111111111,0,0,0.1111111111111111,82.22222222222223,0)" xlink:href="#E"/><use transform="matrix(0.1111111111111111,0,0,0.1111111111111111,104.44444444444446,0)" xlink:href="#D"/><use transform="matrix(0.1111111111111111,0,0,0.1111111111111111,126.66666666666669,0)" xlink:href="#G"/><use transform="matrix(0.1111111111111111,0,0,0.1111111111111111,159.8888888888889,0)" xlink:href="#J"/><use transform="matrix(0.1111111111111111,0,0,0.1111111111111111,168.66666666666669,0)" xlink:href="#K"/></g><path fill="#23373b" d="M190 0L58-211 59 0H30v-248h39L202-35l-2-213h31V0h-41" id="L"/><path fill="#23373b" d="M108 0H70L1-190h34L89-25l56-165h34" id="M"/><g id="f"><use transform="matrix(0.1111111111111111,0,0,0.1111111111111111,0,0)" xlink:href="#L"/><use transform="matrix(0.1111111111111111,0,0,0.1111111111111111,28.777777777777775,0)" xlink:href="#w"/><use transform="matrix(0.1111111111111111,0,0,0.1111111111111111,51,0)" xlink:href="#z"/><use transform="matrix(0.1111111111111111,0,0,0.1111111111111111,64.22222222222223,0)" xlink:href="#M"/><use transform="matrix(0.1111111111111111,0,0,0.1111111111111111,84.22222222222223,0)" xlink:href="#D"/><use transform="matrix(0.1111111111111111,0,0,0.1111111111111111,106.44444444444446,0)" xlink:href="#I"/><use transform="matrix(0.1111111111111111,0,0,0.1111111111111111,128.66666666666669,0)" xlink:href="#A"/></g><g id="g"><use transform="matrix(0.1111111111111111,0,0,0.1111111111111111,0,0)" xlink:href="#x"/><use transform="matrix(0.1111111111111111,0,0,0.1111111111111111,26.666666666666664,0)" xlink:href="#L"/><use transform="matrix(0.1111111111111111,0,0,0.1111111111111111,55.44444444444444,0)" xlink:href="#x"/></g><path fill="#23373b" d="M30-248c87 1 191-15 191 75 0 78-77 80-158 76V0H30v-248zm33 125c57 0 124 11 124-50 0-59-68-47-124-48v98" id="N"/><g id="h"><use transform="matrix(0.1111111111111111,0,0,0.1111111111111111,0,0)" xlink:href="#N"/><use transform="matrix(0.1111111111111111,0,0,0.1111111111111111,26.666666666666664,0)" xlink:href="#L"/><use transform="matrix(0.1111111111111111,0,0,0.1111111111111111,55.44444444444444,0)" xlink:href="#x"/></g><path fill="#23373b" d="M197 0v-115H63V0H30v-248h33v105h134v-105h34V0h-34" id="O"/><path fill="#23373b" d="M141-36C126-15 110 5 73 4 37 3 15-17 15-53c-1-64 63-63 125-63 3-35-9-54-41-54-24 1-41 7-42 31l-33-3c5-37 33-52 76-52 45 0 72 20 72 64v82c-1 20 7 32 28 27v20c-31 9-61-2-59-35zM48-53c0 20 12 33 32 33 41-3 63-29 60-74-43 2-92-5-92 41" id="P"/><path fill="#23373b" d="M24 0v-261h32V0H24" id="Q"/><g id="i"><use transform="matrix(0.1111111111111111,0,0,0.1111111111111111,0,0)" xlink:href="#O"/><use transform="matrix(0.1111111111111111,0,0,0.1111111111111111,28.777777777777775,0)" xlink:href="#F"/><use transform="matrix(0.1111111111111111,0,0,0.1111111111111111,48.77777777777777,0)" xlink:href="#C"/><use transform="matrix(0.1111111111111111,0,0,0.1111111111111111,71,0)" xlink:href="#D"/><use transform="matrix(0.1111111111111111,0,0,0.1111111111111111,93.22222222222223,0)" xlink:href="#y"/><use transform="matrix(0.1111111111111111,0,0,0.1111111111111111,104.33333333333334,0)" xlink:href="#v"/><use transform="matrix(0.1111111111111111,0,0,0.1111111111111111,126.55555555555557,0)" xlink:href="#P"/><use transform="matrix(0.1111111111111111,0,0,0.1111111111111111,148.7777777777778,0)" xlink:href="#Q"/><use transform="matrix(0.1111111111111111,0,0,0.1111111111111111,157.55555555555557,0)" xlink:href="#P"/><use transform="matrix(0.1111111111111111,0,0,0.1111111111111111,179.7777777777778,0)" xlink:href="#G"/><use transform="matrix(0.1111111111111111,0,0,0.1111111111111111,213.00000000000003,0)" xlink:href="#J"/><use transform="matrix(0.1111111111111111,0,0,0.1111111111111111,221.7777777777778,0)" xlink:href="#K"/></g><g id="j"><use transform="matrix(0.1111111111111111,0,0,0.1111111111111111,0,0)" xlink:href="#N"/><use transform="matrix(0.1111111111111111,0,0,0.1111111111111111,26.666666666666664,0)" xlink:href="#J"/><use transform="matrix(0.1111111111111111,0,0,0.1111111111111111,35.44444444444444,0)" xlink:href="#y"/><use transform="matrix(0.1111111111111111,0,0,0.1111111111111111,46.55555555555556,0)" xlink:href="#I"/><use transform="matrix(0.1111111111111111,0,0,0.1111111111111111,68.77777777777777,0)" xlink:href="#J"/><use transform="matrix(0.1111111111111111,0,0,0.1111111111111111,77.55555555555554,0)" xlink:href="#y"/><use transform="matrix(0.1111111111111111,0,0,0.1111111111111111,88.66666666666666,0)" xlink:href="#P"/><use transform="matrix(0.1111111111111111,0,0,0.1111111111111111,110.88888888888889,0)" xlink:href="#z"/><use transform="matrix(0.1111111111111111,0,0,0.1111111111111111,124.1111111111111,0)" xlink:href="#F"/></g><path fill="#23373b" d="M85-194c31 0 48 13 60 33l-1-100h32l1 261h-30c-2-10 0-23-3-31C134-8 116 4 85 4 32 4 16-35 15-94c0-66 23-100 70-100zm9 24c-40 0-46 34-46 75 0 40 6 74 45 74 42 0 51-32 51-76 0-42-9-74-50-73" id="R"/><g id="k"><use transform="matrix(0.1111111111111111,0,0,0.1111111111111111,0,0)" xlink:href="#H"/><use transform="matrix(0.1111111111111111,0,0,0.1111111111111111,26.666666666666664,0)" xlink:href="#R"/><use transform="matrix(0.1111111111111111,0,0,0.1111111111111111,48.888888888888886,0)" xlink:href="#z"/><use transform="matrix(0.1111111111111111,0,0,0.1111111111111111,62.11111111111111,0)" xlink:href="#w"/><use transform="matrix(0.1111111111111111,0,0,0.1111111111111111,84.33333333333333,0)" xlink:href="#E"/><use transform="matrix(0.1111111111111111,0,0,0.1111111111111111,106.55555555555554,0)" xlink:href="#P"/><use transform="matrix(0.1111111111111111,0,0,0.1111111111111111,128.77777777777777,0)" xlink:href="#Q"/></g><path fill="#23373b" d="M141 0L90-78 38 0H4l68-98-65-92h35l48 74 47-74h35l-64 92 68 98h-35" id="S"/><g id="l"><use transform="matrix(0.1111111111111111,0,0,0.1111111111111111,0,0)" xlink:href="#H"/><use transform="matrix(0.1111111111111111,0,0,0.1111111111111111,26.666666666666664,0)" xlink:href="#S"/><use transform="matrix(0.1111111111111111,0,0,0.1111111111111111,46.666666666666664,0)" xlink:href="#J"/><use transform="matrix(0.1111111111111111,0,0,0.1111111111111111,55.44444444444444,0)" xlink:href="#A"/></g><path fill="#23373b" d="M143 4C61 4 22-44 18-125c-5-107 100-154 193-111 17 8 29 25 37 43l-32 9c-13-25-37-40-76-40-61 0-88 39-88 99 0 61 29 100 91 101 35 0 62-11 79-27v-45h-74v-28h105v86C228-13 192 4 143 4" id="T"/><g id="m"><use transform="matrix(0.1111111111111111,0,0,0.1111111111111111,0,0)" xlink:href="#T"/><use transform="matrix(0.1111111111111111,0,0,0.1111111111111111,31.11111111111111,0)" xlink:href="#D"/><use transform="matrix(0.1111111111111111,0,0,0.1111111111111111,53.33333333333333,0)" xlink:href="#E"/><use transform="matrix(0.1111111111111111,0,0,0.1111111111111111,75.55555555555554,0)" xlink:href="#P"/><use transform="matrix(0.1111111111111111,0,0,0.1111111111111111,97.77777777777777,0)" xlink:href="#R"/><use transform="matrix(0.1111111111111111,0,0,0.1111111111111111,120,0)" xlink:href="#P"/><use transform="matrix(0.1111111111111111,0,0,0.1111111111111111,142.22222222222223,0)" xlink:href="#Q"/></g><path d="M143 4C61 4 22-44 18-125c-5-107 100-154 193-111 17 8 29 25 37 43l-32 9c-13-25-37-40-76-40-61 0-88 39-88 99 0 61 29 100 91 101 35 0 62-11 79-27v-45h-74v-28h105v86C228-13 192 4 143 4" id="U"/><path d="M100-194c63 0 86 42 84 106H49c0 40 14 67 53 68 26 1 43-12 49-29l28 8c-11 28-37 45-77 45C44 4 14-33 15-96c1-61 26-98 85-98zm52 81c6-60-76-77-97-28-3 7-6 17-6 28h103" id="V"/><path d="M117-194c89-4 53 116 60 194h-32v-121c0-31-8-49-39-48C34-167 62-67 57 0H25l-1-190h30c1 10-1 24 2 32 11-22 29-35 61-36" id="W"/><path d="M59-47c-2 24 18 29 38 22v24C64 9 27 4 27-40v-127H5v-23h24l9-43h21v43h35v23H59v120" id="X"/><path d="M24-231v-30h32v30H24zM24 0v-190h32V0H24" id="Y"/><path d="M96-169c-40 0-48 33-48 73s9 75 48 75c24 0 41-14 43-38l32 2c-6 37-31 61-74 61-59 0-76-41-82-99-10-93 101-131 147-64 4 7 5 14 7 22l-32 3c-4-21-16-35-41-35" id="Z"/><path d="M135-143c-3-34-86-38-87 0 15 53 115 12 119 90S17 21 10-45l28-5c4 36 97 45 98 0-10-56-113-15-118-90-4-57 82-63 122-42 12 7 21 19 24 35" id="aa"/><g id="n"><use transform="matrix(0.1111111111111111,0,0,0.1111111111111111,0,0)" xlink:href="#U"/><use transform="matrix(0.1111111111111111,0,0,0.1111111111111111,31.11111111111111,0)" xlink:href="#V"/><use transform="matrix(0.1111111111111111,0,0,0.1111111111111111,53.33333333333333,0)" xlink:href="#W"/><use transform="matrix(0.1111111111111111,0,0,0.1111111111111111,75.55555555555554,0)" xlink:href="#V"/><use transform="matrix(0.1111111111111111,0,0,0.1111111111111111,97.77777777777777,0)" xlink:href="#X"/><use transform="matrix(0.1111111111111111,0,0,0.1111111111111111,108.88888888888889,0)" xlink:href="#Y"/><use transform="matrix(0.1111111111111111,0,0,0.1111111111111111,117.66666666666666,0)" xlink:href="#Z"/><use transform="matrix(0.1111111111111111,0,0,0.1111111111111111,137.66666666666666,0)" xlink:href="#aa"/></g><path d="M30 0v-248h187v28H63v79h144v27H63v87h162V0H30" id="ab"/><path d="M115-194c55 1 70 41 70 98S169 2 115 4C84 4 66-9 55-30l1 105H24l-1-265h31l2 30c10-21 28-34 59-34zm-8 174c40 0 45-34 45-75s-6-73-45-74c-42 0-51 32-51 76 0 43 10 73 51 73" id="ac"/><path d="M177-190C167-65 218 103 67 71c-23-6-38-20-44-43l32-5c15 47 100 32 89-28v-30C133-14 115 1 83 1 29 1 15-40 15-95c0-56 16-97 71-98 29-1 48 16 59 35 1-10 0-23 2-32h30zM94-22c36 0 50-32 50-73 0-42-14-75-50-75-39 0-46 34-46 75s6 73 46 73" id="ad"/><g id="o"><use transform="matrix(0.1111111111111111,0,0,0.1111111111111111,0,0)" xlink:href="#ab"/><use transform="matrix(0.1111111111111111,0,0,0.1111111111111111,26.666666666666664,0)" xlink:href="#ac"/><use transform="matrix(0.1111111111111111,0,0,0.1111111111111111,48.888888888888886,0)" xlink:href="#Y"/><use transform="matrix(0.1111111111111111,0,0,0.1111111111111111,57.666666666666664,0)" xlink:href="#ad"/><use transform="matrix(0.1111111111111111,0,0,0.1111111111111111,79.88888888888889,0)" xlink:href="#V"/><use transform="matrix(0.1111111111111111,0,0,0.1111111111111111,102.11111111111111,0)" xlink:href="#W"/><use transform="matrix(0.1111111111111111,0,0,0.1111111111111111,124.33333333333336,0)" xlink:href="#V"/><use transform="matrix(0.1111111111111111,0,0,0.1111111111111111,146.55555555555557,0)" xlink:href="#X"/><use transform="matrix(0.1111111111111111,0,0,0.1111111111111111,157.66666666666669,0)" xlink:href="#Y"/><use transform="matrix(0.1111111111111111,0,0,0.1111111111111111,166.44444444444446,0)" xlink:href="#Z"/><use transform="matrix(0.1111111111111111,0,0,0.1111111111111111,186.44444444444446,0)" xlink:href="#aa"/></g><g id="p"><use transform="matrix(0.1111111111111111,0,0,0.1111111111111111,0,0)" xlink:href="#U"/><use transform="matrix(0.1111111111111111,0,0,0.1111111111111111,31.11111111111111,0)" xlink:href="#V"/><use transform="matrix(0.1111111111111111,0,0,0.1111111111111111,53.33333333333333,0)" xlink:href="#W"/><use transform="matrix(0.1111111111111111,0,0,0.1111111111111111,75.55555555555554,0)" xlink:href="#V"/></g><path d="M141 0L90-78 38 0H4l68-98-65-92h35l48 74 47-74h35l-64 92 68 98h-35" id="ae"/><path d="M114-163C36-179 61-72 57 0H25l-1-190h30c1 12-1 29 2 39 6-27 23-49 58-41v29" id="af"/><path d="M100-194c62-1 85 37 85 99 1 63-27 99-86 99S16-35 15-95c0-66 28-99 85-99zM99-20c44 1 53-31 53-75 0-43-8-75-51-75s-53 32-53 75 10 74 51 75" id="ag"/><g id="q"><use transform="matrix(0.1111111111111111,0,0,0.1111111111111111,0,0)" xlink:href="#ab"/><use transform="matrix(0.1111111111111111,0,0,0.1111111111111111,26.666666666666664,0)" xlink:href="#ae"/><use transform="matrix(0.1111111111111111,0,0,0.1111111111111111,46.666666666666664,0)" xlink:href="#ac"/><use transform="matrix(0.1111111111111111,0,0,0.1111111111111111,68.88888888888889,0)" xlink:href="#af"/><use transform="matrix(0.1111111111111111,0,0,0.1111111111111111,82.11111111111111,0)" xlink:href="#V"/><use transform="matrix(0.1111111111111111,0,0,0.1111111111111111,104.33333333333334,0)" xlink:href="#aa"/><use transform="matrix(0.1111111111111111,0,0,0.1111111111111111,124.33333333333336,0)" xlink:href="#aa"/><use transform="matrix(0.1111111111111111,0,0,0.1111111111111111,144.33333333333334,0)" xlink:href="#Y"/><use transform="matrix(0.1111111111111111,0,0,0.1111111111111111,153.11111111111111,0)" xlink:href="#ag"/><use transform="matrix(0.1111111111111111,0,0,0.1111111111111111,175.33333333333334,0)" xlink:href="#W"/></g><path d="M30-248c87 1 191-15 191 75 0 78-77 80-158 76V0H30v-248zm33 125c57 0 124 11 124-50 0-59-68-47-124-48v98" id="ah"/><g id="r"><use transform="matrix(0.1111111111111111,0,0,0.1111111111111111,0,0)" xlink:href="#ah"/><use transform="matrix(0.1111111111111111,0,0,0.1111111111111111,26.666666666666664,0)" xlink:href="#af"/><use transform="matrix(0.1111111111111111,0,0,0.1111111111111111,39.888888888888886,0)" xlink:href="#ag"/><use transform="matrix(0.1111111111111111,0,0,0.1111111111111111,62.11111111111111,0)" xlink:href="#X"/><use transform="matrix(0.1111111111111111,0,0,0.1111111111111111,73.22222222222221,0)" xlink:href="#V"/><use transform="matrix(0.1111111111111111,0,0,0.1111111111111111,95.44444444444443,0)" xlink:href="#Y"/><use transform="matrix(0.1111111111111111,0,0,0.1111111111111111,104.2222222222222,0)" xlink:href="#W"/><use transform="matrix(0.1111111111111111,0,0,0.1111111111111111,126.44444444444444,0)" xlink:href="#aa"/></g><path d="M160-131c35 5 61 23 61 61C221 17 115-2 30 0v-248c76 3 177-17 177 60 0 33-19 50-47 57zm-97-11c50-1 110 9 110-42 0-47-63-36-110-37v79zm0 115c55-2 124 14 124-45 0-56-70-42-124-44v89" id="ai"/><path d="M210-169c-67 3-38 105-44 169h-31v-121c0-29-5-50-35-48C34-165 62-65 56 0H25l-1-190h30c1 10-1 24 2 32 10-44 99-50 107 0 11-21 27-35 58-36 85-2 47 119 55 194h-31v-121c0-29-5-49-35-48" id="aj"/><path d="M141-36C126-15 110 5 73 4 37 3 15-17 15-53c-1-64 63-63 125-63 3-35-9-54-41-54-24 1-41 7-42 31l-33-3c5-37 33-52 76-52 45 0 72 20 72 64v82c-1 20 7 32 28 27v20c-31 9-61-2-59-35zM48-53c0 20 12 33 32 33 41-3 63-29 60-74-43 2-92-5-92 41" id="ak"/><path d="M143 0L79-87 56-68V0H24v-261h32v163l83-92h37l-77 82L181 0h-38" id="al"/><g id="s"><use transform="matrix(0.1111111111111111,0,0,0.1111111111111111,0,0)" xlink:href="#ai"/><use transform="matrix(0.1111111111111111,0,0,0.1111111111111111,26.666666666666664,0)" xlink:href="#Y"/><use transform="matrix(0.1111111111111111,0,0,0.1111111111111111,35.44444444444444,0)" xlink:href="#ag"/><use transform="matrix(0.1111111111111111,0,0,0.1111111111111111,57.666666666666664,0)" xlink:href="#aj"/><use transform="matrix(0.1111111111111111,0,0,0.1111111111111111,90.88888888888889,0)" xlink:href="#ak"/><use transform="matrix(0.1111111111111111,0,0,0.1111111111111111,113.11111111111111,0)" xlink:href="#af"/><use transform="matrix(0.1111111111111111,0,0,0.1111111111111111,126.33333333333336,0)" xlink:href="#al"/><use transform="matrix(0.1111111111111111,0,0,0.1111111111111111,146.33333333333334,0)" xlink:href="#V"/><use transform="matrix(0.1111111111111111,0,0,0.1111111111111111,168.55555555555557,0)" xlink:href="#af"/></g><path d="M108 0H70L1-190h34L89-25l56-165h34" id="am"/><g id="t"><use transform="matrix(0.1111111111111111,0,0,0.1111111111111111,0,0)" xlink:href="#ab"/><use transform="matrix(0.1111111111111111,0,0,0.1111111111111111,26.666666666666664,0)" xlink:href="#W"/><use transform="matrix(0.1111111111111111,0,0,0.1111111111111111,48.888888888888886,0)" xlink:href="#am"/><use transform="matrix(0.1111111111111111,0,0,0.1111111111111111,68.88888888888889,0)" xlink:href="#Y"/><use transform="matrix(0.1111111111111111,0,0,0.1111111111111111,77.66666666666666,0)" xlink:href="#af"/><use transform="matrix(0.1111111111111111,0,0,0.1111111111111111,90.88888888888889,0)" xlink:href="#ag"/><use transform="matrix(0.1111111111111111,0,0,0.1111111111111111,113.11111111111111,0)" xlink:href="#W"/><use transform="matrix(0.1111111111111111,0,0,0.1111111111111111,135.33333333333334,0)" xlink:href="#aj"/><use transform="matrix(0.1111111111111111,0,0,0.1111111111111111,168.55555555555557,0)" xlink:href="#V"/><use transform="matrix(0.1111111111111111,0,0,0.1111111111111111,190.7777777777778,0)" xlink:href="#W"/><use transform="matrix(0.1111111111111111,0,0,0.1111111111111111,213.00000000000003,0)" xlink:href="#X"/></g></defs></g></svg>