<svg xmlns="http://www.w3.org/2000/svg" xmlns:xlink="http://www.w3.org/1999/xlink" xmlns:lucid="lucid" width="760" height="1099"><g transform="translate(-60 -101)" lucid:page-tab-id="0_0"><path d="M255.34 184v-58c0-2.76 2.24-5 5-5h357.42c2.77 0 5 2.24 5 5v58" fill="#fff"/><path d="M255.34 184v-58c0-2.76 2.24-5 5-5h357.42c2.77 0 5 2.24 5 5v58M255.34 184v991c0 2.76 2.24 5 5 5h357.42c2.77 0 5-2.24 5-5V184M255.34 184h367.42" stroke="#3d4752" stroke-width="6" fill="none"/><use xlink:href="#a" transform="matrix(1,0,0,1,255.34246575342465,121) translate(108.66666666666666 39.5)"/><path d="M439.05 268.6v789.73" stroke="#999" stroke-width="10" fill="none"/><path d="M444.05 268.73h-10v-5.13h10z" fill="#999"/><path d="M439.05 1077.6l-4.63-14.27h9.27z" stroke="#999" stroke-width="10" fill="#999"/><path d="M255.34 184v-58c0-2.76 2.24-5 5-5h357.42c2.77 0 5 2.24 5 5v58" fill="#fff"/><path d="M255.34 184v-58c0-2.76 2.24-5 5-5h357.42c2.77 0 5 2.24 5 5v58M255.34 184v991c0 2.76 2.24 5 5 5h357.42c2.77 0 5-2.24 5-5V184M255.34 184h367.42" stroke="#3d4752" stroke-width="6" fill="none"/><use xlink:href="#b" transform="matrix(1,0,0,1,255.34246575342465,121) translate(8.722222222222229 39.5)"/><use xlink:href="#c" transform="matrix(1,0,0,1,255.34246575342465,121) translate(194.94444444444446 39.5)"/><path d="M80 330.8c0-2.77 2.24-5 5-5h311.5c2.76 0 5 2.23 5 5v44.93c0 2.76-2.24 5-5 5H85c-2.76 0-5-2.24-5-5z" stroke="#3d4752" stroke-width="2" fill="#3d4752"/><use xlink:href="#d" transform="matrix(1,0,0,1,85,330.7889366115734) translate(90.16666666666667 32)"/><path d="M80 395.46c0-2.76 2.24-5 5-5h311.5c2.76 0 5 2.24 5 5v44.94c0 2.76-2.24 5-5 5H85c-2.76 0-5-2.24-5-5z" stroke="#3d4752" stroke-width="2" fill="#3d4752"/><use xlink:href="#e" transform="matrix(1,0,0,1,85,395.45647314602013) translate(113.88888888888889 32)"/><path d="M80 614.88c0-2.76 2.24-5 5-5h311.5c2.76 0 5 2.24 5 5v44.94c0 2.76-2.24 5-5 5H85c-2.76 0-5-2.24-5-5z" stroke="#3d4752" stroke-width="2" fill="#3d4752"/><use xlink:href="#f" transform="matrix(1,0,0,1,85,614.8839261731601) translate(101.55555555555556 32)"/><path d="M80 795.07c0-2.76 2.24-5 5-5h311.5c2.76 0 5 2.24 5 5V840c0 2.77-2.24 5-5 5H85c-2.76 0-5-2.23-5-5z" stroke="#3d4752" stroke-width="2" fill="#3d4752"/><use xlink:href="#g" transform="matrix(1,0,0,1,85,795.0686860896527) translate(97.27777777777777 32)"/><path d="M80 971.94c0-2.76 2.24-5 5-5h311.5c2.76 0 5 2.24 5 5v44.94c0 2.76-2.24 5-5 5H85c-2.76 0-5-2.24-5-5z" stroke="#3d4752" stroke-width="2" fill="#3d4752"/><use xlink:href="#h" transform="matrix(1,0,0,1,85,971.9371620813017) translate(82.77777777777777 32)"/><path d="M301.27 202.27c0-2.76 2.24-5 5-5h265.57c2.76 0 5 2.24 5 5v56.33c0 2.76-2.24 5-5 5H306.27c-2.76 0-5-2.24-5-5z" stroke="#000" stroke-opacity="0" stroke-width="2" fill="#fff" fill-opacity="0"/><use xlink:href="#i" transform="matrix(1,0,0,1,306.2702366127024,202.27453027139876) translate(103.05555555555556 36.5)"/><path d="M301.27 1098.78c0-2.76 2.24-5 5-5h265.57c2.76 0 5 2.24 5 5v56.32c0 2.76-2.24 5-5 5H306.27c-2.76 0-5-2.24-5-5z" stroke="#000" stroke-opacity="0" stroke-width="2" fill="#fff" fill-opacity="0"/><use xlink:href="#j" transform="matrix(1,0,0,1,306.2702366127024,1098.776617954071) translate(103.05555555555556 36.5)"/><path d="M478.5 330.8c0-2.77 2.24-5 5-5H795c2.76 0 5 2.23 5 5v44.93c0 2.76-2.24 5-5 5H483.5c-2.76 0-5-2.24-5-5z" stroke="#3d4752" stroke-width="2" fill="#3d4752"/><use xlink:href="#k" transform="matrix(1,0,0,1,483.50560398505604,330.7889366115734) translate(90.16666666666667 32)"/><path d="M478.5 395.46c0-2.76 2.24-5 5-5H795c2.76 0 5 2.24 5 5v44.94c0 2.76-2.24 5-5 5H483.5c-2.76 0-5-2.24-5-5z" stroke="#3d4752" stroke-width="2" fill="#3d4752"/><use xlink:href="#l" transform="matrix(1,0,0,1,483.50560398505604,395.45647314602013) translate(113.88888888888889 32)"/><path d="M478.5 614.88c0-2.76 2.24-5 5-5H795c2.76 0 5 2.24 5 5v44.94c0 2.76-2.24 5-5 5H483.5c-2.76 0-5-2.24-5-5z" stroke="#3d4752" stroke-width="2" fill="#3d4752"/><use xlink:href="#m" transform="matrix(1,0,0,1,483.50560398505604,614.8839261731601) translate(101.55555555555556 32)"/><path d="M478.5 795.07c0-2.76 2.24-5 5-5H795c2.76 0 5 2.24 5 5V840c0 2.77-2.24 5-5 5H483.5c-2.76 0-5-2.23-5-5z" stroke="#3d4752" stroke-width="2" fill="#3d4752"/><use xlink:href="#n" transform="matrix(1,0,0,1,483.50560398505604,795.0686860896527) translate(97.27777777777777 32)"/><path d="M478.5 971.94c0-2.76 2.24-5 5-5H795c2.76 0 5 2.24 5 5v44.94c0 2.76-2.24 5-5 5H483.5c-2.76 0-5-2.24-5-5z" stroke="#3d4752" stroke-width="2" fill="#3d4752"/><use xlink:href="#o" transform="matrix(1,0,0,1,483.50560398505604,971.9371620813017) translate(82.77777777777777 32)"/><path d="M80 238.72c0-2.76 2.24-5 5-5h311.5c2.76 0 5 2.24 5 5v44.94c0 2.76-2.24 5-5 5H85c-2.76 0-5-2.24-5-5z" stroke="#3d4752" stroke-width="2" fill="#fff"/><use xlink:href="#p" transform="matrix(1,0,0,1,85,238.7200357781753) translate(79.5 32)"/><path d="M478.5 238.72c0-2.76 2.24-5 5-5H795c2.76 0 5 2.24 5 5v44.94c0 2.76-2.24 5-5 5H483.5c-2.76 0-5-2.24-5-5z" stroke="#3d4752" stroke-width="2" fill="#fff"/><use xlink:href="#q" transform="matrix(1,0,0,1,483.50560398505604,238.7200357781753) translate(102.77777777777779 32)"/><defs><path fill="#ef8d22" d="M67-125c0 53 21 87 73 88 37 1 54-22 65-47l45 17C233-25 199 4 140 4 58 4 20-42 15-125 8-235 124-281 211-232c18 10 29 29 36 50l-46 12c-8-25-30-41-62-41-52 0-71 34-72 86" id="r"/><path fill="#ef8d22" d="M110-194c64 0 96 36 96 99 0 64-35 99-97 99-61 0-95-36-95-99 0-62 34-99 96-99zm-1 164c35 0 45-28 45-65 0-40-10-65-43-65-34 0-45 26-45 65 0 36 10 65 43 65" id="s"/><path fill="#ef8d22" d="M135-150c-39-12-60 13-60 57V0H25l-1-190h47c2 13-1 29 3 40 6-28 27-53 61-41v41" id="t"/><path fill="#ef8d22" d="M115-3C79 11 28 4 28-45v-112H4v-33h27l15-45h31v45h36v33H77v99c-1 23 16 31 38 25v30" id="u"/><path fill="#ef8d22" d="M25-224v-37h50v37H25zM25 0v-190h50V0H25" id="v"/><path fill="#ef8d22" d="M137-138c1-29-70-34-71-4 15 46 118 7 119 86 1 83-164 76-172 9l43-7c4 19 20 25 44 25 33 8 57-30 24-41C81-84 22-81 20-136c-2-80 154-74 161-7" id="w"/><path fill="#ef8d22" d="M25 0v-261h50V0H25" id="x"/><g id="a"><use transform="matrix(0.1111111111111111,0,0,0.1111111111111111,0,0)" xlink:href="#r"/><use transform="matrix(0.1111111111111111,0,0,0.1111111111111111,28.777777777777775,0)" xlink:href="#s"/><use transform="matrix(0.1111111111111111,0,0,0.1111111111111111,53.11111111111111,0)" xlink:href="#t"/><use transform="matrix(0.1111111111111111,0,0,0.1111111111111111,68.66666666666666,0)" xlink:href="#u"/><use transform="matrix(0.1111111111111111,0,0,0.1111111111111111,81.88888888888889,0)" xlink:href="#v"/><use transform="matrix(0.1111111111111111,0,0,0.1111111111111111,93,0)" xlink:href="#w"/><use transform="matrix(0.1111111111111111,0,0,0.1111111111111111,115.22222222222224,0)" xlink:href="#s"/><use transform="matrix(0.1111111111111111,0,0,0.1111111111111111,139.55555555555557,0)" xlink:href="#x"/></g><path fill="#ef8d22" d="M186 0v-106H76V0H24v-248h52v99h110v-99h50V0h-50" id="y"/><path fill="#ef8d22" d="M220-157c-53 9-28 100-34 157h-49v-107c1-27-5-49-29-50C55-147 81-57 75 0H25l-1-190h47c2 12-1 28 3 38 10-53 101-56 108 0 13-22 24-43 59-42 82 1 51 116 57 194h-49v-107c-1-25-5-48-29-50" id="z"/><path fill="#ef8d22" d="M135-194c87-1 58 113 63 194h-50c-7-57 23-157-34-157-59 0-34 97-39 157H25l-1-190h47c2 12-1 28 3 38 12-26 28-41 61-42" id="A"/><path fill="#ef8d22" d="M185-48c-13 30-37 53-82 52C43 2 14-33 14-96s30-98 90-98c62 0 83 45 84 108H66c0 31 8 55 39 56 18 0 30-7 34-22zm-45-69c5-46-57-63-70-21-2 6-4 13-4 21h74" id="B"/><g id="b"><use transform="matrix(0.1111111111111111,0,0,0.1111111111111111,0,0)" xlink:href="#y"/><use transform="matrix(0.1111111111111111,0,0,0.1111111111111111,28.777777777777775,0)" xlink:href="#s"/><use transform="matrix(0.1111111111111111,0,0,0.1111111111111111,53.11111111111111,0)" xlink:href="#t"/><use transform="matrix(0.1111111111111111,0,0,0.1111111111111111,68.66666666666666,0)" xlink:href="#z"/><use transform="matrix(0.1111111111111111,0,0,0.1111111111111111,104.22222222222221,0)" xlink:href="#s"/><use transform="matrix(0.1111111111111111,0,0,0.1111111111111111,128.55555555555554,0)" xlink:href="#A"/><use transform="matrix(0.1111111111111111,0,0,0.1111111111111111,152.88888888888889,0)" xlink:href="#B"/></g><path fill="#ef8d22" d="M169-182c-1-43-94-46-97-3 18 66 151 10 154 114 3 95-165 93-204 36-6-8-10-19-12-30l50-8c3 46 112 56 116 5-17-69-150-10-154-114-4-87 153-88 188-35 5 8 8 18 10 28" id="C"/><path fill="#ef8d22" d="M133-34C117-15 103 5 69 4 32 3 11-16 11-54c-1-60 55-63 116-61 1-26-3-47-28-47-18 1-26 9-28 27l-52-2c7-38 36-58 82-57s74 22 75 68l1 82c-1 14 12 18 25 15v27c-30 8-71 5-69-32zm-48 3c29 0 43-24 42-57-32 0-66-3-65 30 0 17 8 27 23 27" id="D"/><path fill="#ef8d22" d="M135-194c53 0 70 44 70 98 0 56-19 98-73 100-31 1-45-17-59-34 3 33 2 69 2 105H25l-1-265h48c2 10 0 23 3 31 11-24 29-35 60-35zM114-30c33 0 39-31 40-66 0-38-9-64-40-64-56 0-55 130 0 130" id="E"/><g id="c"><use transform="matrix(0.1111111111111111,0,0,0.1111111111111111,0,0)" xlink:href="#C"/><use transform="matrix(0.1111111111111111,0,0,0.1111111111111111,26.666666666666664,0)" xlink:href="#D"/><use transform="matrix(0.1111111111111111,0,0,0.1111111111111111,48.888888888888886,0)" xlink:href="#z"/><use transform="matrix(0.1111111111111111,0,0,0.1111111111111111,84.44444444444444,0)" xlink:href="#E"/><use transform="matrix(0.1111111111111111,0,0,0.1111111111111111,108.77777777777777,0)" xlink:href="#x"/><use transform="matrix(0.1111111111111111,0,0,0.1111111111111111,119.88888888888889,0)" xlink:href="#B"/><use transform="matrix(0.1111111111111111,0,0,0.1111111111111111,142.11111111111111,0)" xlink:href="#w"/></g><path fill="#ef8d22" d="M266 0h-40l-56-210L115 0H75L2-248h35L96-30l15-64 43-154h32l59 218 59-218h35" id="F"/><path fill="#ef8d22" d="M141-36C126-15 110 5 73 4 37 3 15-17 15-53c-1-64 63-63 125-63 3-35-9-54-41-54-24 1-41 7-42 31l-33-3c5-37 33-52 76-52 45 0 72 20 72 64v82c-1 20 7 32 28 27v20c-31 9-61-2-59-35zM48-53c0 20 12 33 32 33 41-3 63-29 60-74-43 2-92-5-92 41" id="G"/><path fill="#ef8d22" d="M143 0L79-87 56-68V0H24v-261h32v163l83-92h37l-77 82L181 0h-38" id="H"/><path fill="#ef8d22" d="M24-231v-30h32v30H24zM24 0v-190h32V0H24" id="I"/><path fill="#ef8d22" d="M117-194c89-4 53 116 60 194h-32v-121c0-31-8-49-39-48C34-167 62-67 57 0H25l-1-190h30c1 10-1 24 2 32 11-22 29-35 61-36" id="J"/><path fill="#ef8d22" d="M177-190C167-65 218 103 67 71c-23-6-38-20-44-43l32-5c15 47 100 32 89-28v-30C133-14 115 1 83 1 29 1 15-40 15-95c0-56 16-97 71-98 29-1 48 16 59 35 1-10 0-23 2-32h30zM94-22c36 0 50-32 50-73 0-42-14-75-50-75-39 0-46 34-46 75s6 73 46 73" id="K"/><g id="d"><use transform="matrix(0.1111111111111111,0,0,0.1111111111111111,0,0)" xlink:href="#F"/><use transform="matrix(0.1111111111111111,0,0,0.1111111111111111,36.22222222222222,0)" xlink:href="#G"/><use transform="matrix(0.1111111111111111,0,0,0.1111111111111111,58.44444444444444,0)" xlink:href="#H"/><use transform="matrix(0.1111111111111111,0,0,0.1111111111111111,78.44444444444444,0)" xlink:href="#I"/><use transform="matrix(0.1111111111111111,0,0,0.1111111111111111,87.22222222222221,0)" xlink:href="#J"/><use transform="matrix(0.1111111111111111,0,0,0.1111111111111111,109.44444444444443,0)" xlink:href="#K"/></g><path fill="#ef8d22" d="M212-179c-10-28-35-45-73-45-59 0-87 40-87 99 0 60 29 101 89 101 43 0 62-24 78-52l27 14C228-24 195 4 139 4 59 4 22-46 18-125c-6-104 99-153 187-111 19 9 31 26 39 46" id="L"/><path fill="#ef8d22" d="M205 0l-28-72H64L36 0H1l101-248h38L239 0h-34zm-38-99l-47-123c-12 45-31 82-46 123h93" id="M"/><path fill="#ef8d22" d="M233-177c-1 41-23 64-60 70L243 0h-38l-65-103H63V0H30v-248c88 3 205-21 203 71zM63-129c60-2 137 13 137-47 0-61-80-42-137-45v92" id="N"/><g id="e"><use transform="matrix(0.1111111111111111,0,0,0.1111111111111111,0,0)" xlink:href="#L"/><use transform="matrix(0.1111111111111111,0,0,0.1111111111111111,28.777777777777775,0)" xlink:href="#M"/><use transform="matrix(0.1111111111111111,0,0,0.1111111111111111,55.44444444444444,0)" xlink:href="#N"/></g><path fill="#ef8d22" d="M30 0v-248h33v221h125V0H30" id="O"/><path fill="#ef8d22" d="M84 4C-5 8 30-112 23-190h32v120c0 31 7 50 39 49 72-2 45-101 50-169h31l1 190h-30c-1-10 1-25-2-33-11 22-28 36-60 37" id="P"/><path fill="#ef8d22" d="M96-169c-40 0-48 33-48 73s9 75 48 75c24 0 41-14 43-38l32 2c-6 37-31 61-74 61-59 0-76-41-82-99-10-93 101-131 147-64 4 7 5 14 7 22l-32 3c-4-21-16-35-41-35" id="Q"/><path fill="#ef8d22" d="M106-169C34-169 62-67 57 0H25v-261h32l-1 103c12-21 28-36 61-36 89 0 53 116 60 194h-32v-121c2-32-8-49-39-48" id="R"/><g id="f"><use transform="matrix(0.1111111111111111,0,0,0.1111111111111111,0,0)" xlink:href="#O"/><use transform="matrix(0.1111111111111111,0,0,0.1111111111111111,22.22222222222222,0)" xlink:href="#P"/><use transform="matrix(0.1111111111111111,0,0,0.1111111111111111,44.44444444444444,0)" xlink:href="#J"/><use transform="matrix(0.1111111111111111,0,0,0.1111111111111111,66.66666666666666,0)" xlink:href="#Q"/><use transform="matrix(0.1111111111111111,0,0,0.1111111111111111,86.66666666666666,0)" xlink:href="#R"/></g><path fill="#ef8d22" d="M30-248c118-7 216 8 213 122C240-48 200 0 122 0H30v-248zM63-27c89 8 146-16 146-99s-60-101-146-95v194" id="S"/><path fill="#ef8d22" d="M100-194c63 0 86 42 84 106H49c0 40 14 67 53 68 26 1 43-12 49-29l28 8c-11 28-37 45-77 45C44 4 14-33 15-96c1-61 26-98 85-98zm52 81c6-60-76-77-97-28-3 7-6 17-6 28h103" id="T"/><path fill="#ef8d22" d="M114-163C36-179 61-72 57 0H25l-1-190h30c1 12-1 29 2 39 6-27 23-49 58-41v29" id="U"/><g id="g"><use transform="matrix(0.1111111111111111,0,0,0.1111111111111111,0,0)" xlink:href="#S"/><use transform="matrix(0.1111111111111111,0,0,0.1111111111111111,28.777777777777775,0)" xlink:href="#I"/><use transform="matrix(0.1111111111111111,0,0,0.1111111111111111,37.55555555555555,0)" xlink:href="#J"/><use transform="matrix(0.1111111111111111,0,0,0.1111111111111111,59.77777777777777,0)" xlink:href="#J"/><use transform="matrix(0.1111111111111111,0,0,0.1111111111111111,82,0)" xlink:href="#T"/><use transform="matrix(0.1111111111111111,0,0,0.1111111111111111,104.22222222222223,0)" xlink:href="#U"/></g><path fill="#ef8d22" d="M160-131c35 5 61 23 61 61C221 17 115-2 30 0v-248c76 3 177-17 177 60 0 33-19 50-47 57zm-97-11c50-1 110 9 110-42 0-47-63-36-110-37v79zm0 115c55-2 124 14 124-45 0-56-70-42-124-44v89" id="V"/><path fill="#ef8d22" d="M85-194c31 0 48 13 60 33l-1-100h32l1 261h-30c-2-10 0-23-3-31C134-8 116 4 85 4 32 4 16-35 15-94c0-66 23-100 70-100zm9 24c-40 0-46 34-46 75 0 40 6 74 45 74 42 0 51-32 51-76 0-42-9-74-50-73" id="W"/><path fill="#ef8d22" d="M59-47c-2 24 18 29 38 22v24C64 9 27 4 27-40v-127H5v-23h24l9-43h21v43h35v23H59v120" id="X"/><path fill="#ef8d22" d="M210-169c-67 3-38 105-44 169h-31v-121c0-29-5-50-35-48C34-165 62-65 56 0H25l-1-190h30c1 10-1 24 2 32 10-44 99-50 107 0 11-21 27-35 58-36 85-2 47 119 55 194h-31v-121c0-29-5-49-35-48" id="Y"/><g id="h"><use transform="matrix(0.1111111111111111,0,0,0.1111111111111111,0,0)" xlink:href="#V"/><use transform="matrix(0.1111111111111111,0,0,0.1111111111111111,26.666666666666664,0)" xlink:href="#T"/><use transform="matrix(0.1111111111111111,0,0,0.1111111111111111,48.888888888888886,0)" xlink:href="#W"/><use transform="matrix(0.1111111111111111,0,0,0.1111111111111111,71.11111111111111,0)" xlink:href="#X"/><use transform="matrix(0.1111111111111111,0,0,0.1111111111111111,82.22222222222223,0)" xlink:href="#I"/><use transform="matrix(0.1111111111111111,0,0,0.1111111111111111,91,0)" xlink:href="#Y"/><use transform="matrix(0.1111111111111111,0,0,0.1111111111111111,124.22222222222224,0)" xlink:href="#T"/></g><path fill="#ef8d22" d="M240 0l2-218c-23 76-54 145-80 218h-23L58-218 59 0H30v-248h44l77 211c21-75 51-140 76-211h43V0h-30" id="Z"/><g id="i"><use transform="matrix(0.1111111111111111,0,0,0.1111111111111111,0,0)" xlink:href="#M"/><use transform="matrix(0.1111111111111111,0,0,0.1111111111111111,26.666666666666664,0)" xlink:href="#Z"/></g><path fill="#ef8d22" d="M30-248c87 1 191-15 191 75 0 78-77 80-158 76V0H30v-248zm33 125c57 0 124 11 124-50 0-59-68-47-124-48v98" id="aa"/><g id="j"><use transform="matrix(0.1111111111111111,0,0,0.1111111111111111,0,0)" xlink:href="#aa"/><use transform="matrix(0.1111111111111111,0,0,0.1111111111111111,26.666666666666664,0)" xlink:href="#Z"/></g><g id="k"><use transform="matrix(0.1111111111111111,0,0,0.1111111111111111,0,0)" xlink:href="#F"/><use transform="matrix(0.1111111111111111,0,0,0.1111111111111111,36.22222222222222,0)" xlink:href="#G"/><use transform="matrix(0.1111111111111111,0,0,0.1111111111111111,58.44444444444444,0)" xlink:href="#H"/><use transform="matrix(0.1111111111111111,0,0,0.1111111111111111,78.44444444444444,0)" xlink:href="#I"/><use transform="matrix(0.1111111111111111,0,0,0.1111111111111111,87.22222222222221,0)" xlink:href="#J"/><use transform="matrix(0.1111111111111111,0,0,0.1111111111111111,109.44444444444443,0)" xlink:href="#K"/></g><g id="l"><use transform="matrix(0.1111111111111111,0,0,0.1111111111111111,0,0)" xlink:href="#L"/><use transform="matrix(0.1111111111111111,0,0,0.1111111111111111,28.777777777777775,0)" xlink:href="#M"/><use transform="matrix(0.1111111111111111,0,0,0.1111111111111111,55.44444444444444,0)" xlink:href="#N"/></g><g id="m"><use transform="matrix(0.1111111111111111,0,0,0.1111111111111111,0,0)" xlink:href="#O"/><use transform="matrix(0.1111111111111111,0,0,0.1111111111111111,22.22222222222222,0)" xlink:href="#P"/><use transform="matrix(0.1111111111111111,0,0,0.1111111111111111,44.44444444444444,0)" xlink:href="#J"/><use transform="matrix(0.1111111111111111,0,0,0.1111111111111111,66.66666666666666,0)" xlink:href="#Q"/><use transform="matrix(0.1111111111111111,0,0,0.1111111111111111,86.66666666666666,0)" xlink:href="#R"/></g><g id="n"><use transform="matrix(0.1111111111111111,0,0,0.1111111111111111,0,0)" xlink:href="#S"/><use transform="matrix(0.1111111111111111,0,0,0.1111111111111111,28.777777777777775,0)" xlink:href="#I"/><use transform="matrix(0.1111111111111111,0,0,0.1111111111111111,37.55555555555555,0)" xlink:href="#J"/><use transform="matrix(0.1111111111111111,0,0,0.1111111111111111,59.77777777777777,0)" xlink:href="#J"/><use transform="matrix(0.1111111111111111,0,0,0.1111111111111111,82,0)" xlink:href="#T"/><use transform="matrix(0.1111111111111111,0,0,0.1111111111111111,104.22222222222223,0)" xlink:href="#U"/></g><g id="o"><use transform="matrix(0.1111111111111111,0,0,0.1111111111111111,0,0)" xlink:href="#V"/><use transform="matrix(0.1111111111111111,0,0,0.1111111111111111,26.666666666666664,0)" xlink:href="#T"/><use transform="matrix(0.1111111111111111,0,0,0.1111111111111111,48.888888888888886,0)" xlink:href="#W"/><use transform="matrix(0.1111111111111111,0,0,0.1111111111111111,71.11111111111111,0)" xlink:href="#X"/><use transform="matrix(0.1111111111111111,0,0,0.1111111111111111,82.22222222222223,0)" xlink:href="#I"/><use transform="matrix(0.1111111111111111,0,0,0.1111111111111111,91,0)" xlink:href="#Y"/><use transform="matrix(0.1111111111111111,0,0,0.1111111111111111,124.22222222222224,0)" xlink:href="#T"/></g><path fill="#ef8d22" d="M63-220v92h138v28H63V0H30v-248h175v28H63" id="ab"/><path fill="#ef8d22" d="M24 0v-261h32V0H24" id="ac"/><path fill="#ef8d22" d="M135-143c-3-34-86-38-87 0 15 53 115 12 119 90S17 21 10-45l28-5c4 36 97 45 98 0-10-56-113-15-118-90-4-57 82-63 122-42 12 7 21 19 24 35" id="ad"/><g id="p"><use transform="matrix(0.1111111111111111,0,0,0.1111111111111111,0,0)" xlink:href="#ab"/><use transform="matrix(0.1111111111111111,0,0,0.1111111111111111,24.333333333333332,0)" xlink:href="#T"/><use transform="matrix(0.1111111111111111,0,0,0.1111111111111111,46.55555555555556,0)" xlink:href="#Y"/><use transform="matrix(0.1111111111111111,0,0,0.1111111111111111,79.77777777777777,0)" xlink:href="#G"/><use transform="matrix(0.1111111111111111,0,0,0.1111111111111111,102,0)" xlink:href="#ac"/><use transform="matrix(0.1111111111111111,0,0,0.1111111111111111,110.77777777777777,0)" xlink:href="#T"/><use transform="matrix(0.1111111111111111,0,0,0.1111111111111111,133,0)" xlink:href="#ad"/></g><g id="q"><use transform="matrix(0.1111111111111111,0,0,0.1111111111111111,0,0)" xlink:href="#Z"/><use transform="matrix(0.1111111111111111,0,0,0.1111111111111111,33.22222222222222,0)" xlink:href="#G"/><use transform="matrix(0.1111111111111111,0,0,0.1111111111111111,55.44444444444444,0)" xlink:href="#ac"/><use transform="matrix(0.1111111111111111,0,0,0.1111111111111111,64.22222222222221,0)" xlink:href="#T"/><use transform="matrix(0.1111111111111111,0,0,0.1111111111111111,86.44444444444443,0)" xlink:href="#ad"/></g></defs></g></svg>