<svg xmlns="http://www.w3.org/2000/svg" xmlns:xlink="http://www.w3.org/1999/xlink" xmlns:lucid="lucid" width="1260.36" height="1058.44"><g transform="translate(-12 -40)" lucid:page-tab-id="0_0"><path d="M369.18 429.3c37.17 0 67.3 42.36 67.3 94.62 0 52.25-30.13 94.6-67.3 94.6H167.3c-37.17 0-67.3-42.35-67.3-94.6 0-52.26 30.13-94.6 67.3-94.6z" stroke="#000" stroke-width="2" fill="#ffdf71"/><use xlink:href="#a" transform="matrix(1,0,0,1,100,429.305268199234) translate(44.222222222222214 79)"/><use xlink:href="#b" transform="matrix(1,0,0,1,100,429.305268199234) translate(201.8888888888889 79)"/><use xlink:href="#c" transform="matrix(1,0,0,1,100,429.305268199234) translate(68.6111111111111 127)"/><path d="M268.24 619.53l.23 11.05.7 10.94 1.1 10.7 1.55 10.4 1.9 9.98 2.23 9.52 2.52 9.02 2.76 8.5 2.96 7.96 3.12 7.45 3.26 6.94 3.38 6.45 3.46 6 3.53 5.56 3.58 5.17 3.63 4.78 3.67 4.44 3.7 4.1 3.73 3.8 3.76 3.54 3.8 3.27 3.8 3.03 3.86 2.8 3.9 2.6 3.93 2.37 4 2.2 4.04 2 4.1 1.83 4.2 1.66 4.26 1.48 4.37 1.3 4.48 1.16.5.1" stroke="#7ab648" stroke-width="6" fill="none"/><path d="M271.24 619.43l-6 .2-.03-1.1h6z" fill="#7ab648"/><path d="M389.35 793.54l-14.7 3.04 1.03-9.2z" stroke="#7ab648" stroke-width="6" fill="#7ab648"/><path d="M1109.18 889.22c37.17 0 67.3 42.36 67.3 94.6 0 52.26-30.13 94.62-67.3 94.62H907.3c-37.17 0-67.3-42.36-67.3-94.6 0-52.26 30.13-94.62 67.3-94.62z" stroke="#000" stroke-width="2" fill="#ffdf71"/><use xlink:href="#d" transform="matrix(1,0,0,1,840,889.221072796935) translate(71.94444444444444 79)"/><use xlink:href="#e" transform="matrix(1,0,0,1,840,889.221072796935) translate(198.3888888888889 79)"/><use xlink:href="#f" transform="matrix(1,0,0,1,840,889.221072796935) translate(89.72222222222221 127)"/><path d="M568.24 890.22l.1 5.06.3 4.66.45 4.3.58 4 .7 3.76.84 3.52.93 3.33 1.02 3.15 1.12 3 1.2 2.87 1.3 2.75 1.37 2.65 1.48 2.56 1.58 2.5 1.67 2.4 1.8 2.35 1.9 2.3 2.03 2.26 2.17 2.22 2.33 2.2 2.5 2.15 2.7 2.15 2.93 2.12 3.18 2.1 3.47 2.12 3.83 2.08 4.2 2.1 4.7 2.07 5.24 2.08 5.93 2.06 6.78 2.03 7.84 2 9.22 1.97 11.07 1.86 13.68 1.72 17.7 1.46 25.06 1.02 53.87-.26 35.03-.6" stroke="#7ab648" stroke-width="6" fill="none"/><path d="M571.23 890.03l-5.98.4-.08-1.2h6z" fill="#7ab648"/><path d="M829.3 984l-14.2 4.88-.15-9.27z" stroke="#7ab648" stroke-width="6" fill="#7ab648"/><path d="M233.9 60c27.86 0 50.46 21.18 50.46 47.3 0 26.13-22.6 47.3-50.47 47.3H82.46C54.6 154.6 32 133.44 32 107.3 32 81.2 54.6 60 82.47 60z" stroke="#000" stroke-width="2" fill="#c7e8ac"/><use xlink:href="#g" transform="matrix(1,0,0,1,32,60) translate(76.37654320987653 53.72222222222222)"/><path d="M486.25 200c27.87 0 50.47 21.18 50.47 47.3 0 26.13-22.6 47.3-50.47 47.3H334.83c-27.87 0-50.47-21.17-50.47-47.3 0-26.12 22.6-47.3 50.47-47.3z" stroke="#000" stroke-width="2" fill="#c7e8ac"/><use xlink:href="#h" transform="matrix(1,0,0,1,284.3596082818865,200) translate(37.53086419753086 53.72222222222222)"/><path d="M158.9 174.1l.06.82.9 8.48 1.16 7.88 1.4 7.4 1.66 7.04 1.88 6.74 2.1 6.52 2.4 6.38 2.65 6.33 3 6.36 3.43 6.54 3.98 6.9 4.83 7.58 6.28 9.02 10.75 14.06 26.45 33.66 6.3 9.02 4.8 7.58 4 6.9 3.4 6.53 3 6.38 2.67 6.33 2.37 6.38 2.12 6.52 1.88 6.73 1.65 7.02 1.4 7.4 1.17 7.9.88 8.48.58 9.2.2 10.1" stroke="#000" stroke-width="2" fill="none"/><path d="M158.3 158.85l5.2 14.07-9.26.37z" stroke="#000" stroke-width="2"/><path d="M269.27 429.3h-2l-.03-.96 2-.07z"/><path d="M406.6 313.54l-.44.93-.86 1.65-.97 1.67-1.08 1.7-1.2 1.73-1.36 1.8-1.54 1.84-1.74 1.92-1.97 2-2.28 2.14-2.65 2.3-3.12 2.46-3.76 2.72-4.65 3.1-6.03 3.63-8.56 4.7-17.82 8.75-32.2 15.48-8.57 4.7-6 3.63-4.66 3.1-3.76 2.72-3.12 2.47-2.65 2.27-2.27 2.14-1.97 2.03-1.74 1.92-1.53 1.85-1.37 1.8-1.2 1.72-1.08 1.7-.97 1.68-.86 1.65-.77 1.63-.7 1.63-.6 1.64-.53 1.64-.46 1.66-.4 1.68-.32 1.7-.26 1.74-.18 1.8-.12 1.84-.04 1.9" stroke="#000" stroke-width="2" fill="none"/><path d="M409.84 298.77l1.47 14.93-9.04-2z" stroke="#000" stroke-width="2"/><path d="M269.22 428.48l-.14.83h-2.03l.2-1.17z"/><path d="M1201.9 640c27.86 0 50.46 17.9 50.46 40s-22.6 40-50.47 40h-151.43c-27.87 0-50.47-17.9-50.47-40s22.6-40 50.47-40z" stroke="#000" stroke-width="2" fill="#c7e8ac"/><use xlink:href="#i" transform="matrix(1,0,0,1,1000,640) translate(39.388888888888886 27.55555555555555)"/><use xlink:href="#j" transform="matrix(1,0,0,1,1000,640) translate(65.22839506172839 64.88888888888889)"/><path d="M1124.07 739.34l-.25 1.07-.8 2.87-.9 2.8-1.03 2.75-1.16 2.72-1.27 2.72-1.43 2.72-1.58 2.74-1.77 2.78-2 2.85-2.22 2.95-2.55 3.07-2.95 3.27-3.46 3.54-4.2 3.95-5.4 4.63-7.76 6.14-40.07 29.56-5.4 4.64-4.2 3.94-3.46 3.54-2.95 3.27-2.56 3.08-2.23 2.94-1.97 2.85-1.77 2.78-1.6 2.75-1.4 2.7-1.28 2.73-1.15 2.72-1.02 2.76-.9 2.8-.8 2.85-.7 2.94-.56 3.02-.47 3.14-.34 3.27-.22 3.43-.06 3.62" stroke="#000" stroke-width="2" fill="none"/><path d="M1125.8 724.22l3 14.7-9.22-1.06z" stroke="#000" stroke-width="2"/><path d="M1009.24 888.3l-.1.92h-2l.1-1.1z"/><path d="M669.18 700c37.17 0 67.3 42.36 67.3 94.6 0 52.26-30.13 94.62-67.3 94.62H467.3c-37.17 0-67.3-42.36-67.3-94.6 0-52.26 30.13-94.62 67.3-94.62z" stroke="#000" stroke-width="2" fill="#ffdf71"/><use xlink:href="#k" transform="matrix(1,0,0,1,400,700) translate(127.44444444444444 103)"/><path d="M721.9 340c27.86 0 50.46 21.18 50.46 47.3 0 26.13-22.6 47.3-50.47 47.3H570.46c-27.87 0-50.47-21.17-50.47-47.3 0-26.12 22.6-47.3 50.47-47.3z" stroke="#000" stroke-width="2" fill="#c7e8ac"/><use xlink:href="#l" transform="matrix(1,0,0,1,520,340) translate(95.73456790123456 53.72222222222222)"/><path d="M645.57 454.1l-.38 6.14-1.1 10.37-1.4 9.46-1.66 8.77-1.93 8.24-2.2 7.9-2.5 7.72-2.88 7.7-3.37 8.02-4.14 8.8-5.7 10.9-27.9 49.28-4.13 8.8-3.37 8-2.88 7.72-2.5 7.72-2.2 7.9-1.94 8.24-1.67 8.77-1.38 9.45-1.1 10.37-.7 11.55-.28 13.08" stroke="#000" stroke-width="2" fill="none"/><path d="M646.07 438.85l4.17 14.4-9.27-.3z" stroke="#000" stroke-width="2"/><path d="M569.24 699.03l-.03.97h-2l.04-1.03z"/><path d="M974.25 476.6c27.87 0 50.47 21.2 50.47 47.32s-22.6 47.3-50.47 47.3H822.83c-27.87 0-50.47-21.18-50.47-47.3 0-26.13 22.6-47.3 50.47-47.3z" stroke="#000" stroke-width="2" fill="#c7e8ac"/><use xlink:href="#m" transform="matrix(1,0,0,1,772.3596082818865,476.61053639846773) translate(92.8395061728395 53.72222222222222)"/><path d="M890.54 588.32l-.78.73-1.43 1.23-1.67 1.32-1.98 1.44-2.37 1.57-2.85 1.74-3.53 1.94-4.4 2.18-5.65 2.5-7.43 2.94-10.2 3.53-14.85 4.47-24.38 6.2-175.63 37.23-14.87 4.46-10.2 3.52-7.42 2.94-5.63 2.5-4.4 2.2-3.54 1.92-2.86 1.73-2.37 1.58-1.98 1.44-1.67 1.32-1.43 1.23-1.23 1.15-1.07 1.08-.92 1.03-.8.97-.7.93-.62.9-.54.85-.48.83-.42.82-.38.78-.32.78-.28.76-.25.75-.2.73-.17.74-.14.74-.12.75-.08.74-.04.74-.02.76" stroke="#000" stroke-width="2" fill="none"/><path d="M897.1 575.12l-2.2 14.84-8.3-4.13z" stroke="#000" stroke-width="2"/><path d="M569.16 699.38l-.25.62h-2.15l.56-1.38z"/><path d="M773.36 387.3l8.7.2 8.57.53 8.3.87 7.98 1.17 7.55 1.44 7.1 1.67 6.62 1.85 6.15 2 5.68 2.1 5.25 2.22 4.83 2.27 4.46 2.33 4.1 2.37 3.76 2.4 3.48 2.4 3.2 2.44 2.95 2.44 2.73 2.45 2.52 2.47 2.33 2.48 2.16 2.5 2 2.5 1.82 2.52 1.7 2.56 1.56 2.58 1.44 2.6 1.32 2.67 1.2 2.7 1.1 2.76.97 2.8.87 2.9.72 2.8" fill="none"/><path d="M773.36 387.3l3.8.1m7.63.26l5.83.37 1.76.18m7.57.85l6.94 1.02.6.12m7.5 1.44l6.55 1.53.85.24m7.32 2.13l4.6 1.5 2.6.96m7.1 2.8l1.23.54 4.83 2.27.83.44m6.7 3.66l1.03.6 3.77 2.4 1.62 1.1m6.1 4.6l1.9 1.58 2.74 2.45 1.04 1.02M881 427l.76.87 2 2.5 1.82 2.53.1.14m3.98 6.5l.62 1.1 1.32 2.67 1.2 2.7.15.4m2.53 7.2l.26.85.72 2.82" stroke="#000" stroke-width="2" fill="none"/><path d="M773.4 386.3l-.08 2-1-.03.04-.96-.04-1.04z"/><path d="M898.18 472.4l-6.22-13.66 9.2-1.04z" stroke="#000" stroke-width="2"/><path d="M771.36 523.92l-8.7-.2-8.57-.52-8.32-.88-7.97-1.17-7.54-1.44-7.1-1.65-6.6-1.85-6.16-2-5.68-2.1-5.25-2.2-4.84-2.3-4.45-2.3-4.1-2.38-3.77-2.4-3.46-2.4-3.2-2.43-2.96-2.46-2.72-2.45-2.52-2.48-2.33-2.47-2.14-2.5-2-2.5-1.82-2.53-1.7-2.56-1.56-2.58-1.44-2.6-1.32-2.66-1.2-2.7-1.1-2.76-.97-2.8-.87-2.9-.72-2.8" fill="none"/><path d="M771.36 523.92l-3.8-.08m-7.63-.28l-5.84-.36-1.77-.2m-7.58-.83l-6.94-1.02-.58-.12m-7.5-1.45l-6.55-1.53-.85-.24m-7.32-2.1l-4.6-1.5-2.6-.97m-7.1-2.82l-1.23-.5-4.84-2.3-.82-.42m-6.68-3.66l-1.03-.6-3.8-2.4-1.6-1.1m-6.1-4.58l-1.92-1.6-2.72-2.45-1.04-1.03m-5.22-5.56l-.74-.85-2-2.5-1.82-2.53-.1-.14m-3.98-6.5l-.62-1.1-1.32-2.66-1.2-2.7-.16-.4m-2.52-7.18l-.26-.87-.72-2.82" stroke="#000" stroke-width="2" fill="none"/><path d="M772.4 522.96l-.04.96.04 1.04-1.08-.04.08-2z"/><path d="M646.54 438.83l6.22 13.65-9.22 1.04z" stroke="#000" stroke-width="2"/><path d="M285.36 107.3l8.16.18 8.05.5 7.87.83 7.6 1.13 7.3 1.4 6.9 1.6 6.5 1.83 6.12 1.98 5.7 2.12 5.3 2.23 4.94 2.3 4.57 2.4 4.22 2.43 3.9 2.48 3.62 2.53 3.35 2.54 3.1 2.56 2.86 2.58 2.66 2.6 2.44 2.62 2.28 2.64 2.1 2.65 1.94 2.68 1.8 2.7 1.65 2.74 1.54 2.77 1.4 2.8 1.26 2.85 1.15 2.9 1.03 2.97.92 3.04.8 3.1.14.68" fill="none"/><path d="M285.36 107.3l3.87.1m7.72.3l4.62.28 3.1.33m7.66.93l4.72.7 2.9.56m7.57 1.57l3.72.87L335 114m7.4 2.26l1.46.48 5.7 2.12.1.04m7.1 3.08l3.04 1.43 3.87 2.03m6.67 3.9l2.16 1.38 3.62 2.53.6.46m6.05 4.8l2.66 2.4 2.66 2.6.28.32m5.12 5.8l1.42 1.8 1.94 2.66 1.2 1.78m3.9 6.67l1.27 2.56 1.27 2.85.64 1.62m2.47 7.32l.8 3.07.14.67" stroke="#000" stroke-width="2" fill="none"/><path d="M285.4 106.3l-.08 2-1-.04.04-.95-.04-1.04z"/><path d="M410.2 195.78l-6.16-13.68 9.22-1z" stroke="#000" stroke-width="2"/><path d="M537.72 247.3l6.37.15 6.3.44 6.18.7 6.06 1 5.9 1.23 5.7 1.48 5.5 1.7 5.25 1.9 5.02 2.08 4.78 2.23 4.53 2.4 4.28 2.5 4.03 2.62 3.78 2.7 3.56 2.8 3.3 2.88 3.1 2.94 2.87 3 2.67 3.05 2.48 3.1 2.28 3.17 2.1 3.2 1.93 3.28 1.75 3.32 1.6 3.38 1.44 3.44 1.27 3.5 1.12 3.6.95 3.66.4 1.87" fill="none"/><path d="M537.72 247.3l3.9.1m7.74.42l1.03.07 6.18.7.5.1m7.66 1.33l3.8.8 3.76.98m7.45 2.2l5.24 1.9 2.03.84m7.1 3.16l.67.3 4.53 2.4 1.64.96m6.6 4.1l.06.06 3.78 2.7 2.4 1.9m5.85 5.1l1.7 1.62 2.88 3 .83.95m4.9 6.02l1.7 2.35 2.1 3.2.53.9m3.7 6.83l1.05 2.25 1.44 3.44.52 1.45m2.33 7.4l.5 1.9.4 1.88" stroke="#000" stroke-width="2" fill="none"/><path d="M537.78 246.3l-.1 2-1-.05.04-.94-.05-1.06z"/><path d="M645.84 335.78l-6.1-13.7 9.22-.97z" stroke="#000" stroke-width="2"/><path d="M537.73 247.3l31.42.66 30 1.88 28.07 2.95 25.84 3.8 23.54 4.48 21.33 5 19.25 5.36 17.36 5.64 15.65 5.8 14.12 5.95 12.78 6 11.58 6.06 10.53 6.06 9.6 6.08 8.74 6.08 8 6.07 7.36 6.07 6.75 6.07 6.2 6.1 5.74 6.1 5.28 6.12 4.9 6.16 4.5 6.2 4.17 6.3 3.85 6.35 3.55 6.44 3.26 6.58 2.98 6.7 2.7 6.83 2.46 7.03 2.18 7.23 1.9 7.45 1.65 7.72 1.35 8 1.06 8.35.35 4.16" fill="none"/><path d="M537.73 247.3l3.95.1m7.9.15l7.9.17m7.9.16l3.77.08 4.12.26m7.88.5l7.9.5m7.87.48l2.24.14 5.63.6m7.85.82l7.86.82m7.86.87l7.82 1.16m7.8 1.16l7.83 1.15m7.78 1.44l7.76 1.47m7.77 1.5l1.5.28 6.2 1.45m7.7 1.8l7.43 1.74.27.08m7.6 2.12l7.62 2.12m7.56 2.27l7.52 2.44m7.5 2.5l7.4 2.77m7.4 2.77l7.28 3.06m7.26 3.1l7.15 3.37m7.1 3.47l7 3.65m6.9 3.86l5.7 3.3 1.1.7m6.68 4.23l1.8 1.14 4.73 3.28m6.43 4.6l5.62 4.27.65.53m6.1 5.04l.6.5 5.3 4.76m5.7 5.47l1.96 1.93 3.52 3.74m5.26 5.9l2.24 2.6 2.78 3.5m4.76 6.3l1.86 2.56 2.62 3.95m4.2 6.7l1.2 2 2.7 4.87m3.57 7.04l.54 1.08 2.73 6.1m2.93 7.34l.03.1 2.44 7 .1.37m2.26 7.56l1.73 6.75.2.92m1.6 7.74l1.2 7.07.1.73m.97 7.84l.33 3.93" stroke="#000" stroke-width="2" fill="none"/><path d="M537.75 246.3l-.05 2-1.03-.02.05-.97-.04-1.02z"/><path d="M898.4 472.38l-5.26-14.05 9.26-.4z" stroke="#000" stroke-width="2"/><path d="M773.37 387.3l47.47 4.44 37.5 5.1 30.62 5.48 25.6 5.7 21.8 5.82 18.85 5.9 16.46 5.9 14.53 5.92 12.9 5.9 11.6 5.9 10.48 5.9 9.5 5.88 8.68 5.9 7.95 5.9 7.33 5.92 6.77 5.96 6.28 6 5.83 6.1 5.44 6.15 5.08 6.26 4.74 6.38 4.43 6.52 4.13 6.7 3.88 6.86 3.62 7.08 3.36 7.34 3.1 7.62 2.87 7.94 2.6 8.32 2.35 8.73 2.06 9.23 1.76 9.77 1.43 10.4 1.05 11.13.17 3.18" fill="none"/><path d="M773.37 387.3l4 .38m8.03.75l8.02.75m8.02.75l8.02.75m8.02.74l3.36.32 4.64.63m7.98 1.08l7.98 1.1m8 1.07l7.97 1.1m7.94 1.37l7.93 1.4m7.93 1.43l7.76 1.4.17.02m7.87 1.76l7.86 1.76m7.86 1.75l1.85.42 5.95 1.6m7.8 2.07l7.77 2.07m7.68 2.4l7.7 2.4m7.62 2.56l7.6 2.72m7.53 2.83l7.46 3.04m7.4 3.17l7.32 3.33m7.23 3.55l7.06 3.6.13.05m7.02 3.96l3.33 1.86 3.6 2.23m6.82 4.27l6.67 4.52m6.5 4.75l2.54 1.88 3.8 3.08m6.18 5.2l4.12 3.62 1.85 1.78m5.76 5.63l4.5 4.68 1.04 1.18m5.3 6.08l4.18 5.17.83 1.13m4.76 6.5l3.6 5.26.88 1.44m4.18 6.88l2.95 5.24.94 1.82m3.58 7.22l2.46 5.38.8 1.98m2.98 7.48l2.2 6.1.46 1.5m2.38 7.7l2.08 7.78m1.76 7.86l.32 1.43 1.17 6.5m1.23 7.95l.8 5.72.2 2.27m.76 8.02l.08.83.17 3.18" stroke="#000" stroke-width="2" fill="none"/><path d="M773.46 386.3l-.2 2-.95-.1.06-.9-.05-1.1z"/><path d="M1126.07 635.77l-5.1-14.1 9.26-.32z" stroke="#000" stroke-width="2"/><path d="M1025.72 523.92l4.44.1 4.3.27 4.2.45 4.1.63 4 .8 3.9.94 3.8 1.1 3.75 1.27 3.68 1.4 3.6 1.6 3.54 1.73 3.48 1.9 3.42 2.06 3.36 2.22 3.3 2.4 3.25 2.6 3.18 2.77 3.13 2.95 3.04 3.16 2.97 3.37 2.88 3.57 2.8 3.77 2.67 4 2.57 4.2 2.44 4.4 2.32 4.63 2.15 4.83 2 5.03 1.8 5.2 1.6 5.4 1.4 5.58 1.17 5.73.93 5.86.08.7" fill="none"/><path d="M1025.72 523.92l4.22.1m8.4.7l.33.03 4.1.63 3.88.77m8.15 2.2l3.4 1.14 3.68 1.4.82.37m7.6 3.65l2.2 1.2 3.42 2.07 1.6 1.06m6.82 4.97l1.5 1.2 3.17 2.76 1.7 1.6m5.83 6.06l1.6 1.8 2.9 3.58.84 1.15m4.82 6.9l2.37 3.9 1.88 3.4m3.73 7.55l1.3 2.9 1.92 4.9m2.65 8l.82 2.76 1.35 5.4m1.6 8.28l.55 3.48.08.7" stroke="#000" stroke-width="2" fill="none"/><path d="M1025.8 522.92l-.15 2-.98-.08.05-.92-.05-1.1z"/><path d="M1125.97 635.77l-5.58-13.93 9.24-.6z" stroke="#000" stroke-width="2"/><path d="M999 680l-4.88-.1-4.76-.34-4.64-.54-4.53-.75-4.43-.93-4.33-1.13-4.24-1.3-4.14-1.5-4.05-1.7-3.96-1.87-3.88-2.05-3.8-2.25-3.7-2.42-3.6-2.6-3.52-2.8-3.42-3-3.3-3.17-3.2-3.37-3.07-3.56-2.94-3.74-2.8-3.93-2.65-4.1-2.5-4.3-2.33-4.48-2.15-4.63-1.96-4.8-1.75-4.95-1.55-5.1-1.33-5.24-1.1-5.36-.52-3.32" fill="none"/><path d="M999 680l-4.05-.1m-8.07-.63l-2.16-.25-4.53-.75-1.32-.27m-7.86-1.92l-3.82-1.2-3.85-1.4m-7.42-3.23l-.9-.42-3.87-2.05-2.35-1.4m-6.75-4.44l-2-1.44-3.5-2.8-.87-.75m-5.94-5.5l-3.12-3.3-2.33-2.7m-4.97-6.4l-1.53-2.12-2.65-4.1-.3-.5m-3.92-7.1l-.6-1.18-2.16-4.63-.63-1.54m-2.86-7.57l-.23-.63-1.55-5.1-.5-2.03m-1.8-7.9l-.13-.67-.52-3.32" stroke="#000" stroke-width="2" fill="none"/><path d="M1000.05 679.07l-.05.93.05 1.08-1.13-.08.15-2z"/><path d="M898.8 575.45l5.7 13.87-9.24.7z" stroke="#000" stroke-width="2"/><path d="M999 680l-57.68.95-24.1-.7L900 679l-14.1-1.6-12.4-1.95-11.5-2.3-11.1-2.72-11.04-3.2-11.37-3.82-12.06-4.62-13.3-5.75-15.3-7.4-3.18-1.63-8.38-4.57-8.58-5.17-8.75-5.77-8.84-6.4-8.85-6.97-8.8-7.55-8.67-8.08-8.42-8.54-8.1-8.93-7.7-9.23-7.2-9.44-6.7-9.56-6.13-9.6-5.55-9.54-4.98-9.43-4.4-9.28-3.86-9.08-3.33-8.86-2.82-8.6-2.36-8.35-1.93-8.1-1.53-7.83-1.15-7.6-.38-3.45" fill="none"/><path d="M999 680l-4 .07m-8 .13l-7.98.13m-8 .13l-8 .13m-7.98.13l-8 .13m-7.98.03l-8-.25m-7.98-.23l-5.87-.17-2.1-.15m-7.98-.58l-7.1-.5-.87-.1m-7.94-.9l-5.27-.62-2.64-.4m-7.9-1.26l-1.88-.3-5.98-1.2m-7.82-1.66l-7.76-1.9m-7.7-2.18l-4.38-1.28-3.24-1.08m-7.58-2.55l-.55-.2-6.9-2.65m-7.43-2.96l-7.34-3.18m-7.27-3.32l-7.2-3.48m-7.16-3.55l-.54-.27-6.48-3.54m-6.9-4.04l-3.58-2.16-3.18-2.1m-6.64-4.44l-6.48-4.68m-6.32-4.9l-3.83-3-2.37-2.04m-6.07-5.2l-.36-.32-5.5-5.12m-5.72-5.56l-5.62-5.7m-5.38-5.9l-2.96-3.27-2.3-2.75m-5.1-6.14l-.3-.34-4.57-6m-4.74-6.44l-4.6-6.55m-4.3-6.73l-1.83-2.86-2.3-3.96m-3.97-6.94l-3.73-7.07m-3.47-7.2l-1.46-3.08-1.8-4.22m-3-7.4l-2.4-6.32-.37-1.17m-2.5-7.6l-2.17-7.68m-1.87-7.77l-.2-.82-1.37-7.02m-1.23-7.9l-.08-.5-.38-3.47" stroke="#000" stroke-width="2" fill="none"/><path d="M1000 680l.04.98-1.03.02-.02-2 1.07-.02z"/><path d="M646.37 438.84l5.45 13.98-9.26.53z" stroke="#000" stroke-width="2"/><path d="M285.37 107.3l30.37.64 29.2 1.83 27.47 2.88 25.5 3.76 23.36 4.46 21.28 4.98 19.3 5.4 17.47 5.66 15.8 5.87 14.3 6 12.97 6.1 11.77 6.15 10.7 6.18 9.77 6.2 8.93 6.2 8.18 6.2 7.5 6.2 6.9 6.2 6.34 6.2 5.86 6.24 5.4 6.26 5 6.3 4.6 6.34 4.26 6.4 3.93 6.5 3.6 6.58 3.33 6.7 3.04 6.82 2.76 6.98 2.5 7.15 2.2 7.35 1.96 7.58 1.66 7.84 1.37 8.14 1.07 8.47.38 4.47" fill="none"/><path d="M285.37 107.3l3.96.1m7.94.15l7.93.17m7.93.16l2.6.06 5.33.33m7.92.5l7.92.5m7.92.5h.1l7.8.82m7.9.8l7.88.84m7.87 1l7.85 1.15m7.85 1.15l5.82.86 2 .4m7.8 1.48l7.8 1.48m7.78 1.57l7.72 1.8m7.73 1.82l3.8.9 3.88 1.07m7.66 2.14l7.64 2.13m7.55 2.43l7.55 2.45m7.48 2.66l7.43 2.77m7.4 2.94l7.3 3.07m7.24 3.26l7.18 3.38m7.07 3.6l6.24 3.28.76.44m6.88 3.97l3.07 1.77 3.7 2.35m6.7 4.28l6.5 4.52m6.38 4.73l3.58 2.7 2.66 2.2m6.07 5.12l5.67 5.1.22.22m5.67 5.55l.44.44 5 5.33m5.23 5.98l1.03 1.2 3.95 4.98m4.72 6.38l.94 1.28 3.52 5.3m4.16 6.75l.5.84 3.36 6.08m3.55 7.1l.03.1 3.04 6.82.13.33m2.9 7.4l2.23 6.4.33 1.1m2.23 7.62l1.6 6.2.3 1.5m1.6 7.76l1.13 6.72.14 1.1m.97 7.9l.34 3.94" stroke="#000" stroke-width="2" fill="none"/><path d="M285.4 106.3l-.06 2-1.03-.02.06-.97-.04-1.02z"/><path d="M646.04 335.77l-5.25-14.05 9.25-.4z" stroke="#000" stroke-width="2"/><path d="M285.37 107.3l60.82 1.27 56.3 3.52 51.05 5.34 45.73 6.74 40.72 7.75 36.17 8.47 32.14 8.96 28.62 9.28 25.53 9.5 22.86 9.6 20.55 9.65 18.52 9.66 16.76 9.68 15.22 9.65L770.2 226l12.68 9.6 11.6 9.6 10.65 9.6 9.8 9.6 9.04 9.6 8.35 9.68 7.7 9.73 7.15 9.8 6.6 9.94 6.08 10.05 5.62 10.23 5.17 10.4 4.74 10.65 4.3 10.9 3.9 11.2 3.5 11.55 3.06 11.94 2.63 12.37 2.18 12.9 1.7 13.48 1.2 14.13.16 4.14" fill="none"/><path d="M285.37 107.3l3.98.1m7.96.15l7.98.17m7.96.16l7.96.17m7.96.16l7.96.18m7.97.16l1.1.03 6.84.43m7.95.5l7.94.5m7.94.5l7.95.5m7.95.48l7.95.5m7.93.76l7.92.83m7.92.83l7.92.83m7.92.83l7.92.83m7.9.93l7.9 1.16m7.87 1.15l7.87 1.16m7.88 1.17l7.88 1.16m7.85 1.33l7.84 1.5m7.82 1.48l7.82 1.5m7.83 1.48l5.3 1 2.5.6m7.76 1.8l7.76 1.83m7.75 1.8l7.76 1.83m7.7 2.03l7.67 2.15m7.67 2.13l7.67 2.14m7.63 2.3l7.57 2.45m7.58 2.46l7.57 2.46m7.5 2.66l7.46 2.78m7.46 2.77l5.43 2.03 2 .84m7.35 3.08l7.34 3.1m7.32 3.12l7.2 3.4m7.22 3.38l4.97 2.34 2.2 1.13m7.05 3.7l7.06 3.68m6.94 3.9l6.9 3.97m6.86 4.06l6.72 4.26m6.73 4.26l.05.03 6.5 4.5m6.54 4.55l.8.57 5.56 4.2m6.34 4.82l.78.6 5.4 4.44m6.12 5.08l.08.06 5.85 5.26m5.87 5.38l5.7 5.57m5.57 5.68l5.46 5.8m5.25 6l4.14 4.8 1 1.27m4.96 6.24l1.75 2.23 3.02 4.15m4.65 6.47l4.4 6.63m4.24 6.75l3.5 5.8.58 1.03m3.84 6.98l1.2 2.2 2.43 4.9m3.47 7.15l3.24 7.27m3 7.37l2.1 5.26.75 2.18m2.62 7.52l.52 1.5 1.84 6.1m2.2 7.66l1.98 7.7m1.74 7.78l1.4 6.63.2 1.17m1.34 7.85l.65 3.87.5 4m1 7.9l.2 1.58.54 6.35m.64 7.94l.17 3.98" stroke="#000" stroke-width="2" fill="none"/><path d="M285.4 106.3l-.05 2-1.04-.02.06-.97-.04-1.02z"/><path d="M898.45 472.38l-5.04-14.13 9.27-.27z" stroke="#000" stroke-width="2"/><path d="M285.37 107.3l73.33 1.53 70.02 4.4 65.45 6.86 60.24 8.87 54.9 10.45 49.7 11.64 44.86 12.5 40.43 13.13 36.45 13.54 32.9 13.82 29.77 14 26.97 14.1 24.5 14.13 22.3 14.15 20.4 14.15 18.63 14.15 17.1 14.14 15.72 14.14 14.47 14.16 13.35 14.2 12.3 14.27 11.4 14.36 10.5 14.46 9.7 14.6 8.97 14.8 8.26 15.02 7.58 15.28 6.94 15.58 6.3 15.94 5.7 16.34 5.08 16.82 4.45 17.35 3.82 17.96 3.15 18.64 2.45 19.43 1.7 20.32.58 13.9" fill="none"/><path d="M285.37 107.3l4.02.1m8.02.16l8.03.16m8.03.17l8.03.16m8.04.17l8.03.16m8.03.16l8.03.17m8.03.3l8 .5m8.03.5l8 .5m8.02.5l8.02.5m8 .5l8.03.5m8.02.5l2.92.2 5.06.53m8 .83l7.98.83m8 .84l7.98.84m8 .84l7.97.84m8 .84l4.47.47 3.5.5m7.95 1.18l7.95 1.17m7.94 1.17l7.96 1.17m7.94 1.16l7.95 1.17m7.95 1.17l1.1.17 6.8 1.3m7.88 1.5l7.9 1.5m7.9 1.5l7.88 1.5m7.9 1.5l7.88 1.5m7.82 1.8l7.82 1.84m7.82 1.84l7.82 1.83m7.83 1.83l7.82 1.83m7.77 2l7.74 2.17m7.73 2.16l7.75 2.16m7.74 2.15l7.72 2.16m7.67 2.4l7.63 2.48m7.64 2.5l7.64 2.47m7.65 2.48l4.14 1.34 3.44 1.27m7.53 2.8l7.52 2.8m7.52 2.8l7.53 2.8m7.46 2.98l7.4 3.1m7.42 3.13l7.4 3.1m7.38 3.17l7.27 3.42m7.27 3.4l7.27 3.43m7.27 3.44l7.12 3.72m7.1 3.72l7.12 3.72m7.08 3.8l6.95 4.02m6.96 4l6.97 4.03m6.82 4.23l6.77 4.3m6.8 4.3l3.54 2.27 3.15 2.17m6.6 4.6l6.6 4.57m6.5 4.68l6.4 4.85m6.4 4.86l3.38 2.55 2.93 2.42m6.2 5.12l6.18 5.1m6.03 5.3l5.97 5.38m5.96 5.4l5.74 5.6m5.73 5.63l2.55 2.5 3.06 3.26m5.5 5.85l4.8 5.1.67.8m5.25 6.08l5.24 6.08m5.05 6.24l4.98 6.3m4.85 6.4l4.73 6.5m4.64 6.54l4.45 6.7m4.42 6.7l4.16 6.87m4.16 6.88l.24.42 3.64 6.6m3.86 7.05l.76 1.37 2.87 5.8m3.58 7.2l1.13 2.28 2.23 5m3.28 7.34l1.44 3.24 1.65 4.17m2.96 7.46l1.7 4.32 1.12 3.2m2.64 7.6l1.92 5.54.63 2.07m2.32 7.7l2.13 7.05.16.64m2 7.78l2 7.78m1.7 7.84l1.68 7.86m1.48 7.9l1.34 7.9m1.27 7.94l1 7.97m1 7.96l.24 1.8.52 6.2m.66 8l.5 6.13.1 1.87m.33 8.02l.15 4" stroke="#000" stroke-width="2" fill="none"/><path d="M285.4 106.3l-.05 2-1.04-.02.06-.97-.04-1.02z"/><path d="M1126.1 635.76l-4.96-14.15 9.27-.2z" stroke="#000" stroke-width="2"/><defs><path d="M205 0l-28-72H64L36 0H1l101-248h38L239 0h-34zm-38-99l-47-123c-12 45-31 82-46 123h93" id="n"/><path d="M85-194c31 0 48 13 60 33l-1-100h32l1 261h-30c-2-10 0-23-3-31C134-8 116 4 85 4 32 4 16-35 15-94c0-66 23-100 70-100zm9 24c-40 0-46 34-46 75 0 40 6 74 45 74 42 0 51-32 51-76 0-42-9-74-50-73" id="o"/><path d="M108 0H70L1-190h34L89-25l56-165h34" id="p"/><path d="M100-194c63 0 86 42 84 106H49c0 40 14 67 53 68 26 1 43-12 49-29l28 8c-11 28-37 45-77 45C44 4 14-33 15-96c1-61 26-98 85-98zm52 81c6-60-76-77-97-28-3 7-6 17-6 28h103" id="q"/><path d="M114-163C36-179 61-72 57 0H25l-1-190h30c1 12-1 29 2 39 6-27 23-49 58-41v29" id="r"/><path d="M135-143c-3-34-86-38-87 0 15 53 115 12 119 90S17 21 10-45l28-5c4 36 97 45 98 0-10-56-113-15-118-90-4-57 82-63 122-42 12 7 21 19 24 35" id="s"/><g id="a"><use transform="matrix(0.1111111111111111,0,0,0.1111111111111111,0,0)" xlink:href="#n"/><use transform="matrix(0.1111111111111111,0,0,0.1111111111111111,26.666666666666664,0)" xlink:href="#o"/><use transform="matrix(0.1111111111111111,0,0,0.1111111111111111,48.888888888888886,0)" xlink:href="#p"/><use transform="matrix(0.1111111111111111,0,0,0.1111111111111111,68.88888888888889,0)" xlink:href="#q"/><use transform="matrix(0.1111111111111111,0,0,0.1111111111111111,91.11111111111111,0)" xlink:href="#r"/><use transform="matrix(0.1111111111111111,0,0,0.1111111111111111,104.33333333333334,0)" xlink:href="#s"/><use transform="matrix(0.1111111111111111,0,0,0.1111111111111111,124.33333333333336,0)" xlink:href="#q"/></g><path d="M30 0v-248h187v28H63v79h144v27H63v87h162V0H30" id="t"/><path d="M141-36C126-15 110 5 73 4 37 3 15-17 15-53c-1-64 63-63 125-63 3-35-9-54-41-54-24 1-41 7-42 31l-33-3c5-37 33-52 76-52 45 0 72 20 72 64v82c-1 20 7 32 28 27v20c-31 9-61-2-59-35zM48-53c0 20 12 33 32 33 41-3 63-29 60-74-43 2-92-5-92 41" id="u"/><path d="M24 0v-261h32V0H24" id="v"/><path d="M179-190L93 31C79 59 56 82 12 73V49c39 6 53-20 64-50L1-190h34L92-34l54-156h33" id="w"/><g id="b"><use transform="matrix(0.1111111111111111,0,0,0.1111111111111111,0,0)" xlink:href="#t"/><use transform="matrix(0.1111111111111111,0,0,0.1111111111111111,26.666666666666664,0)" xlink:href="#u"/><use transform="matrix(0.1111111111111111,0,0,0.1111111111111111,48.888888888888886,0)" xlink:href="#r"/><use transform="matrix(0.1111111111111111,0,0,0.1111111111111111,62.11111111111111,0)" xlink:href="#v"/><use transform="matrix(0.1111111111111111,0,0,0.1111111111111111,70.88888888888889,0)" xlink:href="#w"/></g><path d="M141 0L90-78 38 0H4l68-98-65-92h35l48 74 47-74h35l-64 92 68 98h-35" id="x"/><path d="M115-194c55 1 70 41 70 98S169 2 115 4C84 4 66-9 55-30l1 105H24l-1-265h31l2 30c10-21 28-34 59-34zm-8 174c40 0 45-34 45-75s-6-73-45-74c-42 0-51 32-51 76 0 43 10 73 51 73" id="y"/><path d="M24-231v-30h32v30H24zM24 0v-190h32V0H24" id="z"/><path d="M117-194c89-4 53 116 60 194h-32v-121c0-31-8-49-39-48C34-167 62-67 57 0H25l-1-190h30c1 10-1 24 2 32 11-22 29-35 61-36" id="A"/><path d="M96-169c-40 0-48 33-48 73s9 75 48 75c24 0 41-14 43-38l32 2c-6 37-31 61-74 61-59 0-76-41-82-99-10-93 101-131 147-64 4 7 5 14 7 22l-32 3c-4-21-16-35-41-35" id="B"/><g id="c"><use transform="matrix(0.1111111111111111,0,0,0.1111111111111111,0,0)" xlink:href="#t"/><use transform="matrix(0.1111111111111111,0,0,0.1111111111111111,26.666666666666664,0)" xlink:href="#x"/><use transform="matrix(0.1111111111111111,0,0,0.1111111111111111,46.666666666666664,0)" xlink:href="#y"/><use transform="matrix(0.1111111111111111,0,0,0.1111111111111111,68.88888888888889,0)" xlink:href="#q"/><use transform="matrix(0.1111111111111111,0,0,0.1111111111111111,91.11111111111111,0)" xlink:href="#r"/><use transform="matrix(0.1111111111111111,0,0,0.1111111111111111,104.33333333333334,0)" xlink:href="#z"/><use transform="matrix(0.1111111111111111,0,0,0.1111111111111111,113.11111111111111,0)" xlink:href="#q"/><use transform="matrix(0.1111111111111111,0,0,0.1111111111111111,135.33333333333334,0)" xlink:href="#A"/><use transform="matrix(0.1111111111111111,0,0,0.1111111111111111,157.55555555555557,0)" xlink:href="#B"/><use transform="matrix(0.1111111111111111,0,0,0.1111111111111111,177.55555555555557,0)" xlink:href="#q"/></g><path d="M197 0v-115H63V0H30v-248h33v105h134v-105h34V0h-34" id="C"/><path d="M59-47c-2 24 18 29 38 22v24C64 9 27 4 27-40v-127H5v-23h24l9-43h21v43h35v23H59v120" id="D"/><path d="M106-169C34-169 62-67 57 0H25v-261h32l-1 103c12-21 28-36 61-36 89 0 53 116 60 194h-32v-121c2-32-8-49-39-48" id="E"/><g id="d"><use transform="matrix(0.1111111111111111,0,0,0.1111111111111111,0,0)" xlink:href="#C"/><use transform="matrix(0.1111111111111111,0,0,0.1111111111111111,28.777777777777775,0)" xlink:href="#q"/><use transform="matrix(0.1111111111111111,0,0,0.1111111111111111,51,0)" xlink:href="#u"/><use transform="matrix(0.1111111111111111,0,0,0.1111111111111111,73.22222222222223,0)" xlink:href="#v"/><use transform="matrix(0.1111111111111111,0,0,0.1111111111111111,82,0)" xlink:href="#D"/><use transform="matrix(0.1111111111111111,0,0,0.1111111111111111,93.11111111111111,0)" xlink:href="#E"/></g><g id="e"><use transform="matrix(0.1111111111111111,0,0,0.1111111111111111,0,0)" xlink:href="#u"/><use transform="matrix(0.1111111111111111,0,0,0.1111111111111111,22.22222222222222,0)" xlink:href="#A"/><use transform="matrix(0.1111111111111111,0,0,0.1111111111111111,44.44444444444444,0)" xlink:href="#o"/></g><path d="M160-131c35 5 61 23 61 61C221 17 115-2 30 0v-248c76 3 177-17 177 60 0 33-19 50-47 57zm-97-11c50-1 110 9 110-42 0-47-63-36-110-37v79zm0 115c55-2 124 14 124-45 0-56-70-42-124-44v89" id="F"/><path d="M100-194c62-1 85 37 85 99 1 63-27 99-86 99S16-35 15-95c0-66 28-99 85-99zM99-20c44 1 53-31 53-75 0-43-8-75-51-75s-53 32-53 75 10 74 51 75" id="G"/><g id="f"><use transform="matrix(0.1111111111111111,0,0,0.1111111111111111,0,0)" xlink:href="#F"/><use transform="matrix(0.1111111111111111,0,0,0.1111111111111111,26.666666666666664,0)" xlink:href="#q"/><use transform="matrix(0.1111111111111111,0,0,0.1111111111111111,48.888888888888886,0)" xlink:href="#E"/><use transform="matrix(0.1111111111111111,0,0,0.1111111111111111,71.11111111111111,0)" xlink:href="#u"/><use transform="matrix(0.1111111111111111,0,0,0.1111111111111111,93.33333333333334,0)" xlink:href="#p"/><use transform="matrix(0.1111111111111111,0,0,0.1111111111111111,113.33333333333334,0)" xlink:href="#z"/><use transform="matrix(0.1111111111111111,0,0,0.1111111111111111,122.1111111111111,0)" xlink:href="#G"/><use transform="matrix(0.1111111111111111,0,0,0.1111111111111111,144.33333333333334,0)" xlink:href="#r"/></g><path d="M33 0v-248h34V0H33" id="H"/><path d="M101-234c-31-9-42 10-38 44h38v23H63V0H32v-167H5v-23h27c-7-52 17-82 69-68v24" id="I"/><g id="g"><use transform="matrix(0.08641975308641976,0,0,0.08641975308641976,0,0)" xlink:href="#H"/><use transform="matrix(0.08641975308641976,0,0,0.08641975308641976,8.641975308641976,0)" xlink:href="#A"/><use transform="matrix(0.08641975308641976,0,0,0.08641975308641976,25.925925925925927,0)" xlink:href="#I"/><use transform="matrix(0.08641975308641976,0,0,0.08641975308641976,34.567901234567906,0)" xlink:href="#u"/><use transform="matrix(0.08641975308641976,0,0,0.08641975308641976,51.851851851851855,0)" xlink:href="#A"/><use transform="matrix(0.08641975308641976,0,0,0.08641975308641976,69.13580246913581,0)" xlink:href="#B"/><use transform="matrix(0.08641975308641976,0,0,0.08641975308641976,84.69135802469137,0)" xlink:href="#w"/></g><g id="h"><use transform="matrix(0.08641975308641976,0,0,0.08641975308641976,0,0)" xlink:href="#n"/><use transform="matrix(0.08641975308641976,0,0,0.08641975308641976,20.740740740740744,0)" xlink:href="#o"/><use transform="matrix(0.08641975308641976,0,0,0.08641975308641976,38.0246913580247,0)" xlink:href="#G"/><use transform="matrix(0.08641975308641976,0,0,0.08641975308641976,55.308641975308646,0)" xlink:href="#v"/><use transform="matrix(0.08641975308641976,0,0,0.08641975308641976,62.13580246913581,0)" xlink:href="#q"/><use transform="matrix(0.08641975308641976,0,0,0.08641975308641976,79.41975308641976,0)" xlink:href="#s"/><use transform="matrix(0.08641975308641976,0,0,0.08641975308641976,94.97530864197532,0)" xlink:href="#B"/><use transform="matrix(0.08641975308641976,0,0,0.08641975308641976,110.53086419753087,0)" xlink:href="#q"/><use transform="matrix(0.08641975308641976,0,0,0.08641975308641976,127.81481481481482,0)" xlink:href="#A"/><use transform="matrix(0.08641975308641976,0,0,0.08641975308641976,145.0987654320988,0)" xlink:href="#B"/><use transform="matrix(0.08641975308641976,0,0,0.08641975308641976,160.65432098765433,0)" xlink:href="#q"/></g><path d="M232-93c-1 65-40 97-104 97C67 4 28-28 28-90v-158h33c8 89-33 224 67 224 102 0 64-133 71-224h33v155" id="J"/><path d="M210-169c-67 3-38 105-44 169h-31v-121c0-29-5-50-35-48C34-165 62-65 56 0H25l-1-190h30c1 10-1 24 2 32 10-44 99-50 107 0 11-21 27-35 58-36 85-2 47 119 55 194h-31v-121c0-29-5-49-35-48" id="K"/><g id="i"><use transform="matrix(0.08641975308641976,0,0,0.08641975308641976,0,0)" xlink:href="#J"/><use transform="matrix(0.08641975308641976,0,0,0.08641975308641976,22.38271604938272,0)" xlink:href="#A"/><use transform="matrix(0.08641975308641976,0,0,0.08641975308641976,39.66666666666667,0)" xlink:href="#q"/><use transform="matrix(0.08641975308641976,0,0,0.08641975308641976,56.95061728395062,0)" xlink:href="#K"/><use transform="matrix(0.08641975308641976,0,0,0.08641975308641976,82.79012345679013,0)" xlink:href="#G"/><use transform="matrix(0.08641975308641976,0,0,0.08641975308641976,100.07407407407409,0)" xlink:href="#D"/><use transform="matrix(0.08641975308641976,0,0,0.08641975308641976,108.71604938271604,0)" xlink:href="#z"/><use transform="matrix(0.08641975308641976,0,0,0.08641975308641976,115.54320987654322,0)" xlink:href="#G"/><use transform="matrix(0.08641975308641976,0,0,0.08641975308641976,132.82716049382717,0)" xlink:href="#A"/><use transform="matrix(0.08641975308641976,0,0,0.08641975308641976,150.11111111111111,0)" xlink:href="#u"/><use transform="matrix(0.08641975308641976,0,0,0.08641975308641976,167.39506172839506,0)" xlink:href="#v"/></g><g id="j"><use transform="matrix(0.08641975308641976,0,0,0.08641975308641976,0,0)" xlink:href="#F"/><use transform="matrix(0.08641975308641976,0,0,0.08641975308641976,20.740740740740744,0)" xlink:href="#q"/><use transform="matrix(0.08641975308641976,0,0,0.08641975308641976,38.0246913580247,0)" xlink:href="#E"/><use transform="matrix(0.08641975308641976,0,0,0.08641975308641976,55.308641975308646,0)" xlink:href="#u"/><use transform="matrix(0.08641975308641976,0,0,0.08641975308641976,72.5925925925926,0)" xlink:href="#p"/><use transform="matrix(0.08641975308641976,0,0,0.08641975308641976,88.14814814814815,0)" xlink:href="#z"/><use transform="matrix(0.08641975308641976,0,0,0.08641975308641976,94.97530864197532,0)" xlink:href="#G"/><use transform="matrix(0.08641975308641976,0,0,0.08641975308641976,112.25925925925927,0)" xlink:href="#r"/></g><path d="M185-189c-5-48-123-54-124 2 14 75 158 14 163 119 3 78-121 87-175 55-17-10-28-26-33-46l33-7c5 56 141 63 141-1 0-78-155-14-162-118-5-82 145-84 179-34 5 7 8 16 11 25" id="L"/><path d="M233-177c-1 41-23 64-60 70L243 0h-38l-65-103H63V0H30v-248c88 3 205-21 203 71zM63-129c60-2 137 13 137-47 0-61-80-42-137-45v92" id="M"/><g id="k"><use transform="matrix(0.1111111111111111,0,0,0.1111111111111111,0,0)" xlink:href="#L"/><use transform="matrix(0.1111111111111111,0,0,0.1111111111111111,26.666666666666664,0)" xlink:href="#M"/><use transform="matrix(0.1111111111111111,0,0,0.1111111111111111,55.44444444444444,0)" xlink:href="#L"/></g><path d="M30-248c87 1 191-15 191 75 0 78-77 80-158 76V0H30v-248zm33 125c57 0 124 11 124-50 0-59-68-47-124-48v98" id="N"/><g id="l"><use transform="matrix(0.08641975308641976,0,0,0.08641975308641976,0,0)" xlink:href="#C"/><use transform="matrix(0.08641975308641976,0,0,0.08641975308641976,22.38271604938272,0)" xlink:href="#N"/><use transform="matrix(0.08641975308641976,0,0,0.08641975308641976,40.79012345679013,0)" xlink:href="#n"/></g><path d="M143 4C61 4 22-44 18-125c-5-107 100-154 193-111 17 8 29 25 37 43l-32 9c-13-25-37-40-76-40-61 0-88 39-88 99 0 61 29 100 91 101 35 0 62-11 79-27v-45h-74v-28h105v86C228-13 192 4 143 4" id="O"/><g id="m"><use transform="matrix(0.08641975308641976,0,0,0.08641975308641976,0,0)" xlink:href="#C"/><use transform="matrix(0.08641975308641976,0,0,0.08641975308641976,22.38271604938272,0)" xlink:href="#N"/><use transform="matrix(0.08641975308641976,0,0,0.08641975308641976,43.12345679012346,0)" xlink:href="#O"/></g></defs></g></svg>