<svg xmlns="http://www.w3.org/2000/svg" xmlns:xlink="http://www.w3.org/1999/xlink" xmlns:lucid="lucid" width="1720" height="1261.74"><g transform="translate(-40 -100)" lucid:page-tab-id="0_0"><path d="M1678.4 1090.18c34.02 0 61.6 21.93 61.6 48.98 0 27.04-27.58 48.97-61.6 48.97h-184.84c-34.03 0-61.6-21.93-61.6-48.97 0-27.05 27.57-48.98 61.6-48.98z" stroke="#000" stroke-width="2" fill="#c7e8ac"/><use xlink:href="#a" transform="matrix(1,0,0,1,1436.9489186843548,1095.1774004217289) translate(59.425925925925924 54.66666666666667)"/><path d="M1162.4 845.3h308.06V992.2H1162.4z" stroke="#000" stroke-width="2" fill="#c7e8ac"/><use xlink:href="#b" transform="matrix(1,0,0,1,1167.4042225331668,850.2886416556156) translate(57.796296296296305 47.16666666666667)"/><use xlink:href="#c" transform="matrix(1,0,0,1,1167.4042225331668,850.2886416556156) translate(71.12962962962962 111.16666666666667)"/><path d="M892.86 624.9h308.05V771.8H892.87z" stroke="#000" stroke-width="2" fill="#c7e8ac"/><use xlink:href="#d" transform="matrix(1,0,0,1,897.8595263819767,629.8887587661135) translate(53.425925925925895 79.16666666666667)"/><path d="M623.3 380h346.57v146.93H623.3z" stroke="#000" stroke-width="2" fill="#c7e8ac"/><use xlink:href="#e" transform="matrix(1,0,0,1,628.3148302307866,385) translate(-1.6481481481481524 79.16666666666667)"/><path d="M797.6 697.36h75.76v2H795.6v-64.98h2zm0-126.98h-2v-41.45h2z"/><path d="M797.6 528.96h-2v-1.03h2zM888.62 698.36L874.36 703v-9.28z"/><path d="M891.86 698.36l-18.5 6v-12.02zm-16.5 3.25l10.03-3.24-10.04-3.26z"/><use xlink:href="#f" transform="matrix(1,0,0,1,739.0380079152814,570.3775754199738) translate(0 42.66666666666667)"/><path d="M1047.9 917.76h95v2h-97v-37.6h2zm0-99.6h-2v-44.34h2z"/><path d="M1047.9 773.85h-2v-1.03h2zM1158.17 918.76l-14.27 4.63v-9.28z"/><path d="M1161.4 918.76l-18.5 6v-12.02zm-16.5 3.25l10.03-3.24-10.03-3.26z"/><use xlink:href="#g" transform="matrix(1,0,0,1,974.5146966694288,818.170346897941) translate(0 42.66666666666667)"/><path d="M1316.43 994.22v144.94h96.02" stroke="#000" stroke-width="2" fill="none"/><path d="M1317.43 994.25h-2v-1.03h2z"/><path d="M1427.7 1139.16l-14.25 4.63v-9.28z" stroke="#000" stroke-width="2"/><path d="M1580.02 1088.18l-.28-13.6-.88-14-1.38-13.12-1.8-12.13-2.1-11.08-2.35-10.07-2.54-9.1-2.68-8.23-2.76-7.42-2.82-6.7-2.86-6.1-2.88-5.5-2.9-5.02-2.9-4.55-2.9-4.17-2.88-3.82-2.9-3.5-2.9-3.23-2.9-2.96-2.9-2.73-2.93-2.53-2.96-2.32-2.96-2.15-3-2-3.02-1.83-3.08-1.7-3.13-1.54-3.2-1.42-3.25-1.3-3.34-1.16-3.44-1.04-3.55-.9-3.67-.8h-.14" stroke="#000" stroke-width="2" fill="none"/><path d="M1581.04 1089.18h-2l-.02-1 2-.05z"/><path d="M1474.68 919.05l14.63-3.33-.83 9.24z" stroke="#000" stroke-width="2"/><path d="M1585.95 1088.17l-.35-17.14-1.13-17.83-1.83-17.5-2.54-17.18-3.2-16.85-3.9-16.5-4.5-16.2-5.14-15.8-5.75-15.47-6.33-15.1-6.92-14.7-7.48-14.3-8.03-13.9-8.55-13.48-9.08-13.05-9.56-12.6-10.05-12.13-10.5-11.67-10.94-11.18-11.38-10.7-11.8-10.18-12.2-9.66-12.56-9.14-12.95-8.6-13.3-8.06-13.66-7.5-14-6.95-14.3-6.37-14.66-5.8-14.97-5.2-15.28-4.62-15.6-4-15.93-3.38-16.23-2.74-16.56-2.1-16.9-1.4-7.48-.33" stroke="#000" stroke-width="2" fill="none"/><path d="M1586.97 1089.18h-2l-.02-1 2-.06z"/><path d="M1205.15 698.44l14.38-4.25-.25 9.26z" stroke="#000" stroke-width="2"/><path d="M1013.23 453.8l27.55 2.3 27 3.4 26.48 4.5 25.96 5.5 25.45 6.54 24.92 7.52 24.4 8.5 23.9 9.46 23.36 10.4 22.82 11.33 22.27 12.24 21.7 13.13 21.1 14.03 20.5 14.9 19.9 15.75 19.2 16.6 18.56 17.42 17.86 18.22 17.12 19 16.36 19.8 15.58 20.52L1490 726.1l13.93 21.97 13.07 22.65 12.18 23.3 11.27 23.95 10.33 24.57 9.36 25.18 8.37 25.76 7.37 26.33 6.3 26.9 5.24 27.43 4.13 27.97 3 28.5 1.82 29.02.6 28.53-2 .04-.6-28.5-1.8-28.93-3-28.42-4.12-27.88-5.2-27.35-6.3-26.8-7.33-26.26-8.34-25.68-9.34-25.1-10.3-24.5-11.23-23.87-12.15-23.22-13.03-22.57-13.9-21.88-14.72-21.18-15.53-20.46-16.3-19.72-17.07-18.95-17.8-18.15-18.47-17.36-19.17-16.55-19.8-15.7L1329 564.3l-21.05-13.98-21.62-13.1-22.2-12.2-22.74-11.3-23.28-10.36-23.8-9.42-24.34-8.48-24.85-7.5-25.36-6.5-25.88-5.5-26.4-4.47-26.93-3.4-27.47-2.3-23.77-1 .08-2z"/><path d="M1596.97 1089.18h-2l-.02-1.02 2-.04zM988.3 458.4l-14.2-4.88 14.35-4.38z"/><path d="M989.27 459.8l-18.4-6.33 18.6-5.7zm-11.93-6.22l9.97 3.44.13-6.52z"/><path d="M60 560h380v195.15H60z" stroke="#000" stroke-width="2" fill="#ffc374"/><use xlink:href="#h" transform="matrix(1,0,0,1,65,565) translate(88.44444444444446 77)"/><use xlink:href="#i" transform="matrix(1,0,0,1,65,565) translate(168.33333333333334 77)"/><use xlink:href="#j" transform="matrix(1,0,0,1,65,565) translate(22.888888888888857 125)"/><use xlink:href="#k" transform="matrix(1,0,0,1,65,565) translate(213.88888888888889 125)"/><path d="M250 757.15v115.08h30.5" stroke="#000" stroke-width="2" fill="none"/><path d="M251 757.18h-2v-1.03h2z"/><path d="M295.76 872.23l-14.26 4.64v-9.27z" stroke="#000" stroke-width="2"/><path d="M558.16 794.02c35.65 0 64.54 35 64.54 78.2s-28.9 78.23-64.54 78.23H364.54c-35.64 0-64.54-35.02-64.54-78.22 0-43.2 28.9-78.2 64.54-78.2z" stroke="#000" stroke-width="2" fill="#b2b2b2"/><use xlink:href="#l" transform="matrix(1,0,0,1,305,799.0165326970503) translate(62.16666666666666 57.5)"/><use xlink:href="#m" transform="matrix(1,0,0,1,305,799.0165326970503) translate(10 105.5)"/><use xlink:href="#k" transform="matrix(1,0,0,1,305,799.0165326970503) translate(169.7777777777778 105.5)"/><path d="M851.9 1188.13c65.15 0 117.97 29.62 117.97 66.14 0 36.53-52.82 66.15-117.97 66.15H497.97c-65.15 0-117.97-29.62-117.97-66.15 0-36.52 52.82-66.14 117.97-66.14z" stroke="#000" stroke-width="2" fill="#c7e8ac"/><use xlink:href="#n" transform="matrix(1,0,0,1,384.99999999999994,1193.132903928174) translate(17.16666666666663 45.5)"/><use xlink:href="#o" transform="matrix(1,0,0,1,384.99999999999994,1193.132903928174) translate(270.05555555555554 45.5)"/><use xlink:href="#p" transform="matrix(1,0,0,1,384.99999999999994,1193.132903928174) translate(425.27777777777777 45.5)"/><use xlink:href="#q" transform="matrix(1,0,0,1,384.99999999999994,1193.132903928174) translate(252.27777777777777 93.5)"/><path d="M217.84 757.15v497.12H360.5" stroke="#000" stroke-width="2" fill="none"/><path d="M218.84 757.18h-2v-1.03h2z"/><path d="M375.76 1254.27l-14.26 4.64v-9.26z" stroke="#000" stroke-width="2"/><g fill="none"><path d="M535.1 591.85L586.95 540l749.9 749.9-51.85 51.84z"/><path d="M1336.84 1289.9c-25.88 25.88-67.85 25.88-93.73 0l-281.2-281.22c-25.9-25.88-67.85-25.88-93.74 0 25.9-25.88 25.9-67.85 0-93.73l-281.2-281.2c-25.9-25.9-25.9-67.87 0-93.75" stroke="#000" stroke-width="2"/></g><path d="M971.58 1253.56l1.84-1.86 2.18-2.4 1.88-2.23 1.63-2.12 1.4-2 1.24-1.9 1.07-1.84.94-1.74.82-1.7.7-1.65.6-1.6.53-1.58.43-1.55.37-1.53.3-1.5.23-1.52.17-1.5.1-1.5.04-1.53-.02-1.55-.1-1.56-.15-1.6-.23-1.62-.3-1.67-.4-1.72-.5-1.8-.6-1.86-.7-1.96-.86-2.06-1.02-2.2-1.2-2.35-1.45-2.53-1.72-2.75-2.08-3.02-2.53-3.37-3.12-3.82-3.93-4.4-5.1-5.26-6.94-6.57-10.45-9.1-69.56-55.8-6.88-6.52-5.07-5.2-3.9-4.36-3.08-3.78-2.5-3.33-2.06-3-1.7-2.7-1.43-2.5-1.2-2.32-1-2.16-.85-2.03-.7-1.92-.6-1.84-.47-1.77-.4-1.7-.3-1.64-.22-1.6-.16-1.56-.1-1.53v-1.5l.03-1.5.1-1.5.17-1.47.22-1.48.3-1.5.35-1.5.43-1.5.5-1.56.6-1.57.7-1.62.8-1.67.9-1.72 1.05-1.8 1.2-1.85 1.38-1.95 1.6-2.07 1.84-2.2 2.13-2.33 2.5-2.5 2.9-2.72 3.48-2.96.43-.35" stroke="#000" stroke-width="2" fill="none"/><path d="M972.3 1254.25l-1.46 1.48.03-1.45v-.12l-.03-1.28.05-.04zM868.84 1006.48l-2.07 2.23.8.8-.88.72-1.27-1.56 3.13-2.53z"/><path d="M628.83 989.3c26.07 0 47.2 11.07 47.2 24.72 0 13.64-21.13 24.7-47.2 24.7H487.2c-26.06 0-47.2-11.06-47.2-24.7 0-13.65 21.14-24.7 47.2-24.7z" stroke="#000" stroke-width="2" fill="#b2b2b2"/><use xlink:href="#r" transform="matrix(1,0,0,1,445,994.312137667016) translate(72.44444444444444 32)"/><path d="M628.83 1064.6c26.07 0 47.2 11.07 47.2 24.7 0 13.66-21.13 24.72-47.2 24.72H487.2c-26.06 0-47.2-11.06-47.2-24.7 0-13.65 21.14-24.7 47.2-24.7z" stroke="#000" stroke-width="2" fill="#b2b2b2"/><use xlink:href="#s" transform="matrix(1,0,0,1,445,1069.607742636982) translate(72.44444444444444 32)"/><path d="M402.72 952.45v61.57H438" stroke="#000" stroke-width="2" fill="none"/><path d="M403.72 952.47h-2v-1.02h2zM439 1014l.04 1.02h-1.07v-2h1.08z"/><path d="M402.72 952.45v136.86H438" stroke="#000" stroke-width="2" fill="none"/><path d="M403.72 952.47h-2v-1.02h2zM439 1089.3l.04 1h-1.07v-2h1.08z"/><path d="M829.52 120c56.9 0 103.05 23.73 103.05 53s-46.14 53-103.05 53H520.35c-56.9 0-103.05-23.73-103.05-53s46.14-53 103.05-53z" stroke="#000" stroke-width="2" fill="#c1e4f7"/><g><use xlink:href="#n" transform="matrix(1,0,0,1,422.30074817436486,125) translate(54.5 32)"/><use xlink:href="#t" transform="matrix(1,0,0,1,422.30074817436486,125) translate(307.3888888888889 32)"/><use xlink:href="#u" transform="matrix(1,0,0,1,422.30074817436486,125) translate(134.22222222222223 80)"/><use xlink:href="#q" transform="matrix(1,0,0,1,422.30074817436486,125) translate(296.33333333333337 80)"/></g><path d="M218.63 558V173H397.8" stroke="#000" stroke-width="2" fill="none"/><path d="M219.63 559h-2v-1.03h2z"/><path d="M413.06 173l-14.26 4.64v-9.28z" stroke="#000" stroke-width="2"/><defs><path fill="#23373b" d="M212-179c-10-28-35-45-73-45-59 0-87 40-87 99 0 60 29 101 89 101 43 0 62-24 78-52l27 14C228-24 195 4 139 4 59 4 22-46 18-125c-6-104 99-153 187-111 19 9 31 26 39 46" id="v"/><path fill="#23373b" d="M100-194c62-1 85 37 85 99 1 63-27 99-86 99S16-35 15-95c0-66 28-99 85-99zM99-20c44 1 53-31 53-75 0-43-8-75-51-75s-53 32-53 75 10 74 51 75" id="w"/><path fill="#23373b" d="M114-163C36-179 61-72 57 0H25l-1-190h30c1 12-1 29 2 39 6-27 23-49 58-41v29" id="x"/><path fill="#23373b" d="M59-47c-2 24 18 29 38 22v24C64 9 27 4 27-40v-127H5v-23h24l9-43h21v43h35v23H59v120" id="y"/><path fill="#23373b" d="M24-231v-30h32v30H24zM24 0v-190h32V0H24" id="z"/><path fill="#23373b" d="M135-143c-3-34-86-38-87 0 15 53 115 12 119 90S17 21 10-45l28-5c4 36 97 45 98 0-10-56-113-15-118-90-4-57 82-63 122-42 12 7 21 19 24 35" id="A"/><path fill="#23373b" d="M24 0v-261h32V0H24" id="B"/><g id="a"><use transform="matrix(0.14814814814814817,0,0,0.14814814814814817,0,0)" xlink:href="#v"/><use transform="matrix(0.14814814814814817,0,0,0.14814814814814817,38.370370370370374,0)" xlink:href="#w"/><use transform="matrix(0.14814814814814817,0,0,0.14814814814814817,68,0)" xlink:href="#x"/><use transform="matrix(0.14814814814814817,0,0,0.14814814814814817,85.62962962962965,0)" xlink:href="#y"/><use transform="matrix(0.14814814814814817,0,0,0.14814814814814817,100.44444444444446,0)" xlink:href="#z"/><use transform="matrix(0.14814814814814817,0,0,0.14814814814814817,112.14814814814817,0)" xlink:href="#A"/><use transform="matrix(0.14814814814814817,0,0,0.14814814814814817,138.81481481481484,0)" xlink:href="#w"/><use transform="matrix(0.14814814814814817,0,0,0.14814814814814817,168.44444444444446,0)" xlink:href="#B"/></g><path fill="#23373b" d="M205 0l-28-72H64L36 0H1l101-248h38L239 0h-34zm-38-99l-47-123c-12 45-31 82-46 123h93" id="C"/><path fill="#23373b" d="M85-194c31 0 48 13 60 33l-1-100h32l1 261h-30c-2-10 0-23-3-31C134-8 116 4 85 4 32 4 16-35 15-94c0-66 23-100 70-100zm9 24c-40 0-46 34-46 75 0 40 6 74 45 74 42 0 51-32 51-76 0-42-9-74-50-73" id="D"/><path fill="#23373b" d="M100-194c63 0 86 42 84 106H49c0 40 14 67 53 68 26 1 43-12 49-29l28 8c-11 28-37 45-77 45C44 4 14-33 15-96c1-61 26-98 85-98zm52 81c6-60-76-77-97-28-3 7-6 17-6 28h103" id="E"/><path fill="#23373b" d="M117-194c89-4 53 116 60 194h-32v-121c0-31-8-49-39-48C34-167 62-67 57 0H25l-1-190h30c1 10-1 24 2 32 11-22 29-35 61-36" id="F"/><path fill="#23373b" d="M141-36C126-15 110 5 73 4 37 3 15-17 15-53c-1-64 63-63 125-63 3-35-9-54-41-54-24 1-41 7-42 31l-33-3c5-37 33-52 76-52 45 0 72 20 72 64v82c-1 20 7 32 28 27v20c-31 9-61-2-59-35zM48-53c0 20 12 33 32 33 41-3 63-29 60-74-43 2-92-5-92 41" id="G"/><g id="b"><use transform="matrix(0.14814814814814817,0,0,0.14814814814814817,0,0)" xlink:href="#C"/><use transform="matrix(0.14814814814814817,0,0,0.14814814814814817,35.55555555555556,0)" xlink:href="#D"/><use transform="matrix(0.14814814814814817,0,0,0.14814814814814817,65.18518518518519,0)" xlink:href="#x"/><use transform="matrix(0.14814814814814817,0,0,0.14814814814814817,82.81481481481482,0)" xlink:href="#E"/><use transform="matrix(0.14814814814814817,0,0,0.14814814814814817,112.44444444444446,0)" xlink:href="#F"/><use transform="matrix(0.14814814814814817,0,0,0.14814814814814817,142.07407407407408,0)" xlink:href="#G"/><use transform="matrix(0.14814814814814817,0,0,0.14814814814814817,171.7037037037037,0)" xlink:href="#B"/></g><path fill="#23373b" d="M141 0L90-78 38 0H4l68-98-65-92h35l48 74 47-74h35l-64 92 68 98h-35" id="H"/><g id="c"><use transform="matrix(0.14814814814814817,0,0,0.14814814814814817,0,0)" xlink:href="#v"/><use transform="matrix(0.14814814814814817,0,0,0.14814814814814817,38.370370370370374,0)" xlink:href="#w"/><use transform="matrix(0.14814814814814817,0,0,0.14814814814814817,68,0)" xlink:href="#x"/><use transform="matrix(0.14814814814814817,0,0,0.14814814814814817,85.62962962962965,0)" xlink:href="#y"/><use transform="matrix(0.14814814814814817,0,0,0.14814814814814817,100.44444444444446,0)" xlink:href="#E"/><use transform="matrix(0.14814814814814817,0,0,0.14814814814814817,130.07407407407408,0)" xlink:href="#H"/></g><path fill="#23373b" d="M30-248c87 1 191-15 191 75 0 78-77 80-158 76V0H30v-248zm33 125c57 0 124 11 124-50 0-59-68-47-124-48v98" id="I"/><path fill="#23373b" d="M84 4C-5 8 30-112 23-190h32v120c0 31 7 50 39 49 72-2 45-101 50-169h31l1 190h-30c-1-10 1-25-2-33-11 22-28 36-60 37" id="J"/><path fill="#23373b" d="M179-190L93 31C79 59 56 82 12 73V49c39 6 53-20 64-50L1-190h34L92-34l54-156h33" id="K"/><g id="d"><use transform="matrix(0.14814814814814817,0,0,0.14814814814814817,0,0)" xlink:href="#I"/><use transform="matrix(0.14814814814814817,0,0,0.14814814814814817,35.55555555555556,0)" xlink:href="#z"/><use transform="matrix(0.14814814814814817,0,0,0.14814814814814817,47.25925925925927,0)" xlink:href="#y"/><use transform="matrix(0.14814814814814817,0,0,0.14814814814814817,62.07407407407408,0)" xlink:href="#J"/><use transform="matrix(0.14814814814814817,0,0,0.14814814814814817,91.70370370370371,0)" xlink:href="#z"/><use transform="matrix(0.14814814814814817,0,0,0.14814814814814817,103.40740740740743,0)" xlink:href="#y"/><use transform="matrix(0.14814814814814817,0,0,0.14814814814814817,118.22222222222226,0)" xlink:href="#G"/><use transform="matrix(0.14814814814814817,0,0,0.14814814814814817,147.8518518518519,0)" xlink:href="#x"/><use transform="matrix(0.14814814814814817,0,0,0.14814814814814817,165.48148148148152,0)" xlink:href="#K"/></g><path fill="#23373b" d="M197 0v-115H63V0H30v-248h33v105h134v-105h34V0h-34" id="L"/><path fill="#23373b" d="M115-194c55 1 70 41 70 98S169 2 115 4C84 4 66-9 55-30l1 105H24l-1-265h31l2 30c10-21 28-34 59-34zm-8 174c40 0 45-34 45-75s-6-73-45-74c-42 0-51 32-51 76 0 43 10 73 51 73" id="M"/><path fill="#23373b" d="M106-169C34-169 62-67 57 0H25v-261h32l-1 103c12-21 28-36 61-36 89 0 53 116 60 194h-32v-121c2-32-8-49-39-48" id="N"/><path fill="#23373b" d="M210-169c-67 3-38 105-44 169h-31v-121c0-29-5-50-35-48C34-165 62-65 56 0H25l-1-190h30c1 10-1 24 2 32 10-44 99-50 107 0 11-21 27-35 58-36 85-2 47 119 55 194h-31v-121c0-29-5-49-35-48" id="O"/><g id="e"><use transform="matrix(0.14814814814814817,0,0,0.14814814814814817,0,0)" xlink:href="#L"/><use transform="matrix(0.14814814814814817,0,0,0.14814814814814817,38.370370370370374,0)" xlink:href="#K"/><use transform="matrix(0.14814814814814817,0,0,0.14814814814814817,65.03703703703704,0)" xlink:href="#M"/><use transform="matrix(0.14814814814814817,0,0,0.14814814814814817,94.66666666666669,0)" xlink:href="#w"/><use transform="matrix(0.14814814814814817,0,0,0.14814814814814817,124.29629629629632,0)" xlink:href="#y"/><use transform="matrix(0.14814814814814817,0,0,0.14814814814814817,139.11111111111111,0)" xlink:href="#N"/><use transform="matrix(0.14814814814814817,0,0,0.14814814814814817,168.74074074074076,0)" xlink:href="#G"/><use transform="matrix(0.14814814814814817,0,0,0.14814814814814817,198.3703703703704,0)" xlink:href="#B"/><use transform="matrix(0.14814814814814817,0,0,0.14814814814814817,210.07407407407408,0)" xlink:href="#G"/><use transform="matrix(0.14814814814814817,0,0,0.14814814814814817,239.7037037037037,0)" xlink:href="#O"/><use transform="matrix(0.14814814814814817,0,0,0.14814814814814817,284,0)" xlink:href="#J"/><use transform="matrix(0.14814814814814817,0,0,0.14814814814814817,313.6296296296296,0)" xlink:href="#A"/></g><path fill="#23373b" d="M233-177c-1 41-23 64-60 70L243 0h-38l-65-103H63V0H30v-248c88 3 205-21 203 71zM63-129c60-2 137 13 137-47 0-61-80-42-137-45v92" id="P"/><g id="f"><use transform="matrix(0.14814814814814817,0,0,0.14814814814814817,0,0)" xlink:href="#v"/><use transform="matrix(0.14814814814814817,0,0,0.14814814814814817,38.370370370370374,0)" xlink:href="#P"/><use transform="matrix(0.14814814814814817,0,0,0.14814814814814817,76.74074074074075,0)" xlink:href="#L"/></g><path fill="#23373b" d="M127-220V0H93v-220H8v-28h204v28h-85" id="Q"/><g id="g"><use transform="matrix(0.14814814814814817,0,0,0.14814814814814817,0,0)" xlink:href="#C"/><use transform="matrix(0.14814814814814817,0,0,0.14814814814814817,35.55555555555556,0)" xlink:href="#v"/><use transform="matrix(0.14814814814814817,0,0,0.14814814814814817,73.92592592592592,0)" xlink:href="#Q"/><use transform="matrix(0.14814814814814817,0,0,0.14814814814814817,106.37037037037038,0)" xlink:href="#L"/></g><g id="h"><use transform="matrix(0.1111111111111111,0,0,0.1111111111111111,0,0)" xlink:href="#Q"/><use transform="matrix(0.1111111111111111,0,0,0.1111111111111111,24.333333333333332,0)" xlink:href="#N"/><use transform="matrix(0.1111111111111111,0,0,0.1111111111111111,46.55555555555556,0)" xlink:href="#E"/></g><path fill="#23373b" d="M185-189c-5-48-123-54-124 2 14 75 158 14 163 119 3 78-121 87-175 55-17-10-28-26-33-46l33-7c5 56 141 63 141-1 0-78-155-14-162-118-5-82 145-84 179-34 5 7 8 16 11 25" id="R"/><g id="i"><use transform="matrix(0.1111111111111111,0,0,0.1111111111111111,0,0)" xlink:href="#R"/><use transform="matrix(0.1111111111111111,0,0,0.1111111111111111,26.666666666666664,0)" xlink:href="#y"/><use transform="matrix(0.1111111111111111,0,0,0.1111111111111111,37.77777777777777,0)" xlink:href="#x"/><use transform="matrix(0.1111111111111111,0,0,0.1111111111111111,50.99999999999999,0)" xlink:href="#E"/><use transform="matrix(0.1111111111111111,0,0,0.1111111111111111,73.22222222222221,0)" xlink:href="#A"/><use transform="matrix(0.1111111111111111,0,0,0.1111111111111111,93.22222222222221,0)" xlink:href="#A"/></g><g id="j"><use transform="matrix(0.1111111111111111,0,0,0.1111111111111111,0,0)" xlink:href="#P"/><use transform="matrix(0.1111111111111111,0,0,0.1111111111111111,28.777777777777775,0)" xlink:href="#E"/><use transform="matrix(0.1111111111111111,0,0,0.1111111111111111,51,0)" xlink:href="#A"/><use transform="matrix(0.1111111111111111,0,0,0.1111111111111111,71,0)" xlink:href="#M"/><use transform="matrix(0.1111111111111111,0,0,0.1111111111111111,93.22222222222223,0)" xlink:href="#w"/><use transform="matrix(0.1111111111111111,0,0,0.1111111111111111,115.44444444444446,0)" xlink:href="#F"/><use transform="matrix(0.1111111111111111,0,0,0.1111111111111111,137.66666666666669,0)" xlink:href="#A"/><use transform="matrix(0.1111111111111111,0,0,0.1111111111111111,157.66666666666669,0)" xlink:href="#E"/></g><g id="k"><use transform="matrix(0.1111111111111111,0,0,0.1111111111111111,0,0)" xlink:href="#R"/><use transform="matrix(0.1111111111111111,0,0,0.1111111111111111,26.666666666666664,0)" xlink:href="#K"/><use transform="matrix(0.1111111111111111,0,0,0.1111111111111111,46.666666666666664,0)" xlink:href="#A"/><use transform="matrix(0.1111111111111111,0,0,0.1111111111111111,66.66666666666666,0)" xlink:href="#y"/><use transform="matrix(0.1111111111111111,0,0,0.1111111111111111,77.77777777777777,0)" xlink:href="#E"/><use transform="matrix(0.1111111111111111,0,0,0.1111111111111111,100,0)" xlink:href="#O"/></g><path fill="#23373b" d="M96-169c-40 0-48 33-48 73s9 75 48 75c24 0 41-14 43-38l32 2c-6 37-31 61-74 61-59 0-76-41-82-99-10-93 101-131 147-64 4 7 5 14 7 22l-32 3c-4-21-16-35-41-35" id="S"/><g id="l"><use transform="matrix(0.1111111111111111,0,0,0.1111111111111111,0,0)" xlink:href="#C"/><use transform="matrix(0.1111111111111111,0,0,0.1111111111111111,26.666666666666664,0)" xlink:href="#J"/><use transform="matrix(0.1111111111111111,0,0,0.1111111111111111,48.888888888888886,0)" xlink:href="#y"/><use transform="matrix(0.1111111111111111,0,0,0.1111111111111111,60,0)" xlink:href="#w"/><use transform="matrix(0.1111111111111111,0,0,0.1111111111111111,82.22222222222223,0)" xlink:href="#F"/><use transform="matrix(0.1111111111111111,0,0,0.1111111111111111,104.44444444444446,0)" xlink:href="#w"/><use transform="matrix(0.1111111111111111,0,0,0.1111111111111111,126.66666666666669,0)" xlink:href="#O"/><use transform="matrix(0.1111111111111111,0,0,0.1111111111111111,159.8888888888889,0)" xlink:href="#z"/><use transform="matrix(0.1111111111111111,0,0,0.1111111111111111,168.66666666666669,0)" xlink:href="#S"/></g><path fill="#23373b" d="M190 0L58-211 59 0H30v-248h39L202-35l-2-213h31V0h-41" id="T"/><path fill="#23373b" d="M108 0H70L1-190h34L89-25l56-165h34" id="U"/><g id="m"><use transform="matrix(0.1111111111111111,0,0,0.1111111111111111,0,0)" xlink:href="#T"/><use transform="matrix(0.1111111111111111,0,0,0.1111111111111111,28.777777777777775,0)" xlink:href="#E"/><use transform="matrix(0.1111111111111111,0,0,0.1111111111111111,51,0)" xlink:href="#x"/><use transform="matrix(0.1111111111111111,0,0,0.1111111111111111,64.22222222222223,0)" xlink:href="#U"/><use transform="matrix(0.1111111111111111,0,0,0.1111111111111111,84.22222222222223,0)" xlink:href="#w"/><use transform="matrix(0.1111111111111111,0,0,0.1111111111111111,106.44444444444446,0)" xlink:href="#J"/><use transform="matrix(0.1111111111111111,0,0,0.1111111111111111,128.66666666666669,0)" xlink:href="#A"/></g><g id="n"><use transform="matrix(0.1111111111111111,0,0,0.1111111111111111,0,0)" xlink:href="#L"/><use transform="matrix(0.1111111111111111,0,0,0.1111111111111111,28.777777777777775,0)" xlink:href="#K"/><use transform="matrix(0.1111111111111111,0,0,0.1111111111111111,48.77777777777777,0)" xlink:href="#M"/><use transform="matrix(0.1111111111111111,0,0,0.1111111111111111,71,0)" xlink:href="#w"/><use transform="matrix(0.1111111111111111,0,0,0.1111111111111111,93.22222222222223,0)" xlink:href="#y"/><use transform="matrix(0.1111111111111111,0,0,0.1111111111111111,104.33333333333334,0)" xlink:href="#N"/><use transform="matrix(0.1111111111111111,0,0,0.1111111111111111,126.55555555555557,0)" xlink:href="#G"/><use transform="matrix(0.1111111111111111,0,0,0.1111111111111111,148.7777777777778,0)" xlink:href="#B"/><use transform="matrix(0.1111111111111111,0,0,0.1111111111111111,157.55555555555557,0)" xlink:href="#G"/><use transform="matrix(0.1111111111111111,0,0,0.1111111111111111,179.7777777777778,0)" xlink:href="#O"/><use transform="matrix(0.1111111111111111,0,0,0.1111111111111111,213.00000000000003,0)" xlink:href="#z"/><use transform="matrix(0.1111111111111111,0,0,0.1111111111111111,221.7777777777778,0)" xlink:href="#S"/></g><g id="o"><use transform="matrix(0.1111111111111111,0,0,0.1111111111111111,0,0)" xlink:href="#I"/><use transform="matrix(0.1111111111111111,0,0,0.1111111111111111,26.666666666666664,0)" xlink:href="#z"/><use transform="matrix(0.1111111111111111,0,0,0.1111111111111111,35.44444444444444,0)" xlink:href="#y"/><use transform="matrix(0.1111111111111111,0,0,0.1111111111111111,46.55555555555556,0)" xlink:href="#J"/><use transform="matrix(0.1111111111111111,0,0,0.1111111111111111,68.77777777777777,0)" xlink:href="#z"/><use transform="matrix(0.1111111111111111,0,0,0.1111111111111111,77.55555555555554,0)" xlink:href="#y"/><use transform="matrix(0.1111111111111111,0,0,0.1111111111111111,88.66666666666666,0)" xlink:href="#G"/><use transform="matrix(0.1111111111111111,0,0,0.1111111111111111,110.88888888888889,0)" xlink:href="#x"/><use transform="matrix(0.1111111111111111,0,0,0.1111111111111111,124.1111111111111,0)" xlink:href="#K"/></g><g id="p"><use transform="matrix(0.1111111111111111,0,0,0.1111111111111111,0,0)" xlink:href="#C"/><use transform="matrix(0.1111111111111111,0,0,0.1111111111111111,26.666666666666664,0)" xlink:href="#D"/><use transform="matrix(0.1111111111111111,0,0,0.1111111111111111,48.888888888888886,0)" xlink:href="#x"/><use transform="matrix(0.1111111111111111,0,0,0.1111111111111111,62.11111111111111,0)" xlink:href="#E"/><use transform="matrix(0.1111111111111111,0,0,0.1111111111111111,84.33333333333333,0)" xlink:href="#F"/><use transform="matrix(0.1111111111111111,0,0,0.1111111111111111,106.55555555555554,0)" xlink:href="#G"/><use transform="matrix(0.1111111111111111,0,0,0.1111111111111111,128.77777777777777,0)" xlink:href="#B"/></g><g id="q"><use transform="matrix(0.1111111111111111,0,0,0.1111111111111111,0,0)" xlink:href="#C"/><use transform="matrix(0.1111111111111111,0,0,0.1111111111111111,26.666666666666664,0)" xlink:href="#H"/><use transform="matrix(0.1111111111111111,0,0,0.1111111111111111,46.666666666666664,0)" xlink:href="#z"/><use transform="matrix(0.1111111111111111,0,0,0.1111111111111111,55.44444444444444,0)" xlink:href="#A"/></g><g id="r"><use transform="matrix(0.1111111111111111,0,0,0.1111111111111111,0,0)" xlink:href="#R"/><use transform="matrix(0.1111111111111111,0,0,0.1111111111111111,26.666666666666664,0)" xlink:href="#T"/><use transform="matrix(0.1111111111111111,0,0,0.1111111111111111,55.44444444444444,0)" xlink:href="#R"/></g><g id="s"><use transform="matrix(0.1111111111111111,0,0,0.1111111111111111,0,0)" xlink:href="#I"/><use transform="matrix(0.1111111111111111,0,0,0.1111111111111111,26.666666666666664,0)" xlink:href="#T"/><use transform="matrix(0.1111111111111111,0,0,0.1111111111111111,55.44444444444444,0)" xlink:href="#R"/></g><g id="t"><use transform="matrix(0.1111111111111111,0,0,0.1111111111111111,0,0)" xlink:href="#I"/><use transform="matrix(0.1111111111111111,0,0,0.1111111111111111,26.666666666666664,0)" xlink:href="#z"/><use transform="matrix(0.1111111111111111,0,0,0.1111111111111111,35.44444444444444,0)" xlink:href="#y"/><use transform="matrix(0.1111111111111111,0,0,0.1111111111111111,46.55555555555556,0)" xlink:href="#J"/><use transform="matrix(0.1111111111111111,0,0,0.1111111111111111,68.77777777777777,0)" xlink:href="#z"/><use transform="matrix(0.1111111111111111,0,0,0.1111111111111111,77.55555555555554,0)" xlink:href="#y"/><use transform="matrix(0.1111111111111111,0,0,0.1111111111111111,88.66666666666666,0)" xlink:href="#G"/><use transform="matrix(0.1111111111111111,0,0,0.1111111111111111,110.88888888888889,0)" xlink:href="#x"/><use transform="matrix(0.1111111111111111,0,0,0.1111111111111111,124.1111111111111,0)" xlink:href="#K"/></g><path fill="#23373b" d="M143 4C61 4 22-44 18-125c-5-107 100-154 193-111 17 8 29 25 37 43l-32 9c-13-25-37-40-76-40-61 0-88 39-88 99 0 61 29 100 91 101 35 0 62-11 79-27v-45h-74v-28h105v86C228-13 192 4 143 4" id="V"/><g id="u"><use transform="matrix(0.1111111111111111,0,0,0.1111111111111111,0,0)" xlink:href="#V"/><use transform="matrix(0.1111111111111111,0,0,0.1111111111111111,31.11111111111111,0)" xlink:href="#w"/><use transform="matrix(0.1111111111111111,0,0,0.1111111111111111,53.33333333333333,0)" xlink:href="#F"/><use transform="matrix(0.1111111111111111,0,0,0.1111111111111111,75.55555555555554,0)" xlink:href="#G"/><use transform="matrix(0.1111111111111111,0,0,0.1111111111111111,97.77777777777777,0)" xlink:href="#D"/><use transform="matrix(0.1111111111111111,0,0,0.1111111111111111,120,0)" xlink:href="#G"/><use transform="matrix(0.1111111111111111,0,0,0.1111111111111111,142.22222222222223,0)" xlink:href="#B"/></g></defs></g></svg>