<svg xmlns="http://www.w3.org/2000/svg" xmlns:xlink="http://www.w3.org/1999/xlink" xmlns:lucid="lucid" width="1662.61" height="1200"><g transform="translate(-64.5538636510096 -60.000000000000014)" lucid:page-tab-id="0_0"><path d="M505.5 80c55.32 0 100.16 32.46 100.16 72.5S560.82 225 505.5 225H205c-55.3 0-100.15-32.46-100.15-72.5S149.7 80 205 80z" stroke="#000" stroke-width="2" fill="#3aa6dd"/><use xlink:href="#a" transform="matrix(1,0,0,1,104.85279739903382,80.00000000000001) translate(171.66666666666669 80.5)"/><path d="M516.04 261.25c49.5 0 89.62 16.23 89.62 36.25s-40.12 36.25-89.62 36.25H247.2c-49.5 0-89.63-16.23-89.63-36.25s40.12-36.25 89.62-36.25z" stroke="#000" stroke-width="2" fill="#99d2f2"/><use xlink:href="#b" transform="matrix(1,0,0,1,157.5696517244903,261.25) translate(121.27777777777777 44.5)"/><path d="M526.6 370c43.66 0 79.06 16.23 79.06 36.25s-35.4 36.25-79.07 36.25H289.35c-43.67 0-79.07-16.23-79.07-36.25S245.7 370 289.35 370z" stroke="#000" stroke-width="2" fill="#99d2f2"/><use xlink:href="#c" transform="matrix(1,0,0,1,210.2865060499468,370) translate(44.77777777777777 44.5)"/><use xlink:href="#d" transform="matrix(1,0,0,1,210.2865060499468,370) translate(153.66666666666666 44.5)"/><path d="M542.4 478.75c34.94 0 63.26 16.23 63.26 36.25s-28.32 36.25-63.26 36.25H352.62c-34.94 0-63.26-16.23-63.26-36.25s28.32-36.25 63.26-36.25z" stroke="#000" stroke-width="2" fill="#99d2f2"/><use xlink:href="#e" transform="matrix(1,0,0,1,289.36178753813147,478.75) translate(85.27777777777779 44.5)"/><path d="M1243.54 80c55.3 0 100.16 32.46 100.16 72.5s-44.85 72.5-100.16 72.5h-300.5c-55.3 0-100.15-32.46-100.15-72.5S887.72 80 943.04 80z" stroke="#000" stroke-width="2" fill="#ef8d22"/><use xlink:href="#f" transform="matrix(1,0,0,1,842.8887579554246,80.00000000000001) translate(138.44444444444443 80.5)"/><path d="M102.23 154.4l-.85 1.07-1.15 1.57-1.1 1.63-1.04 1.7-1 1.78-.92 1.86-.88 1.96-.82 2.05-.76 2.17-.7 2.28-.63 2.42-.56 2.56-.47 2.73-.38 2.9-.28 3.12-.15 3.34-.02 3.57.15 3.83.33 4.12.55 4.4.78 4.75 1.05 5.05 1.37 5.36 1.68 5.65 2.02 5.87 2.37 6.03 2.68 6.1 2.96 6 3.16 5.8 3.3 5.5 3.33 5.06 3.3 4.6 3.18 4.04 3.04 3.54 2.84 3.06 2.65 2.62 2.44 2.22.7.6" stroke="#000" stroke-width="5" fill="none"/><path d="M104 148.66l-.08 1.12-.07 2.7.02 1.3.1 2.23-3.7-3.2 3.66-4.2z"/><path d="M149.23 294.1l-14.9-1.77 3.9-8.42z" stroke="#000" stroke-width="5"/><path d="M207.8 408.27l-.1.17-1.42 2.13-1.23 2.06-1.1 2.03-.94 1.98-.82 1.96-.7 1.93-.62 1.9-.5 1.92-.43 1.9-.33 1.9-.24 1.93-.15 1.94-.06 1.96.03 2 .12 2.02.2 2.08.34 2.13.44 2.2.56 2.28.7 2.35.86 2.45 1.02 2.55 1.22 2.67 1.43 2.8 1.68 2.93 1.96 3.08 2.28 3.26 2.64 3.4 3.03 3.58 3.46 3.73 3.94 3.85 4.4 3.93 4.84 3.94 5.2 3.85 5.48 3.68 5.56 3.38 5.46 3 5.18 2.52 3.23 1.4" stroke="#000" stroke-width="5" fill="none"/><path d="M209.62 402.8v.04l-.2 1.14-.1 1.13-.03 1.15v.96l.1 1.14.18 1.14.04.2-3.87-2.83 3.28-4.5z"/><path d="M280.5 513.04l-14.95 1.04 2.24-9z" stroke="#000" stroke-width="5"/><path d="M1201.36 261.25c49.5 0 89.62 16.23 89.62 36.25s-40.12 36.25-89.62 36.25H932.5c-49.5 0-89.6-16.23-89.6-36.25s40.1-36.25 89.6-36.25z" stroke="#000" stroke-width="2" fill="#ffc374"/><use xlink:href="#g" transform="matrix(1,0,0,1,842.8887579554247,261.25) translate(105.77777777777777 44.5)"/><path d="M1159.2 370c43.66 0 79.07 16.23 79.07 36.25s-35.4 36.25-79.08 36.25H921.95c-43.67 0-79.07-16.23-79.07-36.25S878.3 370 921.95 370z" stroke="#000" stroke-width="2" fill="#ffc374"/><use xlink:href="#h" transform="matrix(1,0,0,1,842.8887579554248,370) translate(100.27777777777777 44.5)"/><path d="M558.22 587.5c26.2 0 47.44 16.23 47.44 36.25S584.42 660 558.22 660H415.88c-26.2 0-47.44-16.23-47.44-36.25s21.24-36.25 47.44-36.25z" stroke="#000" stroke-width="2" fill="#99d2f2"/><use xlink:href="#i" transform="matrix(1,0,0,1,368.43706902631624,587.5) translate(28.1111111111111 44.5)"/><path d="M285.9 515.4l-.32.13-.4.18-.4.23-.43.27-.46.32-.5.4-.54.46-.6.58-.63.7-.7.9-.8 1.1-.9 1.43-1 1.83-1.17 2.4-1.3 3.18-1.45 4.2-1.53 5.47-1.52 6.84-1.3 7.97-.87 8.32-.37 7.8.07 6.7.35 5.4.53 4.3.62 3.37.64 2.66.66 2.12.62 1.7.6 1.4.58 1.14.56.95.53.8.5.7.5.58.44.47.75.73.92.8 1.14.87 1.44.98 1.8 1.1 2.34 1.24 3.08 1.44 4.17 1.67 5.8 1.97 8.3 2.3 12.08 2.68 16.9 2.78 8.07.9" stroke="#000" stroke-width="5" fill="none"/><path d="M288.52 512.5l-.1.75-.06 1.75.05 1.53.12.97-2.78-.06.1-5z"/><path d="M359.37 623.13l-14.58 3.53.7-9.24z" stroke="#000" stroke-width="5"/><path d="M154.2 298.16l-.05.02-.33.2-.35.24-.38.3-.43.36-.45.44-.5.56-.58.7-.65.9-.75 1.16-.87 1.54-1.02 2.1-1.2 2.9-1.44 4.05-1.66 5.74-1.8 7.88-1.7 9.95-1.2 10.73-.55 9.65.02 7.53.32 5.5.46 3.9.5 2.85.48 2.08.46 1.57.44 1.2.4.96.37.75.35.62.24.38.7 1 .9 1.04 1.13 1.15 1.45 1.27 1.9 1.42 2.5 1.6 3.45 1.86 4.8 2.15 6.9 2.5 9.9 2.75 8.66 1.73" stroke="#000" stroke-width="5" fill="none"/><path d="M156.67 295.72l-.08.9-.03.87v.15l.03.88.08.9.1.57-2.7.07-.15-5 2.84-.08z"/><path d="M201.25 405.32l-14.7 2.95 1.07-9.2z" stroke="#000" stroke-width="5"/><path d="M1095.93 478.75c34.94 0 63.26 16.23 63.26 36.25s-28.33 36.25-63.27 36.25H906.15c-34.94 0-63.26-16.23-63.26-36.25s28.3-36.25 63.25-36.25z" stroke="#000" stroke-width="2" fill="#ffc374"/><use xlink:href="#j" transform="matrix(1,0,0,1,842.8887579554246,478.75) translate(46.388888888888886 44.5)"/><path d="M1032.67 587.5c26.2 0 47.44 16.23 47.44 36.25S1058.88 660 1032.68 660H890.33c-26.2 0-47.44-16.23-47.44-36.25s21.23-36.25 47.43-36.25z" stroke="#000" stroke-width="2" fill="#ffc374"/><use xlink:href="#k" transform="matrix(1,0,0,1,842.8887579554246,587.5) translate(6.999999999999986 44.5)"/><path d="M1347.12 153.03l.1.05.3.15.32.17.3.2.34.23.34.27.36.3.38.37.4.42.43.5.45.58.5.7.54.86.58 1.05.65 1.28.72 1.63.8 2.08.9 2.7.96 3.53 1.07 4.74 1.1 6.32 1.02 8.33.75 10.37.3 11.62-.27 11.1-.66 9.2-.84 6.85-.84 4.92-.78 3.5-.7 2.55-.6 1.88-.55 1.4-.47 1.1-.2.4-1.54 2.8-2.23 3.34-3.17 4.05-4.46 4.84-6.03 5.6-7.48 5.9-8.17 5.48-6.3 3.55" stroke="#000" stroke-width="5" fill="none"/><path d="M1347.32 150.06l-.12 5-2.56-.06.06-2.5-.02-1.28-.06-1.22z"/><path d="M1299.68 295.03l12.17-8.78 2.83 8.83z" stroke="#000" stroke-width="5"/><path d="M1294.38 298.13l.4.2.56.32.62.4.7.55.8.7.97.95 1.13 1.28 1.37 1.76 1.67 2.46 2.07 3.5 2.5 4.96 2.9 6.76 2.96 8.4 2.56 9 1.77 8.23 1 6.66.43 5.07.08 3.8-.12 2.88-.24 2.2-.3 1.73-.33 1.36-.35 1.1-.35.9-.35.75-.34.64-.33.53-.58.8-.78.93-1.02 1.08-1.38 1.3-1.94 1.57-2.77 2-4.08 2.5-6.2 3.3-9.47 4.28-13.36 5.02-11.03 3.36" stroke="#000" stroke-width="5" fill="none"/><path d="M1294.72 295.2l-.36 4.98-2.58-.2.1-.7.08-.9.02-.87v-.15l-.03-.88-.08-.9-.1-.6z"/><path d="M1247.2 404.66l13.07-7.36 1.83 9.1z" stroke="#000" stroke-width="5"/><path d="M1241.7 406.76l.3.14.4.2.42.25.45.3.48.35.5.44.58.52.62.65.68.8.77 1.02.86 1.27.98 1.62 1.1 2.13 1.3 2.78 1.43 3.7 1.6 4.85 1.66 6.23 1.6 7.6 1.27 8.4.8 8.38.3 7.5-.1 6.26-.34 5-.5 3.93-.56 3.1-.6 2.44-.6 1.97-.57 1.6-.56 1.3-.53 1.08-.52.9-.5.77-.47.65-.46.57-.45.5-.14.13-.7.66-.84.72-1.03.78-1.26.86-1.6.94-2 1.07-2.6 1.22-3.46 1.38-4.7 1.6-6.62 1.83-9.6 2.12-14.13 2.33-19.34 2.14" stroke="#000" stroke-width="5" fill="none"/><path d="M1241.9 403.82l-.14 5-2.67-.07.02-.23.1-1.13.05-1.15-.03-.96-.1-1.14-.06-.42z"/><path d="M1168.27 514.58l14-5.36.5 9.26z" stroke="#000" stroke-width="5"/><path d="M1162.6 515.6l.16.08.42.22.44.26.46.3.5.4.54.45.58.58.64.68.7.86.8 1.06.87 1.36 1 1.73 1.12 2.26 1.27 2.96 1.4 3.88 1.5 5.1 1.53 6.4 1.35 7.64 1 8.22.5 7.95.03 6.97-.3 5.75-.5 4.57-.6 3.6-.63 2.83-.65 2.25-.64 1.82-.6 1.47-.6 1.2-.57 1.02-.52.84-.52.7-.5.63-.48.53-.2.2-.8.73-.95.8-1.2.9-1.5 1-1.96 1.14-2.55 1.3-3.42 1.54-4.73 1.8-6.7 2.16-9.78 2.54-14.25 2.88-18.36 2.7" stroke="#000" stroke-width="5" fill="none"/><path d="M1162.94 512.7l-.4 5-2.5-.2.08-.75.07-1.75-.06-1.53-.1-1z"/><path d="M1089.18 623.14l13.88-5.7.7 9.24z" stroke="#000" stroke-width="5"/><path d="M817.03 297.5h-185.5" stroke="#000" stroke-width="5" fill="none"/><path d="M833.8 297.5l-14.27 4.64v-9.28zM614.75 297.5l14.27-4.64v9.28z" stroke="#000" stroke-width="5"/><path d="M839.4 297.55l-5.17.1-7.05.45-6.56.7-6.16.9-5.82 1.1-5.54 1.3-5.34 1.5-5.17 1.67-5.06 1.88-5 2.1-4.98 2.35-5.04 2.63-5.17 3-5.43 3.44-5.87 4.1-6.7 5.07-8.54 7.1-41.6 36.97-6.7 5.1-5.87 4.08-5.43 3.45-5.17 3-5.04 2.62-5 2.35-4.98 2.1-5.06 1.88-5.17 1.67-5.34 1.5-5.55 1.3-5.8 1.1-2.67.4" stroke="#000" stroke-width="5" fill="none"/><path d="M842 295.72l-.1.9v1.02l.02.88.08.9.1.57-2.73.05-.1-5 2.82-.05z"/><path d="M614.73 405.66l13.9-5.66.67 9.25z" stroke="#000" stroke-width="5"/><path d="M839.4 297.55l-1.42.03-3.76.24-3.62.38-3.52.52-3.42.65-3.35.78-3.28.92-3.24 1.06-3.22 1.2-3.2 1.34-3.22 1.5-3.22 1.7-3.26 1.88-3.3 2.1-3.4 2.35-3.46 2.64-3.6 2.98-3.74 3.37-3.95 3.86-4.2 4.48-4.54 5.27-5.02 6.35-5.7 7.87-6.88 10.37-9.46 15.68-41.7 74.03-6.88 10.38-5.7 7.87-5.03 6.34-4.55 5.26-4.2 4.48-3.95 3.87-3.75 3.38-3.6 2.98-3.47 2.64-3.38 2.35-3.3 2.1-3.27 1.88-3.22 1.7-3.2 1.5-3.2 1.34-3.22 1.2-3.25 1.06-.34.1" stroke="#000" stroke-width="5" fill="none"/><path d="M842 295.72l-.1.9v1.02l.02.88.08.9.1.57-2.73.05-.1-5 2.82-.05z"/><path d="M614.67 513.86l13.48-6.6 1.3 9.2z" stroke="#000" stroke-width="5"/><path d="M839.4 297.55h-.14l-2.56.17-2.5.26-2.46.36-2.42.46-2.4.57-2.38.66-2.38.77-2.38.9-2.4 1-2.4 1.13-2.45 1.28-2.5 1.45-2.53 1.6-2.6 1.83-2.7 2.04-2.8 2.3-2.9 2.63-3.05 3-3.22 3.42-3.42 3.96-3.65 4.63-3.97 5.48-4.36 6.56-4.87 8.05-5.56 10.13-6.6 13.35-8.5 19.1-14 35.7-36.06 96.28-8.47 19.12-6.6 13.35-5.57 10.13-4.87 8.05-4.35 6.56-3.97 5.5-3.66 4.62-3.42 3.96-3.2 3.43-3.06 3-2.9 2.62-2.8 2.3-2.7 2.05-2.6 1.82-2.55 1.6-2.48 1.44-2.44 1.28-2.4 1.13-.36.15" stroke="#000" stroke-width="5" fill="none"/><path d="M842 295.72l-.1.9v1.02l.02.88.08.9.1.57-2.73.05-.1-5 2.82-.05z"/><path d="M614.58 622.1l13.02-7.46 1.9 9.07z" stroke="#000" stroke-width="5"/><path d="M817.12 404.45l-2.66-.4-5.82-1.1-5.54-1.3-5.34-1.5-5.17-1.67-5.06-1.88-5-2.1-4.98-2.35-5.04-2.63-5.17-3-5.43-3.44-5.87-4.1-6.7-5.07-8.54-7.08-41.6-36.98-6.7-5.08-5.87-4.1-5.43-3.44-5.17-3-5.04-2.62-5-2.35-5-2.1-5.04-1.88-5.17-1.67-5.34-1.5-5.55-1.3-5.8-1.1-2.67-.4" stroke="#000" stroke-width="5" fill="none"/><path d="M833.82 405.66l-14.57 3.6.67-9.26zM614.73 298.1l14.57-3.6-.68 9.25z" stroke="#000" stroke-width="5"/><path d="M817.36 511.52l-.34-.1-3.24-1.05-3.22-1.2-3.2-1.34-3.22-1.5-3.22-1.7-3.26-1.88-3.3-2.1-3.4-2.35-3.46-2.64-3.6-2.98-3.75-3.37-3.94-3.86-4.2-4.48-4.54-5.27-5.02-6.35-5.7-7.87-6.88-10.37-9.46-15.68-41.7-74.03L691.8 351l-5.7-7.87-5.03-6.34-4.55-5.26-4.2-4.48-3.95-3.87-3.75-3.38-3.6-2.98-3.47-2.64-3.38-2.35-3.3-2.1-3.27-1.88-3.22-1.7-3.2-1.5-3.2-1.34-3.22-1.2-3.25-1.06-.34-.1" stroke="#000" stroke-width="5" fill="none"/><path d="M833.87 513.86l-14.77 2.6 1.3-9.2zM614.67 298.64l14.78-2.6-1.3 9.2z" stroke="#000" stroke-width="5"/><path d="M817.73 618.7l-.34-.15-2.43-1.13-2.44-1.28-2.5-1.44-2.53-1.6-2.62-1.83-2.7-2.04-2.78-2.3-2.9-2.63-3.05-3-3.22-3.42-3.42-3.96-3.65-4.63-3.98-5.5-4.35-6.55-4.87-8.05-5.56-10.13-6.62-13.35-8.47-19.1-14-35.7-36.06-96.28-8.47-19.1-6.6-13.36-5.57-10.13-4.87-8.05-4.35-6.56-3.97-5.48-3.66-4.63-3.42-3.96-3.22-3.43-3.04-3-2.9-2.6-2.8-2.32-2.7-2.04-2.6-1.82-2.55-1.6-2.48-1.45-2.44-1.27-2.42-1.13-.34-.15" stroke="#000" stroke-width="5" fill="none"/><path d="M833.97 622.1l-14.92 1.6 1.9-9.06zM614.58 299.16l14.9-1.62-1.88 9.07z" stroke="#000" stroke-width="5"/><path d="M609.16 406.25h207.87" stroke="#000" stroke-width="5" fill="none"/><path d="M609.23 408.75h-2.75l.04-.23.1-1.13.04-1.15-.02-.96-.1-1.14-.06-.4h2.75z"/><path d="M833.8 406.25l-14.27 4.64v-9.3z" stroke="#000" stroke-width="5"/><path d="M609.16 515h207.87" stroke="#000" stroke-width="5" fill="none"/><path d="M609.23 517.5h-2.72l.1-.75.06-1.75-.05-1.53-.1-.97h2.73z"/><path d="M833.8 515l-14.27 4.64v-9.28z" stroke="#000" stroke-width="5"/><path d="M609.16 623.75h207.87" stroke="#000" stroke-width="5" fill="none"/><path d="M609.23 626.25h-2.7l.13-2.5-.12-2.5h2.7z"/><path d="M833.8 623.75l-14.27 4.64v-9.3z" stroke="#000" stroke-width="5"/><path d="M609.17 623.7l1.4-.03 3.76-.24 3.63-.38 3.5-.52 3.43-.65 3.34-.78 3.3-.92 3.24-1.06 3.22-1.2 3.2-1.34 3.2-1.5 3.24-1.7 3.25-1.88 3.3-2.1 3.38-2.35 3.47-2.64 3.6-2.97 3.75-3.37 3.94-3.87 4.2-4.5 4.55-5.26 5-6.34 5.72-7.87 6.87-10.37 9.45-15.7 41.7-74.02 6.88-10.37 5.7-7.87 5.03-6.34 4.54-5.27 4.2-4.5 3.96-3.86 3.74-3.37 3.6-2.98 3.47-2.65 3.38-2.35 3.3-2.1 3.27-1.88 3.22-1.7 3.2-1.5 3.22-1.34 3.22-1.2 3.24-1.06.34-.1" stroke="#000" stroke-width="5" fill="none"/><path d="M609.28 626.2l-2.75.05.13-2.5-.12-2.5 2.64-.05z"/><path d="M833.88 407.4l-13.48 6.58-1.3-9.18z" stroke="#000" stroke-width="5"/><path d="M839.38 623.7l-1.4-.03-3.76-.24-3.62-.38-3.52-.52-3.42-.65-3.35-.78-3.28-.92-3.25-1.06-3.2-1.2-3.22-1.34-3.2-1.5-3.23-1.7-3.26-1.88-3.3-2.1-3.4-2.35-3.46-2.64-3.6-2.97-3.75-3.37-3.94-3.87-4.2-4.5-4.54-5.26-5.02-6.34-5.7-7.87-6.88-10.37-9.46-15.7-41.7-74.02-6.88-10.37-5.7-7.87-5.03-6.34-4.55-5.27-4.2-4.5-3.95-3.86-3.75-3.37-3.6-2.98-3.47-2.65-3.38-2.35-3.3-2.1-3.27-1.88-3.22-1.7-3.2-1.5-3.2-1.34-3.22-1.2-3.25-1.06-.34-.1" stroke="#000" stroke-width="5" fill="none"/><path d="M842.02 621.25l-.13 2.5.1 2.5-2.73-.05.1-5z"/><path d="M614.67 407.4l14.78-2.6-1.3 9.18z" stroke="#000" stroke-width="5"/><path d="M839.4 514.95l-5.17-.1-7.05-.45-6.56-.7-6.16-.9-5.82-1.1-5.54-1.3-5.34-1.5-5.17-1.67-5.06-1.88-5-2.1-4.98-2.35-5.04-2.63-5.17-3-5.43-3.44-5.87-4.1-6.7-5.07-8.54-7.1-41.6-36.97-6.7-5.1-5.87-4.08-5.43-3.45-5.17-3-5.04-2.62-5-2.35-5-2.1-5.04-1.88-5.17-1.68-5.34-1.48-5.55-1.3-5.8-1.1-2.67-.4" stroke="#000" stroke-width="5" fill="none"/><path d="M842.05 512.5l-.1.75-.06 1.75.04 1.53.1.97-2.77-.05.1-5z"/><path d="M614.73 406.84l14.57-3.6-.68 9.26z" stroke="#000" stroke-width="5"/><path d="M609.17 514.95l5.15-.1 7.05-.45 6.56-.7 6.16-.9 5.8-1.1 5.56-1.3 5.33-1.5 5.16-1.67 5.06-1.88 5-2.1 4.97-2.35 5.03-2.63 5.17-3 5.43-3.44 5.87-4.1 6.7-5.07 8.54-7.1 41.62-36.97 6.7-5.1 5.86-4.08 5.43-3.45 5.17-3 5.04-2.62 4.98-2.35 5-2.1 5.05-1.88 5.16-1.68 5.34-1.48 5.54-1.3 5.82-1.1 2.66-.4" stroke="#000" stroke-width="5" fill="none"/><path d="M609.28 517.45l-2.78.05.1-.75.06-1.75-.05-1.53-.1-.97 2.68-.05z"/><path d="M833.82 406.84l-13.9 5.66-.67-9.25z" stroke="#000" stroke-width="5"/><path d="M609.17 515.05l5.15.1 7.05.45 6.56.7 6.16.9 5.8 1.1 5.56 1.3 5.33 1.5 5.16 1.67 5.05 1.88 5 2.1 5 2.35 5.03 2.63 5.17 3 5.43 3.44 5.87 4.1 6.7 5.07 8.54 7.1 41.62 36.97 6.7 5.1 5.86 4.08 5.43 3.45 5.17 3 5.04 2.62 4.98 2.35 5 2.1 5.05 1.88 5.16 1.68 5.34 1.48 5.54 1.3 5.82 1.1 2.66.4" stroke="#000" stroke-width="5" fill="none"/><path d="M609.28 512.55l-.1 5-2.67-.05.1-.75.06-1.75-.05-1.53-.1-.97z"/><path d="M833.82 623.16l-14.57 3.6.68-9.26z" stroke="#000" stroke-width="5"/><path d="M609.17 623.7l5.15-.1 7.05-.45 6.56-.7 6.16-.9 5.8-1.1 5.56-1.3 5.33-1.5 5.16-1.67 5.06-1.88 5-2.1 4.97-2.35 5.03-2.63 5.17-3 5.43-3.44 5.87-4.1 6.7-5.07 8.54-7.08 41.62-36.98 6.7-5.08 5.86-4.1 5.43-3.44 5.17-3 5.04-2.62 4.98-2.35 5-2.1 5.05-1.88 5.16-1.68 5.34-1.5 5.54-1.3 5.82-1.1 2.66-.4" stroke="#000" stroke-width="5" fill="none"/><path d="M609.28 626.2l-2.75.05.13-2.5-.12-2.5 2.64-.05z"/><path d="M833.82 515.6l-13.9 5.65-.67-9.25z" stroke="#000" stroke-width="5"/><path d="M937.78 732.5c78.6 0 142.33 32.46 142.33 72.5s-63.7 72.5-142.32 72.5h-427c-78.62 0-142.34-32.46-142.34-72.5s63.72-72.5 142.33-72.5z" stroke="#000" stroke-width="2" fill="#7ab648"/><use xlink:href="#l" transform="matrix(1,0,0,1,368.4370690263163,732.5) translate(95.16666666666663 80.5)"/><use xlink:href="#m" transform="matrix(1,0,0,1,368.4370690263163,732.5) translate(219.49999999999994 80.5)"/><use xlink:href="#n" transform="matrix(1,0,0,1,368.4370690263163,732.5) translate(410.5 80.5)"/><path d="M487.4 663.47l.05.2.12.38.15.4.16.4.2.4.22.42.24.43.3.44.3.47.37.5.43.5.48.53.57.56.64.6.75.64.88.7 1.04.74 1.24.83 1.52.92 1.86 1.02 2.32 1.15 2.97 1.3 3.9 1.55 5.34 1.85 7.68 2.3 12.1 3.1 24.3 5.07 83.88 15.84 12.1 3.1 7.67 2.3 5.33 1.85 3.78 1.5" stroke="#000" stroke-width="5" fill="none"/><path d="M489.6 663.5l-5 .12-.05-2.62h5z"/><path d="M681.57 726l-13.6-6.34 6.32-6.8z" stroke="#000" stroke-width="5"/><path d="M961.18 663.47l-.1.33-.12.4-.16.4-.17.43-.2.42-.23.44-.26.44-.3.46-.33.48-.37.5-.43.53-.5.56-.58.6-.66.6-.77.68-.92.72-1.08.78-1.28.85-1.56.93-1.9 1.05-2.4 1.2-3.08 1.35-4.03 1.6-5.52 1.9-8 2.4-12.86 3.28-29.65 6.18-64.68 12.7-12.86 3.28-8 2.4-5.5 1.92-4.05 1.6-.7.3" stroke="#000" stroke-width="5" fill="none"/><path d="M963.95 663.62l-5-.1.05-2.52h5z"/><path d="M776.75 725.9l7.1-13.22 6.4 6.7z" stroke="#000" stroke-width="5"/><path d="M1032.67 1095c113.55 0 205.6 32.46 205.6 72.5s-92.05 72.5-205.6 72.5h-616.8c-113.54 0-205.58-32.46-205.58-72.5s92.03-72.5 205.58-72.5z" stroke="#000" stroke-width="2" fill="#ff8f80"/><use xlink:href="#o" transform="matrix(1,0,0,1,210.28650604994687,1095) translate(315.3333333333333 80.5)"/><use xlink:href="#p" transform="matrix(1,0,0,1,210.28650604994687,1095) translate(477.44444444444446 80.5)"/><path d="M1082.97 806.7l5.9 5.38 6.16 6.12 4.97 5.37 4.04 4.76 3.34 4.27 2.76 3.86 2.3 3.52 1.93 3.25 1.63 3 1.36 2.8 1.15 2.63.97 2.48.8 2.36.66 2.24.53 2.15.42 2.06.33 2 .24 1.94.14 1.9.06 1.84v1.82l-.1 1.8-.16 1.77-.24 1.77-.3 1.76-.4 1.77-.47 1.77-.56 1.8-.64 1.8-.75 1.86-.85 1.9-.98 1.93-1.12 2-1.28 2.06-1.46 2.16-1.65 2.26-1.92 2.37-2.2 2.5-2.56 2.7-3 2.87-3.5 3.12-4.22 3.42-5.1 3.8-6.25 4.27-7.9 4.93-10.37 5.86-14.38 7.35-22.66 10.4-133.75 55.9-15.52 7.93-11.34 6.4-8.76 5.46-7 4.77-5.7 4.27-4.77 3.87-4 3.55-3.44 3.3-2.94 3.08-2.56 2.9-2.22 2.76-1.94 2.63-1.7 2.5-1.5 2.44-1.32 2.36-.74 1.46" stroke="#000" stroke-width="5" fill="none"/><path d="M1084.7 804.9l-3.37 3.68-.35-.32v-.02l.1-1.62.03-1.6v-.84l-.06-1.6-.1-1.12z"/><path d="M814.53 1086.14l-1.15-14.96 9 2.18z" stroke="#000" stroke-width="5"/><path d="M365.6 806.7l-3.15 2.86-4.16 4.13-3.5 3.77-2.98 3.5-2.53 3.23-2.17 3.03-1.87 2.85-1.6 2.7-1.38 2.55-1.2 2.44-1.02 2.35-.88 2.27-.74 2.18-.63 2.13-.5 2.1-.42 2.04-.33 2-.23 2-.15 1.97-.07 1.97v1.96l.1 1.97.2 1.98.26 2 .36 2.05.46 2.07.56 2.13.68 2.18.8 2.26.95 2.34 1.1 2.44 1.3 2.55 1.5 2.68 1.77 2.86 2.06 3.04 2.4 3.27 2.87 3.54 3.4 3.87 4.1 4.28 4.98 4.8 6.18 5.48 7.85 6.4 10.32 7.68 14.38 9.82 22.83 14.18 117.66 67.87 12.95 8.83 9.13 6.8 6.84 5.57 5.33 4.7 4.24 4.1 3.46 3.62 2.84 3.23 2.38 2.95 2 2.7 1.68 2.5.7 1.12" stroke="#000" stroke-width="5" fill="none"/><path d="M367.57 801.76l-.1 1.62-.03 1.6v.84l.07 1.6.08.83-.35.33-3.38-3.7 3.75-3.42z"/><path d="M601.63 1086.28l-8.7-12.2 8.84-2.8z" stroke="#000" stroke-width="5"/><path d="M1396.42 80H1660v580h-263.58z" fill="none"/><path d="M1396.42 660c20.02 0 36.25-16.23 36.25-36.25v-217.5c0-20.02 16.23-36.25 36.25-36.25-20.02 0-36.25-16.23-36.25-36.25v-217.5c0-20.02-16.23-36.25-36.25-36.25" stroke="#000" stroke-width="5" fill="none"/><use xlink:href="#q" transform="matrix(1,0,0,1,1505.1657283727177,80.00000000000006) translate(0 274)"/><use xlink:href="#r" transform="matrix(1,0,0,1,1505.1657283727177,80.00000000000006) translate(0 322)"/><path d="M1396.42 660H1660v326.25h-263.58z" fill="none"/><path d="M1396.42 986.25c11.26 0 20.4-9.13 20.4-20.4V843.53c0-11.27 9.12-20.4 20.38-20.4-11.26 0-20.4-9.12-20.4-20.4V680.4c0-11.27-9.12-20.4-20.38-20.4" stroke="#000" stroke-width="5" fill="none"/><g><use xlink:href="#s" transform="matrix(1,0,0,1,1457.5876033727177,660) translate(0 147.5)"/><use xlink:href="#t" transform="matrix(1,0,0,1,1457.5876033727177,660) translate(0 195.5)"/></g><path d="M1396.42 986.25H1660V1240h-263.58z" fill="none"/><path d="M1396.42 1240c8.75 0 15.86-7.1 15.86-15.86v-95.16c0-8.75 7.1-15.86 15.85-15.86-8.75 0-15.85-7.1-15.85-15.85v-95.16c0-8.75-7.1-15.85-15.86-15.85" stroke="#000" stroke-width="5" fill="none"/><g><use xlink:href="#u" transform="matrix(1,0,0,1,1443.9938533727177,986.25) translate(0 111)"/><use xlink:href="#t" transform="matrix(1,0,0,1,1443.9938533727177,986.25) translate(0 159)"/></g><defs><path d="M143 4C61 4 22-44 18-125c-5-107 100-154 193-111 17 8 29 25 37 43l-32 9c-13-25-37-40-76-40-61 0-88 39-88 99 0 61 29 100 91 101 35 0 62-11 79-27v-45h-74v-28h105v86C228-13 192 4 143 4" id="v"/><path d="M100-194c63 0 86 42 84 106H49c0 40 14 67 53 68 26 1 43-12 49-29l28 8c-11 28-37 45-77 45C44 4 14-33 15-96c1-61 26-98 85-98zm52 81c6-60-76-77-97-28-3 7-6 17-6 28h103" id="w"/><path d="M117-194c89-4 53 116 60 194h-32v-121c0-31-8-49-39-48C34-167 62-67 57 0H25l-1-190h30c1 10-1 24 2 32 11-22 29-35 61-36" id="x"/><path d="M59-47c-2 24 18 29 38 22v24C64 9 27 4 27-40v-127H5v-23h24l9-43h21v43h35v23H59v120" id="y"/><path d="M24-231v-30h32v30H24zM24 0v-190h32V0H24" id="z"/><path d="M96-169c-40 0-48 33-48 73s9 75 48 75c24 0 41-14 43-38l32 2c-6 37-31 61-74 61-59 0-76-41-82-99-10-93 101-131 147-64 4 7 5 14 7 22l-32 3c-4-21-16-35-41-35" id="A"/><path d="M135-143c-3-34-86-38-87 0 15 53 115 12 119 90S17 21 10-45l28-5c4 36 97 45 98 0-10-56-113-15-118-90-4-57 82-63 122-42 12 7 21 19 24 35" id="B"/><g id="a"><use transform="matrix(0.1111111111111111,0,0,0.1111111111111111,0,0)" xlink:href="#v"/><use transform="matrix(0.1111111111111111,0,0,0.1111111111111111,31.11111111111111,0)" xlink:href="#w"/><use transform="matrix(0.1111111111111111,0,0,0.1111111111111111,53.33333333333333,0)" xlink:href="#x"/><use transform="matrix(0.1111111111111111,0,0,0.1111111111111111,75.55555555555554,0)" xlink:href="#w"/><use transform="matrix(0.1111111111111111,0,0,0.1111111111111111,97.77777777777777,0)" xlink:href="#y"/><use transform="matrix(0.1111111111111111,0,0,0.1111111111111111,108.88888888888889,0)" xlink:href="#z"/><use transform="matrix(0.1111111111111111,0,0,0.1111111111111111,117.66666666666666,0)" xlink:href="#A"/><use transform="matrix(0.1111111111111111,0,0,0.1111111111111111,137.66666666666666,0)" xlink:href="#B"/></g><path d="M30 0v-248h187v28H63v79h144v27H63v87h162V0H30" id="C"/><path d="M115-194c55 1 70 41 70 98S169 2 115 4C84 4 66-9 55-30l1 105H24l-1-265h31l2 30c10-21 28-34 59-34zm-8 174c40 0 45-34 45-75s-6-73-45-74c-42 0-51 32-51 76 0 43 10 73 51 73" id="D"/><path d="M177-190C167-65 218 103 67 71c-23-6-38-20-44-43l32-5c15 47 100 32 89-28v-30C133-14 115 1 83 1 29 1 15-40 15-95c0-56 16-97 71-98 29-1 48 16 59 35 1-10 0-23 2-32h30zM94-22c36 0 50-32 50-73 0-42-14-75-50-75-39 0-46 34-46 75s6 73 46 73" id="E"/><g id="b"><use transform="matrix(0.1111111111111111,0,0,0.1111111111111111,0,0)" xlink:href="#C"/><use transform="matrix(0.1111111111111111,0,0,0.1111111111111111,26.666666666666664,0)" xlink:href="#D"/><use transform="matrix(0.1111111111111111,0,0,0.1111111111111111,48.888888888888886,0)" xlink:href="#z"/><use transform="matrix(0.1111111111111111,0,0,0.1111111111111111,57.666666666666664,0)" xlink:href="#E"/><use transform="matrix(0.1111111111111111,0,0,0.1111111111111111,79.88888888888889,0)" xlink:href="#w"/><use transform="matrix(0.1111111111111111,0,0,0.1111111111111111,102.11111111111111,0)" xlink:href="#x"/><use transform="matrix(0.1111111111111111,0,0,0.1111111111111111,124.33333333333336,0)" xlink:href="#w"/><use transform="matrix(0.1111111111111111,0,0,0.1111111111111111,146.55555555555557,0)" xlink:href="#y"/><use transform="matrix(0.1111111111111111,0,0,0.1111111111111111,157.66666666666669,0)" xlink:href="#z"/><use transform="matrix(0.1111111111111111,0,0,0.1111111111111111,166.44444444444446,0)" xlink:href="#A"/><use transform="matrix(0.1111111111111111,0,0,0.1111111111111111,186.44444444444446,0)" xlink:href="#B"/></g><g id="c"><use transform="matrix(0.1111111111111111,0,0,0.1111111111111111,0,0)" xlink:href="#v"/><use transform="matrix(0.1111111111111111,0,0,0.1111111111111111,31.11111111111111,0)" xlink:href="#w"/><use transform="matrix(0.1111111111111111,0,0,0.1111111111111111,53.33333333333333,0)" xlink:href="#x"/><use transform="matrix(0.1111111111111111,0,0,0.1111111111111111,75.55555555555554,0)" xlink:href="#w"/></g><path d="M141 0L90-78 38 0H4l68-98-65-92h35l48 74 47-74h35l-64 92 68 98h-35" id="F"/><path d="M114-163C36-179 61-72 57 0H25l-1-190h30c1 12-1 29 2 39 6-27 23-49 58-41v29" id="G"/><path d="M100-194c62-1 85 37 85 99 1 63-27 99-86 99S16-35 15-95c0-66 28-99 85-99zM99-20c44 1 53-31 53-75 0-43-8-75-51-75s-53 32-53 75 10 74 51 75" id="H"/><g id="d"><use transform="matrix(0.1111111111111111,0,0,0.1111111111111111,0,0)" xlink:href="#C"/><use transform="matrix(0.1111111111111111,0,0,0.1111111111111111,26.666666666666664,0)" xlink:href="#F"/><use transform="matrix(0.1111111111111111,0,0,0.1111111111111111,46.666666666666664,0)" xlink:href="#D"/><use transform="matrix(0.1111111111111111,0,0,0.1111111111111111,68.88888888888889,0)" xlink:href="#G"/><use transform="matrix(0.1111111111111111,0,0,0.1111111111111111,82.11111111111111,0)" xlink:href="#w"/><use transform="matrix(0.1111111111111111,0,0,0.1111111111111111,104.33333333333334,0)" xlink:href="#B"/><use transform="matrix(0.1111111111111111,0,0,0.1111111111111111,124.33333333333336,0)" xlink:href="#B"/><use transform="matrix(0.1111111111111111,0,0,0.1111111111111111,144.33333333333334,0)" xlink:href="#z"/><use transform="matrix(0.1111111111111111,0,0,0.1111111111111111,153.11111111111111,0)" xlink:href="#H"/><use transform="matrix(0.1111111111111111,0,0,0.1111111111111111,175.33333333333334,0)" xlink:href="#x"/></g><path d="M30-248c87 1 191-15 191 75 0 78-77 80-158 76V0H30v-248zm33 125c57 0 124 11 124-50 0-59-68-47-124-48v98" id="I"/><g id="e"><use transform="matrix(0.1111111111111111,0,0,0.1111111111111111,0,0)" xlink:href="#I"/><use transform="matrix(0.1111111111111111,0,0,0.1111111111111111,26.666666666666664,0)" xlink:href="#G"/><use transform="matrix(0.1111111111111111,0,0,0.1111111111111111,39.888888888888886,0)" xlink:href="#H"/><use transform="matrix(0.1111111111111111,0,0,0.1111111111111111,62.11111111111111,0)" xlink:href="#y"/><use transform="matrix(0.1111111111111111,0,0,0.1111111111111111,73.22222222222221,0)" xlink:href="#w"/><use transform="matrix(0.1111111111111111,0,0,0.1111111111111111,95.44444444444443,0)" xlink:href="#z"/><use transform="matrix(0.1111111111111111,0,0,0.1111111111111111,104.2222222222222,0)" xlink:href="#x"/><use transform="matrix(0.1111111111111111,0,0,0.1111111111111111,126.44444444444444,0)" xlink:href="#B"/></g><path d="M108 0H70L1-190h34L89-25l56-165h34" id="J"/><path d="M210-169c-67 3-38 105-44 169h-31v-121c0-29-5-50-35-48C34-165 62-65 56 0H25l-1-190h30c1 10-1 24 2 32 10-44 99-50 107 0 11-21 27-35 58-36 85-2 47 119 55 194h-31v-121c0-29-5-49-35-48" id="K"/><g id="f"><use transform="matrix(0.1111111111111111,0,0,0.1111111111111111,0,0)" xlink:href="#C"/><use transform="matrix(0.1111111111111111,0,0,0.1111111111111111,26.666666666666664,0)" xlink:href="#x"/><use transform="matrix(0.1111111111111111,0,0,0.1111111111111111,48.888888888888886,0)" xlink:href="#J"/><use transform="matrix(0.1111111111111111,0,0,0.1111111111111111,68.88888888888889,0)" xlink:href="#z"/><use transform="matrix(0.1111111111111111,0,0,0.1111111111111111,77.66666666666666,0)" xlink:href="#G"/><use transform="matrix(0.1111111111111111,0,0,0.1111111111111111,90.88888888888889,0)" xlink:href="#H"/><use transform="matrix(0.1111111111111111,0,0,0.1111111111111111,113.11111111111111,0)" xlink:href="#x"/><use transform="matrix(0.1111111111111111,0,0,0.1111111111111111,135.33333333333334,0)" xlink:href="#K"/><use transform="matrix(0.1111111111111111,0,0,0.1111111111111111,168.55555555555557,0)" xlink:href="#w"/><use transform="matrix(0.1111111111111111,0,0,0.1111111111111111,190.7777777777778,0)" xlink:href="#x"/><use transform="matrix(0.1111111111111111,0,0,0.1111111111111111,213.00000000000003,0)" xlink:href="#y"/></g><path d="M240 0l2-218c-23 76-54 145-80 218h-23L58-218 59 0H30v-248h44l77 211c21-75 51-140 76-211h43V0h-30" id="L"/><path d="M141-36C126-15 110 5 73 4 37 3 15-17 15-53c-1-64 63-63 125-63 3-35-9-54-41-54-24 1-41 7-42 31l-33-3c5-37 33-52 76-52 45 0 72 20 72 64v82c-1 20 7 32 28 27v20c-31 9-61-2-59-35zM48-53c0 20 12 33 32 33 41-3 63-29 60-74-43 2-92-5-92 41" id="M"/><path d="M179-190L93 31C79 59 56 82 12 73V49c39 6 53-20 64-50L1-190h34L92-34l54-156h33" id="N"/><g id="g"><use transform="matrix(0.1111111111111111,0,0,0.1111111111111111,0,0)" xlink:href="#L"/><use transform="matrix(0.1111111111111111,0,0,0.1111111111111111,33.22222222222222,0)" xlink:href="#M"/><use transform="matrix(0.1111111111111111,0,0,0.1111111111111111,55.44444444444444,0)" xlink:href="#A"/><use transform="matrix(0.1111111111111111,0,0,0.1111111111111111,75.44444444444444,0)" xlink:href="#G"/><use transform="matrix(0.1111111111111111,0,0,0.1111111111111111,88.66666666666666,0)" xlink:href="#H"/><use transform="matrix(0.1111111111111111,0,0,0.1111111111111111,110.88888888888889,0)" xlink:href="#B"/><use transform="matrix(0.1111111111111111,0,0,0.1111111111111111,130.88888888888889,0)" xlink:href="#N"/><use transform="matrix(0.1111111111111111,0,0,0.1111111111111111,150.88888888888889,0)" xlink:href="#B"/><use transform="matrix(0.1111111111111111,0,0,0.1111111111111111,170.88888888888889,0)" xlink:href="#y"/><use transform="matrix(0.1111111111111111,0,0,0.1111111111111111,182,0)" xlink:href="#w"/><use transform="matrix(0.1111111111111111,0,0,0.1111111111111111,204.22222222222223,0)" xlink:href="#K"/></g><g id="h"><use transform="matrix(0.1111111111111111,0,0,0.1111111111111111,0,0)" xlink:href="#C"/><use transform="matrix(0.1111111111111111,0,0,0.1111111111111111,26.666666666666664,0)" xlink:href="#F"/><use transform="matrix(0.1111111111111111,0,0,0.1111111111111111,46.666666666666664,0)" xlink:href="#H"/><use transform="matrix(0.1111111111111111,0,0,0.1111111111111111,68.88888888888889,0)" xlink:href="#B"/><use transform="matrix(0.1111111111111111,0,0,0.1111111111111111,88.88888888888889,0)" xlink:href="#N"/><use transform="matrix(0.1111111111111111,0,0,0.1111111111111111,108.88888888888889,0)" xlink:href="#B"/><use transform="matrix(0.1111111111111111,0,0,0.1111111111111111,128.88888888888889,0)" xlink:href="#y"/><use transform="matrix(0.1111111111111111,0,0,0.1111111111111111,140,0)" xlink:href="#w"/><use transform="matrix(0.1111111111111111,0,0,0.1111111111111111,162.22222222222223,0)" xlink:href="#K"/></g><path d="M160-131c35 5 61 23 61 61C221 17 115-2 30 0v-248c76 3 177-17 177 60 0 33-19 50-47 57zm-97-11c50-1 110 9 110-42 0-47-63-36-110-37v79zm0 115c55-2 124 14 124-45 0-56-70-42-124-44v89" id="O"/><path d="M143 0L79-87 56-68V0H24v-261h32v163l83-92h37l-77 82L181 0h-38" id="P"/><g id="i"><use transform="matrix(0.1111111111111111,0,0,0.1111111111111111,0,0)" xlink:href="#O"/><use transform="matrix(0.1111111111111111,0,0,0.1111111111111111,26.666666666666664,0)" xlink:href="#z"/><use transform="matrix(0.1111111111111111,0,0,0.1111111111111111,35.44444444444444,0)" xlink:href="#H"/><use transform="matrix(0.1111111111111111,0,0,0.1111111111111111,57.666666666666664,0)" xlink:href="#K"/><use transform="matrix(0.1111111111111111,0,0,0.1111111111111111,90.88888888888889,0)" xlink:href="#M"/><use transform="matrix(0.1111111111111111,0,0,0.1111111111111111,113.11111111111111,0)" xlink:href="#G"/><use transform="matrix(0.1111111111111111,0,0,0.1111111111111111,126.33333333333336,0)" xlink:href="#P"/><use transform="matrix(0.1111111111111111,0,0,0.1111111111111111,146.33333333333334,0)" xlink:href="#w"/><use transform="matrix(0.1111111111111111,0,0,0.1111111111111111,168.55555555555557,0)" xlink:href="#G"/></g><g id="j"><use transform="matrix(0.1111111111111111,0,0,0.1111111111111111,0,0)" xlink:href="#L"/><use transform="matrix(0.1111111111111111,0,0,0.1111111111111111,33.22222222222222,0)" xlink:href="#w"/><use transform="matrix(0.1111111111111111,0,0,0.1111111111111111,55.44444444444444,0)" xlink:href="#B"/><use transform="matrix(0.1111111111111111,0,0,0.1111111111111111,75.44444444444444,0)" xlink:href="#H"/><use transform="matrix(0.1111111111111111,0,0,0.1111111111111111,97.66666666666666,0)" xlink:href="#B"/><use transform="matrix(0.1111111111111111,0,0,0.1111111111111111,117.66666666666666,0)" xlink:href="#N"/><use transform="matrix(0.1111111111111111,0,0,0.1111111111111111,137.66666666666666,0)" xlink:href="#B"/><use transform="matrix(0.1111111111111111,0,0,0.1111111111111111,157.66666666666666,0)" xlink:href="#y"/><use transform="matrix(0.1111111111111111,0,0,0.1111111111111111,168.77777777777777,0)" xlink:href="#w"/><use transform="matrix(0.1111111111111111,0,0,0.1111111111111111,191,0)" xlink:href="#K"/></g><g id="k"><use transform="matrix(0.1111111111111111,0,0,0.1111111111111111,0,0)" xlink:href="#L"/><use transform="matrix(0.1111111111111111,0,0,0.1111111111111111,33.22222222222222,0)" xlink:href="#z"/><use transform="matrix(0.1111111111111111,0,0,0.1111111111111111,42,0)" xlink:href="#A"/><use transform="matrix(0.1111111111111111,0,0,0.1111111111111111,62,0)" xlink:href="#G"/><use transform="matrix(0.1111111111111111,0,0,0.1111111111111111,75.22222222222223,0)" xlink:href="#H"/><use transform="matrix(0.1111111111111111,0,0,0.1111111111111111,97.44444444444446,0)" xlink:href="#B"/><use transform="matrix(0.1111111111111111,0,0,0.1111111111111111,117.44444444444446,0)" xlink:href="#N"/><use transform="matrix(0.1111111111111111,0,0,0.1111111111111111,137.44444444444446,0)" xlink:href="#B"/><use transform="matrix(0.1111111111111111,0,0,0.1111111111111111,157.44444444444446,0)" xlink:href="#y"/><use transform="matrix(0.1111111111111111,0,0,0.1111111111111111,168.55555555555557,0)" xlink:href="#w"/><use transform="matrix(0.1111111111111111,0,0,0.1111111111111111,190.7777777777778,0)" xlink:href="#K"/></g><path d="M185-189c-5-48-123-54-124 2 14 75 158 14 163 119 3 78-121 87-175 55-17-10-28-26-33-46l33-7c5 56 141 63 141-1 0-78-155-14-162-118-5-82 145-84 179-34 5 7 8 16 11 25" id="Q"/><g id="l"><use transform="matrix(0.1111111111111111,0,0,0.1111111111111111,0,0)" xlink:href="#Q"/><use transform="matrix(0.1111111111111111,0,0,0.1111111111111111,26.666666666666664,0)" xlink:href="#y"/><use transform="matrix(0.1111111111111111,0,0,0.1111111111111111,37.77777777777777,0)" xlink:href="#G"/><use transform="matrix(0.1111111111111111,0,0,0.1111111111111111,50.99999999999999,0)" xlink:href="#w"/><use transform="matrix(0.1111111111111111,0,0,0.1111111111111111,73.22222222222221,0)" xlink:href="#B"/><use transform="matrix(0.1111111111111111,0,0,0.1111111111111111,93.22222222222221,0)" xlink:href="#B"/></g><path d="M233-177c-1 41-23 64-60 70L243 0h-38l-65-103H63V0H30v-248c88 3 205-21 203 71zM63-129c60-2 137 13 137-47 0-61-80-42-137-45v92" id="R"/><g id="m"><use transform="matrix(0.1111111111111111,0,0,0.1111111111111111,0,0)" xlink:href="#R"/><use transform="matrix(0.1111111111111111,0,0,0.1111111111111111,28.777777777777775,0)" xlink:href="#w"/><use transform="matrix(0.1111111111111111,0,0,0.1111111111111111,51,0)" xlink:href="#B"/><use transform="matrix(0.1111111111111111,0,0,0.1111111111111111,71,0)" xlink:href="#D"/><use transform="matrix(0.1111111111111111,0,0,0.1111111111111111,93.22222222222223,0)" xlink:href="#H"/><use transform="matrix(0.1111111111111111,0,0,0.1111111111111111,115.44444444444446,0)" xlink:href="#x"/><use transform="matrix(0.1111111111111111,0,0,0.1111111111111111,137.66666666666669,0)" xlink:href="#B"/><use transform="matrix(0.1111111111111111,0,0,0.1111111111111111,157.66666666666669,0)" xlink:href="#w"/></g><g id="n"><use transform="matrix(0.1111111111111111,0,0,0.1111111111111111,0,0)" xlink:href="#I"/><use transform="matrix(0.1111111111111111,0,0,0.1111111111111111,26.666666666666664,0)" xlink:href="#M"/><use transform="matrix(0.1111111111111111,0,0,0.1111111111111111,48.888888888888886,0)" xlink:href="#G"/><use transform="matrix(0.1111111111111111,0,0,0.1111111111111111,62.11111111111111,0)" xlink:href="#M"/><use transform="matrix(0.1111111111111111,0,0,0.1111111111111111,84.33333333333333,0)" xlink:href="#K"/><use transform="matrix(0.1111111111111111,0,0,0.1111111111111111,117.55555555555554,0)" xlink:href="#w"/><use transform="matrix(0.1111111111111111,0,0,0.1111111111111111,139.77777777777777,0)" xlink:href="#y"/><use transform="matrix(0.1111111111111111,0,0,0.1111111111111111,150.88888888888889,0)" xlink:href="#w"/><use transform="matrix(0.1111111111111111,0,0,0.1111111111111111,173.11111111111111,0)" xlink:href="#G"/><use transform="matrix(0.1111111111111111,0,0,0.1111111111111111,186.33333333333334,0)" xlink:href="#B"/></g><path d="M30 0v-248h33v221h125V0H30" id="S"/><path d="M101-234c-31-9-42 10-38 44h38v23H63V0H32v-167H5v-23h27c-7-52 17-82 69-68v24" id="T"/><g id="o"><use transform="matrix(0.1111111111111111,0,0,0.1111111111111111,0,0)" xlink:href="#S"/><use transform="matrix(0.1111111111111111,0,0,0.1111111111111111,22.22222222222222,0)" xlink:href="#z"/><use transform="matrix(0.1111111111111111,0,0,0.1111111111111111,31,0)" xlink:href="#T"/><use transform="matrix(0.1111111111111111,0,0,0.1111111111111111,42.111111111111114,0)" xlink:href="#w"/><use transform="matrix(0.1111111111111111,0,0,0.1111111111111111,64.33333333333334,0)" xlink:href="#B"/><use transform="matrix(0.1111111111111111,0,0,0.1111111111111111,84.33333333333334,0)" xlink:href="#D"/><use transform="matrix(0.1111111111111111,0,0,0.1111111111111111,106.55555555555557,0)" xlink:href="#M"/><use transform="matrix(0.1111111111111111,0,0,0.1111111111111111,128.7777777777778,0)" xlink:href="#x"/></g><path d="M30-248c118-7 216 8 213 122C240-48 200 0 122 0H30v-248zM63-27c89 8 146-16 146-99s-60-101-146-95v194" id="U"/><path d="M24 0v-261h32V0H24" id="V"/><g id="p"><use transform="matrix(0.1111111111111111,0,0,0.1111111111111111,0,0)" xlink:href="#U"/><use transform="matrix(0.1111111111111111,0,0,0.1111111111111111,28.777777777777775,0)" xlink:href="#w"/><use transform="matrix(0.1111111111111111,0,0,0.1111111111111111,51,0)" xlink:href="#J"/><use transform="matrix(0.1111111111111111,0,0,0.1111111111111111,71,0)" xlink:href="#w"/><use transform="matrix(0.1111111111111111,0,0,0.1111111111111111,93.22222222222223,0)" xlink:href="#V"/><use transform="matrix(0.1111111111111111,0,0,0.1111111111111111,102,0)" xlink:href="#H"/><use transform="matrix(0.1111111111111111,0,0,0.1111111111111111,124.22222222222224,0)" xlink:href="#D"/><use transform="matrix(0.1111111111111111,0,0,0.1111111111111111,146.44444444444446,0)" xlink:href="#K"/><use transform="matrix(0.1111111111111111,0,0,0.1111111111111111,179.66666666666669,0)" xlink:href="#w"/><use transform="matrix(0.1111111111111111,0,0,0.1111111111111111,201.8888888888889,0)" xlink:href="#x"/><use transform="matrix(0.1111111111111111,0,0,0.1111111111111111,224.11111111111114,0)" xlink:href="#y"/></g><g id="q"><use transform="matrix(0.1111111111111111,0,0,0.1111111111111111,0,0)" xlink:href="#C"/><use transform="matrix(0.1111111111111111,0,0,0.1111111111111111,26.666666666666664,0)" xlink:href="#y"/><use transform="matrix(0.1111111111111111,0,0,0.1111111111111111,37.77777777777777,0)" xlink:href="#z"/><use transform="matrix(0.1111111111111111,0,0,0.1111111111111111,46.55555555555555,0)" xlink:href="#H"/><use transform="matrix(0.1111111111111111,0,0,0.1111111111111111,68.77777777777777,0)" xlink:href="#V"/><use transform="matrix(0.1111111111111111,0,0,0.1111111111111111,77.55555555555554,0)" xlink:href="#H"/><use transform="matrix(0.1111111111111111,0,0,0.1111111111111111,99.77777777777777,0)" xlink:href="#E"/><use transform="matrix(0.1111111111111111,0,0,0.1111111111111111,122,0)" xlink:href="#z"/><use transform="matrix(0.1111111111111111,0,0,0.1111111111111111,130.77777777777777,0)" xlink:href="#A"/><use transform="matrix(0.1111111111111111,0,0,0.1111111111111111,150.77777777777777,0)" xlink:href="#M"/><use transform="matrix(0.1111111111111111,0,0,0.1111111111111111,173,0)" xlink:href="#V"/></g><path d="M63-220v92h138v28H63V0H30v-248h175v28H63" id="W"/><path d="M206 0h-36l-40-164L89 0H53L-1-190h32L70-26l43-164h34l41 164 42-164h31" id="X"/><g id="r"><use transform="matrix(0.1111111111111111,0,0,0.1111111111111111,0,0)" xlink:href="#W"/><use transform="matrix(0.1111111111111111,0,0,0.1111111111111111,24.333333333333332,0)" xlink:href="#G"/><use transform="matrix(0.1111111111111111,0,0,0.1111111111111111,37.55555555555556,0)" xlink:href="#M"/><use transform="matrix(0.1111111111111111,0,0,0.1111111111111111,59.77777777777777,0)" xlink:href="#K"/><use transform="matrix(0.1111111111111111,0,0,0.1111111111111111,93,0)" xlink:href="#w"/><use transform="matrix(0.1111111111111111,0,0,0.1111111111111111,115.22222222222224,0)" xlink:href="#X"/><use transform="matrix(0.1111111111111111,0,0,0.1111111111111111,144,0)" xlink:href="#H"/><use transform="matrix(0.1111111111111111,0,0,0.1111111111111111,166.22222222222223,0)" xlink:href="#G"/><use transform="matrix(0.1111111111111111,0,0,0.1111111111111111,179.44444444444446,0)" xlink:href="#P"/></g><g id="s"><use transform="matrix(0.1111111111111111,0,0,0.1111111111111111,0,0)" xlink:href="#I"/><use transform="matrix(0.1111111111111111,0,0,0.1111111111111111,26.666666666666664,0)" xlink:href="#G"/><use transform="matrix(0.1111111111111111,0,0,0.1111111111111111,39.888888888888886,0)" xlink:href="#H"/><use transform="matrix(0.1111111111111111,0,0,0.1111111111111111,62.11111111111111,0)" xlink:href="#F"/><use transform="matrix(0.1111111111111111,0,0,0.1111111111111111,82.11111111111111,0)" xlink:href="#z"/><use transform="matrix(0.1111111111111111,0,0,0.1111111111111111,90.88888888888889,0)" xlink:href="#K"/><use transform="matrix(0.1111111111111111,0,0,0.1111111111111111,124.1111111111111,0)" xlink:href="#M"/><use transform="matrix(0.1111111111111111,0,0,0.1111111111111111,146.33333333333334,0)" xlink:href="#V"/></g><path d="M140-251c81 0 123 46 123 126C263-46 219 4 140 4 59 4 17-45 17-125s42-126 123-126zm0 227c63 0 89-41 89-101s-29-99-89-99c-61 0-89 39-89 99S79-25 140-24" id="Y"/><path d="M84 4C-5 8 30-112 23-190h32v120c0 31 7 50 39 49 72-2 45-101 50-169h31l1 190h-30c-1-10 1-25-2-33-11 22-28 36-60 37" id="Z"/><g id="t"><use transform="matrix(0.1111111111111111,0,0,0.1111111111111111,0,0)" xlink:href="#Y"/><use transform="matrix(0.1111111111111111,0,0,0.1111111111111111,31.11111111111111,0)" xlink:href="#Z"/><use transform="matrix(0.1111111111111111,0,0,0.1111111111111111,53.33333333333333,0)" xlink:href="#y"/><use transform="matrix(0.1111111111111111,0,0,0.1111111111111111,64.44444444444444,0)" xlink:href="#A"/><use transform="matrix(0.1111111111111111,0,0,0.1111111111111111,84.44444444444444,0)" xlink:href="#H"/><use transform="matrix(0.1111111111111111,0,0,0.1111111111111111,106.66666666666666,0)" xlink:href="#K"/><use transform="matrix(0.1111111111111111,0,0,0.1111111111111111,139.88888888888889,0)" xlink:href="#w"/></g><g id="u"><use transform="matrix(0.1111111111111111,0,0,0.1111111111111111,0,0)" xlink:href="#U"/><use transform="matrix(0.1111111111111111,0,0,0.1111111111111111,28.777777777777775,0)" xlink:href="#z"/><use transform="matrix(0.1111111111111111,0,0,0.1111111111111111,37.55555555555555,0)" xlink:href="#B"/><use transform="matrix(0.1111111111111111,0,0,0.1111111111111111,57.55555555555555,0)" xlink:href="#y"/><use transform="matrix(0.1111111111111111,0,0,0.1111111111111111,68.66666666666666,0)" xlink:href="#M"/><use transform="matrix(0.1111111111111111,0,0,0.1111111111111111,90.88888888888889,0)" xlink:href="#V"/></g></defs></g></svg>