<svg xmlns="http://www.w3.org/2000/svg" xmlns:xlink="http://www.w3.org/1999/xlink" xmlns:lucid="lucid" width="1278.85" height="1200"><g transform="translate(-84.85279739903382 -60.000000000000014)" lucid:page-tab-id="0_0"><path d="M505.5 80c55.32 0 100.16 32.46 100.16 72.5S560.82 225 505.5 225H205c-55.3 0-100.15-32.46-100.15-72.5S149.7 80 205 80z" stroke="#000" stroke-width="2" fill="#3aa6dd"/><use xlink:href="#a" transform="matrix(1,0,0,1,104.85279739903382,80.00000000000001) translate(171.66666666666669 80.5)"/><path d="M1243.54 80c55.3 0 100.16 32.46 100.16 72.5s-44.85 72.5-100.16 72.5h-300.5c-55.3 0-100.15-32.46-100.15-72.5S887.72 80 943.04 80z" stroke="#000" stroke-width="2" fill="#ef8d22"/><use xlink:href="#b" transform="matrix(1,0,0,1,842.8887579554246,80.00000000000001) translate(138.44444444444443 80.5)"/><path d="M356.16 228.33l186.82 480" stroke="#000" stroke-width="5" fill="none"/><path d="M358.52 227.48l-4.66 1.82-1.28-3.3h5.36z"/><path d="M549.07 723.96l-9.5-11.6 8.64-3.37z" stroke="#000" stroke-width="5"/><path d="M1092.47 228.36l-167.2 479.67" stroke="#000" stroke-width="5" fill="none"/><path d="M1094.8 229.24l-4.7-1.64.55-1.6h5.3z"/><path d="M919.75 723.86l.32-15 8.76 3.06z" stroke="#000" stroke-width="5"/><path d="M937.78 732.5c78.6 0 142.33 32.46 142.33 72.5s-63.7 72.5-142.32 72.5h-427c-78.62 0-142.34-32.46-142.34-72.5s63.72-72.5 142.33-72.5z" stroke="#000" stroke-width="2" fill="#7ab648"/><use xlink:href="#c" transform="matrix(1,0,0,1,368.4370690263163,732.5) translate(131.7222222222222 80.5)"/><use xlink:href="#d" transform="matrix(1,0,0,1,368.4370690263163,732.5) translate(256.05555555555554 80.5)"/><use xlink:href="#e" transform="matrix(1,0,0,1,368.4370690263163,732.5) translate(447.05555555555554 80.5)"/><path d="M1032.67 1095c113.55 0 205.6 32.46 205.6 72.5s-92.05 72.5-205.6 72.5h-616.8c-113.54 0-205.58-32.46-205.58-72.5s92.03-72.5 205.58-72.5z" stroke="#000" stroke-width="2" fill="#ff8f80"/><use xlink:href="#f" transform="matrix(1,0,0,1,210.28650604994687,1095) translate(315.3333333333333 80.5)"/><use xlink:href="#g" transform="matrix(1,0,0,1,210.28650604994687,1095) translate(477.44444444444446 80.5)"/><path d="M1082.97 806.7l5.9 5.38 6.16 6.12 4.97 5.37 4.04 4.76 3.34 4.27 2.76 3.86 2.3 3.52 1.93 3.25 1.63 3 1.36 2.8 1.15 2.63.97 2.48.8 2.36.66 2.24.53 2.15.42 2.06.33 2 .24 1.94.14 1.9.06 1.84v1.82l-.1 1.8-.16 1.77-.24 1.77-.3 1.76-.4 1.77-.47 1.77-.56 1.8-.64 1.8-.75 1.86-.85 1.9-.98 1.93-1.12 2-1.28 2.06-1.46 2.16-1.65 2.26-1.92 2.37-2.2 2.5-2.56 2.7-3 2.87-3.5 3.12-4.22 3.42-5.1 3.8-6.25 4.27-7.9 4.93-10.37 5.86-14.38 7.35-22.66 10.4-133.75 55.9-15.52 7.93-11.34 6.4-8.76 5.46-7 4.77-5.7 4.27-4.77 3.87-4 3.55-3.44 3.3-2.94 3.08-2.56 2.9-2.22 2.76-1.94 2.63-1.7 2.5-1.5 2.44-1.32 2.36-.74 1.46" stroke="#000" stroke-width="5" fill="none"/><path d="M1084.7 804.9l-3.37 3.68-.35-.32v-.02l.1-1.62.03-1.6v-.84l-.06-1.6-.1-1.12z"/><path d="M814.53 1086.14l-1.15-14.96 9 2.18z" stroke="#000" stroke-width="5"/><path d="M365.6 806.7l-3.15 2.86-4.16 4.13-3.5 3.77-2.98 3.5-2.53 3.23-2.17 3.03-1.87 2.85-1.6 2.7-1.38 2.55-1.2 2.44-1.02 2.35-.88 2.27-.74 2.18-.63 2.13-.5 2.1-.42 2.04-.33 2-.23 2-.15 1.97-.07 1.97v1.96l.1 1.97.2 1.98.26 2 .36 2.05.46 2.07.56 2.13.68 2.18.8 2.26.95 2.34 1.1 2.44 1.3 2.55 1.5 2.68 1.77 2.86 2.06 3.04 2.4 3.27 2.87 3.54 3.4 3.87 4.1 4.28 4.98 4.8 6.18 5.48 7.85 6.4 10.32 7.68 14.38 9.82 22.83 14.18 117.66 67.87 12.95 8.83 9.13 6.8 6.84 5.57 5.33 4.7 4.24 4.1 3.46 3.62 2.84 3.23 2.38 2.95 2 2.7 1.68 2.5.7 1.12" stroke="#000" stroke-width="5" fill="none"/><path d="M367.57 801.76l-.1 1.62-.03 1.6v.84l.07 1.6.08.83-.35.33-3.38-3.7 3.75-3.42z"/><path d="M601.63 1086.28l-8.7-12.2 8.84-2.8z" stroke="#000" stroke-width="5"/><defs><path d="M143 4C61 4 22-44 18-125c-5-107 100-154 193-111 17 8 29 25 37 43l-32 9c-13-25-37-40-76-40-61 0-88 39-88 99 0 61 29 100 91 101 35 0 62-11 79-27v-45h-74v-28h105v86C228-13 192 4 143 4" id="h"/><path d="M100-194c63 0 86 42 84 106H49c0 40 14 67 53 68 26 1 43-12 49-29l28 8c-11 28-37 45-77 45C44 4 14-33 15-96c1-61 26-98 85-98zm52 81c6-60-76-77-97-28-3 7-6 17-6 28h103" id="i"/><path d="M117-194c89-4 53 116 60 194h-32v-121c0-31-8-49-39-48C34-167 62-67 57 0H25l-1-190h30c1 10-1 24 2 32 11-22 29-35 61-36" id="j"/><path d="M59-47c-2 24 18 29 38 22v24C64 9 27 4 27-40v-127H5v-23h24l9-43h21v43h35v23H59v120" id="k"/><path d="M24-231v-30h32v30H24zM24 0v-190h32V0H24" id="l"/><path d="M96-169c-40 0-48 33-48 73s9 75 48 75c24 0 41-14 43-38l32 2c-6 37-31 61-74 61-59 0-76-41-82-99-10-93 101-131 147-64 4 7 5 14 7 22l-32 3c-4-21-16-35-41-35" id="m"/><path d="M135-143c-3-34-86-38-87 0 15 53 115 12 119 90S17 21 10-45l28-5c4 36 97 45 98 0-10-56-113-15-118-90-4-57 82-63 122-42 12 7 21 19 24 35" id="n"/><g id="a"><use transform="matrix(0.1111111111111111,0,0,0.1111111111111111,0,0)" xlink:href="#h"/><use transform="matrix(0.1111111111111111,0,0,0.1111111111111111,31.11111111111111,0)" xlink:href="#i"/><use transform="matrix(0.1111111111111111,0,0,0.1111111111111111,53.33333333333333,0)" xlink:href="#j"/><use transform="matrix(0.1111111111111111,0,0,0.1111111111111111,75.55555555555554,0)" xlink:href="#i"/><use transform="matrix(0.1111111111111111,0,0,0.1111111111111111,97.77777777777777,0)" xlink:href="#k"/><use transform="matrix(0.1111111111111111,0,0,0.1111111111111111,108.88888888888889,0)" xlink:href="#l"/><use transform="matrix(0.1111111111111111,0,0,0.1111111111111111,117.66666666666666,0)" xlink:href="#m"/><use transform="matrix(0.1111111111111111,0,0,0.1111111111111111,137.66666666666666,0)" xlink:href="#n"/></g><path d="M30 0v-248h187v28H63v79h144v27H63v87h162V0H30" id="o"/><path d="M108 0H70L1-190h34L89-25l56-165h34" id="p"/><path d="M114-163C36-179 61-72 57 0H25l-1-190h30c1 12-1 29 2 39 6-27 23-49 58-41v29" id="q"/><path d="M100-194c62-1 85 37 85 99 1 63-27 99-86 99S16-35 15-95c0-66 28-99 85-99zM99-20c44 1 53-31 53-75 0-43-8-75-51-75s-53 32-53 75 10 74 51 75" id="r"/><path d="M210-169c-67 3-38 105-44 169h-31v-121c0-29-5-50-35-48C34-165 62-65 56 0H25l-1-190h30c1 10-1 24 2 32 10-44 99-50 107 0 11-21 27-35 58-36 85-2 47 119 55 194h-31v-121c0-29-5-49-35-48" id="s"/><g id="b"><use transform="matrix(0.1111111111111111,0,0,0.1111111111111111,0,0)" xlink:href="#o"/><use transform="matrix(0.1111111111111111,0,0,0.1111111111111111,26.666666666666664,0)" xlink:href="#j"/><use transform="matrix(0.1111111111111111,0,0,0.1111111111111111,48.888888888888886,0)" xlink:href="#p"/><use transform="matrix(0.1111111111111111,0,0,0.1111111111111111,68.88888888888889,0)" xlink:href="#l"/><use transform="matrix(0.1111111111111111,0,0,0.1111111111111111,77.66666666666666,0)" xlink:href="#q"/><use transform="matrix(0.1111111111111111,0,0,0.1111111111111111,90.88888888888889,0)" xlink:href="#r"/><use transform="matrix(0.1111111111111111,0,0,0.1111111111111111,113.11111111111111,0)" xlink:href="#j"/><use transform="matrix(0.1111111111111111,0,0,0.1111111111111111,135.33333333333334,0)" xlink:href="#s"/><use transform="matrix(0.1111111111111111,0,0,0.1111111111111111,168.55555555555557,0)" xlink:href="#i"/><use transform="matrix(0.1111111111111111,0,0,0.1111111111111111,190.7777777777778,0)" xlink:href="#j"/><use transform="matrix(0.1111111111111111,0,0,0.1111111111111111,213.00000000000003,0)" xlink:href="#k"/></g><path d="M185-189c-5-48-123-54-124 2 14 75 158 14 163 119 3 78-121 87-175 55-17-10-28-26-33-46l33-7c5 56 141 63 141-1 0-78-155-14-162-118-5-82 145-84 179-34 5 7 8 16 11 25" id="t"/><g id="c"><use transform="matrix(0.1111111111111111,0,0,0.1111111111111111,0,0)" xlink:href="#t"/><use transform="matrix(0.1111111111111111,0,0,0.1111111111111111,26.666666666666664,0)" xlink:href="#k"/><use transform="matrix(0.1111111111111111,0,0,0.1111111111111111,37.77777777777777,0)" xlink:href="#q"/><use transform="matrix(0.1111111111111111,0,0,0.1111111111111111,50.99999999999999,0)" xlink:href="#i"/><use transform="matrix(0.1111111111111111,0,0,0.1111111111111111,73.22222222222221,0)" xlink:href="#n"/><use transform="matrix(0.1111111111111111,0,0,0.1111111111111111,93.22222222222221,0)" xlink:href="#n"/></g><path d="M233-177c-1 41-23 64-60 70L243 0h-38l-65-103H63V0H30v-248c88 3 205-21 203 71zM63-129c60-2 137 13 137-47 0-61-80-42-137-45v92" id="u"/><path d="M115-194c55 1 70 41 70 98S169 2 115 4C84 4 66-9 55-30l1 105H24l-1-265h31l2 30c10-21 28-34 59-34zm-8 174c40 0 45-34 45-75s-6-73-45-74c-42 0-51 32-51 76 0 43 10 73 51 73" id="v"/><g id="d"><use transform="matrix(0.1111111111111111,0,0,0.1111111111111111,0,0)" xlink:href="#u"/><use transform="matrix(0.1111111111111111,0,0,0.1111111111111111,28.777777777777775,0)" xlink:href="#i"/><use transform="matrix(0.1111111111111111,0,0,0.1111111111111111,51,0)" xlink:href="#n"/><use transform="matrix(0.1111111111111111,0,0,0.1111111111111111,71,0)" xlink:href="#v"/><use transform="matrix(0.1111111111111111,0,0,0.1111111111111111,93.22222222222223,0)" xlink:href="#r"/><use transform="matrix(0.1111111111111111,0,0,0.1111111111111111,115.44444444444446,0)" xlink:href="#j"/><use transform="matrix(0.1111111111111111,0,0,0.1111111111111111,137.66666666666669,0)" xlink:href="#n"/><use transform="matrix(0.1111111111111111,0,0,0.1111111111111111,157.66666666666669,0)" xlink:href="#i"/></g><path d="M179-190L93 31C79 59 56 82 12 73V49c39 6 53-20 64-50L1-190h34L92-34l54-156h33" id="w"/><g id="e"><use transform="matrix(0.1111111111111111,0,0,0.1111111111111111,0,0)" xlink:href="#t"/><use transform="matrix(0.1111111111111111,0,0,0.1111111111111111,26.666666666666664,0)" xlink:href="#w"/><use transform="matrix(0.1111111111111111,0,0,0.1111111111111111,46.666666666666664,0)" xlink:href="#n"/><use transform="matrix(0.1111111111111111,0,0,0.1111111111111111,66.66666666666666,0)" xlink:href="#k"/><use transform="matrix(0.1111111111111111,0,0,0.1111111111111111,77.77777777777777,0)" xlink:href="#i"/><use transform="matrix(0.1111111111111111,0,0,0.1111111111111111,100,0)" xlink:href="#s"/></g><path d="M30 0v-248h33v221h125V0H30" id="x"/><path d="M101-234c-31-9-42 10-38 44h38v23H63V0H32v-167H5v-23h27c-7-52 17-82 69-68v24" id="y"/><path d="M141-36C126-15 110 5 73 4 37 3 15-17 15-53c-1-64 63-63 125-63 3-35-9-54-41-54-24 1-41 7-42 31l-33-3c5-37 33-52 76-52 45 0 72 20 72 64v82c-1 20 7 32 28 27v20c-31 9-61-2-59-35zM48-53c0 20 12 33 32 33 41-3 63-29 60-74-43 2-92-5-92 41" id="z"/><g id="f"><use transform="matrix(0.1111111111111111,0,0,0.1111111111111111,0,0)" xlink:href="#x"/><use transform="matrix(0.1111111111111111,0,0,0.1111111111111111,22.22222222222222,0)" xlink:href="#l"/><use transform="matrix(0.1111111111111111,0,0,0.1111111111111111,31,0)" xlink:href="#y"/><use transform="matrix(0.1111111111111111,0,0,0.1111111111111111,42.111111111111114,0)" xlink:href="#i"/><use transform="matrix(0.1111111111111111,0,0,0.1111111111111111,64.33333333333334,0)" xlink:href="#n"/><use transform="matrix(0.1111111111111111,0,0,0.1111111111111111,84.33333333333334,0)" xlink:href="#v"/><use transform="matrix(0.1111111111111111,0,0,0.1111111111111111,106.55555555555557,0)" xlink:href="#z"/><use transform="matrix(0.1111111111111111,0,0,0.1111111111111111,128.7777777777778,0)" xlink:href="#j"/></g><path d="M30-248c118-7 216 8 213 122C240-48 200 0 122 0H30v-248zM63-27c89 8 146-16 146-99s-60-101-146-95v194" id="A"/><path d="M24 0v-261h32V0H24" id="B"/><g id="g"><use transform="matrix(0.1111111111111111,0,0,0.1111111111111111,0,0)" xlink:href="#A"/><use transform="matrix(0.1111111111111111,0,0,0.1111111111111111,28.777777777777775,0)" xlink:href="#i"/><use transform="matrix(0.1111111111111111,0,0,0.1111111111111111,51,0)" xlink:href="#p"/><use transform="matrix(0.1111111111111111,0,0,0.1111111111111111,71,0)" xlink:href="#i"/><use transform="matrix(0.1111111111111111,0,0,0.1111111111111111,93.22222222222223,0)" xlink:href="#B"/><use transform="matrix(0.1111111111111111,0,0,0.1111111111111111,102,0)" xlink:href="#r"/><use transform="matrix(0.1111111111111111,0,0,0.1111111111111111,124.22222222222224,0)" xlink:href="#v"/><use transform="matrix(0.1111111111111111,0,0,0.1111111111111111,146.44444444444446,0)" xlink:href="#s"/><use transform="matrix(0.1111111111111111,0,0,0.1111111111111111,179.66666666666669,0)" xlink:href="#i"/><use transform="matrix(0.1111111111111111,0,0,0.1111111111111111,201.8888888888889,0)" xlink:href="#j"/><use transform="matrix(0.1111111111111111,0,0,0.1111111111111111,224.11111111111114,0)" xlink:href="#k"/></g></defs></g></svg>