<svg xmlns="http://www.w3.org/2000/svg" xmlns:xlink="http://www.w3.org/1999/xlink" xmlns:lucid="lucid" width="1947" height="1396.23"><g transform="translate(-40 -143.77113343957228)" lucid:page-tab-id="0_0"><path d="M118 1520H65c-2.76 0-5-2.24-5-5V168.77c0-2.76 2.24-5 5-5h53" fill="#fff"/><path d="M118 1520H65c-2.76 0-5-2.24-5-5V168.77c0-2.76 2.24-5 5-5h53M118 1520h1844c2.76 0 5-2.24 5-5V168.77c0-2.76-2.24-5-5-5H118M118 1520V163.77M60 1078.93h1907M60 640h1907M60 380h1907" stroke="#999" stroke-width="2" fill="none"/><use xlink:href="#a" transform="matrix(6.123233995736766e-17,-1,1,6.123233995736766e-17,59.99999999999997,380) translate(16.23262176717421 36.2091711695751)"/><use xlink:href="#b" transform="matrix(6.123233995736766e-17,-1,1,6.123233995736766e-17,59.99999999999996,640) translate(41.837207351961766 36.2091711695751)"/><use xlink:href="#c" transform="matrix(6.123233995736766e-17,-1,1,6.123233995736766e-17,59.99999999999993,1078.934151344268) translate(124.52918257858354 36.2091711695751)"/><use xlink:href="#d" transform="matrix(6.123233995736766e-17,-1,1,6.123233995736766e-17,59.9999999999999,1520) translate(184.95414415212448 36.2091711695751)"/><path d="M200 200h160v120H200z" stroke="#000" stroke-width="2" fill="#a3d977"/><use xlink:href="#e" transform="matrix(1,0,0,1,200,200) translate(12.013510775812563 45.5816576608498)"/><use xlink:href="#f" transform="matrix(1,0,0,1,200,200) translate(52.06446171789647 45.5816576608498)"/><use xlink:href="#g" transform="matrix(1,0,0,1,200,200) translate(23.97873236976013 88.83668467830043)"/><path d="M280 322v98.5" stroke="#000" stroke-width="2" fill="none"/><path d="M281 322.03h-2V321h2z"/><path d="M280 435.76l-4.64-14.26h9.28z" stroke="#000" stroke-width="2"/><path d="M200 800h160v120H200z" stroke="#000" stroke-width="2" fill="#a3d977"/><use xlink:href="#h" transform="matrix(1,0,0,1,200,800) translate(10.41147273812922 45.5816576608498)"/><use xlink:href="#i" transform="matrix(1,0,0,1,200,800) translate(82.40305705652504 45.5816576608498)"/><use xlink:href="#j" transform="matrix(1,0,0,1,200,800) translate(69.98726226447903 88.83668467830043)"/><path d="M220 440h120l40 80-40 80H220l-40-80z" stroke="#000" stroke-width="2" fill="#ff8f80"/><use xlink:href="#k" transform="matrix(1,0,0,1,180,440) translate(29.960899540030766 65.5816576608498)"/><use xlink:href="#l" transform="matrix(1,0,0,1,180,440) translate(53.090323709084224 108.83668467830041)"/><path d="M686.87 1160h338.4v106.5h-338.4z" stroke="#000" stroke-width="2" fill="#ffc374"/><use xlink:href="#m" transform="matrix(1,0,0,1,686.8678778757537,1160) translate(31.47441031584333 39.0816576608498)"/><use xlink:href="#n" transform="matrix(1,0,0,1,686.8678778757537,1160) translate(167.54751614157342 39.0816576608498)"/><use xlink:href="#o" transform="matrix(1,0,0,1,686.8678778757537,1160) translate(86.4944041725311 82.33668467830043)"/><path d="M280 922v318.5" stroke="#000" stroke-width="2" fill="none"/><path d="M281 922.03h-2V921h2z"/><path d="M280 1255.76l-4.64-14.26h9.28z" stroke="#000" stroke-width="2"/><path d="M200 1260h160v120H200z" stroke="#000" stroke-width="2" fill="#a3d977"/><use xlink:href="#h" transform="matrix(1,0,0,1,200,1260) translate(10.41147273812922 45.5816576608498)"/><use xlink:href="#i" transform="matrix(1,0,0,1,200,1260) translate(82.40305705652504 45.5816576608498)"/><use xlink:href="#p" transform="matrix(1,0,0,1,200,1260) translate(69.98726226447903 88.83668467830043)"/><path d="M400 1300h1501v120H400z" fill="none"/><path d="M400 1300h1501v80H400z" stroke="#3d4752" stroke-width="2" fill="#3d4752"/><path d="M400 1300v120m1501-120v120m-750.5-40v20" stroke="#3d4752" stroke-width="2" fill="none"/><use xlink:href="#q" transform="matrix(1,0,0,1,24.75,1430) translate(330.4426801901556 28.836684678300415)"/><use xlink:href="#r" transform="matrix(1,0,0,1,1525.75,1430) translate(330.4426801901556 28.836684678300415)"/><use xlink:href="#s" transform="matrix(1,0,0,1,775.25,1410) translate(330.4426801901556 28.836684678300415)"/><path d="M577.63 1238h20v80h-20z" fill="none"/><path d="M587.63 1238v60" stroke="#ed6058" stroke-width="2" fill="none"/><path d="M577.63 1298h20l-10 20z" stroke="#ed6058" stroke-width="2" fill="#ed6058"/><use xlink:href="#t" transform="matrix(1,0,0,1,507.625,1188) translate(19.122554568032456 -27.673369356600816)"/><use xlink:href="#u" transform="matrix(1,0,0,1,507.625,1188) translate(4.003320587395777 15.581657660849807)"/><use xlink:href="#v" transform="matrix(1,0,0,1,507.625,1188) translate(135.9712039415623 15.581657660849807)"/><use xlink:href="#w" transform="matrix(1,0,0,1,347.625,1218) translate(194.9426801901556 28.836684678300415)"/><path d="M1140.5 1238h20v80h-20z" fill="none"/><path d="M1150.5 1238v60" stroke="#ed6058" stroke-width="2" fill="none"/><path d="M1140.5 1298h20l-10 20z" stroke="#ed6058" stroke-width="2" fill="#ed6058"/><use xlink:href="#x" transform="matrix(1,0,0,1,1070.5,1188) translate(19.122554568032456 -27.673369356600816)"/><use xlink:href="#y" transform="matrix(1,0,0,1,1070.5,1188) translate(4.003320587395777 15.581657660849807)"/><use xlink:href="#z" transform="matrix(1,0,0,1,1070.5,1188) translate(135.9712039415623 15.581657660849807)"/><use xlink:href="#A" transform="matrix(1,0,0,1,910.5,1218) translate(194.9426801901556 28.836684678300415)"/><path d="M1140.5 1238h20v80h-20z" fill="none"/><path d="M1150.5 1238v60" stroke="#ed6058" stroke-width="2" fill="none"/><path d="M1140.5 1298h20l-10 20z" stroke="#ed6058" stroke-width="2" fill="#ed6058"/><use xlink:href="#t" transform="matrix(1,0,0,1,1070.5,1188) translate(19.122554568032456 -27.673369356600816)"/><use xlink:href="#u" transform="matrix(1,0,0,1,1070.5,1188) translate(4.003320587395777 15.581657660849807)"/><use xlink:href="#B" transform="matrix(1,0,0,1,1070.5,1188) translate(135.9712039415623 15.581657660849807)"/><use xlink:href="#A" transform="matrix(1,0,0,1,910.5,1218) translate(194.9426801901556 28.836684678300415)"/><path d="M1515.75 1238h20v80h-20z" fill="none"/><path d="M1525.75 1238v60" stroke="#ed6058" stroke-width="2" fill="none"/><path d="M1515.75 1298h20l-10 20z" stroke="#ed6058" stroke-width="2" fill="#ed6058"/><use xlink:href="#t" transform="matrix(1,0,0,1,1445.75,1188) translate(19.122554568032456 -27.673369356600816)"/><use xlink:href="#u" transform="matrix(1,0,0,1,1445.75,1188) translate(4.003320587395777 15.581657660849807)"/><use xlink:href="#C" transform="matrix(1,0,0,1,1445.75,1188) translate(135.9712039415623 15.581657660849807)"/><use xlink:href="#D" transform="matrix(1,0,0,1,1285.75,1218) translate(194.9426801901556 28.836684678300415)"/><path d="M1215.75 1400h620v60h-620z" stroke="#000" stroke-width="2" fill="#a3d977"/><use xlink:href="#E" transform="matrix(1,0,0,1,1215.75,1400) translate(253.97873236976014 37.2091711695751)"/><path d="M652.84 757.86h406.44v60H652.84z" stroke="#000" stroke-width="2" fill="#ffc374"/><use xlink:href="#F" transform="matrix(1,0,0,1,652.84375,757.8594206749933) translate(58.615684967011475 37.2091711695751)"/><use xlink:href="#G" transform="matrix(1,0,0,1,652.84375,757.8594206749933) translate(194.48853603803113 37.2091711695751)"/><path d="M400 840h1501v120H400z" fill="none"/><path d="M400 840h1501v80H400z" stroke="#3d4752" stroke-width="2" fill="#3d4752"/><path d="M400 840v120m1501-120v120m-750.5-40v20" stroke="#3d4752" stroke-width="2" fill="none"/><use xlink:href="#q" transform="matrix(1,0,0,1,24.75,970) translate(330.4426801901556 28.836684678300415)"/><use xlink:href="#r" transform="matrix(1,0,0,1,1525.75,970) translate(330.4426801901556 28.836684678300415)"/><use xlink:href="#s" transform="matrix(1,0,0,1,775.25,950) translate(330.4426801901556 28.836684678300415)"/><path d="M577.63 778h20v80h-20z" fill="none"/><path d="M587.63 778v60" stroke="#ed6058" stroke-width="2" fill="none"/><path d="M577.63 838h20l-10 20z" stroke="#ed6058" stroke-width="2" fill="#ed6058"/><use xlink:href="#t" transform="matrix(1,0,0,1,507.625,728) translate(19.122554568032456 -27.673369356600816)"/><use xlink:href="#u" transform="matrix(1,0,0,1,507.625,728) translate(4.003320587395777 15.581657660849807)"/><use xlink:href="#v" transform="matrix(1,0,0,1,507.625,728) translate(135.9712039415623 15.581657660849807)"/><g><use xlink:href="#w" transform="matrix(1,0,0,1,347.625,758) translate(194.9426801901556 28.836684678300415)"/></g><path d="M1140.5 778h20v80h-20z" fill="none"/><path d="M1150.5 778v60" stroke="#ed6058" stroke-width="2" fill="none"/><path d="M1140.5 838h20l-10 20z" stroke="#ed6058" stroke-width="2" fill="#ed6058"/><g><use xlink:href="#x" transform="matrix(1,0,0,1,1070.5,728) translate(19.122554568032456 -27.673369356600816)"/><use xlink:href="#y" transform="matrix(1,0,0,1,1070.5,728) translate(4.003320587395777 15.581657660849807)"/><use xlink:href="#z" transform="matrix(1,0,0,1,1070.5,728) translate(135.9712039415623 15.581657660849807)"/></g><g><use xlink:href="#A" transform="matrix(1,0,0,1,910.5,758) translate(194.9426801901556 28.836684678300415)"/></g><path d="M1140.5 778h20v80h-20z" fill="none"/><path d="M1150.5 778v60" stroke="#ed6058" stroke-width="2" fill="none"/><path d="M1140.5 838h20l-10 20z" stroke="#ed6058" stroke-width="2" fill="#ed6058"/><g><use xlink:href="#t" transform="matrix(1,0,0,1,1070.5,728) translate(19.122554568032456 -27.673369356600816)"/><use xlink:href="#u" transform="matrix(1,0,0,1,1070.5,728) translate(4.003320587395777 15.581657660849807)"/><use xlink:href="#B" transform="matrix(1,0,0,1,1070.5,728) translate(135.9712039415623 15.581657660849807)"/></g><g><use xlink:href="#A" transform="matrix(1,0,0,1,910.5,758) translate(194.9426801901556 28.836684678300415)"/></g><path d="M1515.75 778h20v80h-20z" fill="none"/><path d="M1525.75 778v60" stroke="#ed6058" stroke-width="2" fill="none"/><path d="M1515.75 838h20l-10 20z" stroke="#ed6058" stroke-width="2" fill="#ed6058"/><g><use xlink:href="#t" transform="matrix(1,0,0,1,1445.75,728) translate(19.122554568032456 -27.673369356600816)"/><use xlink:href="#u" transform="matrix(1,0,0,1,1445.75,728) translate(4.003320587395777 15.581657660849807)"/><use xlink:href="#C" transform="matrix(1,0,0,1,1445.75,728) translate(135.9712039415623 15.581657660849807)"/></g><g><use xlink:href="#D" transform="matrix(1,0,0,1,1285.75,758) translate(194.9426801901556 28.836684678300415)"/></g><path d="M1215.75 940h620v60h-620z" stroke="#000" stroke-width="2" fill="#a3d977"/><g><use xlink:href="#E" transform="matrix(1,0,0,1,1215.75,940) translate(253.97873236976014 37.2091711695751)"/></g><path d="M280 602v178.5" stroke="#000" stroke-width="2" fill="none"/><path d="M281 602.03h-2V601h2z"/><path d="M280 795.76l-4.64-14.26h9.28z" stroke="#000" stroke-width="2"/><path d="M1375.75 180H1820v180h-444.25z" stroke="#3d4752" stroke-width="2" fill="#3d4752"/><g><use xlink:href="#H" transform="matrix(1,0,0,1,1380.75,185) translate(7.146684087755034 66.46213127823545)"/><use xlink:href="#I" transform="matrix(1,0,0,1,1380.75,185) translate(53.36262069270971 66.46213127823545)"/><use xlink:href="#J" transform="matrix(1,0,0,1,1380.75,185) translate(93.27053252428617 66.46213127823545)"/><use xlink:href="#K" transform="matrix(1,0,0,1,1380.75,185) translate(196.25869208964477 66.46213127823545)"/><use xlink:href="#L" transform="matrix(1,0,0,1,1380.75,185) translate(301.82155564413733 66.46213127823545)"/><use xlink:href="#M" transform="matrix(1,0,0,1,1380.75,185) translate(87.6705513479198 122.0757374435291)"/><use xlink:href="#N" transform="matrix(1,0,0,1,1380.75,185) translate(193.2334149024124 122.0757374435291)"/></g><defs><path fill="#333" d="M30-248c87 1 191-15 191 75 0 78-77 80-158 76V0H30v-248zm33 125c57 0 124 11 124-50 0-59-68-47-124-48v98" id="O"/><path fill="#333" d="M233-177c-1 41-23 64-60 70L243 0h-38l-65-103H63V0H30v-248c88 3 205-21 203 71zM63-129c60-2 137 13 137-47 0-61-80-42-137-45v92" id="P"/><path fill="#333" d="M30 0v-248h187v28H63v79h144v27H63v87h162V0H30" id="Q"/><path fill="#333" d="M190 0L58-211 59 0H30v-248h39L202-35l-2-213h31V0h-41" id="R"/><path fill="#333" d="M205 0l-28-72H64L36 0H1l101-248h38L239 0h-34zm-38-99l-47-123c-12 45-31 82-46 123h93" id="S"/><path fill="#333" d="M127-220V0H93v-220H8v-28h204v28h-85" id="T"/><path fill="#333" d="M30 0v-248h33v221h125V0H30" id="U"/><g id="a"><use transform="matrix(0.10012737735520977,0,0,0.10012737735520977,0,0)" xlink:href="#O"/><use transform="matrix(0.10012737735520977,0,0,0.10012737735520977,24.030570565250343,0)" xlink:href="#P"/><use transform="matrix(0.10012737735520977,0,0,0.10012737735520977,49.96356130024967,0)" xlink:href="#Q"/><use transform="matrix(0.10012737735520977,0,0,0.10012737735520977,73.99413186550001,0)" xlink:href="#R"/><use transform="matrix(0.10012737735520977,0,0,0.10012737735520977,99.92712260049933,0)" xlink:href="#S"/><use transform="matrix(0.10012737735520977,0,0,0.10012737735520977,121.25425397715901,0)" xlink:href="#T"/><use transform="matrix(0.10012737735520977,0,0,0.10012737735520977,140.4787104293593,0)" xlink:href="#S"/><use transform="matrix(0.10012737735520977,0,0,0.10012737735520977,164.50928099460964,0)" xlink:href="#U"/></g><path fill="#333" d="M30-248c118-7 216 8 213 122C240-48 200 0 122 0H30v-248zM63-27c89 8 146-16 146-99s-60-101-146-95v194" id="V"/><path fill="#333" d="M33 0v-248h34V0H33" id="W"/><path fill="#333" d="M137 0h-34L2-248h35l83 218 83-218h36" id="X"/><path fill="#333" d="M137-103V0h-34v-103L8-248h37l75 118 75-118h37" id="Y"/><g id="b"><use transform="matrix(0.10012737735520977,0,0,0.10012737735520977,0,0)" xlink:href="#V"/><use transform="matrix(0.10012737735520977,0,0,0.10012737735520977,25.93299073499933,0)" xlink:href="#Q"/><use transform="matrix(0.10012737735520977,0,0,0.10012737735520977,49.96356130024967,0)" xlink:href="#U"/><use transform="matrix(0.10012737735520977,0,0,0.10012737735520977,69.98903677129162,0)" xlink:href="#W"/><use transform="matrix(0.10012737735520977,0,0,0.10012737735520977,80.0017745068126,0)" xlink:href="#X"/><use transform="matrix(0.10012737735520977,0,0,0.10012737735520977,104.03234507206295,0)" xlink:href="#Q"/><use transform="matrix(0.10012737735520977,0,0,0.10012737735520977,128.06291563731327,0)" xlink:href="#P"/><use transform="matrix(0.10012737735520977,0,0,0.10012737735520977,153.29501473082613,0)" xlink:href="#Y"/></g><path fill="#333" d="M185-189c-5-48-123-54-124 2 14 75 158 14 163 119 3 78-121 87-175 55-17-10-28-26-33-46l33-7c5 56 141 63 141-1 0-78-155-14-162-118-5-82 145-84 179-34 5 7 8 16 11 25" id="Z"/><path fill="#333" d="M63-220v92h138v28H63V0H30v-248h175v28H63" id="aa"/><path fill="#333" d="M212-179c-10-28-35-45-73-45-59 0-87 40-87 99 0 60 29 101 89 101 43 0 62-24 78-52l27 14C228-24 195 4 139 4 59 4 22-46 18-125c-6-104 99-153 187-111 19 9 31 26 39 46" id="ab"/><g id="c"><use transform="matrix(0.10012737735520977,0,0,0.10012737735520977,0,0)" xlink:href="#Z"/><use transform="matrix(0.10012737735520977,0,0,0.10012737735520977,24.030570565250343,0)" xlink:href="#T"/><use transform="matrix(0.10012737735520977,0,0,0.10012737735520977,45.95846620604128,0)" xlink:href="#W"/><use transform="matrix(0.10012737735520977,0,0,0.10012737735520977,55.97120394156226,0)" xlink:href="#U"/><use transform="matrix(0.10012737735520977,0,0,0.10012737735520977,75.99667941260421,0)" xlink:href="#U"/><use transform="matrix(0.10012737735520977,0,0,0.10012737735520977,96.02215488364617,0)" xlink:href="#aa"/><use transform="matrix(0.10012737735520977,0,0,0.10012737735520977,115.94750297733292,0)" xlink:href="#S"/><use transform="matrix(0.10012737735520977,0,0,0.10012737735520977,139.97807354258325,0)" xlink:href="#ab"/><use transform="matrix(0.10012737735520977,0,0,0.10012737735520977,165.91106427758257,0)" xlink:href="#Q"/></g><g id="d"><use transform="matrix(0.10012737735520977,0,0,0.10012737735520977,0,0)" xlink:href="#Z"/><use transform="matrix(0.10012737735520977,0,0,0.10012737735520977,24.030570565250343,0)" xlink:href="#Z"/><use transform="matrix(0.10012737735520977,0,0,0.10012737735520977,48.06114113050069,0)" xlink:href="#O"/></g><path d="M33 0v-248h34V0H33" id="ac"/><path d="M117-194c89-4 53 116 60 194h-32v-121c0-31-8-49-39-48C34-167 62-67 57 0H25l-1-190h30c1 10-1 24 2 32 11-22 29-35 61-36" id="ad"/><g id="e"><use transform="matrix(0.10012737735520977,0,0,0.10012737735520977,0,0)" xlink:href="#ac"/><use transform="matrix(0.10012737735520977,0,0,0.10012737735520977,10.012737735520977,0)" xlink:href="#ad"/></g><path d="M197 0v-115H63V0H30v-248h33v105h134v-105h34V0h-34" id="ae"/><path d="M100-194c62-1 85 37 85 99 1 63-27 99-86 99S16-35 15-95c0-66 28-99 85-99zM99-20c44 1 53-31 53-75 0-43-8-75-51-75s-53 32-53 75 10 74 51 75" id="af"/><path d="M210-169c-67 3-38 105-44 169h-31v-121c0-29-5-50-35-48C34-165 62-65 56 0H25l-1-190h30c1 10-1 24 2 32 10-44 99-50 107 0 11-21 27-35 58-36 85-2 47 119 55 194h-31v-121c0-29-5-49-35-48" id="ag"/><path d="M100-194c63 0 86 42 84 106H49c0 40 14 67 53 68 26 1 43-12 49-29l28 8c-11 28-37 45-77 45C44 4 14-33 15-96c1-61 26-98 85-98zm52 81c6-60-76-77-97-28-3 7-6 17-6 28h103" id="ah"/><g id="f"><use transform="matrix(0.10012737735520977,0,0,0.10012737735520977,0,0)" xlink:href="#ae"/><use transform="matrix(0.10012737735520977,0,0,0.10012737735520977,25.93299073499933,0)" xlink:href="#af"/><use transform="matrix(0.10012737735520977,0,0,0.10012737735520977,45.95846620604128,0)" xlink:href="#ag"/><use transform="matrix(0.10012737735520977,0,0,0.10012737735520977,75.896552035249,0)" xlink:href="#ah"/></g><path d="M185-189c-5-48-123-54-124 2 14 75 158 14 163 119 3 78-121 87-175 55-17-10-28-26-33-46l33-7c5 56 141 63 141-1 0-78-155-14-162-118-5-82 145-84 179-34 5 7 8 16 11 25" id="ai"/><path d="M84 4C-5 8 30-112 23-190h32v120c0 31 7 50 39 49 72-2 45-101 50-169h31l1 190h-30c-1-10 1-25-2-33-11 22-28 36-60 37" id="aj"/><path d="M114-163C36-179 61-72 57 0H25l-1-190h30c1 12-1 29 2 39 6-27 23-49 58-41v29" id="ak"/><path d="M108 0H70L1-190h34L89-25l56-165h34" id="al"/><path d="M179-190L93 31C79 59 56 82 12 73V49c39 6 53-20 64-50L1-190h34L92-34l54-156h33" id="am"/><g id="g"><use transform="matrix(0.10012737735520977,0,0,0.10012737735520977,0,0)" xlink:href="#ai"/><use transform="matrix(0.10012737735520977,0,0,0.10012737735520977,24.030570565250343,0)" xlink:href="#aj"/><use transform="matrix(0.10012737735520977,0,0,0.10012737735520977,44.0560460362923,0)" xlink:href="#ak"/><use transform="matrix(0.10012737735520977,0,0,0.10012737735520977,55.97120394156226,0)" xlink:href="#al"/><use transform="matrix(0.10012737735520977,0,0,0.10012737735520977,73.99413186550002,0)" xlink:href="#ah"/><use transform="matrix(0.10012737735520977,0,0,0.10012737735520977,94.01960733654198,0)" xlink:href="#am"/></g><path d="M24-231v-30h32v30H24zM24 0v-190h32V0H24" id="an"/><path d="M59-47c-2 24 18 29 38 22v24C64 9 27 4 27-40v-127H5v-23h24l9-43h21v43h35v23H59v120" id="ao"/><g id="h"><use transform="matrix(0.10012737735520977,0,0,0.10012737735520977,0,0)" xlink:href="#ai"/><use transform="matrix(0.10012737735520977,0,0,0.10012737735520977,24.030570565250343,0)" xlink:href="#an"/><use transform="matrix(0.10012737735520977,0,0,0.10012737735520977,31.940633376311915,0)" xlink:href="#ao"/><use transform="matrix(0.10012737735520977,0,0,0.10012737735520977,41.953371111832894,0)" xlink:href="#ah"/></g><path d="M137 0h-34L2-248h35l83 218 83-218h36" id="ap"/><path d="M135-143c-3-34-86-38-87 0 15 53 115 12 119 90S17 21 10-45l28-5c4 36 97 45 98 0-10-56-113-15-118-90-4-57 82-63 122-42 12 7 21 19 24 35" id="aq"/><g id="i"><use transform="matrix(0.10012737735520977,0,0,0.10012737735520977,0,0)" xlink:href="#ap"/><use transform="matrix(0.10012737735520977,0,0,0.10012737735520977,23.329678923763876,0)" xlink:href="#an"/><use transform="matrix(0.10012737735520977,0,0,0.10012737735520977,31.239741734825447,0)" xlink:href="#aq"/><use transform="matrix(0.10012737735520977,0,0,0.10012737735520977,49.2626696587632,0)" xlink:href="#an"/><use transform="matrix(0.10012737735520977,0,0,0.10012737735520977,57.17273246982478,0)" xlink:href="#ao"/></g><path d="M27 0v-27h64v-190l-56 39v-29l58-41h29v221h61V0H27" id="ar"/><use transform="matrix(0.10012737735520977,0,0,0.10012737735520977,0,0)" xlink:href="#ar" id="j"/><path d="M30-248c87 1 191-15 191 75 0 78-77 80-158 76V0H30v-248zm33 125c57 0 124 11 124-50 0-59-68-47-124-48v98" id="as"/><path d="M24 0v-261h32V0H24" id="at"/><path d="M141-36C126-15 110 5 73 4 37 3 15-17 15-53c-1-64 63-63 125-63 3-35-9-54-41-54-24 1-41 7-42 31l-33-3c5-37 33-52 76-52 45 0 72 20 72 64v82c-1 20 7 32 28 27v20c-31 9-61-2-59-35zM48-53c0 20 12 33 32 33 41-3 63-29 60-74-43 2-92-5-92 41" id="au"/><path d="M96-169c-40 0-48 33-48 73s9 75 48 75c24 0 41-14 43-38l32 2c-6 37-31 61-74 61-59 0-76-41-82-99-10-93 101-131 147-64 4 7 5 14 7 22l-32 3c-4-21-16-35-41-35" id="av"/><g id="k"><use transform="matrix(0.10012737735520977,0,0,0.10012737735520977,0,0)" xlink:href="#as"/><use transform="matrix(0.10012737735520977,0,0,0.10012737735520977,24.030570565250343,0)" xlink:href="#at"/><use transform="matrix(0.10012737735520977,0,0,0.10012737735520977,31.940633376311915,0)" xlink:href="#au"/><use transform="matrix(0.10012737735520977,0,0,0.10012737735520977,51.96610884735387,0)" xlink:href="#av"/><use transform="matrix(0.10012737735520977,0,0,0.10012737735520977,69.98903677129162,0)" xlink:href="#ah"/><use transform="matrix(0.10012737735520977,0,0,0.10012737735520977,90.01451224233358,0)" xlink:href="#ad"/><use transform="matrix(0.10012737735520977,0,0,0.10012737735520977,110.03998771337554,0)" xlink:href="#ao"/><use transform="matrix(0.10012737735520977,0,0,0.10012737735520977,120.05272544889651,0)" xlink:href="#au"/></g><path d="M87 75C49 33 22-17 22-94c0-76 28-126 65-167h31c-38 41-64 92-64 168S80 34 118 75H87" id="aw"/><path d="M30 0v-248h33v221h125V0H30" id="ax"/><path d="M234-2c-28 10-62 0-77-18C117 19 8 12 13-65c3-43 29-61 60-76-25-40-17-114 47-108 35 3 59 15 59 50 0 44-40 53-71 69 14 26 32 50 51 72 14-21 24-43 30-72l26 8c-9 33-21 57-38 82 13 13 33 22 57 15v23zM97-151c25-10 52-18 56-48-1-18-13-29-33-29-42 0-39 50-23 77zM42-66c-3 51 71 58 98 28-20-24-41-51-56-80-23 10-40 24-42 52" id="ay"/><path d="M30-248c118-7 216 8 213 122C240-48 200 0 122 0H30v-248zM63-27c89 8 146-16 146-99s-60-101-146-95v194" id="az"/><path d="M33-261c38 41 65 92 65 168S71 34 33 75H2C39 34 66-17 66-93S39-220 2-261h31" id="aA"/><g id="l"><use transform="matrix(0.10012737735520977,0,0,0.10012737735520977,0,0)" xlink:href="#aw"/><use transform="matrix(0.10012737735520977,0,0,0.10012737735520977,11.915157905269963,0)" xlink:href="#ax"/><use transform="matrix(0.10012737735520977,0,0,0.10012737735520977,31.940633376311915,0)" xlink:href="#ay"/><use transform="matrix(0.10012737735520977,0,0,0.10012737735520977,55.97120394156226,0)" xlink:href="#az"/><use transform="matrix(0.10012737735520977,0,0,0.10012737735520977,81.90419467656159,0)" xlink:href="#aA"/></g><path d="M177-190C167-65 218 103 67 71c-23-6-38-20-44-43l32-5c15 47 100 32 89-28v-30C133-14 115 1 83 1 29 1 15-40 15-95c0-56 16-97 71-98 29-1 48 16 59 35 1-10 0-23 2-32h30zM94-22c36 0 50-32 50-73 0-42-14-75-50-75-39 0-46 34-46 75s6 73 46 73" id="aB"/><g id="m"><use transform="matrix(0.10012737735520977,0,0,0.10012737735520977,0,0)" xlink:href="#ai"/><use transform="matrix(0.10012737735520977,0,0,0.10012737735520977,24.030570565250343,0)" xlink:href="#ao"/><use transform="matrix(0.10012737735520977,0,0,0.10012737735520977,34.04330830077132,0)" xlink:href="#ak"/><use transform="matrix(0.10012737735520977,0,0,0.10012737735520977,45.95846620604129,0)" xlink:href="#au"/><use transform="matrix(0.10012737735520977,0,0,0.10012737735520977,65.98394167708324,0)" xlink:href="#ad"/><use transform="matrix(0.10012737735520977,0,0,0.10012737735520977,86.0094171481252,0)" xlink:href="#aB"/><use transform="matrix(0.10012737735520977,0,0,0.10012737735520977,106.03489261916714,0)" xlink:href="#ah"/></g><g id="n"><use transform="matrix(0.10012737735520977,0,0,0.10012737735520977,0,0)" xlink:href="#ai"/><use transform="matrix(0.10012737735520977,0,0,0.10012737735520977,24.030570565250343,0)" xlink:href="#an"/><use transform="matrix(0.10012737735520977,0,0,0.10012737735520977,31.940633376311915,0)" xlink:href="#ao"/><use transform="matrix(0.10012737735520977,0,0,0.10012737735520977,41.953371111832894,0)" xlink:href="#aj"/><use transform="matrix(0.10012737735520977,0,0,0.10012737735520977,61.978846582874844,0)" xlink:href="#au"/><use transform="matrix(0.10012737735520977,0,0,0.10012737735520977,82.00432205391681,0)" xlink:href="#ao"/><use transform="matrix(0.10012737735520977,0,0,0.10012737735520977,92.01705978943778,0)" xlink:href="#an"/><use transform="matrix(0.10012737735520977,0,0,0.10012737735520977,99.92712260049936,0)" xlink:href="#af"/><use transform="matrix(0.10012737735520977,0,0,0.10012737735520977,119.95259807154133,0)" xlink:href="#ad"/></g><path d="M85-194c31 0 48 13 60 33l-1-100h32l1 261h-30c-2-10 0-23-3-31C134-8 116 4 85 4 32 4 16-35 15-94c0-66 23-100 70-100zm9 24c-40 0-46 34-46 75 0 40 6 74 45 74 42 0 51-32 51-76 0-42-9-74-50-73" id="aC"/><g id="o"><use transform="matrix(0.10012737735520977,0,0,0.10012737735520977,0,0)" xlink:href="#as"/><use transform="matrix(0.10012737735520977,0,0,0.10012737735520977,24.030570565250343,0)" xlink:href="#ak"/><use transform="matrix(0.10012737735520977,0,0,0.10012737735520977,35.94572847052031,0)" xlink:href="#af"/><use transform="matrix(0.10012737735520977,0,0,0.10012737735520977,55.97120394156226,0)" xlink:href="#av"/><use transform="matrix(0.10012737735520977,0,0,0.10012737735520977,73.99413186550002,0)" xlink:href="#ah"/><use transform="matrix(0.10012737735520977,0,0,0.10012737735520977,94.01960733654198,0)" xlink:href="#aC"/><use transform="matrix(0.10012737735520977,0,0,0.10012737735520977,114.04508280758395,0)" xlink:href="#aj"/><use transform="matrix(0.10012737735520977,0,0,0.10012737735520977,134.0705582786259,0)" xlink:href="#ak"/><use transform="matrix(0.10012737735520977,0,0,0.10012737735520977,145.98571618389585,0)" xlink:href="#ah"/></g><path d="M101-251c82-7 93 87 43 132L82-64C71-53 59-42 53-27h129V0H18c2-99 128-94 128-182 0-28-16-43-45-43s-46 15-49 41l-32-3c6-41 34-60 81-64" id="aD"/><use transform="matrix(0.10012737735520977,0,0,0.10012737735520977,0,0)" xlink:href="#aD" id="p"/><path d="M54-142c48-35 137-8 131 61C196 18 31 33 14-55l32-4c7 23 22 37 52 37 35-1 51-22 54-58 4-55-73-65-99-34H22l8-134h141v27H59" id="aE"/><path d="M33-154v-36h34v36H33zM33 0v-36h34V0H33" id="aF"/><path d="M101-251c68 0 85 55 85 127S166 4 100 4C33 4 14-52 14-124c0-73 17-127 87-127zm-1 229c47 0 54-49 54-102s-4-102-53-102c-51 0-55 48-55 102 0 53 5 102 54 102" id="aG"/><g id="q"><use transform="matrix(0.10012737735520977,0,0,0.10012737735520977,0,0)" xlink:href="#ar"/><use transform="matrix(0.10012737735520977,0,0,0.10012737735520977,20.025475471041954,0)" xlink:href="#aE"/><use transform="matrix(0.10012737735520977,0,0,0.10012737735520977,40.05095094208391,0)" xlink:href="#aF"/><use transform="matrix(0.10012737735520977,0,0,0.10012737735520977,50.06368867760489,0)" xlink:href="#aG"/><use transform="matrix(0.10012737735520977,0,0,0.10012737735520977,70.08916414864684,0)" xlink:href="#aG"/></g><path d="M64 0c3-98 48-159 88-221H18v-27h164v26C143-157 98-101 97 0H64" id="aH"/><g id="r"><use transform="matrix(0.10012737735520977,0,0,0.10012737735520977,0,0)" xlink:href="#ar"/><use transform="matrix(0.10012737735520977,0,0,0.10012737735520977,20.025475471041954,0)" xlink:href="#aH"/><use transform="matrix(0.10012737735520977,0,0,0.10012737735520977,40.05095094208391,0)" xlink:href="#aF"/><use transform="matrix(0.10012737735520977,0,0,0.10012737735520977,50.06368867760489,0)" xlink:href="#aG"/><use transform="matrix(0.10012737735520977,0,0,0.10012737735520977,70.08916414864684,0)" xlink:href="#aG"/></g><path d="M110-160c48 1 74 30 74 79 0 53-28 85-80 85-65 0-83-55-86-122-5-90 50-162 133-122 14 7 22 21 27 39l-31 6c-5-40-67-38-82-6-9 19-15 44-15 74 11-20 30-34 60-33zm-7 138c34 0 49-23 49-58s-16-56-50-56c-29 0-50 16-49 49 1 36 15 65 50 65" id="aI"/><g id="s"><use transform="matrix(0.10012737735520977,0,0,0.10012737735520977,0,0)" xlink:href="#ar"/><use transform="matrix(0.10012737735520977,0,0,0.10012737735520977,20.025475471041954,0)" xlink:href="#aI"/><use transform="matrix(0.10012737735520977,0,0,0.10012737735520977,40.05095094208391,0)" xlink:href="#aF"/><use transform="matrix(0.10012737735520977,0,0,0.10012737735520977,50.06368867760489,0)" xlink:href="#aG"/><use transform="matrix(0.10012737735520977,0,0,0.10012737735520977,70.08916414864684,0)" xlink:href="#aG"/></g><path fill="#333" d="M100-194c62-1 85 37 85 99 1 63-27 99-86 99S16-35 15-95c0-66 28-99 85-99zM99-20c44 1 53-31 53-75 0-43-8-75-51-75s-53 32-53 75 10 74 51 75" id="aJ"/><path fill="#333" d="M114-163C36-179 61-72 57 0H25l-1-190h30c1 12-1 29 2 39 6-27 23-49 58-41v29" id="aK"/><path fill="#333" d="M59-47c-2 24 18 29 38 22v24C64 9 27 4 27-40v-127H5v-23h24l9-43h21v43h35v23H59v120" id="aL"/><path fill="#333" d="M24-231v-30h32v30H24zM24 0v-190h32V0H24" id="aM"/><path fill="#333" d="M135-143c-3-34-86-38-87 0 15 53 115 12 119 90S17 21 10-45l28-5c4 36 97 45 98 0-10-56-113-15-118-90-4-57 82-63 122-42 12 7 21 19 24 35" id="aN"/><path fill="#333" d="M24 0v-261h32V0H24" id="aO"/><g id="t"><use transform="matrix(0.10012737735520977,0,0,0.10012737735520977,0,0)" xlink:href="#ab"/><use transform="matrix(0.10012737735520977,0,0,0.10012737735520977,25.93299073499933,0)" xlink:href="#aJ"/><use transform="matrix(0.10012737735520977,0,0,0.10012737735520977,45.95846620604128,0)" xlink:href="#aK"/><use transform="matrix(0.10012737735520977,0,0,0.10012737735520977,57.873624111311244,0)" xlink:href="#aL"/><use transform="matrix(0.10012737735520977,0,0,0.10012737735520977,67.88636184683222,0)" xlink:href="#aM"/><use transform="matrix(0.10012737735520977,0,0,0.10012737735520977,75.7964246578938,0)" xlink:href="#aN"/><use transform="matrix(0.10012737735520977,0,0,0.10012737735520977,93.81935258183155,0)" xlink:href="#aJ"/><use transform="matrix(0.10012737735520977,0,0,0.10012737735520977,113.84482805287351,0)" xlink:href="#aO"/></g><path fill="#333" d="M141-36C126-15 110 5 73 4 37 3 15-17 15-53c-1-64 63-63 125-63 3-35-9-54-41-54-24 1-41 7-42 31l-33-3c5-37 33-52 76-52 45 0 72 20 72 64v82c-1 20 7 32 28 27v20c-31 9-61-2-59-35zM48-53c0 20 12 33 32 33 41-3 63-29 60-74-43 2-92-5-92 41" id="aP"/><path fill="#333" d="M210-169c-67 3-38 105-44 169h-31v-121c0-29-5-50-35-48C34-165 62-65 56 0H25l-1-190h30c1 10-1 24 2 32 10-44 99-50 107 0 11-21 27-35 58-36 85-2 47 119 55 194h-31v-121c0-29-5-49-35-48" id="aQ"/><path fill="#333" d="M115-194c55 1 70 41 70 98S169 2 115 4C84 4 66-9 55-30l1 105H24l-1-265h31l2 30c10-21 28-34 59-34zm-8 174c40 0 45-34 45-75s-6-73-45-74c-42 0-51 32-51 76 0 43 10 73 51 73" id="aR"/><path fill="#333" d="M100-194c63 0 86 42 84 106H49c0 40 14 67 53 68 26 1 43-12 49-29l28 8c-11 28-37 45-77 45C44 4 14-33 15-96c1-61 26-98 85-98zm52 81c6-60-76-77-97-28-3 7-6 17-6 28h103" id="aS"/><g id="u"><use transform="matrix(0.10012737735520977,0,0,0.10012737735520977,0,0)" xlink:href="#Z"/><use transform="matrix(0.10012737735520977,0,0,0.10012737735520977,24.030570565250343,0)" xlink:href="#aP"/><use transform="matrix(0.10012737735520977,0,0,0.10012737735520977,44.0560460362923,0)" xlink:href="#aQ"/><use transform="matrix(0.10012737735520977,0,0,0.10012737735520977,73.99413186550002,0)" xlink:href="#aR"/><use transform="matrix(0.10012737735520977,0,0,0.10012737735520977,94.01960733654198,0)" xlink:href="#aO"/><use transform="matrix(0.10012737735520977,0,0,0.10012737735520977,101.92967014760356,0)" xlink:href="#aS"/></g><path fill="#333" d="M27 0v-27h64v-190l-56 39v-29l58-41h29v221h61V0H27" id="aT"/><use transform="matrix(0.10012737735520977,0,0,0.10012737735520977,0,0)" xlink:href="#aT" id="v"/><path fill="#fff" d="M27 0v-27h64v-190l-56 39v-29l58-41h29v221h61V0H27" id="aU"/><path fill="#fff" d="M54-142c48-35 137-8 131 61C196 18 31 33 14-55l32-4c7 23 22 37 52 37 35-1 51-22 54-58 4-55-73-65-99-34H22l8-134h141v27H59" id="aV"/><path fill="#fff" d="M33-154v-36h34v36H33zM33 0v-36h34V0H33" id="aW"/><g id="w"><use transform="matrix(0.10012737735520977,0,0,0.10012737735520977,0,0)" xlink:href="#aU"/><use transform="matrix(0.10012737735520977,0,0,0.10012737735520977,20.025475471041954,0)" xlink:href="#aV"/><use transform="matrix(0.10012737735520977,0,0,0.10012737735520977,40.05095094208391,0)" xlink:href="#aW"/><use transform="matrix(0.10012737735520977,0,0,0.10012737735520977,50.06368867760489,0)" xlink:href="#aU"/><use transform="matrix(0.10012737735520977,0,0,0.10012737735520977,70.08916414864684,0)" xlink:href="#aV"/></g><path fill="#fff" d="M212-179c-10-28-35-45-73-45-59 0-87 40-87 99 0 60 29 101 89 101 43 0 62-24 78-52l27 14C228-24 195 4 139 4 59 4 22-46 18-125c-6-104 99-153 187-111 19 9 31 26 39 46" id="aX"/><path fill="#fff" d="M100-194c62-1 85 37 85 99 1 63-27 99-86 99S16-35 15-95c0-66 28-99 85-99zM99-20c44 1 53-31 53-75 0-43-8-75-51-75s-53 32-53 75 10 74 51 75" id="aY"/><path fill="#fff" d="M114-163C36-179 61-72 57 0H25l-1-190h30c1 12-1 29 2 39 6-27 23-49 58-41v29" id="aZ"/><path fill="#fff" d="M59-47c-2 24 18 29 38 22v24C64 9 27 4 27-40v-127H5v-23h24l9-43h21v43h35v23H59v120" id="ba"/><path fill="#fff" d="M24-231v-30h32v30H24zM24 0v-190h32V0H24" id="bb"/><path fill="#fff" d="M135-143c-3-34-86-38-87 0 15 53 115 12 119 90S17 21 10-45l28-5c4 36 97 45 98 0-10-56-113-15-118-90-4-57 82-63 122-42 12 7 21 19 24 35" id="bc"/><path fill="#fff" d="M24 0v-261h32V0H24" id="bd"/><g id="x"><use transform="matrix(0.10012737735520977,0,0,0.10012737735520977,0,0)" xlink:href="#aX"/><use transform="matrix(0.10012737735520977,0,0,0.10012737735520977,25.93299073499933,0)" xlink:href="#aY"/><use transform="matrix(0.10012737735520977,0,0,0.10012737735520977,45.95846620604128,0)" xlink:href="#aZ"/><use transform="matrix(0.10012737735520977,0,0,0.10012737735520977,57.873624111311244,0)" xlink:href="#ba"/><use transform="matrix(0.10012737735520977,0,0,0.10012737735520977,67.88636184683222,0)" xlink:href="#bb"/><use transform="matrix(0.10012737735520977,0,0,0.10012737735520977,75.7964246578938,0)" xlink:href="#bc"/><use transform="matrix(0.10012737735520977,0,0,0.10012737735520977,93.81935258183155,0)" xlink:href="#aY"/><use transform="matrix(0.10012737735520977,0,0,0.10012737735520977,113.84482805287351,0)" xlink:href="#bd"/></g><path fill="#fff" d="M185-189c-5-48-123-54-124 2 14 75 158 14 163 119 3 78-121 87-175 55-17-10-28-26-33-46l33-7c5 56 141 63 141-1 0-78-155-14-162-118-5-82 145-84 179-34 5 7 8 16 11 25" id="be"/><path fill="#fff" d="M141-36C126-15 110 5 73 4 37 3 15-17 15-53c-1-64 63-63 125-63 3-35-9-54-41-54-24 1-41 7-42 31l-33-3c5-37 33-52 76-52 45 0 72 20 72 64v82c-1 20 7 32 28 27v20c-31 9-61-2-59-35zM48-53c0 20 12 33 32 33 41-3 63-29 60-74-43 2-92-5-92 41" id="bf"/><path fill="#fff" d="M210-169c-67 3-38 105-44 169h-31v-121c0-29-5-50-35-48C34-165 62-65 56 0H25l-1-190h30c1 10-1 24 2 32 10-44 99-50 107 0 11-21 27-35 58-36 85-2 47 119 55 194h-31v-121c0-29-5-49-35-48" id="bg"/><path fill="#fff" d="M115-194c55 1 70 41 70 98S169 2 115 4C84 4 66-9 55-30l1 105H24l-1-265h31l2 30c10-21 28-34 59-34zm-8 174c40 0 45-34 45-75s-6-73-45-74c-42 0-51 32-51 76 0 43 10 73 51 73" id="bh"/><path fill="#fff" d="M100-194c63 0 86 42 84 106H49c0 40 14 67 53 68 26 1 43-12 49-29l28 8c-11 28-37 45-77 45C44 4 14-33 15-96c1-61 26-98 85-98zm52 81c6-60-76-77-97-28-3 7-6 17-6 28h103" id="bi"/><g id="y"><use transform="matrix(0.10012737735520977,0,0,0.10012737735520977,0,0)" xlink:href="#be"/><use transform="matrix(0.10012737735520977,0,0,0.10012737735520977,24.030570565250343,0)" xlink:href="#bf"/><use transform="matrix(0.10012737735520977,0,0,0.10012737735520977,44.0560460362923,0)" xlink:href="#bg"/><use transform="matrix(0.10012737735520977,0,0,0.10012737735520977,73.99413186550002,0)" xlink:href="#bh"/><use transform="matrix(0.10012737735520977,0,0,0.10012737735520977,94.01960733654198,0)" xlink:href="#bd"/><use transform="matrix(0.10012737735520977,0,0,0.10012737735520977,101.92967014760356,0)" xlink:href="#bi"/></g><path fill="#fff" d="M101-251c82-7 93 87 43 132L82-64C71-53 59-42 53-27h129V0H18c2-99 128-94 128-182 0-28-16-43-45-43s-46 15-49 41l-32-3c6-41 34-60 81-64" id="bj"/><use transform="matrix(0.10012737735520977,0,0,0.10012737735520977,0,0)" xlink:href="#bj" id="z"/><path fill="#fff" d="M110-160c48 1 74 30 74 79 0 53-28 85-80 85-65 0-83-55-86-122-5-90 50-162 133-122 14 7 22 21 27 39l-31 6c-5-40-67-38-82-6-9 19-15 44-15 74 11-20 30-34 60-33zm-7 138c34 0 49-23 49-58s-16-56-50-56c-29 0-50 16-49 49 1 36 15 65 50 65" id="bk"/><path fill="#fff" d="M101-251c68 0 85 55 85 127S166 4 100 4C33 4 14-52 14-124c0-73 17-127 87-127zm-1 229c47 0 54-49 54-102s-4-102-53-102c-51 0-55 48-55 102 0 53 5 102 54 102" id="bl"/><g id="A"><use transform="matrix(0.10012737735520977,0,0,0.10012737735520977,0,0)" xlink:href="#aU"/><use transform="matrix(0.10012737735520977,0,0,0.10012737735520977,20.025475471041954,0)" xlink:href="#bk"/><use transform="matrix(0.10012737735520977,0,0,0.10012737735520977,40.05095094208391,0)" xlink:href="#aW"/><use transform="matrix(0.10012737735520977,0,0,0.10012737735520977,50.06368867760489,0)" xlink:href="#bl"/><use transform="matrix(0.10012737735520977,0,0,0.10012737735520977,70.08916414864684,0)" xlink:href="#bl"/></g><path fill="#333" d="M101-251c82-7 93 87 43 132L82-64C71-53 59-42 53-27h129V0H18c2-99 128-94 128-182 0-28-16-43-45-43s-46 15-49 41l-32-3c6-41 34-60 81-64" id="bm"/><use transform="matrix(0.10012737735520977,0,0,0.10012737735520977,0,0)" xlink:href="#bm" id="B"/><path fill="#333" d="M126-127c33 6 58 20 58 59 0 88-139 92-164 29-3-8-5-16-6-25l32-3c6 27 21 44 54 44 32 0 52-15 52-46 0-38-36-46-79-43v-28c39 1 72-4 72-42 0-27-17-43-46-43-28 0-47 15-49 41l-32-3c6-42 35-63 81-64 48-1 79 21 79 65 0 36-21 52-52 59" id="bn"/><use transform="matrix(0.10012737735520977,0,0,0.10012737735520977,0,0)" xlink:href="#bn" id="C"/><path fill="#fff" d="M126-127c33 6 58 20 58 59 0 88-139 92-164 29-3-8-5-16-6-25l32-3c6 27 21 44 54 44 32 0 52-15 52-46 0-38-36-46-79-43v-28c39 1 72-4 72-42 0-27-17-43-46-43-28 0-47 15-49 41l-32-3c6-42 35-63 81-64 48-1 79 21 79 65 0 36-21 52-52 59" id="bo"/><g id="D"><use transform="matrix(0.10012737735520977,0,0,0.10012737735520977,0,0)" xlink:href="#aU"/><use transform="matrix(0.10012737735520977,0,0,0.10012737735520977,20.025475471041954,0)" xlink:href="#bk"/><use transform="matrix(0.10012737735520977,0,0,0.10012737735520977,40.05095094208391,0)" xlink:href="#aW"/><use transform="matrix(0.10012737735520977,0,0,0.10012737735520977,50.06368867760489,0)" xlink:href="#bo"/><use transform="matrix(0.10012737735520977,0,0,0.10012737735520977,70.08916414864684,0)" xlink:href="#bl"/></g><g id="E"><use transform="matrix(0.10012737735520977,0,0,0.10012737735520977,0,0)" xlink:href="#ai"/><use transform="matrix(0.10012737735520977,0,0,0.10012737735520977,24.030570565250343,0)" xlink:href="#aj"/><use transform="matrix(0.10012737735520977,0,0,0.10012737735520977,44.0560460362923,0)" xlink:href="#ak"/><use transform="matrix(0.10012737735520977,0,0,0.10012737735520977,55.97120394156226,0)" xlink:href="#al"/><use transform="matrix(0.10012737735520977,0,0,0.10012737735520977,73.99413186550002,0)" xlink:href="#ah"/><use transform="matrix(0.10012737735520977,0,0,0.10012737735520977,94.01960733654198,0)" xlink:href="#am"/></g><path d="M101-234c-31-9-42 10-38 44h38v23H63V0H32v-167H5v-23h27c-7-52 17-82 69-68v24" id="bp"/><g id="F"><use transform="matrix(0.10012737735520977,0,0,0.10012737735520977,0,0)" xlink:href="#ai"/><use transform="matrix(0.10012737735520977,0,0,0.10012737735520977,24.030570565250343,0)" xlink:href="#ao"/><use transform="matrix(0.10012737735520977,0,0,0.10012737735520977,34.04330830077132,0)" xlink:href="#an"/><use transform="matrix(0.10012737735520977,0,0,0.10012737735520977,41.953371111832894,0)" xlink:href="#at"/><use transform="matrix(0.10012737735520977,0,0,0.10012737735520977,49.863433922894465,0)" xlink:href="#at"/><use transform="matrix(0.10012737735520977,0,0,0.10012737735520977,57.77349673395604,0)" xlink:href="#bp"/><use transform="matrix(0.10012737735520977,0,0,0.10012737735520977,67.78623446947701,0)" xlink:href="#au"/><use transform="matrix(0.10012737735520977,0,0,0.10012737735520977,87.81170994051897,0)" xlink:href="#av"/><use transform="matrix(0.10012737735520977,0,0,0.10012737735520977,105.83463786445672,0)" xlink:href="#ah"/></g><g id="G"><use transform="matrix(0.10012737735520977,0,0,0.10012737735520977,0,0)" xlink:href="#as"/><use transform="matrix(0.10012737735520977,0,0,0.10012737735520977,24.030570565250343,0)" xlink:href="#au"/><use transform="matrix(0.10012737735520977,0,0,0.10012737735520977,44.0560460362923,0)" xlink:href="#ak"/><use transform="matrix(0.10012737735520977,0,0,0.10012737735520977,55.97120394156226,0)" xlink:href="#au"/><use transform="matrix(0.10012737735520977,0,0,0.10012737735520977,75.99667941260422,0)" xlink:href="#aC"/><use transform="matrix(0.10012737735520977,0,0,0.10012737735520977,96.02215488364618,0)" xlink:href="#an"/><use transform="matrix(0.10012737735520977,0,0,0.10012737735520977,103.93221769470776,0)" xlink:href="#aB"/><use transform="matrix(0.10012737735520977,0,0,0.10012737735520977,123.95769316574972,0)" xlink:href="#ag"/></g><path fill="#fff" d="M190 0L58-211 59 0H30v-248h39L202-35l-2-213h31V0h-41" id="bq"/><use transform="matrix(0.12873519945669826,0,0,0.12873519945669826,0,0)" xlink:href="#bq" id="H"/><path fill="#fff" d="M18-150v-26h174v26H18zm0 90v-26h174v26H18" id="br"/><use transform="matrix(0.12873519945669826,0,0,0.12873519945669826,0,0)" xlink:href="#br" id="I"/><path fill="#fff" d="M68-38c1 34 0 65-14 84H32c9-13 17-26 17-46H33v-38h35" id="bs"/><g id="J"><use transform="matrix(0.12873519945669826,0,0,0.12873519945669826,0,0)" xlink:href="#bj"/><use transform="matrix(0.12873519945669826,0,0,0.12873519945669826,25.74703989133965,0)" xlink:href="#bo"/><use transform="matrix(0.12873519945669826,0,0,0.12873519945669826,51.4940797826793,0)" xlink:href="#bo"/><use transform="matrix(0.12873519945669826,0,0,0.12873519945669826,77.24111967401895,0)" xlink:href="#bs"/></g><path fill="#fff" d="M252-156c43 0 55 33 55 80 0 46-13 78-56 78-42 0-55-33-55-78 0-48 12-80 56-80zM93 0H65l162-248h28zM13-171c-1-47 13-79 56-79s55 33 55 79-13 79-55 79c-43 0-56-33-56-79zM251-17c28 0 30-29 30-59 0-31-1-60-29-60-29 0-31 29-31 60 0 29 2 59 30 59zM69-112c27 0 28-30 29-59 0-31-1-60-29-60-29 0-30 30-30 60s2 59 30 59" id="bt"/><g id="K"><use transform="matrix(0.12873519945669826,0,0,0.12873519945669826,0,0)" xlink:href="#bk"/><use transform="matrix(0.12873519945669826,0,0,0.12873519945669826,25.74703989133965,0)" xlink:href="#bj"/><use transform="matrix(0.12873519945669826,0,0,0.12873519945669826,51.4940797826793,0)" xlink:href="#bt"/></g><path fill="#fff" d="M160-131c35 5 61 23 61 61C221 17 115-2 30 0v-248c76 3 177-17 177 60 0 33-19 50-47 57zm-97-11c50-1 110 9 110-42 0-47-63-36-110-37v79zm0 115c55-2 124 14 124-45 0-56-70-42-124-44v89" id="bu"/><path fill="#fff" d="M96-169c-40 0-48 33-48 73s9 75 48 75c24 0 41-14 43-38l32 2c-6 37-31 61-74 61-59 0-76-41-82-99-10-93 101-131 147-64 4 7 5 14 7 22l-32 3c-4-21-16-35-41-35" id="bv"/><path fill="#fff" d="M143 0L79-87 56-68V0H24v-261h32v163l83-92h37l-77 82L181 0h-38" id="bw"/><g id="L"><use transform="matrix(0.12873519945669826,0,0,0.12873519945669826,0,0)" xlink:href="#bu"/><use transform="matrix(0.12873519945669826,0,0,0.12873519945669826,30.89644786960758,0)" xlink:href="#bd"/><use transform="matrix(0.12873519945669826,0,0,0.12873519945669826,41.06652862668675,0)" xlink:href="#bf"/><use transform="matrix(0.12873519945669826,0,0,0.12873519945669826,66.8135685180264,0)" xlink:href="#bv"/><use transform="matrix(0.12873519945669826,0,0,0.12873519945669826,89.98590442023209,0)" xlink:href="#bw"/><use transform="matrix(0.12873519945669826,0,0,0.12873519945669826,113.15824032243778,0)" xlink:href="#bs"/></g><path fill="#fff" d="M155-56V0h-30v-56H8v-25l114-167h33v167h35v25h-35zm-30-156c-27 46-58 90-88 131h88v-131" id="bx"/><path fill="#fff" d="M134-131c28 9 52 24 51 62-1 50-34 73-85 73S17-19 16-69c0-36 21-54 49-61-75-25-45-126 34-121 46 3 78 18 79 63 0 33-17 51-44 57zm-34-11c31 1 46-15 46-44 0-28-17-43-47-42-29 0-46 13-45 42 1 28 16 44 46 44zm1 122c35 0 51-18 51-52 0-30-18-46-53-46-33 0-51 17-51 47 0 34 19 51 53 51" id="by"/><g id="M"><use transform="matrix(0.12873519945669826,0,0,0.12873519945669826,0,0)" xlink:href="#bx"/><use transform="matrix(0.12873519945669826,0,0,0.12873519945669826,25.74703989133965,0)" xlink:href="#by"/><use transform="matrix(0.12873519945669826,0,0,0.12873519945669826,51.4940797826793,0)" xlink:href="#bt"/></g><path fill="#fff" d="M63-220v92h138v28H63V0H30v-248h175v28H63" id="bz"/><g id="N"><use transform="matrix(0.12873519945669826,0,0,0.12873519945669826,0,0)" xlink:href="#bz"/><use transform="matrix(0.12873519945669826,0,0,0.12873519945669826,28.19300868101692,0)" xlink:href="#bi"/><use transform="matrix(0.12873519945669826,0,0,0.12873519945669826,53.940048572356574,0)" xlink:href="#bg"/><use transform="matrix(0.12873519945669826,0,0,0.12873519945669826,92.43187320990936,0)" xlink:href="#bf"/><use transform="matrix(0.12873519945669826,0,0,0.12873519945669826,118.17891310124901,0)" xlink:href="#bd"/><use transform="matrix(0.12873519945669826,0,0,0.12873519945669826,128.34899385832819,0)" xlink:href="#bi"/></g></defs></g></svg>