<svg xmlns="http://www.w3.org/2000/svg" xmlns:xlink="http://www.w3.org/1999/xlink" xmlns:lucid="lucid" width="1632.5" height="1141.75"><g transform="translate(-60 -100)" lucid:page-tab-id="0_0"><path d="M80 360h380v195.15H80z" stroke="#000" stroke-width="2" fill="#ffc374"/><use xlink:href="#a" transform="matrix(1,0,0,1,85,365) translate(88.44444444444446 77)"/><use xlink:href="#b" transform="matrix(1,0,0,1,85,365) translate(168.33333333333334 77)"/><use xlink:href="#c" transform="matrix(1,0,0,1,85,365) translate(22.888888888888857 125)"/><use xlink:href="#d" transform="matrix(1,0,0,1,85,365) translate(213.88888888888889 125)"/><path d="M270 557.15v161.07h170.5" stroke="#000" stroke-width="2" fill="none"/><path d="M271 557.18h-2v-1.03h2z"/><path d="M455.76 718.22l-14.26 4.63v-9.27z" stroke="#000" stroke-width="2"/><path d="M718.16 640c35.65 0 64.54 35.02 64.54 78.22 0 43.2-28.9 78.2-64.54 78.2H524.54c-35.64 0-64.54-35-64.54-78.2S488.9 640 524.54 640z" stroke="#000" stroke-width="2" fill="#b2b2b2"/><use xlink:href="#e" transform="matrix(1,0,0,1,465,645) translate(62.16666666666666 57.5)"/><use xlink:href="#f" transform="matrix(1,0,0,1,465,645) translate(10 105.5)"/><use xlink:href="#d" transform="matrix(1,0,0,1,465,645) translate(169.7777777777778 105.5)"/><path d="M861.6 1080c66.5 0 120.42 27.72 120.42 61.92s-53.9 61.92-120.4 61.92H500.4c-66.5 0-120.4-27.72-120.4-61.92S433.9 1080 500.4 1080z" stroke="#000" stroke-width="2" fill="#c7e8ac"/><use xlink:href="#g" transform="matrix(1,0,0,1,385,1085) translate(23.66666666666663 41)"/><use xlink:href="#h" transform="matrix(1,0,0,1,385,1085) translate(276.55555555555554 41)"/><use xlink:href="#i" transform="matrix(1,0,0,1,385,1085) translate(431.77777777777777 41)"/><use xlink:href="#j" transform="matrix(1,0,0,1,385,1085) translate(258.77777777777777 89)"/><path d="M237.84 557.15v584.77H360.5" stroke="#000" stroke-width="2" fill="none"/><path d="M238.84 557.18h-2v-1.03h2z"/><path d="M375.76 1141.92l-14.26 4.64v-9.27z" stroke="#000" stroke-width="2"/><path d="M788.83 835.3c26.07 0 47.2 11.06 47.2 24.7 0 13.64-21.13 24.7-47.2 24.7H647.2c-26.06 0-47.2-11.06-47.2-24.7 0-13.64 21.14-24.7 47.2-24.7z" stroke="#000" stroke-width="2" fill="#b2b2b2"/><use xlink:href="#k" transform="matrix(1,0,0,1,605,840.2956049699658) translate(72.44444444444444 32)"/><path d="M788.83 910.6c26.07 0 47.2 11.05 47.2 24.7 0 13.64-21.13 24.7-47.2 24.7H647.2c-26.06 0-47.2-11.06-47.2-24.7 0-13.65 21.14-24.7 47.2-24.7z" stroke="#000" stroke-width="2" fill="#b2b2b2"/><use xlink:href="#l" transform="matrix(1,0,0,1,605,915.5912099399316) translate(72.44444444444444 32)"/><path d="M562.72 798.43V860H598" stroke="#000" stroke-width="2" fill="none"/><path d="M563.72 798.46h-2v-1.03h2zM599 860l.04 1h-1.07v-2h1.08z"/><path d="M562.72 798.43V935.3H598" stroke="#000" stroke-width="2" fill="none"/><path d="M563.72 798.46h-2v-1.03h2zM599 935.3l.04 1h-1.07v-2h1.08z"/><path d="M270 358V173h43.36" stroke="#000" stroke-width="2" fill="none"/><path d="M271 359h-2v-1.03h2z"/><path d="M328.63 173l-14.27 4.64v-9.28z" stroke="#000" stroke-width="2"/><path d="M1316 266.25c0-2.76 2.22-5 5-5h202.3c2.77 0 5 2.24 5 5v113c0 2.76-2.23 5-5 5H1321c-2.78 0-5-2.24-5-5z" stroke="#666" stroke-width="2" fill="#c7e8ac"/><use xlink:href="#m" transform="matrix(1,0,0,1,1320.9853280567527,266.24913556749163) translate(2.246913580246911 62.72222222222222)"/><path d="M1316 491.75c0-2.76 2.22-5 5-5h202.3c2.77 0 5 2.24 5 5v113c0 2.76-2.23 5-5 5H1321c-2.78 0-5-2.24-5-5z" stroke="#666" stroke-width="2" fill="#c7e8ac"/><use xlink:href="#n" transform="matrix(1,0,0,1,1320.9853280567527,491.74913556749163) translate(45.456790123456784 62.72222222222222)"/><path d="M1422.15 388.25v70.53" stroke="#c7e8ac" stroke-width="6" fill="none"/><path d="M1425.15 388.33h-6v-3.08h6z" fill="#c7e8ac"/><path d="M1422.15 476.04l-4.64-14.26h9.28z" stroke="#c7e8ac" stroke-width="6" fill="#c7e8ac"/><path d="M1192.13 717.25c0-2.76 2.24-5 5-5h202.32c2.77 0 5 2.24 5 5v113c0 2.76-2.23 5-5 5h-202.32c-2.76 0-5-2.24-5-5z" stroke="#666" stroke-width="2" fill="#c7e8ac"/><use xlink:href="#o" transform="matrix(1,0,0,1,1197.1278857087443,717.2491355674916) translate(48.00617283950617 44.05555555555555)"/><use xlink:href="#p" transform="matrix(1,0,0,1,1197.1278857087443,717.2491355674916) translate(55.78395061728395 81.38888888888889)"/><path d="M1439.84 717.25c0-2.76 2.24-5 5-5h202.33c2.76 0 5 2.24 5 5v113c0 2.76-2.24 5-5 5h-202.33c-2.76 0-5-2.24-5-5z" stroke="#666" stroke-width="2" fill="#99d2f2"/><use xlink:href="#q" transform="matrix(1,0,0,1,1444.8427704047613,717.2491355674916) translate(47.05555555555556 62.72222222222222)"/><path d="M1422 613.75l-.08.68-.17 1.16-.22 1.14-.27 1.13-.3 1.13-.37 1.1-.43 1.12-.47 1.12-.53 1.13-.6 1.13-.66 1.15-.73 1.18-.84 1.2-.94 1.25-1.08 1.28-1.2 1.34-1.37 1.4-1.58 1.48-1.83 1.57-2.13 1.7-2.53 1.84-3.08 2.03-3.83 2.3-4.96 2.73-6.94 3.44-12.36 5.46-36.92 15.54-6.95 3.44-4.96 2.72-3.82 2.3-3.08 2.05-2.54 1.85-2.13 1.7-1.83 1.57-.6.57" stroke="#c7e8ac" stroke-width="6" fill="none"/><path d="M1425.08 613.9l-6-.14.07-3h6z" fill="#c7e8ac"/><path d="M1302.5 702.5l2.04-14.86 8.35 4.03z" stroke="#c7e8ac" stroke-width="6" fill="#c7e8ac"/><path d="M1422.3 613.75l.08.68.17 1.16.22 1.14.26 1.13.32 1.13.36 1.1.42 1.12.47 1.12.52 1.13.6 1.13.66 1.15.75 1.18.84 1.2.94 1.25 1.07 1.28 1.2 1.34 1.38 1.4 1.58 1.48 1.82 1.57 2.14 1.7 2.53 1.84 3.07 2.03 3.83 2.3 4.95 2.73 6.96 3.44 12.36 5.46 36.92 15.54 6.95 3.44 4.96 2.72 3.82 2.3 3.08 2.05 2.53 1.85 2.14 1.7 1.83 1.57.6.57" stroke="#c7e8ac" stroke-width="6" fill="none"/><path d="M1425.2 613.76l-6 .13-.05-3.15h6z" fill="#c7e8ac"/><path d="M1541.8 702.5l-10.4-10.83 8.36-4.03z" stroke="#c7e8ac" stroke-width="6" fill="#c7e8ac"/><path d="M1235.2 1115.67l.97.53 2.76 1.38 2.87 1.28 3 1.2 3.17 1.1 3.34 1 3.56.93 3.8.8 4.12.7 4.48.57 4.93.42 5.5.23h6.28l7.35-.3 9.02-.75 12.2-1.54 59.4-9.8 6.28-.52 4.8-.2h3.87l3.25.14 2.8.24 2.43.3 2.17.38 1.95.4 1.76.47 1.6.5 1.5.5 1.38.56 1.3.58 1.2.6 1.13.63 1.08.67 1.03.68.98.7.94.76.9.8.87.8.84.87.83.9.8.98.77 1.02.75 1.08.73 1.17.72 1.24.7 1.35.7 1.47.65 1.58.64 1.74.6 1.9.6 2.14.56 2.38.5 2.7.45 3.05.38 3.52.25 4.1.03 1.65" stroke="#999" stroke-width="6" fill="none"/><path d="M1221.93 1104.87l14 5.4-5.86 7.2z" stroke="#999" stroke-width="6" fill="#999"/><path d="M1429.72 1160.25h-6l-.06-3.02 6-.12z" fill="#999"/><path d="M1426.78 1157.25l.04-2.12.27-4.27.37-3.62.46-3.12.5-2.7.57-2.4.6-2.1.6-1.9.64-1.7.65-1.56.65-1.4.68-1.3.7-1.2.7-1.12.72-1.03.73-.96.75-.9.77-.87.8-.8.8-.77.85-.73.88-.7.9-.65.96-.63.98-.62 1.05-.57 1.1-.54 1.18-.52 1.27-.5 1.35-.47 1.46-.44 1.6-.4 1.74-.38 1.94-.33 2.17-.27 2.48-.2 2.88-.13h3.4l4.17.18 5.37.46 7.64.98 15.77 2.73 37.4 6.85 11.15 1.42 8.66.73 7.26.3h6.34l5.67-.22 5.15-.43 4.74-.6 4.4-.74 4.13-.88 3.9-1 3.72-1.12 3.54-1.24 3.4-1.35 3.3-1.47 3.2-1.6 1.95-1.06" stroke="#999" stroke-width="6" fill="none"/><path d="M1429.78 1157.23l-.06 3.02h-6l.06-3.14z" fill="#999"/><path d="M1631.4 1104.72l-8.42 12.42-5.7-7.3z" stroke="#999" stroke-width="6" fill="#999"/><path d="M1320.55 1165.25c0-2.76 2.24-5 5-5h202.33c2.76 0 5 2.24 5 5v51.5c0 2.76-2.24 5-5 5h-202.33c-2.76 0-5-2.24-5-5z" stroke="#000" stroke-opacity="0" stroke-width="2" fill="#b2b2b2"/><use xlink:href="#r" transform="matrix(1,0,0,1,1325.5535453079544,1165.2491355674917) translate(34.35185185185185 32.22222222222222)"/><path d="M1284.37 898.75c17.7 0 32.02 19.5 32.02 43.52 0 24.04-14.34 43.52-32.03 43.52h-96.06c-17.68 0-32-19.5-32-43.53s14.32-43.52 32-43.52z" stroke="#000" stroke-width="2" fill="#c7e8ac"/><use xlink:href="#s" transform="matrix(1,0,0,1,1156.2882617173073,898.7491355674915) translate(27.956790123456784 50.22222222222222)"/><path d="M1298.1 839.24l-.16 1.43-.4 1.98-.56 1.9-.7 1.84-.88 1.82-1.1 1.85-1.33 1.92-1.7 2.04-2.24 2.3-3.2 2.77-5.85 4.28-16.9 11.5-.05.05" stroke="#c7e8ac" stroke-width="6" fill="none"/><path d="M1301.17 839.44l-6-.24.12-2.95h6z" fill="#c7e8ac"/><path d="M1255.26 889.22l2.74-14.74 8.15 4.43z" stroke="#c7e8ac" stroke-width="6" fill="#c7e8ac"/><path d="M1462.48 899.23c17.68 0 32.02 19.48 32.02 43.52 0 24.04-14.34 43.52-32.02 43.52h-96.07c-17.67 0-32-19.48-32-43.52 0-24.04 14.33-43.52 32-43.52z" stroke="#000" stroke-width="2" fill="url(#t)"/><use xlink:href="#u" transform="matrix(1,0,0,1,1334.3920366521406,899.22622738377) translate(37.37654320987654 50.22222222222222)"/><path d="M1640.48 898.7c17.68 0 32.02 19.5 32.02 43.53s-14.34 43.52-32.02 43.52h-96.07c-17.67 0-32-19.5-32-43.52 0-24.04 14.33-43.53 32-43.53z" stroke="#000" stroke-width="2" fill="#99d2f2"/><use xlink:href="#v" transform="matrix(1,0,0,1,1512.3920366521406,898.7033192000486) translate(43.382716049382715 50.22222222222222)"/><path d="M1298.66 839.22l.03.1.13.5.17.5.2.5.22.52.25.52.3.53.3.53.38.57.42.58.48.6.54.63.6.68.73.7.83.74.97.8 1.15.86 1.36.94 1.66 1.03 2.03 1.15 2.55 1.3 3.3 1.52 4.5 1.82 6.54 2.33 11.68 3.6 44.42 12.53 6.55 2.34 4.48 1.8 1.13.54" stroke="#c7e8ac" stroke-width="6" fill="none"/><path d="M1301.36 839.26l-6 .13-.07-3.15h6z" fill="#c7e8ac"/><path d="M1407.65 891.3l-13.3-6.97 6.64-6.48z" stroke="#c7e8ac" stroke-width="6" fill="#c7e8ac"/><path d="M1545.6 839.2l-.05.14-.14.44-.16.44-.2.45-.2.46-.25.46-.28.47-.3.5-.37.5-.4.53-.46.55-.53.58-.6.6-.7.66-.8.68-.92.74-1.1.8-1.32.87-1.6.96-1.95 1.07-2.45 1.2-3.15 1.4-4.2 1.68-5.96 2.07-9.4 2.8-65.2 16.74-5.94 2.07-4.02 1.6" stroke="#c7e8ac" stroke-width="6" fill="none"/><path d="M1548.94 839.4l-6-.14.07-3h6z" fill="#c7e8ac"/><path d="M1421.5 891.54l7.15-13.18 6.38 6.73z" stroke="#c7e8ac" stroke-width="6" fill="#c7e8ac"/><path d="M1546.18 839.24l.2 1.53.4 2.03.57 1.93.72 1.87.9 1.86 1.1 1.88 1.35 1.95 1.74 2.08 2.3 2.35 3.33 2.9 6.84 4.95 14.02 9.75.52.46" stroke="#c7e8ac" stroke-width="6" fill="none"/><path d="M1549.13 839.2l-6 .24-.13-3.2h6z" fill="#c7e8ac"/><path d="M1587.86 889.14l-10.82-10.4 8.18-4.36z" stroke="#c7e8ac" stroke-width="6" fill="#c7e8ac"/><path d="M1247.6 1010.05l1.4.92 1.7.98 1.95 1 2.26.98 2.7 1 3.22 1 4 1 5.17.97 7.07.93 11.04.8 36.83.4 39.97-.34 9.98-.8 6.66-.9 4.94-.97 3.87-.98 3.14-.98 2.6-.98 2.22-1 1.9-.96 1.67-.98 1.12-.74" stroke="#999" stroke-width="6" fill="none"/><path d="M1240.57 995.53l10.4 10.82-8.34 4.04zM1410.15 995.98l-2.16 14.84-8.32-4.1z" stroke="#999" stroke-width="6" fill="#999"/><path d="M1426.37 1010.05l.66.4 1.64.93 1.87.92 2.18.92 2.56.92 3.08.93 3.8.92 4.83.88 6.5.84 9.67.7 21.35.32 21.85-.2 42.47-.4 8.58-.77 5.77-.85 4.28-.9 3.38-.9 2.76-.92 2.3-.92 1.97-.92 1.7-.92 1.5-.93.16-.1" stroke="#999" stroke-width="6" fill="none"/><path d="M1418.95 995.87l10.72 10.5-8.2 4.3zM1588.23 995.5l-2 14.86-8.36-4.02z" stroke="#999" stroke-width="6" fill="#999"/><path d="M1242.04 1012.88l.12.23.8 1.4.86 1.34.9 1.3.94 1.23 1 1.2 1.04 1.17 1.1 1.13 1.2 1.1 1.24 1.1 1.34 1.06 1.44 1.04 1.55 1.03 1.67 1 1.82 1 2 1 2.2.98 2.43.96 2.72.95 3.1.92 3.54.9 4.12.88 4.9.83 5.96.75 7.54.62 10.18.42 15.77-.03 90.64-3.5 29.62.7 70.1 2.86 12.4-.24 8.72-.54 6.7-.7 5.42-.8 4.5-.86 3.83-.9 3.32-.92 2.9-.95 2.6-.96 2.32-.98 2.1-1 1.9-1 1.76-1 1.6-1.02 1.5-1.04 1.4-1.06 1.3-1.07 1.22-1.1 1.14-1.12 1.08-1.15 1.03-1.18.96-1.22.93-1.27.87-1.3.83-1.38.5-.88" stroke="#999" stroke-width="6" fill="none"/><path d="M1238.4 996.28l7.6 12.95-9.07 1.98zM1590.36 996.23l1.47 14.93-9.06-2z" stroke="#999" stroke-width="6" fill="#999"/><path d="M899.32 1080c71.7 0 129.83 27.72 129.83 61.92s-58.12 61.92-129.83 61.92h-389.5c-71.7 0-129.82-27.72-129.82-61.92S438.13 1080 509.83 1080z" stroke="#000" stroke-width="2" fill="#c7e8ac"/><use xlink:href="#g" transform="matrix(1,0,0,1,385,1085) translate(3.8888888888888573 65)"/><use xlink:href="#h" transform="matrix(1,0,0,1,385,1085) translate(256.77777777777777 65)"/><use xlink:href="#w" transform="matrix(1,0,0,1,385,1085) translate(412 65)"/><use xlink:href="#j" transform="matrix(1,0,0,1,385,1085) translate(560.6666666666667 65)"/><path d="M889.9 120c76.9 0 139.25 23.73 139.25 53s-62.35 53-139.26 53H472.1c-76.9 0-139.26-23.73-139.26-53s62.35-53 139.26-53z" stroke="#000" stroke-width="2" fill="#99d2f2"/><g><use xlink:href="#g" transform="matrix(1,0,0,1,337.8642323158729,125) translate(20.66666666666663 56)"/><use xlink:href="#h" transform="matrix(1,0,0,1,337.8642323158729,125) translate(273.55555555555554 56)"/><use xlink:href="#x" transform="matrix(1,0,0,1,337.8642323158729,125) translate(428.77777777777777 56)"/><use xlink:href="#j" transform="matrix(1,0,0,1,337.8642323158729,125) translate(590.8888888888889 56)"/></g><path d="M1031.16 172.98l25.53-.57 45.5-2.98 147.38-12.57 26.14-.58 18.87.38 14.7.9 11.96 1.26 10 1.48 8.53 1.63 7.4 1.74 6.5 1.8 5.77 1.88 5.17 1.92 4.66 1.96 4.25 2 3.88 2.03 3.57 2.06 3.3 2.08 3.07 2.13 2.86 2.18 2.67 2.22 2.5 2.26 2.38 2.3 2.23 2.38 2.12 2.45 2 2.5 1.9 2.62 1.8 2.7 1.7 2.82 1.6 2.94 1.54 3.08 1.44 3.24 1.36 3.43 1.26 3.63 1.17 3.87 1.05 4.14.95 4.46.8 4.8.3 2.27" stroke="#000" stroke-width="2" fill="none"/><path d="M1031.2 173.98l-1.07.02v-.1l.02-.9v-.46l-.02-.54 1.03-.02z"/><path d="M1421.95 257.02l-5.52-13.95 9.25-.58z" stroke="#000" stroke-width="2"/><path d="M1031.16 1141.9l1.5-.03 2.42-.15 2.35-.25 2.27-.33 2.22-.43 2.17-.5 2.13-.6 2.1-.68 2.08-.77 2.07-.87 2.05-.96 2.04-1.07 2.05-1.18 2.07-1.3 2.07-1.45 2.1-1.6 2.12-1.75 2.16-1.95 2.2-2.16 2.27-2.4 2.3-2.7 2.38-3 2.47-3.4 2.55-3.83 2.64-4.37 2.76-5.02 2.87-5.8 3-6.76 3.15-7.95 3.3-9.45 3.4-11.38 3.57-13.9 3.63-17.2 3.66-21.75 3.5-28.1 3.1-37.3 2.1-51.5-.15-78.36-.67-26.2-4.6-147.44.92-27.97 2.2-29.07 4.5-37.97 8.24-52.2 4.5-22.93 5.43-22.66 6.34-22.3 7.22-21.82 8.02-21.23 8.74-20.5 9.36-19.64 9.85-18.64 10.2-17.5 10.43-16.24 10.48-14.92 10.4-13.55 10.14-12.15 9.8-10.8 9.4-9.48 8.88-8.27 8.36-7.15 7.83-6.15 7.3-5.24 6.78-4.47 6.28-3.76 5.82-3.17 5.4-2.65 5.02-2.2 4.66-1.82 4.34-1.5 4.04-1.2 3.8-.94 3.54-.75 3.33-.55 3.16-.38 2.97-.24 2.82-.1h2.68l2.55.13 2.44.23 2.34.3 2.25.4 2.18.47 2.1.55 2 .62 1.98.7 1.92.76 1.86.85 1.83.9 1.8 1 1.74 1.1 1.74 1.15 1.7 1.25 1.68 1.34 1.67 1.45 1.64 1.57 1.63 1.68 1.63 1.83 1.6 1.97 1.62 2.14 1.6 2.33 1.6 2.52 1.57 2.77 1.56 3.04 1.55 3.35 1.55 3.7 1.5 4.1 1.46 4.58 1.42 5.14 1.32 5.8 1.22 6.55 1.06 7.48.85 8.6.2 2.9" stroke="#000" stroke-width="2" fill="none"/><path d="M1031.2 1142.9l-1.07.02.02-1v-.66l-.02-.34 1.03-.02zM1423.15 260.25h-2l-.07-.95 2-.14z"/><defs><path fill="#23373b" d="M127-220V0H93v-220H8v-28h204v28h-85" id="y"/><path fill="#23373b" d="M106-169C34-169 62-67 57 0H25v-261h32l-1 103c12-21 28-36 61-36 89 0 53 116 60 194h-32v-121c2-32-8-49-39-48" id="z"/><path fill="#23373b" d="M100-194c63 0 86 42 84 106H49c0 40 14 67 53 68 26 1 43-12 49-29l28 8c-11 28-37 45-77 45C44 4 14-33 15-96c1-61 26-98 85-98zm52 81c6-60-76-77-97-28-3 7-6 17-6 28h103" id="A"/><g id="a"><use transform="matrix(0.1111111111111111,0,0,0.1111111111111111,0,0)" xlink:href="#y"/><use transform="matrix(0.1111111111111111,0,0,0.1111111111111111,24.333333333333332,0)" xlink:href="#z"/><use transform="matrix(0.1111111111111111,0,0,0.1111111111111111,46.55555555555556,0)" xlink:href="#A"/></g><path fill="#23373b" d="M185-189c-5-48-123-54-124 2 14 75 158 14 163 119 3 78-121 87-175 55-17-10-28-26-33-46l33-7c5 56 141 63 141-1 0-78-155-14-162-118-5-82 145-84 179-34 5 7 8 16 11 25" id="B"/><path fill="#23373b" d="M59-47c-2 24 18 29 38 22v24C64 9 27 4 27-40v-127H5v-23h24l9-43h21v43h35v23H59v120" id="C"/><path fill="#23373b" d="M114-163C36-179 61-72 57 0H25l-1-190h30c1 12-1 29 2 39 6-27 23-49 58-41v29" id="D"/><path fill="#23373b" d="M135-143c-3-34-86-38-87 0 15 53 115 12 119 90S17 21 10-45l28-5c4 36 97 45 98 0-10-56-113-15-118-90-4-57 82-63 122-42 12 7 21 19 24 35" id="E"/><g id="b"><use transform="matrix(0.1111111111111111,0,0,0.1111111111111111,0,0)" xlink:href="#B"/><use transform="matrix(0.1111111111111111,0,0,0.1111111111111111,26.666666666666664,0)" xlink:href="#C"/><use transform="matrix(0.1111111111111111,0,0,0.1111111111111111,37.77777777777777,0)" xlink:href="#D"/><use transform="matrix(0.1111111111111111,0,0,0.1111111111111111,50.99999999999999,0)" xlink:href="#A"/><use transform="matrix(0.1111111111111111,0,0,0.1111111111111111,73.22222222222221,0)" xlink:href="#E"/><use transform="matrix(0.1111111111111111,0,0,0.1111111111111111,93.22222222222221,0)" xlink:href="#E"/></g><path fill="#23373b" d="M233-177c-1 41-23 64-60 70L243 0h-38l-65-103H63V0H30v-248c88 3 205-21 203 71zM63-129c60-2 137 13 137-47 0-61-80-42-137-45v92" id="F"/><path fill="#23373b" d="M115-194c55 1 70 41 70 98S169 2 115 4C84 4 66-9 55-30l1 105H24l-1-265h31l2 30c10-21 28-34 59-34zm-8 174c40 0 45-34 45-75s-6-73-45-74c-42 0-51 32-51 76 0 43 10 73 51 73" id="G"/><path fill="#23373b" d="M100-194c62-1 85 37 85 99 1 63-27 99-86 99S16-35 15-95c0-66 28-99 85-99zM99-20c44 1 53-31 53-75 0-43-8-75-51-75s-53 32-53 75 10 74 51 75" id="H"/><path fill="#23373b" d="M117-194c89-4 53 116 60 194h-32v-121c0-31-8-49-39-48C34-167 62-67 57 0H25l-1-190h30c1 10-1 24 2 32 11-22 29-35 61-36" id="I"/><g id="c"><use transform="matrix(0.1111111111111111,0,0,0.1111111111111111,0,0)" xlink:href="#F"/><use transform="matrix(0.1111111111111111,0,0,0.1111111111111111,28.777777777777775,0)" xlink:href="#A"/><use transform="matrix(0.1111111111111111,0,0,0.1111111111111111,51,0)" xlink:href="#E"/><use transform="matrix(0.1111111111111111,0,0,0.1111111111111111,71,0)" xlink:href="#G"/><use transform="matrix(0.1111111111111111,0,0,0.1111111111111111,93.22222222222223,0)" xlink:href="#H"/><use transform="matrix(0.1111111111111111,0,0,0.1111111111111111,115.44444444444446,0)" xlink:href="#I"/><use transform="matrix(0.1111111111111111,0,0,0.1111111111111111,137.66666666666669,0)" xlink:href="#E"/><use transform="matrix(0.1111111111111111,0,0,0.1111111111111111,157.66666666666669,0)" xlink:href="#A"/></g><path fill="#23373b" d="M179-190L93 31C79 59 56 82 12 73V49c39 6 53-20 64-50L1-190h34L92-34l54-156h33" id="J"/><path fill="#23373b" d="M210-169c-67 3-38 105-44 169h-31v-121c0-29-5-50-35-48C34-165 62-65 56 0H25l-1-190h30c1 10-1 24 2 32 10-44 99-50 107 0 11-21 27-35 58-36 85-2 47 119 55 194h-31v-121c0-29-5-49-35-48" id="K"/><g id="d"><use transform="matrix(0.1111111111111111,0,0,0.1111111111111111,0,0)" xlink:href="#B"/><use transform="matrix(0.1111111111111111,0,0,0.1111111111111111,26.666666666666664,0)" xlink:href="#J"/><use transform="matrix(0.1111111111111111,0,0,0.1111111111111111,46.666666666666664,0)" xlink:href="#E"/><use transform="matrix(0.1111111111111111,0,0,0.1111111111111111,66.66666666666666,0)" xlink:href="#C"/><use transform="matrix(0.1111111111111111,0,0,0.1111111111111111,77.77777777777777,0)" xlink:href="#A"/><use transform="matrix(0.1111111111111111,0,0,0.1111111111111111,100,0)" xlink:href="#K"/></g><path fill="#23373b" d="M205 0l-28-72H64L36 0H1l101-248h38L239 0h-34zm-38-99l-47-123c-12 45-31 82-46 123h93" id="L"/><path fill="#23373b" d="M84 4C-5 8 30-112 23-190h32v120c0 31 7 50 39 49 72-2 45-101 50-169h31l1 190h-30c-1-10 1-25-2-33-11 22-28 36-60 37" id="M"/><path fill="#23373b" d="M24-231v-30h32v30H24zM24 0v-190h32V0H24" id="N"/><path fill="#23373b" d="M96-169c-40 0-48 33-48 73s9 75 48 75c24 0 41-14 43-38l32 2c-6 37-31 61-74 61-59 0-76-41-82-99-10-93 101-131 147-64 4 7 5 14 7 22l-32 3c-4-21-16-35-41-35" id="O"/><g id="e"><use transform="matrix(0.1111111111111111,0,0,0.1111111111111111,0,0)" xlink:href="#L"/><use transform="matrix(0.1111111111111111,0,0,0.1111111111111111,26.666666666666664,0)" xlink:href="#M"/><use transform="matrix(0.1111111111111111,0,0,0.1111111111111111,48.888888888888886,0)" xlink:href="#C"/><use transform="matrix(0.1111111111111111,0,0,0.1111111111111111,60,0)" xlink:href="#H"/><use transform="matrix(0.1111111111111111,0,0,0.1111111111111111,82.22222222222223,0)" xlink:href="#I"/><use transform="matrix(0.1111111111111111,0,0,0.1111111111111111,104.44444444444446,0)" xlink:href="#H"/><use transform="matrix(0.1111111111111111,0,0,0.1111111111111111,126.66666666666669,0)" xlink:href="#K"/><use transform="matrix(0.1111111111111111,0,0,0.1111111111111111,159.8888888888889,0)" xlink:href="#N"/><use transform="matrix(0.1111111111111111,0,0,0.1111111111111111,168.66666666666669,0)" xlink:href="#O"/></g><path fill="#23373b" d="M190 0L58-211 59 0H30v-248h39L202-35l-2-213h31V0h-41" id="P"/><path fill="#23373b" d="M108 0H70L1-190h34L89-25l56-165h34" id="Q"/><g id="f"><use transform="matrix(0.1111111111111111,0,0,0.1111111111111111,0,0)" xlink:href="#P"/><use transform="matrix(0.1111111111111111,0,0,0.1111111111111111,28.777777777777775,0)" xlink:href="#A"/><use transform="matrix(0.1111111111111111,0,0,0.1111111111111111,51,0)" xlink:href="#D"/><use transform="matrix(0.1111111111111111,0,0,0.1111111111111111,64.22222222222223,0)" xlink:href="#Q"/><use transform="matrix(0.1111111111111111,0,0,0.1111111111111111,84.22222222222223,0)" xlink:href="#H"/><use transform="matrix(0.1111111111111111,0,0,0.1111111111111111,106.44444444444446,0)" xlink:href="#M"/><use transform="matrix(0.1111111111111111,0,0,0.1111111111111111,128.66666666666669,0)" xlink:href="#E"/></g><path fill="#23373b" d="M197 0v-115H63V0H30v-248h33v105h134v-105h34V0h-34" id="R"/><path fill="#23373b" d="M141-36C126-15 110 5 73 4 37 3 15-17 15-53c-1-64 63-63 125-63 3-35-9-54-41-54-24 1-41 7-42 31l-33-3c5-37 33-52 76-52 45 0 72 20 72 64v82c-1 20 7 32 28 27v20c-31 9-61-2-59-35zM48-53c0 20 12 33 32 33 41-3 63-29 60-74-43 2-92-5-92 41" id="S"/><path fill="#23373b" d="M24 0v-261h32V0H24" id="T"/><g id="g"><use transform="matrix(0.1111111111111111,0,0,0.1111111111111111,0,0)" xlink:href="#R"/><use transform="matrix(0.1111111111111111,0,0,0.1111111111111111,28.777777777777775,0)" xlink:href="#J"/><use transform="matrix(0.1111111111111111,0,0,0.1111111111111111,48.77777777777777,0)" xlink:href="#G"/><use transform="matrix(0.1111111111111111,0,0,0.1111111111111111,71,0)" xlink:href="#H"/><use transform="matrix(0.1111111111111111,0,0,0.1111111111111111,93.22222222222223,0)" xlink:href="#C"/><use transform="matrix(0.1111111111111111,0,0,0.1111111111111111,104.33333333333334,0)" xlink:href="#z"/><use transform="matrix(0.1111111111111111,0,0,0.1111111111111111,126.55555555555557,0)" xlink:href="#S"/><use transform="matrix(0.1111111111111111,0,0,0.1111111111111111,148.7777777777778,0)" xlink:href="#T"/><use transform="matrix(0.1111111111111111,0,0,0.1111111111111111,157.55555555555557,0)" xlink:href="#S"/><use transform="matrix(0.1111111111111111,0,0,0.1111111111111111,179.7777777777778,0)" xlink:href="#K"/><use transform="matrix(0.1111111111111111,0,0,0.1111111111111111,213.00000000000003,0)" xlink:href="#N"/><use transform="matrix(0.1111111111111111,0,0,0.1111111111111111,221.7777777777778,0)" xlink:href="#O"/></g><path fill="#23373b" d="M30-248c87 1 191-15 191 75 0 78-77 80-158 76V0H30v-248zm33 125c57 0 124 11 124-50 0-59-68-47-124-48v98" id="U"/><g id="h"><use transform="matrix(0.1111111111111111,0,0,0.1111111111111111,0,0)" xlink:href="#U"/><use transform="matrix(0.1111111111111111,0,0,0.1111111111111111,26.666666666666664,0)" xlink:href="#N"/><use transform="matrix(0.1111111111111111,0,0,0.1111111111111111,35.44444444444444,0)" xlink:href="#C"/><use transform="matrix(0.1111111111111111,0,0,0.1111111111111111,46.55555555555556,0)" xlink:href="#M"/><use transform="matrix(0.1111111111111111,0,0,0.1111111111111111,68.77777777777777,0)" xlink:href="#N"/><use transform="matrix(0.1111111111111111,0,0,0.1111111111111111,77.55555555555554,0)" xlink:href="#C"/><use transform="matrix(0.1111111111111111,0,0,0.1111111111111111,88.66666666666666,0)" xlink:href="#S"/><use transform="matrix(0.1111111111111111,0,0,0.1111111111111111,110.88888888888889,0)" xlink:href="#D"/><use transform="matrix(0.1111111111111111,0,0,0.1111111111111111,124.1111111111111,0)" xlink:href="#J"/></g><path fill="#23373b" d="M85-194c31 0 48 13 60 33l-1-100h32l1 261h-30c-2-10 0-23-3-31C134-8 116 4 85 4 32 4 16-35 15-94c0-66 23-100 70-100zm9 24c-40 0-46 34-46 75 0 40 6 74 45 74 42 0 51-32 51-76 0-42-9-74-50-73" id="V"/><g id="i"><use transform="matrix(0.1111111111111111,0,0,0.1111111111111111,0,0)" xlink:href="#L"/><use transform="matrix(0.1111111111111111,0,0,0.1111111111111111,26.666666666666664,0)" xlink:href="#V"/><use transform="matrix(0.1111111111111111,0,0,0.1111111111111111,48.888888888888886,0)" xlink:href="#D"/><use transform="matrix(0.1111111111111111,0,0,0.1111111111111111,62.11111111111111,0)" xlink:href="#A"/><use transform="matrix(0.1111111111111111,0,0,0.1111111111111111,84.33333333333333,0)" xlink:href="#I"/><use transform="matrix(0.1111111111111111,0,0,0.1111111111111111,106.55555555555554,0)" xlink:href="#S"/><use transform="matrix(0.1111111111111111,0,0,0.1111111111111111,128.77777777777777,0)" xlink:href="#T"/></g><path fill="#23373b" d="M141 0L90-78 38 0H4l68-98-65-92h35l48 74 47-74h35l-64 92 68 98h-35" id="W"/><g id="j"><use transform="matrix(0.1111111111111111,0,0,0.1111111111111111,0,0)" xlink:href="#L"/><use transform="matrix(0.1111111111111111,0,0,0.1111111111111111,26.666666666666664,0)" xlink:href="#W"/><use transform="matrix(0.1111111111111111,0,0,0.1111111111111111,46.666666666666664,0)" xlink:href="#N"/><use transform="matrix(0.1111111111111111,0,0,0.1111111111111111,55.44444444444444,0)" xlink:href="#E"/></g><g id="k"><use transform="matrix(0.1111111111111111,0,0,0.1111111111111111,0,0)" xlink:href="#B"/><use transform="matrix(0.1111111111111111,0,0,0.1111111111111111,26.666666666666664,0)" xlink:href="#P"/><use transform="matrix(0.1111111111111111,0,0,0.1111111111111111,55.44444444444444,0)" xlink:href="#B"/></g><g id="l"><use transform="matrix(0.1111111111111111,0,0,0.1111111111111111,0,0)" xlink:href="#U"/><use transform="matrix(0.1111111111111111,0,0,0.1111111111111111,26.666666666666664,0)" xlink:href="#P"/><use transform="matrix(0.1111111111111111,0,0,0.1111111111111111,55.44444444444444,0)" xlink:href="#B"/></g><path d="M197 0v-115H63V0H30v-248h33v105h134v-105h34V0h-34" id="X"/><path d="M179-190L93 31C79 59 56 82 12 73V49c39 6 53-20 64-50L1-190h34L92-34l54-156h33" id="Y"/><path d="M115-194c55 1 70 41 70 98S169 2 115 4C84 4 66-9 55-30l1 105H24l-1-265h31l2 30c10-21 28-34 59-34zm-8 174c40 0 45-34 45-75s-6-73-45-74c-42 0-51 32-51 76 0 43 10 73 51 73" id="Z"/><path d="M100-194c62-1 85 37 85 99 1 63-27 99-86 99S16-35 15-95c0-66 28-99 85-99zM99-20c44 1 53-31 53-75 0-43-8-75-51-75s-53 32-53 75 10 74 51 75" id="aa"/><path d="M59-47c-2 24 18 29 38 22v24C64 9 27 4 27-40v-127H5v-23h24l9-43h21v43h35v23H59v120" id="ab"/><path d="M106-169C34-169 62-67 57 0H25v-261h32l-1 103c12-21 28-36 61-36 89 0 53 116 60 194h-32v-121c2-32-8-49-39-48" id="ac"/><path d="M141-36C126-15 110 5 73 4 37 3 15-17 15-53c-1-64 63-63 125-63 3-35-9-54-41-54-24 1-41 7-42 31l-33-3c5-37 33-52 76-52 45 0 72 20 72 64v82c-1 20 7 32 28 27v20c-31 9-61-2-59-35zM48-53c0 20 12 33 32 33 41-3 63-29 60-74-43 2-92-5-92 41" id="ad"/><path d="M24 0v-261h32V0H24" id="ae"/><path d="M210-169c-67 3-38 105-44 169h-31v-121c0-29-5-50-35-48C34-165 62-65 56 0H25l-1-190h30c1 10-1 24 2 32 10-44 99-50 107 0 11-21 27-35 58-36 85-2 47 119 55 194h-31v-121c0-29-5-49-35-48" id="af"/><path d="M84 4C-5 8 30-112 23-190h32v120c0 31 7 50 39 49 72-2 45-101 50-169h31l1 190h-30c-1-10 1-25-2-33-11 22-28 36-60 37" id="ag"/><path d="M135-143c-3-34-86-38-87 0 15 53 115 12 119 90S17 21 10-45l28-5c4 36 97 45 98 0-10-56-113-15-118-90-4-57 82-63 122-42 12 7 21 19 24 35" id="ah"/><g id="m"><use transform="matrix(0.08641975308641976,0,0,0.08641975308641976,0,0)" xlink:href="#X"/><use transform="matrix(0.08641975308641976,0,0,0.08641975308641976,22.38271604938272,0)" xlink:href="#Y"/><use transform="matrix(0.08641975308641976,0,0,0.08641975308641976,37.93827160493828,0)" xlink:href="#Z"/><use transform="matrix(0.08641975308641976,0,0,0.08641975308641976,55.22222222222223,0)" xlink:href="#aa"/><use transform="matrix(0.08641975308641976,0,0,0.08641975308641976,72.50617283950618,0)" xlink:href="#ab"/><use transform="matrix(0.08641975308641976,0,0,0.08641975308641976,81.14814814814815,0)" xlink:href="#ac"/><use transform="matrix(0.08641975308641976,0,0,0.08641975308641976,98.43209876543212,0)" xlink:href="#ad"/><use transform="matrix(0.08641975308641976,0,0,0.08641975308641976,115.71604938271604,0)" xlink:href="#ae"/><use transform="matrix(0.08641975308641976,0,0,0.08641975308641976,122.54320987654322,0)" xlink:href="#ad"/><use transform="matrix(0.08641975308641976,0,0,0.08641975308641976,139.82716049382717,0)" xlink:href="#af"/><use transform="matrix(0.08641975308641976,0,0,0.08641975308641976,165.66666666666669,0)" xlink:href="#ag"/><use transform="matrix(0.08641975308641976,0,0,0.08641975308641976,182.95061728395063,0)" xlink:href="#ah"/></g><path d="M30-248c87 1 191-15 191 75 0 78-77 80-158 76V0H30v-248zm33 125c57 0 124 11 124-50 0-59-68-47-124-48v98" id="ai"/><path d="M24-231v-30h32v30H24zM24 0v-190h32V0H24" id="aj"/><path d="M114-163C36-179 61-72 57 0H25l-1-190h30c1 12-1 29 2 39 6-27 23-49 58-41v29" id="ak"/><g id="n"><use transform="matrix(0.08641975308641976,0,0,0.08641975308641976,0,0)" xlink:href="#ai"/><use transform="matrix(0.08641975308641976,0,0,0.08641975308641976,20.740740740740744,0)" xlink:href="#aj"/><use transform="matrix(0.08641975308641976,0,0,0.08641975308641976,27.567901234567906,0)" xlink:href="#ab"/><use transform="matrix(0.08641975308641976,0,0,0.08641975308641976,36.20987654320988,0)" xlink:href="#ag"/><use transform="matrix(0.08641975308641976,0,0,0.08641975308641976,53.49382716049383,0)" xlink:href="#aj"/><use transform="matrix(0.08641975308641976,0,0,0.08641975308641976,60.320987654321,0)" xlink:href="#ab"/><use transform="matrix(0.08641975308641976,0,0,0.08641975308641976,68.96296296296298,0)" xlink:href="#ad"/><use transform="matrix(0.08641975308641976,0,0,0.08641975308641976,86.24691358024693,0)" xlink:href="#ak"/><use transform="matrix(0.08641975308641976,0,0,0.08641975308641976,96.53086419753087,0)" xlink:href="#Y"/></g><path d="M205 0l-28-72H64L36 0H1l101-248h38L239 0h-34zm-38-99l-47-123c-12 45-31 82-46 123h93" id="al"/><path d="M85-194c31 0 48 13 60 33l-1-100h32l1 261h-30c-2-10 0-23-3-31C134-8 116 4 85 4 32 4 16-35 15-94c0-66 23-100 70-100zm9 24c-40 0-46 34-46 75 0 40 6 74 45 74 42 0 51-32 51-76 0-42-9-74-50-73" id="am"/><path d="M100-194c63 0 86 42 84 106H49c0 40 14 67 53 68 26 1 43-12 49-29l28 8c-11 28-37 45-77 45C44 4 14-33 15-96c1-61 26-98 85-98zm52 81c6-60-76-77-97-28-3 7-6 17-6 28h103" id="an"/><path d="M117-194c89-4 53 116 60 194h-32v-121c0-31-8-49-39-48C34-167 62-67 57 0H25l-1-190h30c1 10-1 24 2 32 11-22 29-35 61-36" id="ao"/><g id="o"><use transform="matrix(0.08641975308641976,0,0,0.08641975308641976,0,0)" xlink:href="#al"/><use transform="matrix(0.08641975308641976,0,0,0.08641975308641976,20.740740740740744,0)" xlink:href="#am"/><use transform="matrix(0.08641975308641976,0,0,0.08641975308641976,38.0246913580247,0)" xlink:href="#ak"/><use transform="matrix(0.08641975308641976,0,0,0.08641975308641976,48.308641975308646,0)" xlink:href="#an"/><use transform="matrix(0.08641975308641976,0,0,0.08641975308641976,65.5925925925926,0)" xlink:href="#ao"/><use transform="matrix(0.08641975308641976,0,0,0.08641975308641976,82.87654320987654,0)" xlink:href="#ad"/><use transform="matrix(0.08641975308641976,0,0,0.08641975308641976,100.16049382716048,0)" xlink:href="#ae"/></g><path d="M212-179c-10-28-35-45-73-45-59 0-87 40-87 99 0 60 29 101 89 101 43 0 62-24 78-52l27 14C228-24 195 4 139 4 59 4 22-46 18-125c-6-104 99-153 187-111 19 9 31 26 39 46" id="ap"/><path d="M141 0L90-78 38 0H4l68-98-65-92h35l48 74 47-74h35l-64 92 68 98h-35" id="aq"/><g id="p"><use transform="matrix(0.08641975308641976,0,0,0.08641975308641976,0,0)" xlink:href="#ap"/><use transform="matrix(0.08641975308641976,0,0,0.08641975308641976,22.38271604938272,0)" xlink:href="#aa"/><use transform="matrix(0.08641975308641976,0,0,0.08641975308641976,39.66666666666667,0)" xlink:href="#ak"/><use transform="matrix(0.08641975308641976,0,0,0.08641975308641976,49.95061728395062,0)" xlink:href="#ab"/><use transform="matrix(0.08641975308641976,0,0,0.08641975308641976,58.592592592592595,0)" xlink:href="#an"/><use transform="matrix(0.08641975308641976,0,0,0.08641975308641976,75.87654320987654,0)" xlink:href="#aq"/></g><path d="M143 4C61 4 22-44 18-125c-5-107 100-154 193-111 17 8 29 25 37 43l-32 9c-13-25-37-40-76-40-61 0-88 39-88 99 0 61 29 100 91 101 35 0 62-11 79-27v-45h-74v-28h105v86C228-13 192 4 143 4" id="ar"/><g id="q"><use transform="matrix(0.08641975308641976,0,0,0.08641975308641976,0,0)" xlink:href="#ar"/><use transform="matrix(0.08641975308641976,0,0,0.08641975308641976,24.19753086419753,0)" xlink:href="#aa"/><use transform="matrix(0.08641975308641976,0,0,0.08641975308641976,41.48148148148148,0)" xlink:href="#ao"/><use transform="matrix(0.08641975308641976,0,0,0.08641975308641976,58.76543209876543,0)" xlink:href="#ad"/><use transform="matrix(0.08641975308641976,0,0,0.08641975308641976,76.04938271604938,0)" xlink:href="#am"/><use transform="matrix(0.08641975308641976,0,0,0.08641975308641976,93.33333333333333,0)" xlink:href="#ah"/></g><path d="M67-125c0 53 21 87 73 88 37 1 54-22 65-47l45 17C233-25 199 4 140 4 58 4 20-42 15-125 8-235 124-281 211-232c18 10 29 29 36 50l-46 12c-8-25-30-41-62-41-52 0-71 34-72 86" id="as"/><path d="M110-194c64 0 96 36 96 99 0 64-35 99-97 99-61 0-95-36-95-99 0-62 34-99 96-99zm-1 164c35 0 45-28 45-65 0-40-10-65-43-65-34 0-45 26-45 65 0 36 10 65 43 65" id="at"/><path d="M85 4C-2 5 27-109 22-190h50c7 57-23 150 33 157 60-5 35-97 40-157h50l1 190h-47c-2-12 1-28-3-38-12 25-28 42-61 42" id="au"/><path d="M135-194c53 0 70 44 70 98 0 56-19 98-73 100-31 1-45-17-59-34 3 33 2 69 2 105H25l-1-265h48c2 10 0 23 3 31 11-24 29-35 60-35zM114-30c33 0 39-31 40-66 0-38-9-64-40-64-56 0-55 130 0 130" id="av"/><path d="M25 0v-261h50V0H25" id="aw"/><path d="M25-224v-37h50v37H25zM25 0v-190h50V0H25" id="ax"/><path d="M135-194c87-1 58 113 63 194h-50c-7-57 23-157-34-157-59 0-34 97-39 157H25l-1-190h47c2 12-1 28 3 38 12-26 28-41 61-42" id="ay"/><path d="M195-6C206 82 75 100 31 46c-4-6-6-13-8-21l49-6c3 16 16 24 34 25 40 0 42-37 40-79-11 22-30 35-61 35-53 0-70-43-70-97 0-56 18-96 73-97 30 0 46 14 59 34l2-30h47zm-90-29c32 0 41-27 41-63 0-35-9-62-40-62-32 0-39 29-40 63 0 36 9 62 39 62" id="az"/><g id="r"><use transform="matrix(0.08641975308641976,0,0,0.08641975308641976,0,0)" xlink:href="#as"/><use transform="matrix(0.08641975308641976,0,0,0.08641975308641976,22.38271604938272,0)" xlink:href="#at"/><use transform="matrix(0.08641975308641976,0,0,0.08641975308641976,41.308641975308646,0)" xlink:href="#au"/><use transform="matrix(0.08641975308641976,0,0,0.08641975308641976,60.23456790123458,0)" xlink:href="#av"/><use transform="matrix(0.08641975308641976,0,0,0.08641975308641976,79.1604938271605,0)" xlink:href="#aw"/><use transform="matrix(0.08641975308641976,0,0,0.08641975308641976,87.80246913580247,0)" xlink:href="#ax"/><use transform="matrix(0.08641975308641976,0,0,0.08641975308641976,96.44444444444443,0)" xlink:href="#ay"/><use transform="matrix(0.08641975308641976,0,0,0.08641975308641976,115.37037037037037,0)" xlink:href="#az"/></g><g id="s"><use transform="matrix(0.08641975308641976,0,0,0.08641975308641976,0,0)" xlink:href="#ap"/><use transform="matrix(0.08641975308641976,0,0,0.08641975308641976,22.38271604938272,0)" xlink:href="#aa"/><use transform="matrix(0.08641975308641976,0,0,0.08641975308641976,39.66666666666667,0)" xlink:href="#ak"/><use transform="matrix(0.08641975308641976,0,0,0.08641975308641976,49.95061728395062,0)" xlink:href="#ab"/><use transform="matrix(0.08641975308641976,0,0,0.08641975308641976,58.592592592592595,0)" xlink:href="#aj"/><use transform="matrix(0.08641975308641976,0,0,0.08641975308641976,65.41975308641976,0)" xlink:href="#ah"/><use transform="matrix(0.08641975308641976,0,0,0.08641975308641976,80.97530864197532,0)" xlink:href="#aa"/><use transform="matrix(0.08641975308641976,0,0,0.08641975308641976,98.25925925925927,0)" xlink:href="#ae"/></g><linearGradient gradientUnits="userSpaceOnUse" id="t" x1="1334.39" y1="899.23" x2="1494.5" y2="905.67"><stop offset="1.26%" stop-color="#c7e8ac"/><stop offset="94.54%" stop-color="#99d2f2"/></linearGradient><path d="M30-248c118-7 216 8 213 122C240-48 200 0 122 0H30v-248zM63-27c89 8 146-16 146-99s-60-101-146-95v194" id="aA"/><path d="M30 0v-248h187v28H63v79h144v27H63v87h162V0H30" id="aB"/><g id="u"><use transform="matrix(0.08641975308641976,0,0,0.08641975308641976,0,0)" xlink:href="#aA"/><use transform="matrix(0.08641975308641976,0,0,0.08641975308641976,22.38271604938272,0)" xlink:href="#X"/><use transform="matrix(0.08641975308641976,0,0,0.08641975308641976,44.76543209876544,0)" xlink:href="#aB"/><use transform="matrix(0.08641975308641976,0,0,0.08641975308641976,65.50617283950618,0)" xlink:href="#al"/></g><path d="M127-220V0H93v-220H8v-28h204v28h-85" id="aC"/><g id="v"><use transform="matrix(0.08641975308641976,0,0,0.08641975308641976,0,0)" xlink:href="#aC"/><use transform="matrix(0.08641975308641976,0,0,0.08641975308641976,15.469135802469134,0)" xlink:href="#an"/><use transform="matrix(0.08641975308641976,0,0,0.08641975308641976,32.75308641975309,0)" xlink:href="#ah"/><use transform="matrix(0.08641975308641976,0,0,0.08641975308641976,48.308641975308646,0)" xlink:href="#ab"/><use transform="matrix(0.08641975308641976,0,0,0.08641975308641976,56.95061728395062,0)" xlink:href="#aa"/></g><g id="w"><use transform="matrix(0.1111111111111111,0,0,0.1111111111111111,0,0)" xlink:href="#L"/><use transform="matrix(0.1111111111111111,0,0,0.1111111111111111,26.666666666666664,0)" xlink:href="#V"/><use transform="matrix(0.1111111111111111,0,0,0.1111111111111111,48.888888888888886,0)" xlink:href="#D"/><use transform="matrix(0.1111111111111111,0,0,0.1111111111111111,62.11111111111111,0)" xlink:href="#A"/><use transform="matrix(0.1111111111111111,0,0,0.1111111111111111,84.33333333333333,0)" xlink:href="#I"/><use transform="matrix(0.1111111111111111,0,0,0.1111111111111111,106.55555555555554,0)" xlink:href="#S"/><use transform="matrix(0.1111111111111111,0,0,0.1111111111111111,128.77777777777777,0)" xlink:href="#T"/></g><path fill="#23373b" d="M143 4C61 4 22-44 18-125c-5-107 100-154 193-111 17 8 29 25 37 43l-32 9c-13-25-37-40-76-40-61 0-88 39-88 99 0 61 29 100 91 101 35 0 62-11 79-27v-45h-74v-28h105v86C228-13 192 4 143 4" id="aD"/><g id="x"><use transform="matrix(0.1111111111111111,0,0,0.1111111111111111,0,0)" xlink:href="#aD"/><use transform="matrix(0.1111111111111111,0,0,0.1111111111111111,31.11111111111111,0)" xlink:href="#H"/><use transform="matrix(0.1111111111111111,0,0,0.1111111111111111,53.33333333333333,0)" xlink:href="#I"/><use transform="matrix(0.1111111111111111,0,0,0.1111111111111111,75.55555555555554,0)" xlink:href="#S"/><use transform="matrix(0.1111111111111111,0,0,0.1111111111111111,97.77777777777777,0)" xlink:href="#V"/><use transform="matrix(0.1111111111111111,0,0,0.1111111111111111,120,0)" xlink:href="#S"/><use transform="matrix(0.1111111111111111,0,0,0.1111111111111111,142.22222222222223,0)" xlink:href="#T"/></g></defs></g></svg>