<svg xmlns="http://www.w3.org/2000/svg" xmlns:xlink="http://www.w3.org/1999/xlink" xmlns:lucid="lucid" width="1180" height="992.69"><g transform="translate(-60.000000000000014 -60.00000000000006)" lucid:page-tab-id="0_0"><path d="M201.7 127V85c0-2.76 2.25-5 5-5h253.17c2.76 0 5 2.24 5 5v42" fill="#fff"/><path d="M201.7 127V85c0-2.76 2.25-5 5-5h253.17c2.76 0 5 2.24 5 5v42M201.7 127v887.93c0 2.76 2.25 5 5 5h253.17c2.76 0 5-2.24 5-5V127M201.7 127h263.17" stroke="#3d4752" stroke-width="6" fill="none"/><use xlink:href="#a" transform="matrix(1,0,0,1,201.71052631578948,80.00000000000006) translate(81.77777777777777 28.833333333333336)"/><path d="M349.74 909.16c0-2.76 2.24-5 5-5H575c2.76 0 5 2.24 5 5v31.2c0 2.77-2.24 5-5 5H354.74c-2.76 0-5-2.23-5-5z" stroke="#3d4752" stroke-width="2" fill="#3d4752"/><use xlink:href="#b" transform="matrix(1,0,0,1,354.7368421052631,909.1569219162579) translate(61.685185185185176 21.333333333333336)"/><path d="M343.16 732.55c0-2.76 2.24-5 5-5H575c2.76 0 5 2.24 5 5v31.2c0 2.77-2.24 5-5 5H348.16c-2.76 0-5-2.23-5-5z" stroke="#3d4752" stroke-width="2" fill="#3d4752"/><use xlink:href="#c" transform="matrix(1,0,0,1,348.1578947368421,732.5518672199171) translate(31.425925925925924 21.333333333333336)"/><use xlink:href="#d" transform="matrix(1,0,0,1,348.1578947368421,732.5518672199171) translate(117.27777777777779 21.333333333333336)"/><path d="M343.16 536.32c0-2.76 2.24-5 5-5h220.26c2.76 0 5 2.24 5 5v31.2c0 2.77-2.24 5-5 5H348.16c-2.76 0-5-2.23-5-5z" stroke="#3d4752" stroke-width="2" fill="#3d4752"/><use xlink:href="#c" transform="matrix(1,0,0,1,348.1578947368421,536.324028668427) translate(31.27777777777777 21.333333333333336)"/><use xlink:href="#e" transform="matrix(1,0,0,1,348.1578947368421,536.324028668427) translate(117.12962962962963 21.333333333333336)"/><path d="M343.16 365.6c0-2.76 2.24-5 5-5h220.26c2.76 0 5 2.24 5 5v31.2c0 2.78-2.24 5-5 5H348.16c-2.76 0-5-2.22-5-5z" stroke="#3d4752" stroke-width="2" fill="#3d4752"/><use xlink:href="#f" transform="matrix(1,0,0,1,348.1578947368421,365.60580912863054) translate(41.05555555555556 21.333333333333336)"/><path d="M343.16 222.36c0-2.76 2.24-5 5-5h220.26c2.76 0 5 2.24 5 5v31.2c0 2.77-2.24 5-5 5H348.16c-2.76 0-5-2.23-5-5z" stroke="#3d4752" stroke-width="2" fill="#3d4752"/><use xlink:href="#g" transform="matrix(1,0,0,1,348.1578947368421,222.35948698604295) translate(66.6111111111111 21.333333333333336)"/><path d="M86.58 259.64c0-2.76 2.24-5 5-5h220.26c2.76 0 5 2.24 5 5v31.2c0 2.77-2.24 5-5 5H91.58c-2.76 0-5-2.23-5-5z" stroke="#3d4752" stroke-width="2" fill="#3d4752"/><use xlink:href="#h" transform="matrix(1,0,0,1,91.57894736842107,259.64277631082604) translate(72.87037037037037 21.333333333333336)"/><path d="M86.58 365.6c0-2.76 2.24-5 5-5h220.26c2.76 0 5 2.24 5 5v31.2c0 2.78-2.24 5-5 5H91.58c-2.76 0-5-2.22-5-5z" stroke="#3d4752" stroke-width="2" fill="#3d4752"/><use xlink:href="#f" transform="matrix(1,0,0,1,91.57894736842107,365.60580912863054) translate(41.05555555555556 21.333333333333336)"/><path d="M86.58 418.6c0-2.77 2.24-5 5-5h220.26c2.76 0 5 2.23 5 5v31.2c0 2.76-2.24 5-5 5H91.58c-2.76 0-5-2.24-5-5z" stroke="#3d4752" stroke-width="2" fill="#3d4752"/><use xlink:href="#i" transform="matrix(1,0,0,1,91.57894736842107,418.5873255375328) translate(61.722222222222214 21.333333333333336)"/><use xlink:href="#j" transform="matrix(1,0,0,1,91.57894736842107,418.5873255375328) translate(110.53703703703704 21.333333333333336)"/><path d="M86.58 489.23c0-2.76 2.24-5 5-5h220.26c2.76 0 5 2.24 5 5v31.2c0 2.77-2.24 5-5 5H91.58c-2.76 0-5-2.23-5-5z" stroke="#3d4752" stroke-width="2" fill="#3d4752"/><use xlink:href="#k" transform="matrix(1,0,0,1,91.57894736842107,489.22934741606934) translate(55.75925925925925 21.333333333333336)"/><use xlink:href="#j" transform="matrix(1,0,0,1,91.57894736842107,489.22934741606934) translate(116.5 21.333333333333336)"/><path d="M86.58 577.53c0-2.76 2.24-5 5-5h220.26c2.76 0 5 2.24 5 5v31.2c0 2.77-2.24 5-5 5H91.58c-2.76 0-5-2.23-5-5z" stroke="#3d4752" stroke-width="2" fill="#3d4752"/><use xlink:href="#l" transform="matrix(1,0,0,1,91.57894736842107,577.53187476424) translate(42.388888888888886 21.333333333333336)"/><use xlink:href="#e" transform="matrix(1,0,0,1,91.57894736842107,577.53187476424) translate(106.01851851851852 21.333333333333336)"/><path d="M86.58 665.83c0-2.76 2.24-5 5-5h220.26c2.76 0 5 2.24 5 5v31.2c0 2.77-2.24 5-5 5H91.58c-2.76 0-5-2.23-5-5z" stroke="#3d4752" stroke-width="2" fill="#3d4752"/><use xlink:href="#l" transform="matrix(1,0,0,1,91.57894736842107,665.8344021124105) translate(18.796296296296276 21.333333333333336)"/><use xlink:href="#m" transform="matrix(1,0,0,1,91.57894736842107,665.8344021124105) translate(82.42592592592591 21.333333333333336)"/><path d="M86.58 732.55c0-2.76 2.24-5 5-5h226.84c2.76 0 5 2.24 5 5v31.2c0 2.77-2.24 5-5 5H91.58c-2.76 0-5-2.23-5-5z" stroke="#3d4752" stroke-width="2" fill="#3d4752"/><use xlink:href="#c" transform="matrix(1,0,0,1,91.57894736842105,732.5518672199171) translate(31.425925925925924 21.333333333333336)"/><use xlink:href="#d" transform="matrix(1,0,0,1,91.57894736842105,732.5518672199171) translate(117.27777777777779 21.333333333333336)"/><path d="M86.58 909.16c0-2.76 2.24-5 5-5h220.26c2.76 0 5 2.24 5 5v31.2c0 2.77-2.24 5-5 5H91.58c-2.76 0-5-2.23-5-5z" stroke="#3d4752" stroke-width="2" fill="#3d4752"/><use xlink:href="#b" transform="matrix(1,0,0,1,91.57894736842107,909.1569219162579) translate(61.685185185185176 21.333333333333336)"/><path d="M343.16 665.83c0-2.76 2.24-5 5-5H575c2.76 0 5 2.24 5 5v31.2c0 2.77-2.24 5-5 5H348.16c-2.76 0-5-2.23-5-5z" stroke="#3d4752" stroke-width="2" fill="#3d4752"/><use xlink:href="#n" transform="matrix(1,0,0,1,348.1578947368421,665.8344021124105) translate(34.35185185185186 21.333333333333336)"/><path d="M80 143.87c0-2.76 2.24-5 5-5h226.84c2.76 0 5 2.24 5 5v31.2c0 2.77-2.24 5-5 5H85c-2.76 0-5-2.23-5-5z" stroke="#3d4752" stroke-width="2" fill="#fff"/><use xlink:href="#o" transform="matrix(1,0,0,1,85.00000000000001,143.86835156544697) translate(48.388888888888886 21.333333333333336)"/><use xlink:href="#p" transform="matrix(1,0,0,1,85.00000000000001,143.86835156544697) translate(131.27777777777777 21.333333333333336)"/><path d="M343.16 143.47c0-2.76 2.24-5 5-5H575c2.76 0 5 2.24 5 5v32c0 2.76-2.24 5-5 5H348.16c-2.76 0-5-2.24-5-5z" stroke="#3d4752" stroke-width="2" fill="#fff"/><use xlink:href="#q" transform="matrix(1,0,0,1,348.1578947368421,143.47227461335342) translate(21.018518518518505 21.333333333333336)"/><use xlink:href="#r" transform="matrix(1,0,0,1,348.1578947368421,143.47227461335342) translate(99.38888888888887 21.333333333333336)"/><use xlink:href="#s" transform="matrix(1,0,0,1,348.1578947368421,143.47227461335342) translate(124.57407407407406 21.333333333333336)"/><path d="M740 105c0-2.76 2.24-5 5-5h470c2.76 0 5 2.24 5 5v49.26c0 2.76-2.24 5-5 5H745c-2.76 0-5-2.24-5-5z" fill="none"/><g><use xlink:href="#t" transform="matrix(1,0,0,1,740,100) translate(48 35.333333333333336)"/><use xlink:href="#u" transform="matrix(1,0,0,1,740,100) translate(134.5925925925926 35.333333333333336)"/><use xlink:href="#v" transform="matrix(1,0,0,1,740,100) translate(180.44444444444446 35.333333333333336)"/><use xlink:href="#w" transform="matrix(1,0,0,1,740,100) translate(285.6296296296297 35.333333333333336)"/><use xlink:href="#x" transform="matrix(1,0,0,1,740,100) translate(337.4814814814815 35.333333333333336)"/></g><path d="M333.3 134.06v804.3" stroke="#999" stroke-width="10" fill="none"/><path fill="#999"/><path d="M333.3 957.64l-4.65-14.27h9.27z" stroke="#999" stroke-width="10" fill="#999"/><path d="M234.6 978.82c0-2.76 2.24-5 5-5h187.37c2.77 0 5 2.24 5 5v48.87c0 2.75-2.23 5-5 5H239.6c-2.76 0-5-2.25-5-5z" stroke="#000" stroke-opacity="0" stroke-width="2" fill="#fff" fill-opacity="0"/><g><use xlink:href="#y" transform="matrix(1,0,0,1,239.60526315789485,978.8178046020369) translate(70.70987654320987 30.72222222222222)"/></g><defs><path fill="#ef8d22" d="M67-125c0 53 21 87 73 88 37 1 54-22 65-47l45 17C233-25 199 4 140 4 58 4 20-42 15-125 8-235 124-281 211-232c18 10 29 29 36 50l-46 12c-8-25-30-41-62-41-52 0-71 34-72 86" id="z"/><path fill="#ef8d22" d="M110-194c64 0 96 36 96 99 0 64-35 99-97 99-61 0-95-36-95-99 0-62 34-99 96-99zm-1 164c35 0 45-28 45-65 0-40-10-65-43-65-34 0-45 26-45 65 0 36 10 65 43 65" id="A"/><path fill="#ef8d22" d="M135-150c-39-12-60 13-60 57V0H25l-1-190h47c2 13-1 29 3 40 6-28 27-53 61-41v41" id="B"/><path fill="#ef8d22" d="M115-3C79 11 28 4 28-45v-112H4v-33h27l15-45h31v45h36v33H77v99c-1 23 16 31 38 25v30" id="C"/><path fill="#ef8d22" d="M25-224v-37h50v37H25zM25 0v-190h50V0H25" id="D"/><path fill="#ef8d22" d="M137-138c1-29-70-34-71-4 15 46 118 7 119 86 1 83-164 76-172 9l43-7c4 19 20 25 44 25 33 8 57-30 24-41C81-84 22-81 20-136c-2-80 154-74 161-7" id="E"/><path fill="#ef8d22" d="M25 0v-261h50V0H25" id="F"/><g id="a"><use transform="matrix(0.07407407407407408,0,0,0.07407407407407408,0,0)" xlink:href="#z"/><use transform="matrix(0.07407407407407408,0,0,0.07407407407407408,19.185185185185187,0)" xlink:href="#A"/><use transform="matrix(0.07407407407407408,0,0,0.07407407407407408,35.40740740740741,0)" xlink:href="#B"/><use transform="matrix(0.07407407407407408,0,0,0.07407407407407408,45.777777777777786,0)" xlink:href="#C"/><use transform="matrix(0.07407407407407408,0,0,0.07407407407407408,54.5925925925926,0)" xlink:href="#D"/><use transform="matrix(0.07407407407407408,0,0,0.07407407407407408,62.000000000000014,0)" xlink:href="#E"/><use transform="matrix(0.07407407407407408,0,0,0.07407407407407408,76.81481481481484,0)" xlink:href="#A"/><use transform="matrix(0.07407407407407408,0,0,0.07407407407407408,93.03703703703707,0)" xlink:href="#F"/></g><path fill="#ef8d22" d="M160-131c35 5 61 23 61 61C221 17 115-2 30 0v-248c76 3 177-17 177 60 0 33-19 50-47 57zm-97-11c50-1 110 9 110-42 0-47-63-36-110-37v79zm0 115c55-2 124 14 124-45 0-56-70-42-124-44v89" id="G"/><path fill="#ef8d22" d="M100-194c63 0 86 42 84 106H49c0 40 14 67 53 68 26 1 43-12 49-29l28 8c-11 28-37 45-77 45C44 4 14-33 15-96c1-61 26-98 85-98zm52 81c6-60-76-77-97-28-3 7-6 17-6 28h103" id="H"/><path fill="#ef8d22" d="M85-194c31 0 48 13 60 33l-1-100h32l1 261h-30c-2-10 0-23-3-31C134-8 116 4 85 4 32 4 16-35 15-94c0-66 23-100 70-100zm9 24c-40 0-46 34-46 75 0 40 6 74 45 74 42 0 51-32 51-76 0-42-9-74-50-73" id="I"/><path fill="#ef8d22" d="M59-47c-2 24 18 29 38 22v24C64 9 27 4 27-40v-127H5v-23h24l9-43h21v43h35v23H59v120" id="J"/><path fill="#ef8d22" d="M24-231v-30h32v30H24zM24 0v-190h32V0H24" id="K"/><path fill="#ef8d22" d="M210-169c-67 3-38 105-44 169h-31v-121c0-29-5-50-35-48C34-165 62-65 56 0H25l-1-190h30c1 10-1 24 2 32 10-44 99-50 107 0 11-21 27-35 58-36 85-2 47 119 55 194h-31v-121c0-29-5-49-35-48" id="L"/><g id="b"><use transform="matrix(0.07407407407407408,0,0,0.07407407407407408,0,0)" xlink:href="#G"/><use transform="matrix(0.07407407407407408,0,0,0.07407407407407408,17.77777777777778,0)" xlink:href="#H"/><use transform="matrix(0.07407407407407408,0,0,0.07407407407407408,32.592592592592595,0)" xlink:href="#I"/><use transform="matrix(0.07407407407407408,0,0,0.07407407407407408,47.40740740740741,0)" xlink:href="#J"/><use transform="matrix(0.07407407407407408,0,0,0.07407407407407408,54.814814814814824,0)" xlink:href="#K"/><use transform="matrix(0.07407407407407408,0,0,0.07407407407407408,60.66666666666667,0)" xlink:href="#L"/><use transform="matrix(0.07407407407407408,0,0,0.07407407407407408,82.81481481481484,0)" xlink:href="#H"/></g><path fill="#ef8d22" d="M101-234c-31-9-42 10-38 44h38v23H63V0H32v-167H5v-23h27c-7-52 17-82 69-68v24" id="M"/><path fill="#ef8d22" d="M100-194c62-1 85 37 85 99 1 63-27 99-86 99S16-35 15-95c0-66 28-99 85-99zM99-20c44 1 53-31 53-75 0-43-8-75-51-75s-53 32-53 75 10 74 51 75" id="N"/><path fill="#ef8d22" d="M114-163C36-179 61-72 57 0H25l-1-190h30c1 12-1 29 2 39 6-27 23-49 58-41v29" id="O"/><g id="c"><use transform="matrix(0.07407407407407408,0,0,0.07407407407407408,0,0)" xlink:href="#G"/><use transform="matrix(0.07407407407407408,0,0,0.07407407407407408,17.77777777777778,0)" xlink:href="#H"/><use transform="matrix(0.07407407407407408,0,0,0.07407407407407408,32.592592592592595,0)" xlink:href="#M"/><use transform="matrix(0.07407407407407408,0,0,0.07407407407407408,40,0)" xlink:href="#N"/><use transform="matrix(0.07407407407407408,0,0,0.07407407407407408,54.81481481481482,0)" xlink:href="#O"/><use transform="matrix(0.07407407407407408,0,0,0.07407407407407408,63.629629629629626,0)" xlink:href="#H"/></g><path fill="#ef8d22" d="M30-248c118-7 216 8 213 122C240-48 200 0 122 0H30v-248zM63-27c89 8 146-16 146-99s-60-101-146-95v194" id="P"/><path fill="#ef8d22" d="M117-194c89-4 53 116 60 194h-32v-121c0-31-8-49-39-48C34-167 62-67 57 0H25l-1-190h30c1 10-1 24 2 32 11-22 29-35 61-36" id="Q"/><g id="d"><use transform="matrix(0.07407407407407408,0,0,0.07407407407407408,0,0)" xlink:href="#P"/><use transform="matrix(0.07407407407407408,0,0,0.07407407407407408,19.185185185185187,0)" xlink:href="#K"/><use transform="matrix(0.07407407407407408,0,0,0.07407407407407408,25.037037037037035,0)" xlink:href="#Q"/><use transform="matrix(0.07407407407407408,0,0,0.07407407407407408,39.851851851851855,0)" xlink:href="#Q"/><use transform="matrix(0.07407407407407408,0,0,0.07407407407407408,54.66666666666667,0)" xlink:href="#H"/><use transform="matrix(0.07407407407407408,0,0,0.07407407407407408,69.4814814814815,0)" xlink:href="#O"/></g><path fill="#ef8d22" d="M30 0v-248h33v221h125V0H30" id="R"/><path fill="#ef8d22" d="M84 4C-5 8 30-112 23-190h32v120c0 31 7 50 39 49 72-2 45-101 50-169h31l1 190h-30c-1-10 1-25-2-33-11 22-28 36-60 37" id="S"/><path fill="#ef8d22" d="M96-169c-40 0-48 33-48 73s9 75 48 75c24 0 41-14 43-38l32 2c-6 37-31 61-74 61-59 0-76-41-82-99-10-93 101-131 147-64 4 7 5 14 7 22l-32 3c-4-21-16-35-41-35" id="T"/><path fill="#ef8d22" d="M106-169C34-169 62-67 57 0H25v-261h32l-1 103c12-21 28-36 61-36 89 0 53 116 60 194h-32v-121c2-32-8-49-39-48" id="U"/><g id="e"><use transform="matrix(0.07407407407407408,0,0,0.07407407407407408,0,0)" xlink:href="#R"/><use transform="matrix(0.07407407407407408,0,0,0.07407407407407408,14.814814814814817,0)" xlink:href="#S"/><use transform="matrix(0.07407407407407408,0,0,0.07407407407407408,29.629629629629633,0)" xlink:href="#Q"/><use transform="matrix(0.07407407407407408,0,0,0.07407407407407408,44.44444444444445,0)" xlink:href="#T"/><use transform="matrix(0.07407407407407408,0,0,0.07407407407407408,57.777777777777786,0)" xlink:href="#U"/></g><path fill="#ef8d22" d="M240 0l2-218c-23 76-54 145-80 218h-23L58-218 59 0H30v-248h44l77 211c21-75 51-140 76-211h43V0h-30" id="V"/><path fill="#ef8d22" d="M177-190C167-65 218 103 67 71c-23-6-38-20-44-43l32-5c15 47 100 32 89-28v-30C133-14 115 1 83 1 29 1 15-40 15-95c0-56 16-97 71-98 29-1 48 16 59 35 1-10 0-23 2-32h30zM94-22c36 0 50-32 50-73 0-42-14-75-50-75-39 0-46 34-46 75s6 73 46 73" id="W"/><g id="f"><use transform="matrix(0.07407407407407408,0,0,0.07407407407407408,0,0)" xlink:href="#V"/><use transform="matrix(0.07407407407407408,0,0,0.07407407407407408,22.148148148148152,0)" xlink:href="#K"/><use transform="matrix(0.07407407407407408,0,0,0.07407407407407408,28.000000000000007,0)" xlink:href="#I"/><use transform="matrix(0.07407407407407408,0,0,0.07407407407407408,42.814814814814824,0)" xlink:href="#L"/><use transform="matrix(0.07407407407407408,0,0,0.07407407407407408,64.96296296296298,0)" xlink:href="#N"/><use transform="matrix(0.07407407407407408,0,0,0.07407407407407408,79.7777777777778,0)" xlink:href="#O"/><use transform="matrix(0.07407407407407408,0,0,0.07407407407407408,88.59259259259261,0)" xlink:href="#Q"/><use transform="matrix(0.07407407407407408,0,0,0.07407407407407408,103.40740740740742,0)" xlink:href="#K"/><use transform="matrix(0.07407407407407408,0,0,0.07407407407407408,109.25925925925927,0)" xlink:href="#Q"/><use transform="matrix(0.07407407407407408,0,0,0.07407407407407408,124.07407407407408,0)" xlink:href="#W"/></g><path fill="#ef8d22" d="M266 0h-40l-56-210L115 0H75L2-248h35L96-30l15-64 43-154h32l59 218 59-218h35" id="X"/><path fill="#ef8d22" d="M141-36C126-15 110 5 73 4 37 3 15-17 15-53c-1-64 63-63 125-63 3-35-9-54-41-54-24 1-41 7-42 31l-33-3c5-37 33-52 76-52 45 0 72 20 72 64v82c-1 20 7 32 28 27v20c-31 9-61-2-59-35zM48-53c0 20 12 33 32 33 41-3 63-29 60-74-43 2-92-5-92 41" id="Y"/><path fill="#ef8d22" d="M143 0L79-87 56-68V0H24v-261h32v163l83-92h37l-77 82L181 0h-38" id="Z"/><g id="g"><use transform="matrix(0.07407407407407408,0,0,0.07407407407407408,0,0)" xlink:href="#X"/><use transform="matrix(0.07407407407407408,0,0,0.07407407407407408,24.148148148148152,0)" xlink:href="#Y"/><use transform="matrix(0.07407407407407408,0,0,0.07407407407407408,38.96296296296297,0)" xlink:href="#Z"/><use transform="matrix(0.07407407407407408,0,0,0.07407407407407408,52.296296296296305,0)" xlink:href="#K"/><use transform="matrix(0.07407407407407408,0,0,0.07407407407407408,58.14814814814815,0)" xlink:href="#Q"/><use transform="matrix(0.07407407407407408,0,0,0.07407407407407408,72.96296296296298,0)" xlink:href="#W"/></g><path fill="#ef8d22" d="M205 0l-28-72H64L36 0H1l101-248h38L239 0h-34zm-38-99l-47-123c-12 45-31 82-46 123h93" id="aa"/><path fill="#ef8d22" d="M108 0H70L1-190h34L89-25l56-165h34" id="ab"/><path fill="#ef8d22" d="M24 0v-261h32V0H24" id="ac"/><g id="h"><use transform="matrix(0.07407407407407408,0,0,0.07407407407407408,0,0)" xlink:href="#aa"/><use transform="matrix(0.07407407407407408,0,0,0.07407407407407408,17.77777777777778,0)" xlink:href="#O"/><use transform="matrix(0.07407407407407408,0,0,0.07407407407407408,26.592592592592595,0)" xlink:href="#O"/><use transform="matrix(0.07407407407407408,0,0,0.07407407407407408,35.40740740740741,0)" xlink:href="#K"/><use transform="matrix(0.07407407407407408,0,0,0.07407407407407408,41.25925925925927,0)" xlink:href="#ab"/><use transform="matrix(0.07407407407407408,0,0,0.07407407407407408,54.5925925925926,0)" xlink:href="#Y"/><use transform="matrix(0.07407407407407408,0,0,0.07407407407407408,69.40740740740742,0)" xlink:href="#ac"/></g><path fill="#ef8d22" d="M30-248c87 1 191-15 191 75 0 78-77 80-158 76V0H30v-248zm33 125c57 0 124 11 124-50 0-59-68-47-124-48v98" id="ad"/><g id="i"><use transform="matrix(0.07407407407407408,0,0,0.07407407407407408,0,0)" xlink:href="#ad"/><use transform="matrix(0.07407407407407408,0,0,0.07407407407407408,17.77777777777778,0)" xlink:href="#O"/><use transform="matrix(0.07407407407407408,0,0,0.07407407407407408,26.592592592592595,0)" xlink:href="#H"/></g><path fill="#ef8d22" d="M233-177c-1 41-23 64-60 70L243 0h-38l-65-103H63V0H30v-248c88 3 205-21 203 71zM63-129c60-2 137 13 137-47 0-61-80-42-137-45v92" id="ae"/><path fill="#ef8d22" d="M33 0v-248h34V0H33" id="af"/><g id="j"><use transform="matrix(0.07407407407407408,0,0,0.07407407407407408,0,0)" xlink:href="#V"/><use transform="matrix(0.07407407407407408,0,0,0.07407407407407408,22.148148148148152,0)" xlink:href="#ae"/><use transform="matrix(0.07407407407407408,0,0,0.07407407407407408,41.333333333333336,0)" xlink:href="#af"/></g><path fill="#ef8d22" d="M135-143c-3-34-86-38-87 0 15 53 115 12 119 90S17 21 10-45l28-5c4 36 97 45 98 0-10-56-113-15-118-90-4-57 82-63 122-42 12 7 21 19 24 35" id="ag"/><g id="k"><use transform="matrix(0.07407407407407408,0,0,0.07407407407407408,0,0)" xlink:href="#ad"/><use transform="matrix(0.07407407407407408,0,0,0.07407407407407408,17.77777777777778,0)" xlink:href="#N"/><use transform="matrix(0.07407407407407408,0,0,0.07407407407407408,32.592592592592595,0)" xlink:href="#ag"/><use transform="matrix(0.07407407407407408,0,0,0.07407407407407408,45.92592592592593,0)" xlink:href="#J"/></g><g id="l"><use transform="matrix(0.07407407407407408,0,0,0.07407407407407408,0,0)" xlink:href="#aa"/><use transform="matrix(0.07407407407407408,0,0,0.07407407407407408,17.77777777777778,0)" xlink:href="#M"/><use transform="matrix(0.07407407407407408,0,0,0.07407407407407408,25.185185185185187,0)" xlink:href="#J"/><use transform="matrix(0.07407407407407408,0,0,0.07407407407407408,32.592592592592595,0)" xlink:href="#H"/><use transform="matrix(0.07407407407407408,0,0,0.07407407407407408,47.40740740740741,0)" xlink:href="#O"/></g><path fill="#ef8d22" d="M206 0h-36l-40-164L89 0H53L-1-190h32L70-26l43-164h34l41 164 42-164h31" id="ah"/><g id="m"><use transform="matrix(0.07407407407407408,0,0,0.07407407407407408,0,0)" xlink:href="#af"/><use transform="matrix(0.07407407407407408,0,0,0.07407407407407408,7.407407407407408,0)" xlink:href="#Q"/><use transform="matrix(0.07407407407407408,0,0,0.07407407407407408,22.222222222222225,0)" xlink:href="#J"/><use transform="matrix(0.07407407407407408,0,0,0.07407407407407408,29.629629629629633,0)" xlink:href="#H"/><use transform="matrix(0.07407407407407408,0,0,0.07407407407407408,44.44444444444445,0)" xlink:href="#O"/><use transform="matrix(0.07407407407407408,0,0,0.07407407407407408,53.25925925925927,0)" xlink:href="#ab"/><use transform="matrix(0.07407407407407408,0,0,0.07407407407407408,66.59259259259261,0)" xlink:href="#K"/><use transform="matrix(0.07407407407407408,0,0,0.07407407407407408,72.44444444444446,0)" xlink:href="#H"/><use transform="matrix(0.07407407407407408,0,0,0.07407407407407408,87.25925925925927,0)" xlink:href="#ah"/><use transform="matrix(0.07407407407407408,0,0,0.07407407407407408,106.44444444444446,0)" xlink:href="#ag"/></g><g id="n"><use transform="matrix(0.07407407407407408,0,0,0.07407407407407408,0,0)" xlink:href="#V"/><use transform="matrix(0.07407407407407408,0,0,0.07407407407407408,22.148148148148152,0)" xlink:href="#K"/><use transform="matrix(0.07407407407407408,0,0,0.07407407407407408,28.000000000000007,0)" xlink:href="#I"/><use transform="matrix(0.07407407407407408,0,0,0.07407407407407408,42.814814814814824,0)" xlink:href="#aa"/><use transform="matrix(0.07407407407407408,0,0,0.07407407407407408,60.5925925925926,0)" xlink:href="#M"/><use transform="matrix(0.07407407407407408,0,0,0.07407407407407408,68.00000000000001,0)" xlink:href="#J"/><use transform="matrix(0.07407407407407408,0,0,0.07407407407407408,75.40740740740742,0)" xlink:href="#H"/><use transform="matrix(0.07407407407407408,0,0,0.07407407407407408,90.22222222222223,0)" xlink:href="#O"/><use transform="matrix(0.07407407407407408,0,0,0.07407407407407408,99.03703703703704,0)" xlink:href="#Q"/><use transform="matrix(0.07407407407407408,0,0,0.07407407407407408,113.85185185185185,0)" xlink:href="#N"/><use transform="matrix(0.07407407407407408,0,0,0.07407407407407408,128.66666666666666,0)" xlink:href="#N"/><use transform="matrix(0.07407407407407408,0,0,0.07407407407407408,143.48148148148147,0)" xlink:href="#Q"/></g><path fill="#ef8d22" d="M185-189c-5-48-123-54-124 2 14 75 158 14 163 119 3 78-121 87-175 55-17-10-28-26-33-46l33-7c5 56 141 63 141-1 0-78-155-14-162-118-5-82 145-84 179-34 5 7 8 16 11 25" id="ai"/><g id="o"><use transform="matrix(0.07407407407407408,0,0,0.07407407407407408,0,0)" xlink:href="#ai"/><use transform="matrix(0.07407407407407408,0,0,0.07407407407407408,17.77777777777778,0)" xlink:href="#J"/><use transform="matrix(0.07407407407407408,0,0,0.07407407407407408,25.185185185185187,0)" xlink:href="#O"/><use transform="matrix(0.07407407407407408,0,0,0.07407407407407408,34,0)" xlink:href="#H"/><use transform="matrix(0.07407407407407408,0,0,0.07407407407407408,48.81481481481481,0)" xlink:href="#ag"/><use transform="matrix(0.07407407407407408,0,0,0.07407407407407408,62.14814814814816,0)" xlink:href="#ag"/></g><path fill="#ef8d22" d="M179-190L93 31C79 59 56 82 12 73V49c39 6 53-20 64-50L1-190h34L92-34l54-156h33" id="aj"/><g id="p"><use transform="matrix(0.07407407407407408,0,0,0.07407407407407408,0,0)" xlink:href="#P"/><use transform="matrix(0.07407407407407408,0,0,0.07407407407407408,19.185185185185187,0)" xlink:href="#Y"/><use transform="matrix(0.07407407407407408,0,0,0.07407407407407408,34,0)" xlink:href="#aj"/></g><path fill="#ef8d22" d="M197 0v-115H63V0H30v-248h33v105h134v-105h34V0h-34" id="ak"/><g id="q"><use transform="matrix(0.07407407407407408,0,0,0.07407407407407408,0,0)" xlink:href="#ak"/><use transform="matrix(0.07407407407407408,0,0,0.07407407407407408,19.185185185185187,0)" xlink:href="#N"/><use transform="matrix(0.07407407407407408,0,0,0.07407407407407408,34,0)" xlink:href="#L"/><use transform="matrix(0.07407407407407408,0,0,0.07407407407407408,56.14814814814815,0)" xlink:href="#H"/></g><path fill="#ef8d22" d="M234-2c-28 10-62 0-77-18C117 19 8 12 13-65c3-43 29-61 60-76-25-40-17-114 47-108 35 3 59 15 59 50 0 44-40 53-71 69 14 26 32 50 51 72 14-21 24-43 30-72l26 8c-9 33-21 57-38 82 13 13 33 22 57 15v23zM97-151c25-10 52-18 56-48-1-18-13-29-33-29-42 0-39 50-23 77zM42-66c-3 51 71 58 98 28-20-24-41-51-56-80-23 10-40 24-42 52" id="al"/><use transform="matrix(0.07407407407407408,0,0,0.07407407407407408,0,0)" xlink:href="#al" id="r"/><g id="s"><use transform="matrix(0.07407407407407408,0,0,0.07407407407407408,0,0)" xlink:href="#ai"/><use transform="matrix(0.07407407407407408,0,0,0.07407407407407408,17.77777777777778,0)" xlink:href="#T"/><use transform="matrix(0.07407407407407408,0,0,0.07407407407407408,31.111111111111114,0)" xlink:href="#U"/><use transform="matrix(0.07407407407407408,0,0,0.07407407407407408,45.92592592592593,0)" xlink:href="#N"/><use transform="matrix(0.07407407407407408,0,0,0.07407407407407408,60.74074074074075,0)" xlink:href="#N"/><use transform="matrix(0.07407407407407408,0,0,0.07407407407407408,75.55555555555557,0)" xlink:href="#ac"/></g><path fill="#ef8d22" d="M190 0L58-211 59 0H30v-248h39L202-35l-2-213h31V0h-41" id="am"/><path fill="#ef8d22" d="M18-150v-26h174v26H18zm0 90v-26h174v26H18" id="an"/><path fill="#ef8d22" d="M27 0v-27h64v-190l-56 39v-29l58-41h29v221h61V0H27" id="ao"/><path fill="#ef8d22" d="M101-251c82-7 93 87 43 132L82-64C71-53 59-42 53-27h129V0H18c2-99 128-94 128-182 0-28-16-43-45-43s-46 15-49 41l-32-3c6-41 34-60 81-64" id="ap"/><path fill="#ef8d22" d="M101-251c68 0 85 55 85 127S166 4 100 4C33 4 14-52 14-124c0-73 17-127 87-127zm-1 229c47 0 54-49 54-102s-4-102-53-102c-51 0-55 48-55 102 0 53 5 102 54 102" id="aq"/><g id="t"><use transform="matrix(0.07407407407407408,0,0,0.07407407407407408,0,0)" xlink:href="#am"/><use transform="matrix(0.07407407407407408,0,0,0.07407407407407408,19.185185185185187,0)" xlink:href="#an"/><use transform="matrix(0.07407407407407408,0,0,0.07407407407407408,34.74074074074075,0)" xlink:href="#ao"/><use transform="matrix(0.07407407407407408,0,0,0.07407407407407408,49.555555555555564,0)" xlink:href="#ap"/><use transform="matrix(0.07407407407407408,0,0,0.07407407407407408,64.37037037037038,0)" xlink:href="#aq"/></g><path fill="#ef8d22" d="M87 75C49 33 22-17 22-94c0-76 28-126 65-167h31c-38 41-64 92-64 168S80 34 118 75H87" id="ar"/><path fill="#ef8d22" d="M155-56V0h-30v-56H8v-25l114-167h33v167h35v25h-35zm-30-156c-27 46-58 90-88 131h88v-131" id="as"/><g id="u"><use transform="matrix(0.07407407407407408,0,0,0.07407407407407408,0,0)" xlink:href="#ar"/><use transform="matrix(0.07407407407407408,0,0,0.07407407407407408,8.814814814814817,0)" xlink:href="#as"/><use transform="matrix(0.07407407407407408,0,0,0.07407407407407408,23.629629629629633,0)" xlink:href="#ap"/></g><path fill="#ef8d22" d="M115-194c53 0 69 39 70 98 0 66-23 100-70 100C84 3 66-7 56-30L54 0H23l1-261h32v101c10-23 28-34 59-34zm-8 174c40 0 45-34 45-75 0-40-5-75-45-74-42 0-51 32-51 76 0 43 10 73 51 73" id="at"/><path fill="#ef8d22" d="M68-38c1 34 0 65-14 84H32c9-13 17-26 17-46H33v-38h35" id="au"/><g id="v"><use transform="matrix(0.07407407407407408,0,0,0.07407407407407408,0,0)" xlink:href="#aa"/><use transform="matrix(0.07407407407407408,0,0,0.07407407407407408,17.77777777777778,0)" xlink:href="#at"/><use transform="matrix(0.07407407407407408,0,0,0.07407407407407408,32.592592592592595,0)" xlink:href="#S"/><use transform="matrix(0.07407407407407408,0,0,0.07407407407407408,47.40740740740741,0)" xlink:href="#ag"/><use transform="matrix(0.07407407407407408,0,0,0.07407407407407408,60.74074074074075,0)" xlink:href="#H"/><use transform="matrix(0.07407407407407408,0,0,0.07407407407407408,75.55555555555557,0)" xlink:href="#I"/><use transform="matrix(0.07407407407407408,0,0,0.07407407407407408,90.37037037037038,0)" xlink:href="#au"/></g><path fill="#ef8d22" d="M64 0c3-98 48-159 88-221H18v-27h164v26C143-157 98-101 97 0H64" id="av"/><path fill="#ef8d22" d="M134-131c28 9 52 24 51 62-1 50-34 73-85 73S17-19 16-69c0-36 21-54 49-61-75-25-45-126 34-121 46 3 78 18 79 63 0 33-17 51-44 57zm-34-11c31 1 46-15 46-44 0-28-17-43-47-42-29 0-46 13-45 42 1 28 16 44 46 44zm1 122c35 0 51-18 51-52 0-30-18-46-53-46-33 0-51 17-51 47 0 34 19 51 53 51" id="aw"/><g id="w"><use transform="matrix(0.07407407407407408,0,0,0.07407407407407408,0,0)" xlink:href="#av"/><use transform="matrix(0.07407407407407408,0,0,0.07407407407407408,14.814814814814817,0)" xlink:href="#aw"/></g><path fill="#ef8d22" d="M212-179c-10-28-35-45-73-45-59 0-87 40-87 99 0 60 29 101 89 101 43 0 62-24 78-52l27 14C228-24 195 4 139 4 59 4 22-46 18-125c-6-104 99-153 187-111 19 9 31 26 39 46" id="ax"/><path fill="#ef8d22" d="M33-261c38 41 65 92 65 168S71 34 33 75H2C39 34 66-17 66-93S39-220 2-261h31" id="ay"/><g id="x"><use transform="matrix(0.07407407407407408,0,0,0.07407407407407408,0,0)" xlink:href="#ax"/><use transform="matrix(0.07407407407407408,0,0,0.07407407407407408,19.185185185185187,0)" xlink:href="#N"/><use transform="matrix(0.07407407407407408,0,0,0.07407407407407408,34,0)" xlink:href="#Q"/><use transform="matrix(0.07407407407407408,0,0,0.07407407407407408,48.81481481481481,0)" xlink:href="#J"/><use transform="matrix(0.07407407407407408,0,0,0.07407407407407408,56.22222222222223,0)" xlink:href="#O"/><use transform="matrix(0.07407407407407408,0,0,0.07407407407407408,65.03703703703704,0)" xlink:href="#N"/><use transform="matrix(0.07407407407407408,0,0,0.07407407407407408,79.85185185185185,0)" xlink:href="#ac"/><use transform="matrix(0.07407407407407408,0,0,0.07407407407407408,85.7037037037037,0)" xlink:href="#ay"/></g><g id="y"><use transform="matrix(0.08641975308641976,0,0,0.08641975308641976,0,0)" xlink:href="#ad"/><use transform="matrix(0.08641975308641976,0,0,0.08641975308641976,20.740740740740744,0)" xlink:href="#V"/></g></defs></g></svg>