<svg xmlns="http://www.w3.org/2000/svg" xmlns:xlink="http://www.w3.org/1999/xlink" xmlns:lucid="lucid" width="1708" height="1284.5"><g transform="translate(-40 -40)" lucid:page-tab-id="0_0"><path d="M1665.12 1104.87c34.73 0 62.88 20.53 62.88 45.85s-28.15 45.85-62.88 45.85H1476.5c-34.74 0-62.9-20.53-62.9-45.85s28.16-45.85 62.9-45.85z" stroke="#000" stroke-width="2" fill="#c7e8ac"/><use xlink:href="#a" transform="matrix(1,0,0,1,1418.606690539621,1109.8669841846115) translate(62.425925925925924 51.66666666666667)"/><path d="M1138.5 875.6h314.4v137.56h-314.4z" stroke="#000" stroke-width="2" fill="#c7e8ac"/><use xlink:href="#b" transform="matrix(1,0,0,1,1143.5125447617902,880.602506879573) translate(60.796296296296305 42.66666666666667)"/><use xlink:href="#c" transform="matrix(1,0,0,1,1143.5125447617902,880.602506879573) translate(74.12962962962962 106.66666666666667)"/><path d="M863.42 669.26h314.4v137.56H863.4z" stroke="#000" stroke-width="2" fill="#c7e8ac"/><use xlink:href="#d" transform="matrix(1,0,0,1,868.4183989839582,674.2644773050383) translate(56.425925925925895 74.66666666666667)"/><path d="M588.32 440h353.7v137.56h-353.7z" stroke="#000" stroke-width="2" fill="#c7e8ac"/><use xlink:href="#e" transform="matrix(1,0,0,1,593.3242532061265,445) translate(1.8518518518518476 74.66666666666667)"/><path d="M766.17 737.04h77.75v2h-79.75V682.5h2zm0-118.55h-2v-39.94h2z"/><path d="M766.17 578.56h-2v-1h2zM859.18 738.04l-14.26 4.64v-9.27z"/><path d="M862.42 738.04l-18.5 6.02v-12.03zm-16.5 3.26l10.03-3.26-10.03-3.26z"/><use xlink:href="#f" transform="matrix(1,0,0,1,707.6149342220341,618.4938512457743) translate(0 42.66666666666667)"/><path d="M1021.62 943.38h97.4v2h-99.4v-30.3h2zm0-92.3h-2v-43.26h2zM1021.62 807.82h-2v-1h2zM1134.28 944.38l-14.27 4.64v-9.27z"/><path d="M1137.5 944.38l-18.5 6v-12zm-16.5 3.26l10.04-3.26-10.03-3.26z"/><use xlink:href="#g" transform="matrix(1,0,0,1,948.2446833437773,851.0937772326504) translate(0 42.66666666666667)"/><path d="M1295.7 1014.16v136.56h98.4" stroke="#000" stroke-width="2" fill="none"/><path d="M1296.7 1014.16h-2v-1h2z"/><path d="M1409.37 1150.72l-14.27 4.64v-9.28z" stroke="#000" stroke-width="2"/><path d="M1564.74 1103.86l-.24-11.4-.7-11.2-1.14-10.8-1.52-10.34-1.86-9.75-2.14-9.12-2.36-8.47-2.55-7.84-2.68-7.22-2.8-6.65-2.86-6.1-2.94-5.6-2.97-5.15-3-4.73-3.04-4.37-3.03-4-3.06-3.7-3.06-3.4-3.07-3.14-3.1-2.9-3.1-2.7-3.12-2.47-3.14-2.3-3.18-2.1-3.2-1.95-3.27-1.8-3.3-1.63-3.36-1.5-3.44-1.36-3.5-1.23-3.6-1.08-3.7-.96-3.8-.8-.6-.1" stroke="#000" stroke-width="2" fill="none"/><path d="M1565.77 1104.87h-2l-.03-.97 2-.07z"/><path d="M1457.13 944.67l14.62-3.34-.83 9.23z" stroke="#000" stroke-width="2"/><path d="M1570.8 1103.86l-.33-16.08-1-15.7-1.6-15.37-2.22-15-2.8-14.72-3.4-14.4-3.93-14.14-4.5-13.85-5.05-13.6-5.6-13.3-6.15-13.07-6.7-12.8-7.23-12.54-7.8-12.3-8.34-12-8.9-11.7-9.46-11.44-10-11.12-10.6-10.8-11.12-10.46-11.7-10.1-12.24-9.7-12.8-9.3-13.35-8.86-13.88-8.4-14.4-7.9-14.9-7.4-15.4-6.86-15.86-6.28-16.3-5.68-16.76-5.06-17.15-4.4-17.54-3.73-17.88-3-18.23-2.3-18.55-1.57-9.84-.4" stroke="#000" stroke-width="2" fill="none"/><path d="M1571.82 1104.87h-2l-.02-1 2-.03z"/><path d="M1182.05 738.13l14.38-4.27-.24 9.27z" stroke="#000" stroke-width="2"/><path d="M989.22 509.23l30.23 2.53 29.73 3.76 29.18 4.93 28.6 6.08 27.97 7.18 27.3 8.25 26.62 9.26 25.87 10.25 25.1 11.18 24.3 12.06 23.46 12.9 22.62 13.7 21.75 14.43 20.87 15.16 19.96 15.8 19.06 16.46L1410 690.2l17.22 17.6 16.32 18.12 15.4 18.62 14.5 19.1 13.6 19.56 12.7 20 11.8 20.43 10.9 20.85 10 21.28 9.13 21.7 8.22 22.12 7.32 22.56 6.43 23 5.5 23.48 4.57 23.97 3.62 24.46 2.62 25 1.6 25.6.56 26.18-2 .04-.55-26.14-1.6-25.5-2.62-24.93-3.6-24.38-4.55-23.88-5.5-23.4-6.4-22.92-7.3-22.48-8.2-22.05-9.08-21.63-9.98-21.2-10.86-20.78-11.76-20.37-12.65-19.92-13.54-19.48-14.45-19.03-15.35-18.57-16.27-18.06-17.17-17.54-18.1-16.98-19-16.4-19.9-15.77-20.8-15.1-21.67-14.4-22.55-13.66-23.4-12.86-24.22-12.02-25.02-11.14-25.8-10.2-26.52-9.25-27.23-8.22-27.9-7.16-28.5-6.05-29.1-4.92-29.65-3.75-30.15-2.53-27.63-1.15.1-2zM1582.04 1104.87h-2l-.02-1 2-.03zM960.44 513.7l-14.2-4.87 14.35-4.4z"/><path d="M961.42 515.08l-18.4-6.3 18.6-5.72zm-11.93-6.2l9.97 3.4.1-6.5z"/><path d="M60 481.28h380v195.15H60z" stroke="#000" stroke-width="2" fill="#ffc374"/><use xlink:href="#h" transform="matrix(1,0,0,1,65,486.27907227291576) translate(88.44444444444446 77)"/><use xlink:href="#i" transform="matrix(1,0,0,1,65,486.27907227291576) translate(168.33333333333334 77)"/><use xlink:href="#j" transform="matrix(1,0,0,1,65,486.27907227291576) translate(22.888888888888857 125)"/><use xlink:href="#k" transform="matrix(1,0,0,1,65,486.27907227291576) translate(213.88888888888889 125)"/><path d="M250 677.43V793.5h30.5" stroke="#000" stroke-width="2" fill="none"/><path d="M251 677.43h-2v-1h2z"/><path d="M295.76 793.5l-14.26 4.65v-9.27z" stroke="#000" stroke-width="2"/><path d="M558.16 715.3c35.65 0 64.54 35 64.54 78.2s-28.9 78.23-64.54 78.23H364.54c-35.64 0-64.54-35.02-64.54-78.22 0-43.2 28.9-78.2 64.54-78.2z" stroke="#000" stroke-width="2" fill="#ffbbb1"/><use xlink:href="#l" transform="matrix(1,0,0,1,305,720.295604969966) translate(62.16666666666666 57.5)"/><use xlink:href="#m" transform="matrix(1,0,0,1,305,720.295604969966) translate(10 105.5)"/><use xlink:href="#k" transform="matrix(1,0,0,1,305,720.295604969966) translate(169.7777777777778 105.5)"/><path d="M781.6 1140c66.5 0 120.42 27.72 120.42 61.92s-53.9 61.92-120.4 61.92H420.4c-66.5 0-120.4-27.72-120.4-61.92S353.9 1140 420.4 1140z" stroke="#000" stroke-width="2" fill="#c7e8ac"/><use xlink:href="#n" transform="matrix(1,0,0,1,305,1145) translate(23.66666666666663 41)"/><use xlink:href="#o" transform="matrix(1,0,0,1,305,1145) translate(276.55555555555554 41)"/><use xlink:href="#p" transform="matrix(1,0,0,1,305,1145) translate(431.77777777777777 41)"/><use xlink:href="#q" transform="matrix(1,0,0,1,305,1145) translate(258.77777777777777 89)"/><path d="M217.84 677.43v524.5h62.66" stroke="#000" stroke-width="2" fill="none"/><path d="M218.84 677.43h-2v-1h2z"/><path d="M295.76 1201.92l-14.26 4.64v-9.27z" stroke="#000" stroke-width="2"/><g fill="none"><path d="M509.3 639.3l46.43-55.04 788.58 665.2-46.43 55.04z"/><path d="M1344.3 1249.45c-22.95 27.22-63.63 30.67-90.85 7.7l-295.72-249.43c-27.22-22.96-67.9-19.5-90.86 7.7 22.96-27.2 19.5-67.9-7.7-90.85L563.43 675.12c-27.22-22.96-30.67-63.64-7.7-90.86" stroke="#000" stroke-width="2"/></g><path d="M903.02 1201.92l3.75-3.8 3.05-3.33 2.5-3 2.1-2.7 1.72-2.47 1.46-2.27 1.23-2.1 1.03-1.95.88-1.82.74-1.73.62-1.65.52-1.57.43-1.5.35-1.45.28-1.4.2-1.37.16-1.33.1-1.3.02-1.3-.02-1.28-.07-1.27-.13-1.27-.18-1.27-.23-1.28-.3-1.3-.36-1.3-.42-1.34-.5-1.37-.6-1.4-.67-1.47-.78-1.52-.92-1.6-1.06-1.68-1.23-1.8-1.47-1.94-1.73-2.1-2.08-2.35-2.56-2.64-3.23-3.08-4.3-3.75-6.4-5.1-37.44-27.73-4.17-3.62-3.1-2.95-2.45-2.52-1.98-2.22-1.64-2-1.37-1.84-1.18-1.7-1-1.6-.85-1.5-.73-1.4-.64-1.38-.54-1.3-.46-1.28-.4-1.24-.33-1.2-.27-1.2-.22-1.18-.16-1.16-.12-1.16-.07-1.17v-1.16l.02-1.18.08-1.2.13-1.22.2-1.24.24-1.27.32-1.3.4-1.37.46-1.4.56-1.5.66-1.55.78-1.64.93-1.73 1.1-1.87 1.3-2.02 1.54-2.18 1.83-2.4 2.2-2.62 2.7-2.94 3.27-3.3 4.07-3.8 5.14-4.36 1.86-1.5" stroke="#000" stroke-width="2" fill="none"/><path d="M903.76 1202.6l-1.86 2.04.1-1.36.02-1.36v-.38l.26-.3zM868.52 1014.46l-2.26 1.97-1.32-1.5 2.26-1.98z"/><path d="M628.83 910.6c26.07 0 47.2 11.05 47.2 24.7 0 13.64-21.13 24.7-47.2 24.7H487.2c-26.06 0-47.2-11.06-47.2-24.7 0-13.65 21.14-24.7 47.2-24.7z" stroke="#000" stroke-width="2" fill="#ffbbb1"/><use xlink:href="#r" transform="matrix(1,0,0,1,445,915.5912099399318) translate(72.44444444444444 32)"/><path d="M628.83 985.9c26.07 0 47.2 11.05 47.2 24.7 0 13.64-21.13 24.7-47.2 24.7H487.2c-26.06 0-47.2-11.06-47.2-24.7 0-13.65 21.14-24.7 47.2-24.7z" stroke="#000" stroke-width="2" fill="#ffbbb1"/><use xlink:href="#s" transform="matrix(1,0,0,1,445.00000000000006,990.8868149098976) translate(72.44444444444444 32)"/><path d="M402.72 872.73v62.57H439" stroke="#000" stroke-width="2" fill="none"/><path d="M403.72 872.73h-2v-1h2zM440 935.3l.04 1H439v-2h1.05z"/><path d="M402.72 872.73v137.86H439" stroke="#000" stroke-width="2" fill="none"/><path d="M403.72 872.73h-2v-1h2zM440 1010.6l.04 1H439v-2h1.05z"/><path d="M798.88 60c35.64 0 64.54 35.02 64.54 78.22 0 43.2-28.9 78.2-64.54 78.2H605.26c-35.65 0-64.55-35-64.55-78.2S569.6 60 605.27 60z" stroke="#000" stroke-width="2" fill="#99d2f2"/><use xlink:href="#t" transform="matrix(1,0,0,1,545.7147773261354,65) translate(24.44444444444443 81.5)"/><use xlink:href="#u" transform="matrix(1,0,0,1,545.7147773261354,65) translate(104.44444444444443 81.5)"/><path d="M250 480.28V138.22h271.2" stroke="#000" stroke-width="2" fill="none"/><path d="M251 481.28h-2v-1h2z"/><path d="M536.48 138.22l-14.27 4.63v-9.27z" stroke="#000" stroke-width="2"/><path d="M568.83 303.5c26.07 0 47.2 11.07 47.2 24.72 0 13.64-21.13 24.7-47.2 24.7H427.2c-26.06 0-47.2-11.06-47.2-24.7 0-13.65 21.14-24.7 47.2-24.7z" stroke="#000" stroke-width="2" fill="#99d2f2"/><g><use xlink:href="#v" transform="matrix(1,0,0,1,385,308.51089868218116) translate(85.77777777777777 32)"/></g><path d="M286.2 480.28V328.22h74.3" stroke="#000" stroke-width="2" fill="none"/><path d="M287.2 481.28h-2v-1h2z"/><path d="M375.76 328.22l-14.26 4.63v-9.27z" stroke="#000" stroke-width="2"/><defs><path fill="#23373b" d="M212-179c-10-28-35-45-73-45-59 0-87 40-87 99 0 60 29 101 89 101 43 0 62-24 78-52l27 14C228-24 195 4 139 4 59 4 22-46 18-125c-6-104 99-153 187-111 19 9 31 26 39 46" id="w"/><path fill="#23373b" d="M100-194c62-1 85 37 85 99 1 63-27 99-86 99S16-35 15-95c0-66 28-99 85-99zM99-20c44 1 53-31 53-75 0-43-8-75-51-75s-53 32-53 75 10 74 51 75" id="x"/><path fill="#23373b" d="M114-163C36-179 61-72 57 0H25l-1-190h30c1 12-1 29 2 39 6-27 23-49 58-41v29" id="y"/><path fill="#23373b" d="M59-47c-2 24 18 29 38 22v24C64 9 27 4 27-40v-127H5v-23h24l9-43h21v43h35v23H59v120" id="z"/><path fill="#23373b" d="M24-231v-30h32v30H24zM24 0v-190h32V0H24" id="A"/><path fill="#23373b" d="M135-143c-3-34-86-38-87 0 15 53 115 12 119 90S17 21 10-45l28-5c4 36 97 45 98 0-10-56-113-15-118-90-4-57 82-63 122-42 12 7 21 19 24 35" id="B"/><path fill="#23373b" d="M24 0v-261h32V0H24" id="C"/><g id="a"><use transform="matrix(0.14814814814814817,0,0,0.14814814814814817,0,0)" xlink:href="#w"/><use transform="matrix(0.14814814814814817,0,0,0.14814814814814817,38.370370370370374,0)" xlink:href="#x"/><use transform="matrix(0.14814814814814817,0,0,0.14814814814814817,68,0)" xlink:href="#y"/><use transform="matrix(0.14814814814814817,0,0,0.14814814814814817,85.62962962962965,0)" xlink:href="#z"/><use transform="matrix(0.14814814814814817,0,0,0.14814814814814817,100.44444444444446,0)" xlink:href="#A"/><use transform="matrix(0.14814814814814817,0,0,0.14814814814814817,112.14814814814817,0)" xlink:href="#B"/><use transform="matrix(0.14814814814814817,0,0,0.14814814814814817,138.81481481481484,0)" xlink:href="#x"/><use transform="matrix(0.14814814814814817,0,0,0.14814814814814817,168.44444444444446,0)" xlink:href="#C"/></g><path fill="#23373b" d="M205 0l-28-72H64L36 0H1l101-248h38L239 0h-34zm-38-99l-47-123c-12 45-31 82-46 123h93" id="D"/><path fill="#23373b" d="M85-194c31 0 48 13 60 33l-1-100h32l1 261h-30c-2-10 0-23-3-31C134-8 116 4 85 4 32 4 16-35 15-94c0-66 23-100 70-100zm9 24c-40 0-46 34-46 75 0 40 6 74 45 74 42 0 51-32 51-76 0-42-9-74-50-73" id="E"/><path fill="#23373b" d="M100-194c63 0 86 42 84 106H49c0 40 14 67 53 68 26 1 43-12 49-29l28 8c-11 28-37 45-77 45C44 4 14-33 15-96c1-61 26-98 85-98zm52 81c6-60-76-77-97-28-3 7-6 17-6 28h103" id="F"/><path fill="#23373b" d="M117-194c89-4 53 116 60 194h-32v-121c0-31-8-49-39-48C34-167 62-67 57 0H25l-1-190h30c1 10-1 24 2 32 11-22 29-35 61-36" id="G"/><path fill="#23373b" d="M141-36C126-15 110 5 73 4 37 3 15-17 15-53c-1-64 63-63 125-63 3-35-9-54-41-54-24 1-41 7-42 31l-33-3c5-37 33-52 76-52 45 0 72 20 72 64v82c-1 20 7 32 28 27v20c-31 9-61-2-59-35zM48-53c0 20 12 33 32 33 41-3 63-29 60-74-43 2-92-5-92 41" id="H"/><g id="b"><use transform="matrix(0.14814814814814817,0,0,0.14814814814814817,0,0)" xlink:href="#D"/><use transform="matrix(0.14814814814814817,0,0,0.14814814814814817,35.55555555555556,0)" xlink:href="#E"/><use transform="matrix(0.14814814814814817,0,0,0.14814814814814817,65.18518518518519,0)" xlink:href="#y"/><use transform="matrix(0.14814814814814817,0,0,0.14814814814814817,82.81481481481482,0)" xlink:href="#F"/><use transform="matrix(0.14814814814814817,0,0,0.14814814814814817,112.44444444444446,0)" xlink:href="#G"/><use transform="matrix(0.14814814814814817,0,0,0.14814814814814817,142.07407407407408,0)" xlink:href="#H"/><use transform="matrix(0.14814814814814817,0,0,0.14814814814814817,171.7037037037037,0)" xlink:href="#C"/></g><path fill="#23373b" d="M141 0L90-78 38 0H4l68-98-65-92h35l48 74 47-74h35l-64 92 68 98h-35" id="I"/><g id="c"><use transform="matrix(0.14814814814814817,0,0,0.14814814814814817,0,0)" xlink:href="#w"/><use transform="matrix(0.14814814814814817,0,0,0.14814814814814817,38.370370370370374,0)" xlink:href="#x"/><use transform="matrix(0.14814814814814817,0,0,0.14814814814814817,68,0)" xlink:href="#y"/><use transform="matrix(0.14814814814814817,0,0,0.14814814814814817,85.62962962962965,0)" xlink:href="#z"/><use transform="matrix(0.14814814814814817,0,0,0.14814814814814817,100.44444444444446,0)" xlink:href="#F"/><use transform="matrix(0.14814814814814817,0,0,0.14814814814814817,130.07407407407408,0)" xlink:href="#I"/></g><path fill="#23373b" d="M30-248c87 1 191-15 191 75 0 78-77 80-158 76V0H30v-248zm33 125c57 0 124 11 124-50 0-59-68-47-124-48v98" id="J"/><path fill="#23373b" d="M84 4C-5 8 30-112 23-190h32v120c0 31 7 50 39 49 72-2 45-101 50-169h31l1 190h-30c-1-10 1-25-2-33-11 22-28 36-60 37" id="K"/><path fill="#23373b" d="M179-190L93 31C79 59 56 82 12 73V49c39 6 53-20 64-50L1-190h34L92-34l54-156h33" id="L"/><g id="d"><use transform="matrix(0.14814814814814817,0,0,0.14814814814814817,0,0)" xlink:href="#J"/><use transform="matrix(0.14814814814814817,0,0,0.14814814814814817,35.55555555555556,0)" xlink:href="#A"/><use transform="matrix(0.14814814814814817,0,0,0.14814814814814817,47.25925925925927,0)" xlink:href="#z"/><use transform="matrix(0.14814814814814817,0,0,0.14814814814814817,62.07407407407408,0)" xlink:href="#K"/><use transform="matrix(0.14814814814814817,0,0,0.14814814814814817,91.70370370370371,0)" xlink:href="#A"/><use transform="matrix(0.14814814814814817,0,0,0.14814814814814817,103.40740740740743,0)" xlink:href="#z"/><use transform="matrix(0.14814814814814817,0,0,0.14814814814814817,118.22222222222226,0)" xlink:href="#H"/><use transform="matrix(0.14814814814814817,0,0,0.14814814814814817,147.8518518518519,0)" xlink:href="#y"/><use transform="matrix(0.14814814814814817,0,0,0.14814814814814817,165.48148148148152,0)" xlink:href="#L"/></g><path fill="#23373b" d="M197 0v-115H63V0H30v-248h33v105h134v-105h34V0h-34" id="M"/><path fill="#23373b" d="M115-194c55 1 70 41 70 98S169 2 115 4C84 4 66-9 55-30l1 105H24l-1-265h31l2 30c10-21 28-34 59-34zm-8 174c40 0 45-34 45-75s-6-73-45-74c-42 0-51 32-51 76 0 43 10 73 51 73" id="N"/><path fill="#23373b" d="M106-169C34-169 62-67 57 0H25v-261h32l-1 103c12-21 28-36 61-36 89 0 53 116 60 194h-32v-121c2-32-8-49-39-48" id="O"/><path fill="#23373b" d="M210-169c-67 3-38 105-44 169h-31v-121c0-29-5-50-35-48C34-165 62-65 56 0H25l-1-190h30c1 10-1 24 2 32 10-44 99-50 107 0 11-21 27-35 58-36 85-2 47 119 55 194h-31v-121c0-29-5-49-35-48" id="P"/><g id="e"><use transform="matrix(0.14814814814814817,0,0,0.14814814814814817,0,0)" xlink:href="#M"/><use transform="matrix(0.14814814814814817,0,0,0.14814814814814817,38.370370370370374,0)" xlink:href="#L"/><use transform="matrix(0.14814814814814817,0,0,0.14814814814814817,65.03703703703704,0)" xlink:href="#N"/><use transform="matrix(0.14814814814814817,0,0,0.14814814814814817,94.66666666666669,0)" xlink:href="#x"/><use transform="matrix(0.14814814814814817,0,0,0.14814814814814817,124.29629629629632,0)" xlink:href="#z"/><use transform="matrix(0.14814814814814817,0,0,0.14814814814814817,139.11111111111111,0)" xlink:href="#O"/><use transform="matrix(0.14814814814814817,0,0,0.14814814814814817,168.74074074074076,0)" xlink:href="#H"/><use transform="matrix(0.14814814814814817,0,0,0.14814814814814817,198.3703703703704,0)" xlink:href="#C"/><use transform="matrix(0.14814814814814817,0,0,0.14814814814814817,210.07407407407408,0)" xlink:href="#H"/><use transform="matrix(0.14814814814814817,0,0,0.14814814814814817,239.7037037037037,0)" xlink:href="#P"/><use transform="matrix(0.14814814814814817,0,0,0.14814814814814817,284,0)" xlink:href="#K"/><use transform="matrix(0.14814814814814817,0,0,0.14814814814814817,313.6296296296296,0)" xlink:href="#B"/></g><path fill="#23373b" d="M233-177c-1 41-23 64-60 70L243 0h-38l-65-103H63V0H30v-248c88 3 205-21 203 71zM63-129c60-2 137 13 137-47 0-61-80-42-137-45v92" id="Q"/><g id="f"><use transform="matrix(0.14814814814814817,0,0,0.14814814814814817,0,0)" xlink:href="#w"/><use transform="matrix(0.14814814814814817,0,0,0.14814814814814817,38.370370370370374,0)" xlink:href="#Q"/><use transform="matrix(0.14814814814814817,0,0,0.14814814814814817,76.74074074074075,0)" xlink:href="#M"/></g><path fill="#23373b" d="M127-220V0H93v-220H8v-28h204v28h-85" id="R"/><g id="g"><use transform="matrix(0.14814814814814817,0,0,0.14814814814814817,0,0)" xlink:href="#D"/><use transform="matrix(0.14814814814814817,0,0,0.14814814814814817,35.55555555555556,0)" xlink:href="#w"/><use transform="matrix(0.14814814814814817,0,0,0.14814814814814817,73.92592592592592,0)" xlink:href="#R"/><use transform="matrix(0.14814814814814817,0,0,0.14814814814814817,106.37037037037038,0)" xlink:href="#M"/></g><g id="h"><use transform="matrix(0.1111111111111111,0,0,0.1111111111111111,0,0)" xlink:href="#R"/><use transform="matrix(0.1111111111111111,0,0,0.1111111111111111,24.333333333333332,0)" xlink:href="#O"/><use transform="matrix(0.1111111111111111,0,0,0.1111111111111111,46.55555555555556,0)" xlink:href="#F"/></g><path fill="#23373b" d="M185-189c-5-48-123-54-124 2 14 75 158 14 163 119 3 78-121 87-175 55-17-10-28-26-33-46l33-7c5 56 141 63 141-1 0-78-155-14-162-118-5-82 145-84 179-34 5 7 8 16 11 25" id="S"/><g id="i"><use transform="matrix(0.1111111111111111,0,0,0.1111111111111111,0,0)" xlink:href="#S"/><use transform="matrix(0.1111111111111111,0,0,0.1111111111111111,26.666666666666664,0)" xlink:href="#z"/><use transform="matrix(0.1111111111111111,0,0,0.1111111111111111,37.77777777777777,0)" xlink:href="#y"/><use transform="matrix(0.1111111111111111,0,0,0.1111111111111111,50.99999999999999,0)" xlink:href="#F"/><use transform="matrix(0.1111111111111111,0,0,0.1111111111111111,73.22222222222221,0)" xlink:href="#B"/><use transform="matrix(0.1111111111111111,0,0,0.1111111111111111,93.22222222222221,0)" xlink:href="#B"/></g><g id="j"><use transform="matrix(0.1111111111111111,0,0,0.1111111111111111,0,0)" xlink:href="#Q"/><use transform="matrix(0.1111111111111111,0,0,0.1111111111111111,28.777777777777775,0)" xlink:href="#F"/><use transform="matrix(0.1111111111111111,0,0,0.1111111111111111,51,0)" xlink:href="#B"/><use transform="matrix(0.1111111111111111,0,0,0.1111111111111111,71,0)" xlink:href="#N"/><use transform="matrix(0.1111111111111111,0,0,0.1111111111111111,93.22222222222223,0)" xlink:href="#x"/><use transform="matrix(0.1111111111111111,0,0,0.1111111111111111,115.44444444444446,0)" xlink:href="#G"/><use transform="matrix(0.1111111111111111,0,0,0.1111111111111111,137.66666666666669,0)" xlink:href="#B"/><use transform="matrix(0.1111111111111111,0,0,0.1111111111111111,157.66666666666669,0)" xlink:href="#F"/></g><g id="k"><use transform="matrix(0.1111111111111111,0,0,0.1111111111111111,0,0)" xlink:href="#S"/><use transform="matrix(0.1111111111111111,0,0,0.1111111111111111,26.666666666666664,0)" xlink:href="#L"/><use transform="matrix(0.1111111111111111,0,0,0.1111111111111111,46.666666666666664,0)" xlink:href="#B"/><use transform="matrix(0.1111111111111111,0,0,0.1111111111111111,66.66666666666666,0)" xlink:href="#z"/><use transform="matrix(0.1111111111111111,0,0,0.1111111111111111,77.77777777777777,0)" xlink:href="#F"/><use transform="matrix(0.1111111111111111,0,0,0.1111111111111111,100,0)" xlink:href="#P"/></g><path fill="#23373b" d="M96-169c-40 0-48 33-48 73s9 75 48 75c24 0 41-14 43-38l32 2c-6 37-31 61-74 61-59 0-76-41-82-99-10-93 101-131 147-64 4 7 5 14 7 22l-32 3c-4-21-16-35-41-35" id="T"/><g id="l"><use transform="matrix(0.1111111111111111,0,0,0.1111111111111111,0,0)" xlink:href="#D"/><use transform="matrix(0.1111111111111111,0,0,0.1111111111111111,26.666666666666664,0)" xlink:href="#K"/><use transform="matrix(0.1111111111111111,0,0,0.1111111111111111,48.888888888888886,0)" xlink:href="#z"/><use transform="matrix(0.1111111111111111,0,0,0.1111111111111111,60,0)" xlink:href="#x"/><use transform="matrix(0.1111111111111111,0,0,0.1111111111111111,82.22222222222223,0)" xlink:href="#G"/><use transform="matrix(0.1111111111111111,0,0,0.1111111111111111,104.44444444444446,0)" xlink:href="#x"/><use transform="matrix(0.1111111111111111,0,0,0.1111111111111111,126.66666666666669,0)" xlink:href="#P"/><use transform="matrix(0.1111111111111111,0,0,0.1111111111111111,159.8888888888889,0)" xlink:href="#A"/><use transform="matrix(0.1111111111111111,0,0,0.1111111111111111,168.66666666666669,0)" xlink:href="#T"/></g><path fill="#23373b" d="M190 0L58-211 59 0H30v-248h39L202-35l-2-213h31V0h-41" id="U"/><path fill="#23373b" d="M108 0H70L1-190h34L89-25l56-165h34" id="V"/><g id="m"><use transform="matrix(0.1111111111111111,0,0,0.1111111111111111,0,0)" xlink:href="#U"/><use transform="matrix(0.1111111111111111,0,0,0.1111111111111111,28.777777777777775,0)" xlink:href="#F"/><use transform="matrix(0.1111111111111111,0,0,0.1111111111111111,51,0)" xlink:href="#y"/><use transform="matrix(0.1111111111111111,0,0,0.1111111111111111,64.22222222222223,0)" xlink:href="#V"/><use transform="matrix(0.1111111111111111,0,0,0.1111111111111111,84.22222222222223,0)" xlink:href="#x"/><use transform="matrix(0.1111111111111111,0,0,0.1111111111111111,106.44444444444446,0)" xlink:href="#K"/><use transform="matrix(0.1111111111111111,0,0,0.1111111111111111,128.66666666666669,0)" xlink:href="#B"/></g><g id="n"><use transform="matrix(0.1111111111111111,0,0,0.1111111111111111,0,0)" xlink:href="#M"/><use transform="matrix(0.1111111111111111,0,0,0.1111111111111111,28.777777777777775,0)" xlink:href="#L"/><use transform="matrix(0.1111111111111111,0,0,0.1111111111111111,48.77777777777777,0)" xlink:href="#N"/><use transform="matrix(0.1111111111111111,0,0,0.1111111111111111,71,0)" xlink:href="#x"/><use transform="matrix(0.1111111111111111,0,0,0.1111111111111111,93.22222222222223,0)" xlink:href="#z"/><use transform="matrix(0.1111111111111111,0,0,0.1111111111111111,104.33333333333334,0)" xlink:href="#O"/><use transform="matrix(0.1111111111111111,0,0,0.1111111111111111,126.55555555555557,0)" xlink:href="#H"/><use transform="matrix(0.1111111111111111,0,0,0.1111111111111111,148.7777777777778,0)" xlink:href="#C"/><use transform="matrix(0.1111111111111111,0,0,0.1111111111111111,157.55555555555557,0)" xlink:href="#H"/><use transform="matrix(0.1111111111111111,0,0,0.1111111111111111,179.7777777777778,0)" xlink:href="#P"/><use transform="matrix(0.1111111111111111,0,0,0.1111111111111111,213.00000000000003,0)" xlink:href="#A"/><use transform="matrix(0.1111111111111111,0,0,0.1111111111111111,221.7777777777778,0)" xlink:href="#T"/></g><g id="o"><use transform="matrix(0.1111111111111111,0,0,0.1111111111111111,0,0)" xlink:href="#J"/><use transform="matrix(0.1111111111111111,0,0,0.1111111111111111,26.666666666666664,0)" xlink:href="#A"/><use transform="matrix(0.1111111111111111,0,0,0.1111111111111111,35.44444444444444,0)" xlink:href="#z"/><use transform="matrix(0.1111111111111111,0,0,0.1111111111111111,46.55555555555556,0)" xlink:href="#K"/><use transform="matrix(0.1111111111111111,0,0,0.1111111111111111,68.77777777777777,0)" xlink:href="#A"/><use transform="matrix(0.1111111111111111,0,0,0.1111111111111111,77.55555555555554,0)" xlink:href="#z"/><use transform="matrix(0.1111111111111111,0,0,0.1111111111111111,88.66666666666666,0)" xlink:href="#H"/><use transform="matrix(0.1111111111111111,0,0,0.1111111111111111,110.88888888888889,0)" xlink:href="#y"/><use transform="matrix(0.1111111111111111,0,0,0.1111111111111111,124.1111111111111,0)" xlink:href="#L"/></g><g id="p"><use transform="matrix(0.1111111111111111,0,0,0.1111111111111111,0,0)" xlink:href="#D"/><use transform="matrix(0.1111111111111111,0,0,0.1111111111111111,26.666666666666664,0)" xlink:href="#E"/><use transform="matrix(0.1111111111111111,0,0,0.1111111111111111,48.888888888888886,0)" xlink:href="#y"/><use transform="matrix(0.1111111111111111,0,0,0.1111111111111111,62.11111111111111,0)" xlink:href="#F"/><use transform="matrix(0.1111111111111111,0,0,0.1111111111111111,84.33333333333333,0)" xlink:href="#G"/><use transform="matrix(0.1111111111111111,0,0,0.1111111111111111,106.55555555555554,0)" xlink:href="#H"/><use transform="matrix(0.1111111111111111,0,0,0.1111111111111111,128.77777777777777,0)" xlink:href="#C"/></g><g id="q"><use transform="matrix(0.1111111111111111,0,0,0.1111111111111111,0,0)" xlink:href="#D"/><use transform="matrix(0.1111111111111111,0,0,0.1111111111111111,26.666666666666664,0)" xlink:href="#I"/><use transform="matrix(0.1111111111111111,0,0,0.1111111111111111,46.666666666666664,0)" xlink:href="#A"/><use transform="matrix(0.1111111111111111,0,0,0.1111111111111111,55.44444444444444,0)" xlink:href="#B"/></g><g id="r"><use transform="matrix(0.1111111111111111,0,0,0.1111111111111111,0,0)" xlink:href="#S"/><use transform="matrix(0.1111111111111111,0,0,0.1111111111111111,26.666666666666664,0)" xlink:href="#U"/><use transform="matrix(0.1111111111111111,0,0,0.1111111111111111,55.44444444444444,0)" xlink:href="#S"/></g><g id="s"><use transform="matrix(0.1111111111111111,0,0,0.1111111111111111,0,0)" xlink:href="#J"/><use transform="matrix(0.1111111111111111,0,0,0.1111111111111111,26.666666666666664,0)" xlink:href="#U"/><use transform="matrix(0.1111111111111111,0,0,0.1111111111111111,55.44444444444444,0)" xlink:href="#S"/></g><g id="t"><use transform="matrix(0.1111111111111111,0,0,0.1111111111111111,0,0)" xlink:href="#S"/><use transform="matrix(0.1111111111111111,0,0,0.1111111111111111,26.666666666666664,0)" xlink:href="#F"/><use transform="matrix(0.1111111111111111,0,0,0.1111111111111111,48.888888888888886,0)" xlink:href="#I"/></g><g id="u"><use transform="matrix(0.1111111111111111,0,0,0.1111111111111111,0,0)" xlink:href="#M"/><use transform="matrix(0.1111111111111111,0,0,0.1111111111111111,28.777777777777775,0)" xlink:href="#x"/><use transform="matrix(0.1111111111111111,0,0,0.1111111111111111,51,0)" xlink:href="#y"/><use transform="matrix(0.1111111111111111,0,0,0.1111111111111111,64.22222222222223,0)" xlink:href="#P"/><use transform="matrix(0.1111111111111111,0,0,0.1111111111111111,97.44444444444446,0)" xlink:href="#x"/><use transform="matrix(0.1111111111111111,0,0,0.1111111111111111,119.66666666666669,0)" xlink:href="#G"/><use transform="matrix(0.1111111111111111,0,0,0.1111111111111111,141.8888888888889,0)" xlink:href="#F"/><use transform="matrix(0.1111111111111111,0,0,0.1111111111111111,164.11111111111114,0)" xlink:href="#B"/></g><path fill="#23373b" d="M140-251c81 0 123 46 123 126C263-46 219 4 140 4 59 4 17-45 17-125s42-126 123-126zm0 227c63 0 89-41 89-101s-29-99-89-99c-61 0-89 39-89 99S79-25 140-24" id="W"/><g id="v"><use transform="matrix(0.1111111111111111,0,0,0.1111111111111111,0,0)" xlink:href="#W"/><use transform="matrix(0.1111111111111111,0,0,0.1111111111111111,31.11111111111111,0)" xlink:href="#R"/></g></defs></g></svg>