<svg xmlns="http://www.w3.org/2000/svg" xmlns:xlink="http://www.w3.org/1999/xlink" xmlns:lucid="lucid" width="1760" height="608"><g transform="translate(0 -740)" lucid:page-tab-id="0_0"><path d="M540 760h617.3v195.15H540z" stroke="#000" stroke-width="2" fill="#ffc374"/><use xlink:href="#a" transform="matrix(1,0,0,1,545,765) translate(39.777777777777715 101)"/><use xlink:href="#b" transform="matrix(1,0,0,1,545,765) translate(119.6666666666666 101)"/><use xlink:href="#c" transform="matrix(1,0,0,1,545,765) translate(243.99999999999994 101)"/><use xlink:href="#d" transform="matrix(1,0,0,1,545,765) translate(435 101)"/><path d="M958.16 1005.84c35.65 0 64.54 35.02 64.54 78.22 0 43.2-28.9 78.2-64.54 78.2H764.54c-35.64 0-64.54-35-64.54-78.2s28.9-78.22 64.54-78.22z" stroke="#000" stroke-width="2" fill="#b2b2b2"/><use xlink:href="#e" transform="matrix(1,0,0,1,705,1010.8433049910379) translate(62.16666666666666 57.5)"/><use xlink:href="#f" transform="matrix(1,0,0,1,705,1010.8433049910379) translate(10 105.5)"/><use xlink:href="#d" transform="matrix(1,0,0,1,705,1010.8433049910379) translate(169.7777777777778 105.5)"/><path d="M1088.83 1203.3c26.07 0 47.2 11.06 47.2 24.7 0 13.64-21.13 24.7-47.2 24.7H947.2c-26.06 0-47.2-11.06-47.2-24.7 0-13.64 21.14-24.7 47.2-24.7z" stroke="#000" stroke-width="2" fill="#b2b2b2"/><use xlink:href="#g" transform="matrix(1,0,0,1,905,1208.2956049699662) translate(72.44444444444444 32)"/><path d="M1088.83 1278.6c26.07 0 47.2 11.05 47.2 24.7 0 13.64-21.13 24.7-47.2 24.7H947.2c-26.06 0-47.2-11.06-47.2-24.7 0-13.65 21.14-24.7 47.2-24.7z" stroke="#000" stroke-width="2" fill="#b2b2b2"/><use xlink:href="#h" transform="matrix(1,0,0,1,905,1283.5912099399318) translate(72.44444444444444 32)"/><path d="M802.72 1164.27V1228H898" stroke="#000" stroke-width="2" fill="none"/><path d="M803.72 1164.3h-2v-1.03h2zM899 1228l.04 1h-1.07v-2h1.08z"/><path d="M802.72 1164.27v139.03H898" stroke="#000" stroke-width="2" fill="none"/><path d="M803.72 1164.3h-2v-1.03h2zM899 1303.3l.04 1h-1.07v-2h1.08z"/><path d="M539.32 1079.45c71.7 0 129.83 27.73 129.83 61.92 0 34.2-58.12 61.93-129.83 61.93h-389.5c-71.7 0-129.82-27.73-129.82-61.93s58.13-61.92 129.83-61.92z" stroke="#000" stroke-width="2" fill="#c7e8ac"/><use xlink:href="#i" transform="matrix(1,0,0,1,25,1084.4522999789285) translate(3.8888888888888573 65)"/><use xlink:href="#j" transform="matrix(1,0,0,1,25,1084.4522999789285) translate(256.77777777777777 65)"/><use xlink:href="#k" transform="matrix(1,0,0,1,25,1084.4522999789285) translate(412 65)"/><use xlink:href="#l" transform="matrix(1,0,0,1,25,1084.4522999789285) translate(560.6666666666667 65)"/><path d="M1604.74 1056.27c74.7 0 135.26 23.73 135.26 53s-60.56 53-135.26 53h-405.77c-74.7 0-135.26-23.73-135.26-53s60.57-53 135.27-53z" stroke="#000" stroke-width="2" fill="#99d2f2"/><use xlink:href="#i" transform="matrix(1,0,0,1,1068.7117382826927,1061.2738924154685) translate(10.666666666666629 56)"/><use xlink:href="#j" transform="matrix(1,0,0,1,1068.7117382826927,1061.2738924154685) translate(263.55555555555554 56)"/><use xlink:href="#m" transform="matrix(1,0,0,1,1068.7117382826927,1061.2738924154685) translate(418.77777777777777 56)"/><use xlink:href="#l" transform="matrix(1,0,0,1,1068.7117382826927,1061.2738924154685) translate(580.8888888888889 56)"/><path d="M538 857.58H344.58v202.37" stroke="#000" stroke-width="2" fill="none"/><path d="M539 858.58h-1.03v-2H539z"/><path d="M344.58 1075.22l-4.64-14.27h9.27z" stroke="#000" stroke-width="2"/><path d="M1159.3 857.58h242.56v179.2" stroke="#000" stroke-width="2" fill="none"/><path d="M1159.32 858.58h-1.02v-2h1.02z"/><path d="M1401.86 1052.04l-4.64-14.27h9.27z" stroke="#000" stroke-width="2"/><path d="M848.65 957.15v29.2" stroke="#000" stroke-width="2" fill="none"/><path d="M849.65 957.18h-2v-1.03h2z"/><path d="M848.65 1001.6L844 987.35h9.28z" stroke="#000" stroke-width="2"/><defs><path fill="#23373b" d="M127-220V0H93v-220H8v-28h204v28h-85" id="n"/><path fill="#23373b" d="M106-169C34-169 62-67 57 0H25v-261h32l-1 103c12-21 28-36 61-36 89 0 53 116 60 194h-32v-121c2-32-8-49-39-48" id="o"/><path fill="#23373b" d="M100-194c63 0 86 42 84 106H49c0 40 14 67 53 68 26 1 43-12 49-29l28 8c-11 28-37 45-77 45C44 4 14-33 15-96c1-61 26-98 85-98zm52 81c6-60-76-77-97-28-3 7-6 17-6 28h103" id="p"/><g id="a"><use transform="matrix(0.1111111111111111,0,0,0.1111111111111111,0,0)" xlink:href="#n"/><use transform="matrix(0.1111111111111111,0,0,0.1111111111111111,24.333333333333332,0)" xlink:href="#o"/><use transform="matrix(0.1111111111111111,0,0,0.1111111111111111,46.55555555555556,0)" xlink:href="#p"/></g><path fill="#23373b" d="M185-189c-5-48-123-54-124 2 14 75 158 14 163 119 3 78-121 87-175 55-17-10-28-26-33-46l33-7c5 56 141 63 141-1 0-78-155-14-162-118-5-82 145-84 179-34 5 7 8 16 11 25" id="q"/><path fill="#23373b" d="M59-47c-2 24 18 29 38 22v24C64 9 27 4 27-40v-127H5v-23h24l9-43h21v43h35v23H59v120" id="r"/><path fill="#23373b" d="M114-163C36-179 61-72 57 0H25l-1-190h30c1 12-1 29 2 39 6-27 23-49 58-41v29" id="s"/><path fill="#23373b" d="M135-143c-3-34-86-38-87 0 15 53 115 12 119 90S17 21 10-45l28-5c4 36 97 45 98 0-10-56-113-15-118-90-4-57 82-63 122-42 12 7 21 19 24 35" id="t"/><g id="b"><use transform="matrix(0.1111111111111111,0,0,0.1111111111111111,0,0)" xlink:href="#q"/><use transform="matrix(0.1111111111111111,0,0,0.1111111111111111,26.666666666666664,0)" xlink:href="#r"/><use transform="matrix(0.1111111111111111,0,0,0.1111111111111111,37.77777777777777,0)" xlink:href="#s"/><use transform="matrix(0.1111111111111111,0,0,0.1111111111111111,50.99999999999999,0)" xlink:href="#p"/><use transform="matrix(0.1111111111111111,0,0,0.1111111111111111,73.22222222222221,0)" xlink:href="#t"/><use transform="matrix(0.1111111111111111,0,0,0.1111111111111111,93.22222222222221,0)" xlink:href="#t"/></g><path fill="#23373b" d="M233-177c-1 41-23 64-60 70L243 0h-38l-65-103H63V0H30v-248c88 3 205-21 203 71zM63-129c60-2 137 13 137-47 0-61-80-42-137-45v92" id="u"/><path fill="#23373b" d="M115-194c55 1 70 41 70 98S169 2 115 4C84 4 66-9 55-30l1 105H24l-1-265h31l2 30c10-21 28-34 59-34zm-8 174c40 0 45-34 45-75s-6-73-45-74c-42 0-51 32-51 76 0 43 10 73 51 73" id="v"/><path fill="#23373b" d="M100-194c62-1 85 37 85 99 1 63-27 99-86 99S16-35 15-95c0-66 28-99 85-99zM99-20c44 1 53-31 53-75 0-43-8-75-51-75s-53 32-53 75 10 74 51 75" id="w"/><path fill="#23373b" d="M117-194c89-4 53 116 60 194h-32v-121c0-31-8-49-39-48C34-167 62-67 57 0H25l-1-190h30c1 10-1 24 2 32 11-22 29-35 61-36" id="x"/><g id="c"><use transform="matrix(0.1111111111111111,0,0,0.1111111111111111,0,0)" xlink:href="#u"/><use transform="matrix(0.1111111111111111,0,0,0.1111111111111111,28.777777777777775,0)" xlink:href="#p"/><use transform="matrix(0.1111111111111111,0,0,0.1111111111111111,51,0)" xlink:href="#t"/><use transform="matrix(0.1111111111111111,0,0,0.1111111111111111,71,0)" xlink:href="#v"/><use transform="matrix(0.1111111111111111,0,0,0.1111111111111111,93.22222222222223,0)" xlink:href="#w"/><use transform="matrix(0.1111111111111111,0,0,0.1111111111111111,115.44444444444446,0)" xlink:href="#x"/><use transform="matrix(0.1111111111111111,0,0,0.1111111111111111,137.66666666666669,0)" xlink:href="#t"/><use transform="matrix(0.1111111111111111,0,0,0.1111111111111111,157.66666666666669,0)" xlink:href="#p"/></g><path fill="#23373b" d="M179-190L93 31C79 59 56 82 12 73V49c39 6 53-20 64-50L1-190h34L92-34l54-156h33" id="y"/><path fill="#23373b" d="M210-169c-67 3-38 105-44 169h-31v-121c0-29-5-50-35-48C34-165 62-65 56 0H25l-1-190h30c1 10-1 24 2 32 10-44 99-50 107 0 11-21 27-35 58-36 85-2 47 119 55 194h-31v-121c0-29-5-49-35-48" id="z"/><g id="d"><use transform="matrix(0.1111111111111111,0,0,0.1111111111111111,0,0)" xlink:href="#q"/><use transform="matrix(0.1111111111111111,0,0,0.1111111111111111,26.666666666666664,0)" xlink:href="#y"/><use transform="matrix(0.1111111111111111,0,0,0.1111111111111111,46.666666666666664,0)" xlink:href="#t"/><use transform="matrix(0.1111111111111111,0,0,0.1111111111111111,66.66666666666666,0)" xlink:href="#r"/><use transform="matrix(0.1111111111111111,0,0,0.1111111111111111,77.77777777777777,0)" xlink:href="#p"/><use transform="matrix(0.1111111111111111,0,0,0.1111111111111111,100,0)" xlink:href="#z"/></g><path fill="#23373b" d="M205 0l-28-72H64L36 0H1l101-248h38L239 0h-34zm-38-99l-47-123c-12 45-31 82-46 123h93" id="A"/><path fill="#23373b" d="M84 4C-5 8 30-112 23-190h32v120c0 31 7 50 39 49 72-2 45-101 50-169h31l1 190h-30c-1-10 1-25-2-33-11 22-28 36-60 37" id="B"/><path fill="#23373b" d="M24-231v-30h32v30H24zM24 0v-190h32V0H24" id="C"/><path fill="#23373b" d="M96-169c-40 0-48 33-48 73s9 75 48 75c24 0 41-14 43-38l32 2c-6 37-31 61-74 61-59 0-76-41-82-99-10-93 101-131 147-64 4 7 5 14 7 22l-32 3c-4-21-16-35-41-35" id="D"/><g id="e"><use transform="matrix(0.1111111111111111,0,0,0.1111111111111111,0,0)" xlink:href="#A"/><use transform="matrix(0.1111111111111111,0,0,0.1111111111111111,26.666666666666664,0)" xlink:href="#B"/><use transform="matrix(0.1111111111111111,0,0,0.1111111111111111,48.888888888888886,0)" xlink:href="#r"/><use transform="matrix(0.1111111111111111,0,0,0.1111111111111111,60,0)" xlink:href="#w"/><use transform="matrix(0.1111111111111111,0,0,0.1111111111111111,82.22222222222223,0)" xlink:href="#x"/><use transform="matrix(0.1111111111111111,0,0,0.1111111111111111,104.44444444444446,0)" xlink:href="#w"/><use transform="matrix(0.1111111111111111,0,0,0.1111111111111111,126.66666666666669,0)" xlink:href="#z"/><use transform="matrix(0.1111111111111111,0,0,0.1111111111111111,159.8888888888889,0)" xlink:href="#C"/><use transform="matrix(0.1111111111111111,0,0,0.1111111111111111,168.66666666666669,0)" xlink:href="#D"/></g><path fill="#23373b" d="M190 0L58-211 59 0H30v-248h39L202-35l-2-213h31V0h-41" id="E"/><path fill="#23373b" d="M108 0H70L1-190h34L89-25l56-165h34" id="F"/><g id="f"><use transform="matrix(0.1111111111111111,0,0,0.1111111111111111,0,0)" xlink:href="#E"/><use transform="matrix(0.1111111111111111,0,0,0.1111111111111111,28.777777777777775,0)" xlink:href="#p"/><use transform="matrix(0.1111111111111111,0,0,0.1111111111111111,51,0)" xlink:href="#s"/><use transform="matrix(0.1111111111111111,0,0,0.1111111111111111,64.22222222222223,0)" xlink:href="#F"/><use transform="matrix(0.1111111111111111,0,0,0.1111111111111111,84.22222222222223,0)" xlink:href="#w"/><use transform="matrix(0.1111111111111111,0,0,0.1111111111111111,106.44444444444446,0)" xlink:href="#B"/><use transform="matrix(0.1111111111111111,0,0,0.1111111111111111,128.66666666666669,0)" xlink:href="#t"/></g><g id="g"><use transform="matrix(0.1111111111111111,0,0,0.1111111111111111,0,0)" xlink:href="#q"/><use transform="matrix(0.1111111111111111,0,0,0.1111111111111111,26.666666666666664,0)" xlink:href="#E"/><use transform="matrix(0.1111111111111111,0,0,0.1111111111111111,55.44444444444444,0)" xlink:href="#q"/></g><path fill="#23373b" d="M30-248c87 1 191-15 191 75 0 78-77 80-158 76V0H30v-248zm33 125c57 0 124 11 124-50 0-59-68-47-124-48v98" id="G"/><g id="h"><use transform="matrix(0.1111111111111111,0,0,0.1111111111111111,0,0)" xlink:href="#G"/><use transform="matrix(0.1111111111111111,0,0,0.1111111111111111,26.666666666666664,0)" xlink:href="#E"/><use transform="matrix(0.1111111111111111,0,0,0.1111111111111111,55.44444444444444,0)" xlink:href="#q"/></g><path fill="#23373b" d="M197 0v-115H63V0H30v-248h33v105h134v-105h34V0h-34" id="H"/><path fill="#23373b" d="M141-36C126-15 110 5 73 4 37 3 15-17 15-53c-1-64 63-63 125-63 3-35-9-54-41-54-24 1-41 7-42 31l-33-3c5-37 33-52 76-52 45 0 72 20 72 64v82c-1 20 7 32 28 27v20c-31 9-61-2-59-35zM48-53c0 20 12 33 32 33 41-3 63-29 60-74-43 2-92-5-92 41" id="I"/><path fill="#23373b" d="M24 0v-261h32V0H24" id="J"/><g id="i"><use transform="matrix(0.1111111111111111,0,0,0.1111111111111111,0,0)" xlink:href="#H"/><use transform="matrix(0.1111111111111111,0,0,0.1111111111111111,28.777777777777775,0)" xlink:href="#y"/><use transform="matrix(0.1111111111111111,0,0,0.1111111111111111,48.77777777777777,0)" xlink:href="#v"/><use transform="matrix(0.1111111111111111,0,0,0.1111111111111111,71,0)" xlink:href="#w"/><use transform="matrix(0.1111111111111111,0,0,0.1111111111111111,93.22222222222223,0)" xlink:href="#r"/><use transform="matrix(0.1111111111111111,0,0,0.1111111111111111,104.33333333333334,0)" xlink:href="#o"/><use transform="matrix(0.1111111111111111,0,0,0.1111111111111111,126.55555555555557,0)" xlink:href="#I"/><use transform="matrix(0.1111111111111111,0,0,0.1111111111111111,148.7777777777778,0)" xlink:href="#J"/><use transform="matrix(0.1111111111111111,0,0,0.1111111111111111,157.55555555555557,0)" xlink:href="#I"/><use transform="matrix(0.1111111111111111,0,0,0.1111111111111111,179.7777777777778,0)" xlink:href="#z"/><use transform="matrix(0.1111111111111111,0,0,0.1111111111111111,213.00000000000003,0)" xlink:href="#C"/><use transform="matrix(0.1111111111111111,0,0,0.1111111111111111,221.7777777777778,0)" xlink:href="#D"/></g><g id="j"><use transform="matrix(0.1111111111111111,0,0,0.1111111111111111,0,0)" xlink:href="#G"/><use transform="matrix(0.1111111111111111,0,0,0.1111111111111111,26.666666666666664,0)" xlink:href="#C"/><use transform="matrix(0.1111111111111111,0,0,0.1111111111111111,35.44444444444444,0)" xlink:href="#r"/><use transform="matrix(0.1111111111111111,0,0,0.1111111111111111,46.55555555555556,0)" xlink:href="#B"/><use transform="matrix(0.1111111111111111,0,0,0.1111111111111111,68.77777777777777,0)" xlink:href="#C"/><use transform="matrix(0.1111111111111111,0,0,0.1111111111111111,77.55555555555554,0)" xlink:href="#r"/><use transform="matrix(0.1111111111111111,0,0,0.1111111111111111,88.66666666666666,0)" xlink:href="#I"/><use transform="matrix(0.1111111111111111,0,0,0.1111111111111111,110.88888888888889,0)" xlink:href="#s"/><use transform="matrix(0.1111111111111111,0,0,0.1111111111111111,124.1111111111111,0)" xlink:href="#y"/></g><path fill="#23373b" d="M85-194c31 0 48 13 60 33l-1-100h32l1 261h-30c-2-10 0-23-3-31C134-8 116 4 85 4 32 4 16-35 15-94c0-66 23-100 70-100zm9 24c-40 0-46 34-46 75 0 40 6 74 45 74 42 0 51-32 51-76 0-42-9-74-50-73" id="K"/><g id="k"><use transform="matrix(0.1111111111111111,0,0,0.1111111111111111,0,0)" xlink:href="#A"/><use transform="matrix(0.1111111111111111,0,0,0.1111111111111111,26.666666666666664,0)" xlink:href="#K"/><use transform="matrix(0.1111111111111111,0,0,0.1111111111111111,48.888888888888886,0)" xlink:href="#s"/><use transform="matrix(0.1111111111111111,0,0,0.1111111111111111,62.11111111111111,0)" xlink:href="#p"/><use transform="matrix(0.1111111111111111,0,0,0.1111111111111111,84.33333333333333,0)" xlink:href="#x"/><use transform="matrix(0.1111111111111111,0,0,0.1111111111111111,106.55555555555554,0)" xlink:href="#I"/><use transform="matrix(0.1111111111111111,0,0,0.1111111111111111,128.77777777777777,0)" xlink:href="#J"/></g><path fill="#23373b" d="M141 0L90-78 38 0H4l68-98-65-92h35l48 74 47-74h35l-64 92 68 98h-35" id="L"/><g id="l"><use transform="matrix(0.1111111111111111,0,0,0.1111111111111111,0,0)" xlink:href="#A"/><use transform="matrix(0.1111111111111111,0,0,0.1111111111111111,26.666666666666664,0)" xlink:href="#L"/><use transform="matrix(0.1111111111111111,0,0,0.1111111111111111,46.666666666666664,0)" xlink:href="#C"/><use transform="matrix(0.1111111111111111,0,0,0.1111111111111111,55.44444444444444,0)" xlink:href="#t"/></g><path fill="#23373b" d="M143 4C61 4 22-44 18-125c-5-107 100-154 193-111 17 8 29 25 37 43l-32 9c-13-25-37-40-76-40-61 0-88 39-88 99 0 61 29 100 91 101 35 0 62-11 79-27v-45h-74v-28h105v86C228-13 192 4 143 4" id="M"/><g id="m"><use transform="matrix(0.1111111111111111,0,0,0.1111111111111111,0,0)" xlink:href="#M"/><use transform="matrix(0.1111111111111111,0,0,0.1111111111111111,31.11111111111111,0)" xlink:href="#w"/><use transform="matrix(0.1111111111111111,0,0,0.1111111111111111,53.33333333333333,0)" xlink:href="#x"/><use transform="matrix(0.1111111111111111,0,0,0.1111111111111111,75.55555555555554,0)" xlink:href="#I"/><use transform="matrix(0.1111111111111111,0,0,0.1111111111111111,97.77777777777777,0)" xlink:href="#K"/><use transform="matrix(0.1111111111111111,0,0,0.1111111111111111,120,0)" xlink:href="#I"/><use transform="matrix(0.1111111111111111,0,0,0.1111111111111111,142.22222222222223,0)" xlink:href="#J"/></g></defs></g></svg>