<svg xmlns="http://www.w3.org/2000/svg" xmlns:xlink="http://www.w3.org/1999/xlink" xmlns:lucid="lucid" width="1629.09" height="1305.59"><g transform="translate(-68.21067015766192 -40)" lucid:page-tab-id="0_0"><path d="M1060 60h617.3v195.15H1060z" stroke="#000" stroke-width="2" fill="#ffc374"/><use xlink:href="#a" transform="matrix(1,0,0,1,1065,65) translate(39.777777777777715 101)"/><use xlink:href="#b" transform="matrix(1,0,0,1,1065,65) translate(119.6666666666666 101)"/><use xlink:href="#c" transform="matrix(1,0,0,1,1065,65) translate(243.99999999999994 101)"/><use xlink:href="#d" transform="matrix(1,0,0,1,1065,65) translate(435 101)"/><path d="M1478.16 305.84c35.65 0 64.54 35.02 64.54 78.22 0 43.2-28.9 78.2-64.54 78.2h-193.62c-35.64 0-64.54-35-64.54-78.2s28.9-78.22 64.54-78.22z" stroke="#000" stroke-width="2" fill="#e5e5e5"/><use xlink:href="#e" transform="matrix(1,0,0,1,1224.9999999999998,310.84330499103794) translate(62.16666666666666 57.5)"/><use xlink:href="#f" transform="matrix(1,0,0,1,1224.9999999999998,310.84330499103794) translate(10 105.5)"/><use xlink:href="#d" transform="matrix(1,0,0,1,1224.9999999999998,310.84330499103794) translate(169.7777777777778 105.5)"/><path d="M1608.83 503.3c26.07 0 47.2 11.06 47.2 24.7 0 13.64-21.13 24.7-47.2 24.7H1467.2c-26.06 0-47.2-11.06-47.2-24.7 0-13.64 21.14-24.7 47.2-24.7z" stroke="#000" stroke-width="2" fill="#e5e5e5"/><use xlink:href="#g" transform="matrix(1,0,0,1,1425,508.2956049699661) translate(72.44444444444444 32)"/><path d="M1608.83 578.6c26.07 0 47.2 11.05 47.2 24.7 0 13.64-21.13 24.7-47.2 24.7H1467.2c-26.06 0-47.2-11.06-47.2-24.7 0-13.65 21.14-24.7 47.2-24.7z" stroke="#000" stroke-width="2" fill="#e5e5e5"/><use xlink:href="#h" transform="matrix(1,0,0,1,1425,583.5912099399317) translate(72.44444444444444 32)"/><path d="M1322.72 464.27V528H1418" stroke="#000" stroke-width="2" fill="none"/><path d="M1323.72 464.3h-2v-1.03h2zM1419 528l.04 1h-1.07v-2h1.08z"/><path d="M1322.72 464.27V603.3H1418" stroke="#000" stroke-width="2" fill="none"/><path d="M1323.72 464.3h-2v-1.03h2zM1419 603.3l.04 1h-1.07v-2h1.08z"/><path d="M1059.32 379.45c71.7 0 129.83 27.73 129.83 61.92 0 34.2-58.12 61.93-129.83 61.93h-389.5c-71.7 0-129.82-27.73-129.82-61.93s58.13-61.92 129.83-61.92z" stroke="#000" stroke-width="2" fill="#c7e8ac"/><use xlink:href="#i" transform="matrix(1,0,0,1,545,384.4522999789286) translate(3.8888888888888573 65)"/><use xlink:href="#j" transform="matrix(1,0,0,1,545,384.4522999789286) translate(256.77777777777777 65)"/><use xlink:href="#k" transform="matrix(1,0,0,1,545,384.4522999789286) translate(412 65)"/><use xlink:href="#l" transform="matrix(1,0,0,1,545,384.4522999789286) translate(560.6666666666667 65)"/><path d="M1058 157.58H864.58v202.37" stroke="#000" stroke-width="2" fill="none"/><path d="M1059 158.58h-1.03v-2h1.03z"/><path d="M864.58 375.22l-4.64-14.27h9.27z" stroke="#000" stroke-width="2"/><path d="M1368.65 257.15v29.2" stroke="#000" stroke-width="2" fill="none"/><path d="M1369.65 257.18h-2v-1.03h2z"/><path d="M1368.65 301.6l-4.64-14.26h9.28z" stroke="#000" stroke-width="2"/><path d="M1143.3 1210.18c34 0 61.6 21.93 61.6 48.98 0 27.04-27.6 48.97-61.6 48.97H958.44c-34.02 0-61.6-21.93-61.6-48.97 0-27.05 27.58-48.98 61.6-48.98z" stroke="#000" stroke-width="2" fill="#c7e8ac"/><use xlink:href="#m" transform="matrix(1,0,0,1,901.8447586112302,1215.1774004217289) translate(59.425925925925924 54.66666666666667)"/><path d="M627.3 965.3h308.05v146.92H627.3z" stroke="#000" stroke-width="2" fill="#c7e8ac"/><use xlink:href="#n" transform="matrix(1,0,0,1,632.3000624600421,970.2886416556157) translate(57.796296296296305 47.16666666666667)"/><use xlink:href="#o" transform="matrix(1,0,0,1,632.3000624600421,970.2886416556157) translate(71.12962962962962 111.16666666666667)"/><path d="M357.76 744.9H665.8V891.8H357.77z" stroke="#000" stroke-width="2" fill="#c7e8ac"/><use xlink:href="#p" transform="matrix(1,0,0,1,362.7553663088521,749.8887587661135) translate(53.425925925925895 79.16666666666667)"/><path d="M88.2 500h346.57v146.93H88.2z" stroke="#000" stroke-width="2" fill="#c7e8ac"/><use xlink:href="#q" transform="matrix(1,0,0,1,93.21067015766192,505) translate(-1.6481481481481524 79.16666666666667)"/><path d="M262.5 817.36h75.75v2H260.5v-64.98h2zm0-126.98h-2v-41.45h2z"/><path d="M262.5 648.96h-2v-1.03h2zM353.52 818.36L339.25 823v-9.28z"/><path d="M356.76 818.36l-18.5 6v-12.02zm-16.5 3.25l10.02-3.24-10.03-3.26z"/><use xlink:href="#r" transform="matrix(1,0,0,1,203.9338478421567,690.3775754199738) translate(0 42.66666666666667)"/><path d="M512.78 1037.76h95.02v2h-97.02v-37.6h2zm0-99.6h-2v-44.34h2z"/><path d="M512.78 893.85h-2v-1.03h2zM623.06 1038.76l-14.26 4.63v-9.28z"/><path d="M626.3 1038.76l-18.5 6v-12.02zm-16.5 3.25l10.03-3.24-10.03-3.26z"/><use xlink:href="#s" transform="matrix(1,0,0,1,439.4105365963042,938.170346897941) translate(0 42.66666666666667)"/><path d="M781.33 1114.22v144.94h96" stroke="#000" stroke-width="2" fill="none"/><path d="M782.33 1114.25h-2v-1.03h2z"/><path d="M892.6 1259.16l-14.26 4.63v-9.28z" stroke="#000" stroke-width="2"/><path d="M131.32 666.9l1.34 24.23 2.44 25.12 3.63 26.02 4.92 26.9 6.28 27.76 7.73 28.54 9.24 29.25 10.82 29.8 12.42 30.2 14.02 30.4 15.56 30.38 17.05 30.06 18.38 29.5 19.58 28.64 20.57 27.56 21.35 26.23 21.9 24.73 22.26 23.1 22.42 21.37 22.36 19.63 22.18 17.88 21.87 16.17 21.47 14.5 21 12.96 20.46 11.47 19.93 10.1 19.37 8.82 18.82 7.63 18.28 6.53 17.77 5.53 17.27 4.6 16.82 3.7 16.38 2.9 15.98 2.16 15.6 1.44 15.3.77 14.97.12 14.72-.5 14.47-1.1 14.28-1.7 14.1-2.27 13.98-2.85 13.87-3.45 13.78-4.04 13.74-4.67 13.73-5.3 13.73-6 13.78-6.7 13.85-7.47 13.12-7.8 1.02 1.72-13.14 7.82-13.93 7.5-13.85 6.75-13.8 6.02-13.8 5.34-13.83 4.7-13.88 4.07-13.95 3.46-14.05 2.87-14.2 2.28-14.36 1.7-14.56 1.1-14.8.5-15.07-.1-15.36-.78-15.7-1.45-16.06-2.16-16.45-2.93-16.9-3.73-17.36-4.6-17.85-5.56-18.37-6.56-18.9-7.66-19.45-8.86-20-10.13-20.56-11.5-21.06-13L448.5 1242l-21.94-16.2-22.25-17.94-22.43-19.68-22.47-21.44-22.3-23.16-21.98-24.8-21.4-26.3-20.62-27.6-19.62-28.73-18.43-29.57-17.1-30.13-15.6-30.44-14.04-30.47-12.44-30.3L165 855.37l-9.26-29.32L148 797.4l-6.3-27.82-4.94-27-3.65-26.1-2.44-25.2-1.34-24.3v-.53l2-.03z"/><path d="M901.4 1279.75l.73 1.2-.9.54-1.03-1.73.92-.54zM134.93 665.35l-9.27.16 4.4-14.33z"/><path d="M136.33 666.33l-12.03.2 5.7-18.6zm-9.3-1.84l6.5-.12-3.42-9.98zM401.4 920.56l1.52 15.22 2.17 15.4 2.86 15.53 3.58 15.7 4.3 15.83 5.08 15.93 5.83 16 6.63 16.04 7.42 16.02 8.22 15.96 9 15.82 9.78 15.63 10.52 15.34 11.23 15 11.9 14.54 12.47 14.05 13.02 13.46 13.47 12.82 13.86 12.1 14.15 11.37 14.38 10.57 14.52 9.78 14.6 8.97 14.6 8.15 14.57 7.35 14.5 6.56 14.35 5.8 14.22 5.04 14.04 4.34 13.85 3.65 13.65 3 13.45 2.37 13.25 1.75 13.05 1.18 12.86.62 12.67.08 12.5-.44 12.36-.96 12.2-1.46 12.1-1.97 11.96-2.47 11.86-2.97 11.8-3.48 11.73-4 10.76-4.2.72 1.88-10.8 4.2-11.82 4.03-11.87 3.5-11.97 3-12.05 2.48-12.16 1.98-12.3 1.47-12.43.96-12.6.44-12.76-.08-12.94-.62-13.14-1.2-13.33-1.76-13.54-2.38-13.74-3-13.93-3.68-14.12-4.36-14.28-5.08-14.45-5.82-14.56-6.6-14.64-7.38-14.68-8.2-14.66-9-14.6-9.83-14.43-10.62-14.22-11.4-13.92-12.18-13.53-12.87-13.07-13.52-12.54-14.1-11.94-14.6-11.28-15.07-10.57-15.4-9.83-15.7-9.04-15.9-8.26-16.03-7.45-16.1-6.66-16.1-5.88-16.1-5.1-16-4.32-15.9-3.6-15.78-2.88-15.63-2.2-15.48-1.5-15.3-.53-9.35 2-.1z"/><path d="M899.73 1276.53l.26.5-1.04.4-.72-1.86.94-.36zM404.5 910.18l-9.28.27 4.2-14.4z"/><path d="M405.9 911.14l-12.02.36 5.45-18.68zm-9.33-1.73l6.52-.18-3.57-9.93z"/><path d="M898.63 1276.5l-4.9 1.9-5.92 2.02-6 1.77-6.12 1.52-6.22 1.28-6.33 1.03-6.44.77-6.58.5-6.68.25-6.8-.04-6.92-.33-7.04-.63-7.14-.95-7.23-1.28-7.3-1.6-7.4-1.95-7.43-2.3-7.45-2.64-7.44-3-7.42-3.36-7.34-3.7-7.24-4.04-7.1-4.36-6.93-4.67-6.72-4.95-6.48-5.2-6.22-5.44-5.93-5.63-5.62-5.8-5.3-5.97-4.97-6.08-4.62-6.18-4.28-6.25-3.95-6.3-3.6-6.35-3.28-6.37-2.96-6.37-2.62-6.37-2.33-6.38-2.02-6.37-1.74-6.36-1.45-6.35-1.17-6.34-.84-5.95" stroke="#000" stroke-width="2" fill="none"/><path d="M899.73 1276.53l.26.5-1.04.4-.72-1.86.94-.36z"/><path d="M658.2 1116.45l5.5 13.96-9.25.58z" stroke="#000" stroke-width="2"/><g fill="none"><path d="M356.54 446.07l37.34-42.4 871.18 767.28-37.34 42.4z"/><path d="M1227.72 1213.34c26.5-30.07 23.58-75.92-6.5-102.4L894.53 823.2c-30.06-26.47-32.96-72.32-6.48-102.4-26.48 30.08-72.33 33-102.4 6.5l-326.7-287.72c-30.07-26.5-75.92-23.58-102.4 6.5" stroke="#000" stroke-width="2"/></g><path d="M890.04 719.9l2.2-2.6 2.48-3.2 2.2-3.1 1.93-2.98 1.73-2.9 1.52-2.86 1.36-2.8 1.2-2.78 1.05-2.75.94-2.76.8-2.77.68-2.8.58-2.84.45-2.9.35-3 .22-3.08.1-3.23-.04-3.4-.2-3.6-.36-3.9-.58-4.2-.85-4.7-1.2-5.32-1.7-6.27-2.46-7.83-4.1-11.28-23.32-58.8L871.8 551l-2.33-8.64-1.72-7.7-1.28-7.04-.9-6.6-.6-6.26-.32-6-.06-3.46" stroke="#000" stroke-width="2" fill="none"/><path d="M890.82 720.53l-2.6 3.08-.7-.6 1.9-2.3-.77-.7.64-.76zM865.6 505.3l-2 .04-.02-1.04h2z"/><defs><path fill="#23373b" d="M127-220V0H93v-220H8v-28h204v28h-85" id="t"/><path fill="#23373b" d="M106-169C34-169 62-67 57 0H25v-261h32l-1 103c12-21 28-36 61-36 89 0 53 116 60 194h-32v-121c2-32-8-49-39-48" id="u"/><path fill="#23373b" d="M100-194c63 0 86 42 84 106H49c0 40 14 67 53 68 26 1 43-12 49-29l28 8c-11 28-37 45-77 45C44 4 14-33 15-96c1-61 26-98 85-98zm52 81c6-60-76-77-97-28-3 7-6 17-6 28h103" id="v"/><g id="a"><use transform="matrix(0.1111111111111111,0,0,0.1111111111111111,0,0)" xlink:href="#t"/><use transform="matrix(0.1111111111111111,0,0,0.1111111111111111,24.333333333333332,0)" xlink:href="#u"/><use transform="matrix(0.1111111111111111,0,0,0.1111111111111111,46.55555555555556,0)" xlink:href="#v"/></g><path fill="#23373b" d="M185-189c-5-48-123-54-124 2 14 75 158 14 163 119 3 78-121 87-175 55-17-10-28-26-33-46l33-7c5 56 141 63 141-1 0-78-155-14-162-118-5-82 145-84 179-34 5 7 8 16 11 25" id="w"/><path fill="#23373b" d="M59-47c-2 24 18 29 38 22v24C64 9 27 4 27-40v-127H5v-23h24l9-43h21v43h35v23H59v120" id="x"/><path fill="#23373b" d="M114-163C36-179 61-72 57 0H25l-1-190h30c1 12-1 29 2 39 6-27 23-49 58-41v29" id="y"/><path fill="#23373b" d="M135-143c-3-34-86-38-87 0 15 53 115 12 119 90S17 21 10-45l28-5c4 36 97 45 98 0-10-56-113-15-118-90-4-57 82-63 122-42 12 7 21 19 24 35" id="z"/><g id="b"><use transform="matrix(0.1111111111111111,0,0,0.1111111111111111,0,0)" xlink:href="#w"/><use transform="matrix(0.1111111111111111,0,0,0.1111111111111111,26.666666666666664,0)" xlink:href="#x"/><use transform="matrix(0.1111111111111111,0,0,0.1111111111111111,37.77777777777777,0)" xlink:href="#y"/><use transform="matrix(0.1111111111111111,0,0,0.1111111111111111,50.99999999999999,0)" xlink:href="#v"/><use transform="matrix(0.1111111111111111,0,0,0.1111111111111111,73.22222222222221,0)" xlink:href="#z"/><use transform="matrix(0.1111111111111111,0,0,0.1111111111111111,93.22222222222221,0)" xlink:href="#z"/></g><path fill="#23373b" d="M233-177c-1 41-23 64-60 70L243 0h-38l-65-103H63V0H30v-248c88 3 205-21 203 71zM63-129c60-2 137 13 137-47 0-61-80-42-137-45v92" id="A"/><path fill="#23373b" d="M115-194c55 1 70 41 70 98S169 2 115 4C84 4 66-9 55-30l1 105H24l-1-265h31l2 30c10-21 28-34 59-34zm-8 174c40 0 45-34 45-75s-6-73-45-74c-42 0-51 32-51 76 0 43 10 73 51 73" id="B"/><path fill="#23373b" d="M100-194c62-1 85 37 85 99 1 63-27 99-86 99S16-35 15-95c0-66 28-99 85-99zM99-20c44 1 53-31 53-75 0-43-8-75-51-75s-53 32-53 75 10 74 51 75" id="C"/><path fill="#23373b" d="M117-194c89-4 53 116 60 194h-32v-121c0-31-8-49-39-48C34-167 62-67 57 0H25l-1-190h30c1 10-1 24 2 32 11-22 29-35 61-36" id="D"/><g id="c"><use transform="matrix(0.1111111111111111,0,0,0.1111111111111111,0,0)" xlink:href="#A"/><use transform="matrix(0.1111111111111111,0,0,0.1111111111111111,28.777777777777775,0)" xlink:href="#v"/><use transform="matrix(0.1111111111111111,0,0,0.1111111111111111,51,0)" xlink:href="#z"/><use transform="matrix(0.1111111111111111,0,0,0.1111111111111111,71,0)" xlink:href="#B"/><use transform="matrix(0.1111111111111111,0,0,0.1111111111111111,93.22222222222223,0)" xlink:href="#C"/><use transform="matrix(0.1111111111111111,0,0,0.1111111111111111,115.44444444444446,0)" xlink:href="#D"/><use transform="matrix(0.1111111111111111,0,0,0.1111111111111111,137.66666666666669,0)" xlink:href="#z"/><use transform="matrix(0.1111111111111111,0,0,0.1111111111111111,157.66666666666669,0)" xlink:href="#v"/></g><path fill="#23373b" d="M179-190L93 31C79 59 56 82 12 73V49c39 6 53-20 64-50L1-190h34L92-34l54-156h33" id="E"/><path fill="#23373b" d="M210-169c-67 3-38 105-44 169h-31v-121c0-29-5-50-35-48C34-165 62-65 56 0H25l-1-190h30c1 10-1 24 2 32 10-44 99-50 107 0 11-21 27-35 58-36 85-2 47 119 55 194h-31v-121c0-29-5-49-35-48" id="F"/><g id="d"><use transform="matrix(0.1111111111111111,0,0,0.1111111111111111,0,0)" xlink:href="#w"/><use transform="matrix(0.1111111111111111,0,0,0.1111111111111111,26.666666666666664,0)" xlink:href="#E"/><use transform="matrix(0.1111111111111111,0,0,0.1111111111111111,46.666666666666664,0)" xlink:href="#z"/><use transform="matrix(0.1111111111111111,0,0,0.1111111111111111,66.66666666666666,0)" xlink:href="#x"/><use transform="matrix(0.1111111111111111,0,0,0.1111111111111111,77.77777777777777,0)" xlink:href="#v"/><use transform="matrix(0.1111111111111111,0,0,0.1111111111111111,100,0)" xlink:href="#F"/></g><path fill="#23373b" d="M205 0l-28-72H64L36 0H1l101-248h38L239 0h-34zm-38-99l-47-123c-12 45-31 82-46 123h93" id="G"/><path fill="#23373b" d="M84 4C-5 8 30-112 23-190h32v120c0 31 7 50 39 49 72-2 45-101 50-169h31l1 190h-30c-1-10 1-25-2-33-11 22-28 36-60 37" id="H"/><path fill="#23373b" d="M24-231v-30h32v30H24zM24 0v-190h32V0H24" id="I"/><path fill="#23373b" d="M96-169c-40 0-48 33-48 73s9 75 48 75c24 0 41-14 43-38l32 2c-6 37-31 61-74 61-59 0-76-41-82-99-10-93 101-131 147-64 4 7 5 14 7 22l-32 3c-4-21-16-35-41-35" id="J"/><g id="e"><use transform="matrix(0.1111111111111111,0,0,0.1111111111111111,0,0)" xlink:href="#G"/><use transform="matrix(0.1111111111111111,0,0,0.1111111111111111,26.666666666666664,0)" xlink:href="#H"/><use transform="matrix(0.1111111111111111,0,0,0.1111111111111111,48.888888888888886,0)" xlink:href="#x"/><use transform="matrix(0.1111111111111111,0,0,0.1111111111111111,60,0)" xlink:href="#C"/><use transform="matrix(0.1111111111111111,0,0,0.1111111111111111,82.22222222222223,0)" xlink:href="#D"/><use transform="matrix(0.1111111111111111,0,0,0.1111111111111111,104.44444444444446,0)" xlink:href="#C"/><use transform="matrix(0.1111111111111111,0,0,0.1111111111111111,126.66666666666669,0)" xlink:href="#F"/><use transform="matrix(0.1111111111111111,0,0,0.1111111111111111,159.8888888888889,0)" xlink:href="#I"/><use transform="matrix(0.1111111111111111,0,0,0.1111111111111111,168.66666666666669,0)" xlink:href="#J"/></g><path fill="#23373b" d="M190 0L58-211 59 0H30v-248h39L202-35l-2-213h31V0h-41" id="K"/><path fill="#23373b" d="M108 0H70L1-190h34L89-25l56-165h34" id="L"/><g id="f"><use transform="matrix(0.1111111111111111,0,0,0.1111111111111111,0,0)" xlink:href="#K"/><use transform="matrix(0.1111111111111111,0,0,0.1111111111111111,28.777777777777775,0)" xlink:href="#v"/><use transform="matrix(0.1111111111111111,0,0,0.1111111111111111,51,0)" xlink:href="#y"/><use transform="matrix(0.1111111111111111,0,0,0.1111111111111111,64.22222222222223,0)" xlink:href="#L"/><use transform="matrix(0.1111111111111111,0,0,0.1111111111111111,84.22222222222223,0)" xlink:href="#C"/><use transform="matrix(0.1111111111111111,0,0,0.1111111111111111,106.44444444444446,0)" xlink:href="#H"/><use transform="matrix(0.1111111111111111,0,0,0.1111111111111111,128.66666666666669,0)" xlink:href="#z"/></g><g id="g"><use transform="matrix(0.1111111111111111,0,0,0.1111111111111111,0,0)" xlink:href="#w"/><use transform="matrix(0.1111111111111111,0,0,0.1111111111111111,26.666666666666664,0)" xlink:href="#K"/><use transform="matrix(0.1111111111111111,0,0,0.1111111111111111,55.44444444444444,0)" xlink:href="#w"/></g><path fill="#23373b" d="M30-248c87 1 191-15 191 75 0 78-77 80-158 76V0H30v-248zm33 125c57 0 124 11 124-50 0-59-68-47-124-48v98" id="M"/><g id="h"><use transform="matrix(0.1111111111111111,0,0,0.1111111111111111,0,0)" xlink:href="#M"/><use transform="matrix(0.1111111111111111,0,0,0.1111111111111111,26.666666666666664,0)" xlink:href="#K"/><use transform="matrix(0.1111111111111111,0,0,0.1111111111111111,55.44444444444444,0)" xlink:href="#w"/></g><path fill="#23373b" d="M197 0v-115H63V0H30v-248h33v105h134v-105h34V0h-34" id="N"/><path fill="#23373b" d="M141-36C126-15 110 5 73 4 37 3 15-17 15-53c-1-64 63-63 125-63 3-35-9-54-41-54-24 1-41 7-42 31l-33-3c5-37 33-52 76-52 45 0 72 20 72 64v82c-1 20 7 32 28 27v20c-31 9-61-2-59-35zM48-53c0 20 12 33 32 33 41-3 63-29 60-74-43 2-92-5-92 41" id="O"/><path fill="#23373b" d="M24 0v-261h32V0H24" id="P"/><g id="i"><use transform="matrix(0.1111111111111111,0,0,0.1111111111111111,0,0)" xlink:href="#N"/><use transform="matrix(0.1111111111111111,0,0,0.1111111111111111,28.777777777777775,0)" xlink:href="#E"/><use transform="matrix(0.1111111111111111,0,0,0.1111111111111111,48.77777777777777,0)" xlink:href="#B"/><use transform="matrix(0.1111111111111111,0,0,0.1111111111111111,71,0)" xlink:href="#C"/><use transform="matrix(0.1111111111111111,0,0,0.1111111111111111,93.22222222222223,0)" xlink:href="#x"/><use transform="matrix(0.1111111111111111,0,0,0.1111111111111111,104.33333333333334,0)" xlink:href="#u"/><use transform="matrix(0.1111111111111111,0,0,0.1111111111111111,126.55555555555557,0)" xlink:href="#O"/><use transform="matrix(0.1111111111111111,0,0,0.1111111111111111,148.7777777777778,0)" xlink:href="#P"/><use transform="matrix(0.1111111111111111,0,0,0.1111111111111111,157.55555555555557,0)" xlink:href="#O"/><use transform="matrix(0.1111111111111111,0,0,0.1111111111111111,179.7777777777778,0)" xlink:href="#F"/><use transform="matrix(0.1111111111111111,0,0,0.1111111111111111,213.00000000000003,0)" xlink:href="#I"/><use transform="matrix(0.1111111111111111,0,0,0.1111111111111111,221.7777777777778,0)" xlink:href="#J"/></g><g id="j"><use transform="matrix(0.1111111111111111,0,0,0.1111111111111111,0,0)" xlink:href="#M"/><use transform="matrix(0.1111111111111111,0,0,0.1111111111111111,26.666666666666664,0)" xlink:href="#I"/><use transform="matrix(0.1111111111111111,0,0,0.1111111111111111,35.44444444444444,0)" xlink:href="#x"/><use transform="matrix(0.1111111111111111,0,0,0.1111111111111111,46.55555555555556,0)" xlink:href="#H"/><use transform="matrix(0.1111111111111111,0,0,0.1111111111111111,68.77777777777777,0)" xlink:href="#I"/><use transform="matrix(0.1111111111111111,0,0,0.1111111111111111,77.55555555555554,0)" xlink:href="#x"/><use transform="matrix(0.1111111111111111,0,0,0.1111111111111111,88.66666666666666,0)" xlink:href="#O"/><use transform="matrix(0.1111111111111111,0,0,0.1111111111111111,110.88888888888889,0)" xlink:href="#y"/><use transform="matrix(0.1111111111111111,0,0,0.1111111111111111,124.1111111111111,0)" xlink:href="#E"/></g><path fill="#23373b" d="M85-194c31 0 48 13 60 33l-1-100h32l1 261h-30c-2-10 0-23-3-31C134-8 116 4 85 4 32 4 16-35 15-94c0-66 23-100 70-100zm9 24c-40 0-46 34-46 75 0 40 6 74 45 74 42 0 51-32 51-76 0-42-9-74-50-73" id="Q"/><g id="k"><use transform="matrix(0.1111111111111111,0,0,0.1111111111111111,0,0)" xlink:href="#G"/><use transform="matrix(0.1111111111111111,0,0,0.1111111111111111,26.666666666666664,0)" xlink:href="#Q"/><use transform="matrix(0.1111111111111111,0,0,0.1111111111111111,48.888888888888886,0)" xlink:href="#y"/><use transform="matrix(0.1111111111111111,0,0,0.1111111111111111,62.11111111111111,0)" xlink:href="#v"/><use transform="matrix(0.1111111111111111,0,0,0.1111111111111111,84.33333333333333,0)" xlink:href="#D"/><use transform="matrix(0.1111111111111111,0,0,0.1111111111111111,106.55555555555554,0)" xlink:href="#O"/><use transform="matrix(0.1111111111111111,0,0,0.1111111111111111,128.77777777777777,0)" xlink:href="#P"/></g><path fill="#23373b" d="M141 0L90-78 38 0H4l68-98-65-92h35l48 74 47-74h35l-64 92 68 98h-35" id="R"/><g id="l"><use transform="matrix(0.1111111111111111,0,0,0.1111111111111111,0,0)" xlink:href="#G"/><use transform="matrix(0.1111111111111111,0,0,0.1111111111111111,26.666666666666664,0)" xlink:href="#R"/><use transform="matrix(0.1111111111111111,0,0,0.1111111111111111,46.666666666666664,0)" xlink:href="#I"/><use transform="matrix(0.1111111111111111,0,0,0.1111111111111111,55.44444444444444,0)" xlink:href="#z"/></g><path fill="#23373b" d="M212-179c-10-28-35-45-73-45-59 0-87 40-87 99 0 60 29 101 89 101 43 0 62-24 78-52l27 14C228-24 195 4 139 4 59 4 22-46 18-125c-6-104 99-153 187-111 19 9 31 26 39 46" id="S"/><g id="m"><use transform="matrix(0.14814814814814817,0,0,0.14814814814814817,0,0)" xlink:href="#S"/><use transform="matrix(0.14814814814814817,0,0,0.14814814814814817,38.370370370370374,0)" xlink:href="#C"/><use transform="matrix(0.14814814814814817,0,0,0.14814814814814817,68,0)" xlink:href="#y"/><use transform="matrix(0.14814814814814817,0,0,0.14814814814814817,85.62962962962965,0)" xlink:href="#x"/><use transform="matrix(0.14814814814814817,0,0,0.14814814814814817,100.44444444444446,0)" xlink:href="#I"/><use transform="matrix(0.14814814814814817,0,0,0.14814814814814817,112.14814814814817,0)" xlink:href="#z"/><use transform="matrix(0.14814814814814817,0,0,0.14814814814814817,138.81481481481484,0)" xlink:href="#C"/><use transform="matrix(0.14814814814814817,0,0,0.14814814814814817,168.44444444444446,0)" xlink:href="#P"/></g><g id="n"><use transform="matrix(0.14814814814814817,0,0,0.14814814814814817,0,0)" xlink:href="#G"/><use transform="matrix(0.14814814814814817,0,0,0.14814814814814817,35.55555555555556,0)" xlink:href="#Q"/><use transform="matrix(0.14814814814814817,0,0,0.14814814814814817,65.18518518518519,0)" xlink:href="#y"/><use transform="matrix(0.14814814814814817,0,0,0.14814814814814817,82.81481481481482,0)" xlink:href="#v"/><use transform="matrix(0.14814814814814817,0,0,0.14814814814814817,112.44444444444446,0)" xlink:href="#D"/><use transform="matrix(0.14814814814814817,0,0,0.14814814814814817,142.07407407407408,0)" xlink:href="#O"/><use transform="matrix(0.14814814814814817,0,0,0.14814814814814817,171.7037037037037,0)" xlink:href="#P"/></g><g id="o"><use transform="matrix(0.14814814814814817,0,0,0.14814814814814817,0,0)" xlink:href="#S"/><use transform="matrix(0.14814814814814817,0,0,0.14814814814814817,38.370370370370374,0)" xlink:href="#C"/><use transform="matrix(0.14814814814814817,0,0,0.14814814814814817,68,0)" xlink:href="#y"/><use transform="matrix(0.14814814814814817,0,0,0.14814814814814817,85.62962962962965,0)" xlink:href="#x"/><use transform="matrix(0.14814814814814817,0,0,0.14814814814814817,100.44444444444446,0)" xlink:href="#v"/><use transform="matrix(0.14814814814814817,0,0,0.14814814814814817,130.07407407407408,0)" xlink:href="#R"/></g><g id="p"><use transform="matrix(0.14814814814814817,0,0,0.14814814814814817,0,0)" xlink:href="#M"/><use transform="matrix(0.14814814814814817,0,0,0.14814814814814817,35.55555555555556,0)" xlink:href="#I"/><use transform="matrix(0.14814814814814817,0,0,0.14814814814814817,47.25925925925927,0)" xlink:href="#x"/><use transform="matrix(0.14814814814814817,0,0,0.14814814814814817,62.07407407407408,0)" xlink:href="#H"/><use transform="matrix(0.14814814814814817,0,0,0.14814814814814817,91.70370370370371,0)" xlink:href="#I"/><use transform="matrix(0.14814814814814817,0,0,0.14814814814814817,103.40740740740743,0)" xlink:href="#x"/><use transform="matrix(0.14814814814814817,0,0,0.14814814814814817,118.22222222222226,0)" xlink:href="#O"/><use transform="matrix(0.14814814814814817,0,0,0.14814814814814817,147.8518518518519,0)" xlink:href="#y"/><use transform="matrix(0.14814814814814817,0,0,0.14814814814814817,165.48148148148152,0)" xlink:href="#E"/></g><g id="q"><use transform="matrix(0.14814814814814817,0,0,0.14814814814814817,0,0)" xlink:href="#N"/><use transform="matrix(0.14814814814814817,0,0,0.14814814814814817,38.370370370370374,0)" xlink:href="#E"/><use transform="matrix(0.14814814814814817,0,0,0.14814814814814817,65.03703703703704,0)" xlink:href="#B"/><use transform="matrix(0.14814814814814817,0,0,0.14814814814814817,94.66666666666669,0)" xlink:href="#C"/><use transform="matrix(0.14814814814814817,0,0,0.14814814814814817,124.29629629629632,0)" xlink:href="#x"/><use transform="matrix(0.14814814814814817,0,0,0.14814814814814817,139.11111111111111,0)" xlink:href="#u"/><use transform="matrix(0.14814814814814817,0,0,0.14814814814814817,168.74074074074076,0)" xlink:href="#O"/><use transform="matrix(0.14814814814814817,0,0,0.14814814814814817,198.3703703703704,0)" xlink:href="#P"/><use transform="matrix(0.14814814814814817,0,0,0.14814814814814817,210.07407407407408,0)" xlink:href="#O"/><use transform="matrix(0.14814814814814817,0,0,0.14814814814814817,239.7037037037037,0)" xlink:href="#F"/><use transform="matrix(0.14814814814814817,0,0,0.14814814814814817,284,0)" xlink:href="#H"/><use transform="matrix(0.14814814814814817,0,0,0.14814814814814817,313.6296296296296,0)" xlink:href="#z"/></g><g id="r"><use transform="matrix(0.14814814814814817,0,0,0.14814814814814817,0,0)" xlink:href="#S"/><use transform="matrix(0.14814814814814817,0,0,0.14814814814814817,38.370370370370374,0)" xlink:href="#A"/><use transform="matrix(0.14814814814814817,0,0,0.14814814814814817,76.74074074074075,0)" xlink:href="#N"/></g><g id="s"><use transform="matrix(0.14814814814814817,0,0,0.14814814814814817,0,0)" xlink:href="#G"/><use transform="matrix(0.14814814814814817,0,0,0.14814814814814817,35.55555555555556,0)" xlink:href="#S"/><use transform="matrix(0.14814814814814817,0,0,0.14814814814814817,73.92592592592592,0)" xlink:href="#t"/><use transform="matrix(0.14814814814814817,0,0,0.14814814814814817,106.37037037037038,0)" xlink:href="#N"/></g></defs></g></svg>