<svg xmlns="http://www.w3.org/2000/svg" xmlns:xlink="http://www.w3.org/1999/xlink" xmlns:lucid="lucid" width="1664.24" height="649.22"><g transform="translate(-12 -640)" lucid:page-tab-id="0_0"><path d="M429.18 1080c37.17 0 67.3 42.36 67.3 94.6 0 52.26-30.13 94.62-67.3 94.62H227.3c-37.17 0-67.3-42.36-67.3-94.6 0-52.26 30.13-94.62 67.3-94.62z" stroke="#000" stroke-width="2" fill="#ffdf71"/><use xlink:href="#a" transform="matrix(1,0,0,1,160,1080) translate(17.611111111111086 103)"/><use xlink:href="#b" transform="matrix(1,0,0,1,160,1080) translate(119.61111111111109 103)"/><path d="M500.48 1174.46l.93-.1 1.3-.2 1.27-.23 1.28-.3 1.27-.35 1.3-.42 1.28-.48 1.32-.56 1.34-.63 1.36-.72 1.4-.8 1.45-.93 1.5-1.03 1.53-1.18 1.62-1.34 1.7-1.52 1.78-1.75 1.9-2.02 2-2.33 2.18-2.74 2.34-3.23 2.56-3.86 2.82-4.66 3.14-5.72 3.56-7.18 4.1-9.23 4.86-12.33 6.04-17.4 8.23-27.48 49.05-191.3 6.04-17.4 4.86-12.33 4.1-9.23 3.56-7.17 3.14-5.73 2.82-4.66 2.56-3.85 2.34-3.23 2.17-2.74 2.02-2.34 1.88-2 1.8-1.76.6-.57" stroke="#7ab648" stroke-width="6" fill="none"/><path d="M500.62 1177.55l-3.22.06.08-3-.06-3 3.08-.05z" fill="#7ab648"/><path d="M670.08 792.86l-11.3 9.88-3.64-8.52z" stroke="#7ab648" stroke-width="6" fill="#7ab648"/><path d="M1588.94 1079.78c37.17 0 67.3 42.36 67.3 94.6 0 52.26-30.13 94.62-67.3 94.62h-201.88c-37.17 0-67.3-42.36-67.3-94.6 0-52.26 30.13-94.62 67.3-94.62z" stroke="#000" stroke-width="2" fill="#ffdf71"/><use xlink:href="#c" transform="matrix(1,0,0,1,1319.760261145409,1079.778927203065) translate(71.94444444444444 79)"/><use xlink:href="#d" transform="matrix(1,0,0,1,1319.760261145409,1079.778927203065) translate(198.3888888888889 79)"/><use xlink:href="#e" transform="matrix(1,0,0,1,1319.760261145409,1079.778927203065) translate(89.72222222222221 127)"/><path d="M1145.75 789.2l.7.07 1.22.18 1.2.23 1.2.28 1.2.34 1.22.4 1.22.45 1.24.52 1.27.6 1.3.68 1.32.76 1.36.88 1.43.98 1.46 1.12 1.53 1.27 1.6 1.45 1.7 1.66 1.8 1.9 1.92 2.24 2.06 2.6 2.24 3.08 2.43 3.67 2.7 4.43 2.98 5.45 3.38 6.82 3.9 8.77 4.6 11.67 5.67 16.35 7.6 25.32 13.96 55.35 29.16 121.34 7.6 25.32 5.67 16.37 4.6 11.66 3.9 8.78 3.37 6.82 3 5.45 2.67 4.44 2.44 3.65 2.23 3.08 2.07 2.6 1.92 2.23 1.8 1.9 1.2 1.2" stroke="#7ab648" stroke-width="6" fill="none"/><path d="M1145.9 786.1l-.13 6-3.08-.06.06-3-.03-3z" fill="#7ab648"/><path d="M1309.9 1170.4l-14.9-1.66 3.82-8.44z" stroke="#7ab648" stroke-width="6" fill="#7ab648"/><path d="M233.9 892c27.86 0 50.46 21.18 50.46 47.3 0 26.13-22.6 47.3-50.47 47.3H82.46C54.6 986.6 32 965.44 32 939.3 32 913.2 54.6 892 82.47 892z" stroke="#000" stroke-width="2" fill="#c7e8ac"/><use xlink:href="#f" transform="matrix(1,0,0,1,32,892) translate(76.37654320987653 53.72222222222222)"/><path d="M501.9 892c27.86 0 50.46 21.18 50.46 47.3 0 26.13-22.6 47.3-50.47 47.3H350.46c-27.87 0-50.47-21.17-50.47-47.3 0-26.12 22.6-47.3 50.47-47.3z" stroke="#000" stroke-width="2" fill="#c7e8ac"/><use xlink:href="#g" transform="matrix(1,0,0,1,300,892) translate(37.53086419753086 53.72222222222222)"/><path d="M158.2 988.6l.04.52.08.74.1.73.15.72.17.72.2.72.23.72.27.73.3.75.37.75.4.76.46.78.5.8.58.83.65.86.73.9.84.93.97.98 1.1 1.04 1.3 1.1 1.48 1.2 1.77 1.27 2.1 1.4 2.55 1.54 3.13 1.7 3.95 1.97 5.14 2.28 7 2.77 10.45 3.6 20.5 6.13 55.48 15.63 10.44 3.6 7 2.78 5.14 2.28 3.96 1.96 3.13 1.72 2.55 1.54 2.1 1.4 1.78 1.28 1.5 1.2 1.27 1.1" stroke="#000" stroke-width="2" fill="none"/><path d="M159.2 988.62l-2 .04-.02-1.05h2z"/><path d="M326.77 1076.12l-10.63-10.6 8.26-4.2z" stroke="#000" stroke-width="2"/><path d="M426.15 988.6v.6l-.13 1.54-.2 1.48-.25 1.44-.33 1.4-.4 1.4-.47 1.37-.55 1.37-.64 1.37-.73 1.4-.84 1.4-.95 1.44-1.1 1.5-1.28 1.55-1.5 1.63-1.75 1.73-2.1 1.88-2.54 2.04-3.2 2.3-4.16 2.7-5.93 3.42-11.14 5.64-28.63 13.9-5.93 3.4-4.17 2.7-3.2 2.3-2.54 2.05-2.1 1.87-1.76 1.73-1.5 1.63-1.27 1.55-1.02 1.4" stroke="#000" stroke-width="2" fill="none"/><path d="M427.15 988.66l-2-.05.03-1h2z"/><path d="M329.24 1075.92v-15l8.8 2.86z" stroke="#000" stroke-width="2"/><path d="M1563.7 903c27.88 0 50.48 17.9 50.48 40s-22.6 40-50.47 40h-151.4c-27.88 0-50.48-17.9-50.48-40s22.6-40 50.47-40z" stroke="#000" stroke-width="2" fill="#c7e8ac"/><use xlink:href="#h" transform="matrix(1,0,0,1,1361.8201958590566,903) translate(39.388888888888886 27.55555555555555)"/><use xlink:href="#i" transform="matrix(1,0,0,1,1361.8201958590566,903) translate(65.22839506172839 64.88888888888889)"/><path d="M1488 985v75.28" stroke="#000" stroke-width="2" fill="none"/><path d="M1489 985.03h-2V984h2z"/><path d="M1488 1075.54l-4.64-14.26h9.28z" stroke="#000" stroke-width="2"/><path d="M1049.4 660c51 0 92.36 57.77 92.36 129.04 0 71.27-41.35 129.04-92.35 129.04H772.36c-51 0-92.35-57.77-92.35-129.04C680 717.77 721.35 660 772.35 660z" stroke="#000" stroke-width="2" fill="#ffdf71"/><g><use xlink:href="#j" transform="matrix(1,0,0,1,680,660) translate(114.18518518518519 140.16666666666669)"/><use xlink:href="#k" transform="matrix(1,0,0,1,680,660) translate(235.37037037037038 140.16666666666669)"/></g><defs><path d="M30 0v-248h187v28H63v79h144v27H63v87h162V0H30" id="l"/><path d="M141-36C126-15 110 5 73 4 37 3 15-17 15-53c-1-64 63-63 125-63 3-35-9-54-41-54-24 1-41 7-42 31l-33-3c5-37 33-52 76-52 45 0 72 20 72 64v82c-1 20 7 32 28 27v20c-31 9-61-2-59-35zM48-53c0 20 12 33 32 33 41-3 63-29 60-74-43 2-92-5-92 41" id="m"/><path d="M114-163C36-179 61-72 57 0H25l-1-190h30c1 12-1 29 2 39 6-27 23-49 58-41v29" id="n"/><path d="M24 0v-261h32V0H24" id="o"/><path d="M179-190L93 31C79 59 56 82 12 73V49c39 6 53-20 64-50L1-190h34L92-34l54-156h33" id="p"/><g id="a"><use transform="matrix(0.1111111111111111,0,0,0.1111111111111111,0,0)" xlink:href="#l"/><use transform="matrix(0.1111111111111111,0,0,0.1111111111111111,26.666666666666664,0)" xlink:href="#m"/><use transform="matrix(0.1111111111111111,0,0,0.1111111111111111,48.888888888888886,0)" xlink:href="#n"/><use transform="matrix(0.1111111111111111,0,0,0.1111111111111111,62.11111111111111,0)" xlink:href="#o"/><use transform="matrix(0.1111111111111111,0,0,0.1111111111111111,70.88888888888889,0)" xlink:href="#p"/></g><path d="M141 0L90-78 38 0H4l68-98-65-92h35l48 74 47-74h35l-64 92 68 98h-35" id="q"/><path d="M115-194c55 1 70 41 70 98S169 2 115 4C84 4 66-9 55-30l1 105H24l-1-265h31l2 30c10-21 28-34 59-34zm-8 174c40 0 45-34 45-75s-6-73-45-74c-42 0-51 32-51 76 0 43 10 73 51 73" id="r"/><path d="M100-194c63 0 86 42 84 106H49c0 40 14 67 53 68 26 1 43-12 49-29l28 8c-11 28-37 45-77 45C44 4 14-33 15-96c1-61 26-98 85-98zm52 81c6-60-76-77-97-28-3 7-6 17-6 28h103" id="s"/><path d="M24-231v-30h32v30H24zM24 0v-190h32V0H24" id="t"/><path d="M117-194c89-4 53 116 60 194h-32v-121c0-31-8-49-39-48C34-167 62-67 57 0H25l-1-190h30c1 10-1 24 2 32 11-22 29-35 61-36" id="u"/><path d="M96-169c-40 0-48 33-48 73s9 75 48 75c24 0 41-14 43-38l32 2c-6 37-31 61-74 61-59 0-76-41-82-99-10-93 101-131 147-64 4 7 5 14 7 22l-32 3c-4-21-16-35-41-35" id="v"/><g id="b"><use transform="matrix(0.1111111111111111,0,0,0.1111111111111111,0,0)" xlink:href="#l"/><use transform="matrix(0.1111111111111111,0,0,0.1111111111111111,26.666666666666664,0)" xlink:href="#q"/><use transform="matrix(0.1111111111111111,0,0,0.1111111111111111,46.666666666666664,0)" xlink:href="#r"/><use transform="matrix(0.1111111111111111,0,0,0.1111111111111111,68.88888888888889,0)" xlink:href="#s"/><use transform="matrix(0.1111111111111111,0,0,0.1111111111111111,91.11111111111111,0)" xlink:href="#n"/><use transform="matrix(0.1111111111111111,0,0,0.1111111111111111,104.33333333333334,0)" xlink:href="#t"/><use transform="matrix(0.1111111111111111,0,0,0.1111111111111111,113.11111111111111,0)" xlink:href="#s"/><use transform="matrix(0.1111111111111111,0,0,0.1111111111111111,135.33333333333334,0)" xlink:href="#u"/><use transform="matrix(0.1111111111111111,0,0,0.1111111111111111,157.55555555555557,0)" xlink:href="#v"/><use transform="matrix(0.1111111111111111,0,0,0.1111111111111111,177.55555555555557,0)" xlink:href="#s"/></g><path d="M197 0v-115H63V0H30v-248h33v105h134v-105h34V0h-34" id="w"/><path d="M59-47c-2 24 18 29 38 22v24C64 9 27 4 27-40v-127H5v-23h24l9-43h21v43h35v23H59v120" id="x"/><path d="M106-169C34-169 62-67 57 0H25v-261h32l-1 103c12-21 28-36 61-36 89 0 53 116 60 194h-32v-121c2-32-8-49-39-48" id="y"/><g id="c"><use transform="matrix(0.1111111111111111,0,0,0.1111111111111111,0,0)" xlink:href="#w"/><use transform="matrix(0.1111111111111111,0,0,0.1111111111111111,28.777777777777775,0)" xlink:href="#s"/><use transform="matrix(0.1111111111111111,0,0,0.1111111111111111,51,0)" xlink:href="#m"/><use transform="matrix(0.1111111111111111,0,0,0.1111111111111111,73.22222222222223,0)" xlink:href="#o"/><use transform="matrix(0.1111111111111111,0,0,0.1111111111111111,82,0)" xlink:href="#x"/><use transform="matrix(0.1111111111111111,0,0,0.1111111111111111,93.11111111111111,0)" xlink:href="#y"/></g><path d="M85-194c31 0 48 13 60 33l-1-100h32l1 261h-30c-2-10 0-23-3-31C134-8 116 4 85 4 32 4 16-35 15-94c0-66 23-100 70-100zm9 24c-40 0-46 34-46 75 0 40 6 74 45 74 42 0 51-32 51-76 0-42-9-74-50-73" id="z"/><g id="d"><use transform="matrix(0.1111111111111111,0,0,0.1111111111111111,0,0)" xlink:href="#m"/><use transform="matrix(0.1111111111111111,0,0,0.1111111111111111,22.22222222222222,0)" xlink:href="#u"/><use transform="matrix(0.1111111111111111,0,0,0.1111111111111111,44.44444444444444,0)" xlink:href="#z"/></g><path d="M160-131c35 5 61 23 61 61C221 17 115-2 30 0v-248c76 3 177-17 177 60 0 33-19 50-47 57zm-97-11c50-1 110 9 110-42 0-47-63-36-110-37v79zm0 115c55-2 124 14 124-45 0-56-70-42-124-44v89" id="A"/><path d="M108 0H70L1-190h34L89-25l56-165h34" id="B"/><path d="M100-194c62-1 85 37 85 99 1 63-27 99-86 99S16-35 15-95c0-66 28-99 85-99zM99-20c44 1 53-31 53-75 0-43-8-75-51-75s-53 32-53 75 10 74 51 75" id="C"/><g id="e"><use transform="matrix(0.1111111111111111,0,0,0.1111111111111111,0,0)" xlink:href="#A"/><use transform="matrix(0.1111111111111111,0,0,0.1111111111111111,26.666666666666664,0)" xlink:href="#s"/><use transform="matrix(0.1111111111111111,0,0,0.1111111111111111,48.888888888888886,0)" xlink:href="#y"/><use transform="matrix(0.1111111111111111,0,0,0.1111111111111111,71.11111111111111,0)" xlink:href="#m"/><use transform="matrix(0.1111111111111111,0,0,0.1111111111111111,93.33333333333334,0)" xlink:href="#B"/><use transform="matrix(0.1111111111111111,0,0,0.1111111111111111,113.33333333333334,0)" xlink:href="#t"/><use transform="matrix(0.1111111111111111,0,0,0.1111111111111111,122.1111111111111,0)" xlink:href="#C"/><use transform="matrix(0.1111111111111111,0,0,0.1111111111111111,144.33333333333334,0)" xlink:href="#n"/></g><path d="M33 0v-248h34V0H33" id="D"/><path d="M101-234c-31-9-42 10-38 44h38v23H63V0H32v-167H5v-23h27c-7-52 17-82 69-68v24" id="E"/><g id="f"><use transform="matrix(0.08641975308641976,0,0,0.08641975308641976,0,0)" xlink:href="#D"/><use transform="matrix(0.08641975308641976,0,0,0.08641975308641976,8.641975308641976,0)" xlink:href="#u"/><use transform="matrix(0.08641975308641976,0,0,0.08641975308641976,25.925925925925927,0)" xlink:href="#E"/><use transform="matrix(0.08641975308641976,0,0,0.08641975308641976,34.567901234567906,0)" xlink:href="#m"/><use transform="matrix(0.08641975308641976,0,0,0.08641975308641976,51.851851851851855,0)" xlink:href="#u"/><use transform="matrix(0.08641975308641976,0,0,0.08641975308641976,69.13580246913581,0)" xlink:href="#v"/><use transform="matrix(0.08641975308641976,0,0,0.08641975308641976,84.69135802469137,0)" xlink:href="#p"/></g><path d="M205 0l-28-72H64L36 0H1l101-248h38L239 0h-34zm-38-99l-47-123c-12 45-31 82-46 123h93" id="F"/><path d="M135-143c-3-34-86-38-87 0 15 53 115 12 119 90S17 21 10-45l28-5c4 36 97 45 98 0-10-56-113-15-118-90-4-57 82-63 122-42 12 7 21 19 24 35" id="G"/><g id="g"><use transform="matrix(0.08641975308641976,0,0,0.08641975308641976,0,0)" xlink:href="#F"/><use transform="matrix(0.08641975308641976,0,0,0.08641975308641976,20.740740740740744,0)" xlink:href="#z"/><use transform="matrix(0.08641975308641976,0,0,0.08641975308641976,38.0246913580247,0)" xlink:href="#C"/><use transform="matrix(0.08641975308641976,0,0,0.08641975308641976,55.308641975308646,0)" xlink:href="#o"/><use transform="matrix(0.08641975308641976,0,0,0.08641975308641976,62.13580246913581,0)" xlink:href="#s"/><use transform="matrix(0.08641975308641976,0,0,0.08641975308641976,79.41975308641976,0)" xlink:href="#G"/><use transform="matrix(0.08641975308641976,0,0,0.08641975308641976,94.97530864197532,0)" xlink:href="#v"/><use transform="matrix(0.08641975308641976,0,0,0.08641975308641976,110.53086419753087,0)" xlink:href="#s"/><use transform="matrix(0.08641975308641976,0,0,0.08641975308641976,127.81481481481482,0)" xlink:href="#u"/><use transform="matrix(0.08641975308641976,0,0,0.08641975308641976,145.0987654320988,0)" xlink:href="#v"/><use transform="matrix(0.08641975308641976,0,0,0.08641975308641976,160.65432098765433,0)" xlink:href="#s"/></g><path d="M232-93c-1 65-40 97-104 97C67 4 28-28 28-90v-158h33c8 89-33 224 67 224 102 0 64-133 71-224h33v155" id="H"/><path d="M210-169c-67 3-38 105-44 169h-31v-121c0-29-5-50-35-48C34-165 62-65 56 0H25l-1-190h30c1 10-1 24 2 32 10-44 99-50 107 0 11-21 27-35 58-36 85-2 47 119 55 194h-31v-121c0-29-5-49-35-48" id="I"/><g id="h"><use transform="matrix(0.08641975308641976,0,0,0.08641975308641976,0,0)" xlink:href="#H"/><use transform="matrix(0.08641975308641976,0,0,0.08641975308641976,22.38271604938272,0)" xlink:href="#u"/><use transform="matrix(0.08641975308641976,0,0,0.08641975308641976,39.66666666666667,0)" xlink:href="#s"/><use transform="matrix(0.08641975308641976,0,0,0.08641975308641976,56.95061728395062,0)" xlink:href="#I"/><use transform="matrix(0.08641975308641976,0,0,0.08641975308641976,82.79012345679013,0)" xlink:href="#C"/><use transform="matrix(0.08641975308641976,0,0,0.08641975308641976,100.07407407407409,0)" xlink:href="#x"/><use transform="matrix(0.08641975308641976,0,0,0.08641975308641976,108.71604938271604,0)" xlink:href="#t"/><use transform="matrix(0.08641975308641976,0,0,0.08641975308641976,115.54320987654322,0)" xlink:href="#C"/><use transform="matrix(0.08641975308641976,0,0,0.08641975308641976,132.82716049382717,0)" xlink:href="#u"/><use transform="matrix(0.08641975308641976,0,0,0.08641975308641976,150.11111111111111,0)" xlink:href="#m"/><use transform="matrix(0.08641975308641976,0,0,0.08641975308641976,167.39506172839506,0)" xlink:href="#o"/></g><g id="i"><use transform="matrix(0.08641975308641976,0,0,0.08641975308641976,0,0)" xlink:href="#A"/><use transform="matrix(0.08641975308641976,0,0,0.08641975308641976,20.740740740740744,0)" xlink:href="#s"/><use transform="matrix(0.08641975308641976,0,0,0.08641975308641976,38.0246913580247,0)" xlink:href="#y"/><use transform="matrix(0.08641975308641976,0,0,0.08641975308641976,55.308641975308646,0)" xlink:href="#m"/><use transform="matrix(0.08641975308641976,0,0,0.08641975308641976,72.5925925925926,0)" xlink:href="#B"/><use transform="matrix(0.08641975308641976,0,0,0.08641975308641976,88.14814814814815,0)" xlink:href="#t"/><use transform="matrix(0.08641975308641976,0,0,0.08641975308641976,94.97530864197532,0)" xlink:href="#C"/><use transform="matrix(0.08641975308641976,0,0,0.08641975308641976,112.25925925925927,0)" xlink:href="#n"/></g><path d="M186 0v-106H76V0H24v-248h52v99h110v-99h50V0h-50" id="J"/><path d="M24-248c93 1 206-16 204 79-1 75-69 88-152 82V0H24v-248zm52 121c47 0 100 7 100-41 0-47-54-39-100-39v80" id="K"/><path d="M199 0l-22-63H83L61 0H9l90-248h61L250 0h-51zm-33-102l-36-108c-10 38-24 72-36 108h72" id="L"/><g id="j"><use transform="matrix(0.14814814814814817,0,0,0.14814814814814817,0,0)" xlink:href="#J"/><use transform="matrix(0.14814814814814817,0,0,0.14814814814814817,38.370370370370374,0)" xlink:href="#K"/><use transform="matrix(0.14814814814814817,0,0,0.14814814814814817,69.92592592592592,0)" xlink:href="#L"/></g><path d="M144 0l-44-69L55 0H2l70-98-66-92h53l41 62 40-62h54l-67 91 71 99h-54" id="M"/><path d="M25-224v-37h50v37H25zM25 0v-190h50V0H25" id="N"/><path d="M137-138c1-29-70-34-71-4 15 46 118 7 119 86 1 83-164 76-172 9l43-7c4 19 20 25 44 25 33 8 57-30 24-41C81-84 22-81 20-136c-2-80 154-74 161-7" id="O"/><g id="k"><use transform="matrix(0.14814814814814817,0,0,0.14814814814814817,0,0)" xlink:href="#L"/><use transform="matrix(0.14814814814814817,0,0,0.14814814814814817,38.370370370370374,0)" xlink:href="#M"/><use transform="matrix(0.14814814814814817,0,0,0.14814814814814817,68,0)" xlink:href="#N"/><use transform="matrix(0.14814814814814817,0,0,0.14814814814814817,82.81481481481481,0)" xlink:href="#O"/></g></defs></g></svg>