<svg xmlns="http://www.w3.org/2000/svg" xmlns:xlink="http://www.w3.org/1999/xlink" xmlns:lucid="lucid" width="1354.48" height="1051.14"><g transform="translate(-12 -47.30526819923374)" lucid:page-tab-id="0_0"><path d="M369.18 429.3c37.17 0 67.3 42.36 67.3 94.62 0 52.25-30.13 94.6-67.3 94.6H167.3c-37.17 0-67.3-42.35-67.3-94.6 0-52.26 30.13-94.6 67.3-94.6z" stroke="#000" stroke-width="2" fill="#ffdf71"/><use xlink:href="#a" transform="matrix(1,0,0,1,100,429.305268199234) translate(44.222222222222214 79)"/><use xlink:href="#b" transform="matrix(1,0,0,1,100,429.305268199234) translate(201.8888888888889 79)"/><use xlink:href="#c" transform="matrix(1,0,0,1,100,429.305268199234) translate(68.6111111111111 127)"/><path d="M268.24 619.53l.23 11.05.7 10.94 1.1 10.7 1.55 10.4 1.9 9.98 2.23 9.52 2.52 9.02 2.76 8.5 2.96 7.96 3.12 7.45 3.26 6.94 3.38 6.45 3.46 6 3.53 5.56 3.58 5.17 3.63 4.78 3.67 4.44 3.7 4.1 3.73 3.8 3.76 3.54 3.8 3.27 3.8 3.03 3.86 2.8 3.9 2.6 3.93 2.37 4 2.2 4.04 2 4.1 1.83 4.2 1.66 4.26 1.48 4.37 1.3 4.48 1.16.5.1" stroke="#7ab648" stroke-width="6" fill="none"/><path d="M271.24 619.43l-6 .2-.03-1.1h6z" fill="#7ab648"/><path d="M389.35 793.54l-14.7 3.04 1.03-9.2z" stroke="#7ab648" stroke-width="6" fill="#7ab648"/><path d="M1109.18 889.22c37.17 0 67.3 42.36 67.3 94.6 0 52.26-30.13 94.62-67.3 94.62H907.3c-37.17 0-67.3-42.36-67.3-94.6 0-52.26 30.13-94.62 67.3-94.62z" stroke="#000" stroke-width="2" fill="#ffdf71"/><use xlink:href="#d" transform="matrix(1,0,0,1,840,889.221072796935) translate(71.94444444444444 79)"/><use xlink:href="#e" transform="matrix(1,0,0,1,840,889.221072796935) translate(198.3888888888889 79)"/><use xlink:href="#f" transform="matrix(1,0,0,1,840,889.221072796935) translate(89.72222222222221 127)"/><path d="M568.24 890.22l.1 5.06.3 4.66.45 4.3.58 4 .7 3.76.84 3.52.93 3.33 1.02 3.15 1.12 3 1.2 2.87 1.3 2.75 1.37 2.65 1.48 2.56 1.58 2.5 1.67 2.4 1.8 2.35 1.9 2.3 2.03 2.26 2.17 2.22 2.33 2.2 2.5 2.15 2.7 2.15 2.93 2.12 3.18 2.1 3.47 2.12 3.83 2.08 4.2 2.1 4.7 2.07 5.24 2.08 5.93 2.06 6.78 2.03 7.84 2 9.22 1.97 11.07 1.86 13.68 1.72 17.7 1.46 25.06 1.02 53.87-.26 35.03-.6" stroke="#7ab648" stroke-width="6" fill="none"/><path d="M571.23 890.03l-5.98.4-.08-1.2h6z" fill="#7ab648"/><path d="M829.3 984l-14.2 4.88-.15-9.27z" stroke="#7ab648" stroke-width="6" fill="#7ab648"/><path d="M233.9 67.3c27.86 0 50.46 17.9 50.46 40s-22.6 40-50.47 40H82.46c-27.87 0-50.47-17.9-50.47-40s22.6-40 50.47-40z" stroke="#000" stroke-width="2" fill="#c7e8ac"/><use xlink:href="#g" transform="matrix(1,0,0,1,32,67.30526819923374) translate(62.05555555555556 48)"/><path d="M486.25 207.3c27.87 0 50.47 17.9 50.47 40s-22.6 40-50.47 40H334.83c-27.87 0-50.47-17.9-50.47-40s22.6-40 50.47-40z" stroke="#000" stroke-width="2" fill="#c7e8ac"/><use xlink:href="#h" transform="matrix(1,0,0,1,284.3596082818865,207.30526819923375) translate(12.1111111111111 48)"/><path d="M158.9 166.8l.1 1.8.94 8.9 1.2 8.25 1.5 7.75 1.7 7.34 1.97 7.03 2.22 6.8 2.48 6.67 2.8 6.62 3.13 6.68 3.6 6.9 4.24 7.32 5.2 8.18 7.07 10.15 39.4 52.37 5.2 8.18 4.24 7.33 3.6 6.9 3.15 6.67 2.8 6.62 2.47 6.67 2.2 6.8 1.97 7.03 1.72 7.34 1.47 7.76 1.2 8.25.95 8.9.6 9.67.22 10.63" stroke="#000" stroke-width="2" fill="none"/><path d="M158.3 151.54l5.18 14.08-9.26.36z" stroke="#000" stroke-width="2"/><path d="M269.27 429.3h-2l-.03-.96 2-.07z"/><path d="M406.98 306.34l-.4.97-.85 1.8-.95 1.8-1.05 1.83-1.18 1.86-1.32 1.88-1.48 1.95-1.67 2.02-1.9 2.1-2.15 2.2-2.5 2.34-2.9 2.5-3.44 2.72-4.2 3.03-5.24 3.48-7.02 4.25-10.94 5.98-47.77 24.48-7.02 4.24-5.24 3.48-4.17 3.03-3.46 2.72-2.9 2.5-2.5 2.34-2.15 2.2-1.9 2.1-1.67 2.02-1.48 1.95-1.32 1.9-1.18 1.85-1.05 1.82-.95 1.8-.84 1.8-.74 1.8-.67 1.78-.6 1.8-.5 1.82-.44 1.85-.35 1.88-.28 1.93-.2 1.98-.14 2.04-.04 2.12" stroke="#000" stroke-width="2" fill="none"/><path d="M409.9 291.48l1.8 14.9-9.1-1.8z" stroke="#000" stroke-width="2"/><path d="M269.23 428.46l-.14.85h-2.03l.18-1.15z"/><path d="M1269.18 632c37.17 0 67.3 21.5 67.3 48s-30.13 48-67.3 48H1067.3c-37.17 0-67.3-21.5-67.3-48s30.13-48 67.3-48z" stroke="#000" stroke-width="2" fill="#c7e8ac"/><use xlink:href="#i" transform="matrix(1,0,0,1,1000.0000000000001,632) translate(56.499999999999986 32)"/><use xlink:href="#f" transform="matrix(1,0,0,1,1000.0000000000001,632) translate(89.72222222222221 80)"/><path d="M1165.15 747.15l-.6 1.62-.86 2.05-.98 2.06-1.08 2.06-1.2 2.1-1.36 2.12-1.5 2.17-1.7 2.24-1.92 2.3-2.17 2.4-2.48 2.54-2.85 2.68-3.34 2.88-3.95 3.13-4.8 3.48-6.08 4.02-8.2 4.95-13.17 7.2-50.56 26.12-8.2 4.95-6.06 4.02-4.8 3.5-3.95 3.12-3.34 2.88-2.84 2.68-2.48 2.52-2.16 2.4-1.9 2.32-1.7 2.23-1.52 2.16-1.35 2.13-1.2 2.08-1.1 2.07-.96 2.05-.87 2.05-.76 2.05-.67 2.07-.6 2.1-.48 2.1-.42 2.17-.32 2.2-.24 2.3-.15 2.34-.06 2.44" stroke="#000" stroke-width="2" fill="none"/><path d="M1167.7 732.2l2.17 14.83-9.14-1.55z" stroke="#000" stroke-width="2"/><path d="M1009.23 888.36l-.12.86h-2l.15-1.13z"/><path d="M669.18 700c37.17 0 67.3 42.36 67.3 94.6 0 52.26-30.13 94.62-67.3 94.62H467.3c-37.17 0-67.3-42.36-67.3-94.6 0-52.26 30.13-94.62 67.3-94.62z" stroke="#000" stroke-width="2" fill="#ffdf71"/><use xlink:href="#j" transform="matrix(1,0,0,1,400,700) translate(127.44444444444444 103)"/><path d="M721.9 347.3c27.86 0 50.46 17.9 50.46 40s-22.6 40-50.47 40H570.46c-27.87 0-50.47-17.9-50.47-40s22.6-40 50.47-40z" stroke="#000" stroke-width="2" fill="#c7e8ac"/><use xlink:href="#k" transform="matrix(1,0,0,1,520,347.30526819923375) translate(86.94444444444444 48)"/><path d="M645.6 446.8l-.46 7.43L644 465.1l-1.46 9.9-1.75 9.16-2.03 8.62-2.3 8.27-2.63 8.1-3.03 8.13-3.58 8.52-4.5 9.54-6.68 12.74-24.35 43.88-4.5 9.55-3.6 8.52-3.02 8.15-2.63 8.1-2.3 8.25-2.03 8.62-1.74 9.16-1.46 9.9-1.14 10.87-.76 12.14-.28 13.8" stroke="#000" stroke-width="2" fill="none"/><path d="M646.08 431.54l4.2 14.4-9.28-.28z" stroke="#000" stroke-width="2"/><path d="M569.24 699.02l-.02.98h-2l.02-1.02z"/><path d="M974.25 483.92c27.87 0 50.47 17.9 50.47 40s-22.6 40-50.47 40H822.83c-27.87 0-50.47-17.9-50.47-40s22.6-40 50.47-40z" stroke="#000" stroke-width="2" fill="#c7e8ac"/><use xlink:href="#l" transform="matrix(1,0,0,1,772.3596082818865,483.9158045977015) translate(83.22222222222223 48)"/><path d="M891.1 581.35l-.9.95-1.36 1.26-1.57 1.35-1.83 1.47-2.18 1.57-2.6 1.73-3.13 1.9-3.86 2.1-4.83 2.4-6.18 2.75-8.16 3.22-11.25 3.9-16.6 5-28.4 7.2L640.12 653l-16.6 4.98-11.25 3.9-8.16 3.22-6.18 2.74-4.83 2.4-3.85 2.1-3.14 1.9-2.6 1.73-2.16 1.58-1.83 1.45-1.56 1.35-1.35 1.27-1.17 1.2-1.02 1.1-.88 1.1-.78 1-.68 1-.6.94-.53.92-.47.9-.4.87-.37.86-.33.85-.27.84-.23.8-.2.84-.15.82-.12.82-.1.83-.04.85-.02.85" stroke="#000" stroke-width="2" fill="none"/><path d="M897.2 567.87l-1.64 14.9-8.45-3.8z" stroke="#000" stroke-width="2"/><path d="M569.18 699.35l-.25.65h-2.13l.5-1.35z"/><path d="M990 140h356.48v80H990z" fill="#fff"/><path d="M1002.15 140h8.1m8.1 0h8.1m8.1 0h8.1m8.1 0h8.12m8.1 0h8.1m8.1 0h8.1m8.1 0h8.1m8.1 0h8.1m8.1 0h8.1m8.12 0h8.1m8.1 0h8.1m8.1 0h8.1m8.1 0h8.1m8.1 0h8.1m8.1 0h8.1m8.1 0h8.1m8.1 0h8.1m8.1 0h8.12m8.1 0h8.1m8.1 0h8.1m8.1 0h8.1m8.1 0h4.06v4m0 8v8m0 8v8m0 8v8m0 8v8m0 8v4h-4.05m-8.1 0h-8.1m-8.1 0h-8.1m-8.1 0h-8.1m-8.1 0h-8.12m-8.1 0h-8.1m-8.1 0h-8.1m-8.1 0h-8.1m-8.1 0h-8.1m-8.1 0h-8.1m-8.1 0h-8.1m-8.1 0h-8.1m-8.1 0h-8.1m-8.12 0h-8.1m-8.1 0h-8.1m-8.1 0h-8.1m-8.1 0h-8.1m-8.1 0h-8.1m-8.1 0h-8.12m-8.1 0h-8.1m-8.1 0h-8.1m-8.1 0h-8.1m-8.1 0H990v-4m0-8v-8m0-8v-8m0-8v-8m0-8v-8m0-8v-4h4.05" stroke="#000" stroke-width="2" fill="none"/><use xlink:href="#m" transform="matrix(1,0,0,1,995,145) translate(41.44444444444446 43)"/><use xlink:href="#n" transform="matrix(1,0,0,1,995,145) translate(154.77777777777777 43)"/><use xlink:href="#o" transform="matrix(1,0,0,1,995,145) translate(199.22222222222223 43)"/><path d="M558.34 237.55L989 180" stroke="#000" stroke-width="2" fill="none"/><path d="M543.2 239.57l13.53-6.48 1.23 9.18z" stroke="#000" stroke-width="2"/><path d="M990 180.88l-.87.1-.26-1.97 1.13-.14z"/><path d="M772.96 347.06L989 180" stroke="#000" stroke-width="2" fill="none"/><path d="M760.88 356.4l8.45-12.4 5.67 7.34z" stroke="#000" stroke-width="2"/><path d="M990 180.5l-.4.3-1.2-1.6 1.6-1.24z"/><path d="M1168.24 221v391.5" stroke="#000" stroke-width="2" fill="none"/><path d="M1169.24 221h-2v-1h2z"/><path d="M1168.24 627.76l-4.64-14.26h9.28z" stroke="#000" stroke-width="2"/><defs><path d="M205 0l-28-72H64L36 0H1l101-248h38L239 0h-34zm-38-99l-47-123c-12 45-31 82-46 123h93" id="p"/><path d="M85-194c31 0 48 13 60 33l-1-100h32l1 261h-30c-2-10 0-23-3-31C134-8 116 4 85 4 32 4 16-35 15-94c0-66 23-100 70-100zm9 24c-40 0-46 34-46 75 0 40 6 74 45 74 42 0 51-32 51-76 0-42-9-74-50-73" id="q"/><path d="M108 0H70L1-190h34L89-25l56-165h34" id="r"/><path d="M100-194c63 0 86 42 84 106H49c0 40 14 67 53 68 26 1 43-12 49-29l28 8c-11 28-37 45-77 45C44 4 14-33 15-96c1-61 26-98 85-98zm52 81c6-60-76-77-97-28-3 7-6 17-6 28h103" id="s"/><path d="M114-163C36-179 61-72 57 0H25l-1-190h30c1 12-1 29 2 39 6-27 23-49 58-41v29" id="t"/><path d="M135-143c-3-34-86-38-87 0 15 53 115 12 119 90S17 21 10-45l28-5c4 36 97 45 98 0-10-56-113-15-118-90-4-57 82-63 122-42 12 7 21 19 24 35" id="u"/><g id="a"><use transform="matrix(0.1111111111111111,0,0,0.1111111111111111,0,0)" xlink:href="#p"/><use transform="matrix(0.1111111111111111,0,0,0.1111111111111111,26.666666666666664,0)" xlink:href="#q"/><use transform="matrix(0.1111111111111111,0,0,0.1111111111111111,48.888888888888886,0)" xlink:href="#r"/><use transform="matrix(0.1111111111111111,0,0,0.1111111111111111,68.88888888888889,0)" xlink:href="#s"/><use transform="matrix(0.1111111111111111,0,0,0.1111111111111111,91.11111111111111,0)" xlink:href="#t"/><use transform="matrix(0.1111111111111111,0,0,0.1111111111111111,104.33333333333334,0)" xlink:href="#u"/><use transform="matrix(0.1111111111111111,0,0,0.1111111111111111,124.33333333333336,0)" xlink:href="#s"/></g><path d="M30 0v-248h187v28H63v79h144v27H63v87h162V0H30" id="v"/><path d="M141-36C126-15 110 5 73 4 37 3 15-17 15-53c-1-64 63-63 125-63 3-35-9-54-41-54-24 1-41 7-42 31l-33-3c5-37 33-52 76-52 45 0 72 20 72 64v82c-1 20 7 32 28 27v20c-31 9-61-2-59-35zM48-53c0 20 12 33 32 33 41-3 63-29 60-74-43 2-92-5-92 41" id="w"/><path d="M24 0v-261h32V0H24" id="x"/><path d="M179-190L93 31C79 59 56 82 12 73V49c39 6 53-20 64-50L1-190h34L92-34l54-156h33" id="y"/><g id="b"><use transform="matrix(0.1111111111111111,0,0,0.1111111111111111,0,0)" xlink:href="#v"/><use transform="matrix(0.1111111111111111,0,0,0.1111111111111111,26.666666666666664,0)" xlink:href="#w"/><use transform="matrix(0.1111111111111111,0,0,0.1111111111111111,48.888888888888886,0)" xlink:href="#t"/><use transform="matrix(0.1111111111111111,0,0,0.1111111111111111,62.11111111111111,0)" xlink:href="#x"/><use transform="matrix(0.1111111111111111,0,0,0.1111111111111111,70.88888888888889,0)" xlink:href="#y"/></g><path d="M141 0L90-78 38 0H4l68-98-65-92h35l48 74 47-74h35l-64 92 68 98h-35" id="z"/><path d="M115-194c55 1 70 41 70 98S169 2 115 4C84 4 66-9 55-30l1 105H24l-1-265h31l2 30c10-21 28-34 59-34zm-8 174c40 0 45-34 45-75s-6-73-45-74c-42 0-51 32-51 76 0 43 10 73 51 73" id="A"/><path d="M24-231v-30h32v30H24zM24 0v-190h32V0H24" id="B"/><path d="M117-194c89-4 53 116 60 194h-32v-121c0-31-8-49-39-48C34-167 62-67 57 0H25l-1-190h30c1 10-1 24 2 32 11-22 29-35 61-36" id="C"/><path d="M96-169c-40 0-48 33-48 73s9 75 48 75c24 0 41-14 43-38l32 2c-6 37-31 61-74 61-59 0-76-41-82-99-10-93 101-131 147-64 4 7 5 14 7 22l-32 3c-4-21-16-35-41-35" id="D"/><g id="c"><use transform="matrix(0.1111111111111111,0,0,0.1111111111111111,0,0)" xlink:href="#v"/><use transform="matrix(0.1111111111111111,0,0,0.1111111111111111,26.666666666666664,0)" xlink:href="#z"/><use transform="matrix(0.1111111111111111,0,0,0.1111111111111111,46.666666666666664,0)" xlink:href="#A"/><use transform="matrix(0.1111111111111111,0,0,0.1111111111111111,68.88888888888889,0)" xlink:href="#s"/><use transform="matrix(0.1111111111111111,0,0,0.1111111111111111,91.11111111111111,0)" xlink:href="#t"/><use transform="matrix(0.1111111111111111,0,0,0.1111111111111111,104.33333333333334,0)" xlink:href="#B"/><use transform="matrix(0.1111111111111111,0,0,0.1111111111111111,113.11111111111111,0)" xlink:href="#s"/><use transform="matrix(0.1111111111111111,0,0,0.1111111111111111,135.33333333333334,0)" xlink:href="#C"/><use transform="matrix(0.1111111111111111,0,0,0.1111111111111111,157.55555555555557,0)" xlink:href="#D"/><use transform="matrix(0.1111111111111111,0,0,0.1111111111111111,177.55555555555557,0)" xlink:href="#s"/></g><path d="M197 0v-115H63V0H30v-248h33v105h134v-105h34V0h-34" id="E"/><path d="M59-47c-2 24 18 29 38 22v24C64 9 27 4 27-40v-127H5v-23h24l9-43h21v43h35v23H59v120" id="F"/><path d="M106-169C34-169 62-67 57 0H25v-261h32l-1 103c12-21 28-36 61-36 89 0 53 116 60 194h-32v-121c2-32-8-49-39-48" id="G"/><g id="d"><use transform="matrix(0.1111111111111111,0,0,0.1111111111111111,0,0)" xlink:href="#E"/><use transform="matrix(0.1111111111111111,0,0,0.1111111111111111,28.777777777777775,0)" xlink:href="#s"/><use transform="matrix(0.1111111111111111,0,0,0.1111111111111111,51,0)" xlink:href="#w"/><use transform="matrix(0.1111111111111111,0,0,0.1111111111111111,73.22222222222223,0)" xlink:href="#x"/><use transform="matrix(0.1111111111111111,0,0,0.1111111111111111,82,0)" xlink:href="#F"/><use transform="matrix(0.1111111111111111,0,0,0.1111111111111111,93.11111111111111,0)" xlink:href="#G"/></g><g id="e"><use transform="matrix(0.1111111111111111,0,0,0.1111111111111111,0,0)" xlink:href="#w"/><use transform="matrix(0.1111111111111111,0,0,0.1111111111111111,22.22222222222222,0)" xlink:href="#C"/><use transform="matrix(0.1111111111111111,0,0,0.1111111111111111,44.44444444444444,0)" xlink:href="#q"/></g><path d="M160-131c35 5 61 23 61 61C221 17 115-2 30 0v-248c76 3 177-17 177 60 0 33-19 50-47 57zm-97-11c50-1 110 9 110-42 0-47-63-36-110-37v79zm0 115c55-2 124 14 124-45 0-56-70-42-124-44v89" id="H"/><path d="M100-194c62-1 85 37 85 99 1 63-27 99-86 99S16-35 15-95c0-66 28-99 85-99zM99-20c44 1 53-31 53-75 0-43-8-75-51-75s-53 32-53 75 10 74 51 75" id="I"/><g id="f"><use transform="matrix(0.1111111111111111,0,0,0.1111111111111111,0,0)" xlink:href="#H"/><use transform="matrix(0.1111111111111111,0,0,0.1111111111111111,26.666666666666664,0)" xlink:href="#s"/><use transform="matrix(0.1111111111111111,0,0,0.1111111111111111,48.888888888888886,0)" xlink:href="#G"/><use transform="matrix(0.1111111111111111,0,0,0.1111111111111111,71.11111111111111,0)" xlink:href="#w"/><use transform="matrix(0.1111111111111111,0,0,0.1111111111111111,93.33333333333334,0)" xlink:href="#r"/><use transform="matrix(0.1111111111111111,0,0,0.1111111111111111,113.33333333333334,0)" xlink:href="#B"/><use transform="matrix(0.1111111111111111,0,0,0.1111111111111111,122.1111111111111,0)" xlink:href="#I"/><use transform="matrix(0.1111111111111111,0,0,0.1111111111111111,144.33333333333334,0)" xlink:href="#t"/></g><path d="M33 0v-248h34V0H33" id="J"/><path d="M101-234c-31-9-42 10-38 44h38v23H63V0H32v-167H5v-23h27c-7-52 17-82 69-68v24" id="K"/><g id="g"><use transform="matrix(0.1111111111111111,0,0,0.1111111111111111,0,0)" xlink:href="#J"/><use transform="matrix(0.1111111111111111,0,0,0.1111111111111111,11.11111111111111,0)" xlink:href="#C"/><use transform="matrix(0.1111111111111111,0,0,0.1111111111111111,33.33333333333333,0)" xlink:href="#K"/><use transform="matrix(0.1111111111111111,0,0,0.1111111111111111,44.44444444444444,0)" xlink:href="#w"/><use transform="matrix(0.1111111111111111,0,0,0.1111111111111111,66.66666666666666,0)" xlink:href="#C"/><use transform="matrix(0.1111111111111111,0,0,0.1111111111111111,88.88888888888889,0)" xlink:href="#D"/><use transform="matrix(0.1111111111111111,0,0,0.1111111111111111,108.88888888888889,0)" xlink:href="#y"/></g><g id="h"><use transform="matrix(0.1111111111111111,0,0,0.1111111111111111,0,0)" xlink:href="#p"/><use transform="matrix(0.1111111111111111,0,0,0.1111111111111111,26.666666666666664,0)" xlink:href="#q"/><use transform="matrix(0.1111111111111111,0,0,0.1111111111111111,48.888888888888886,0)" xlink:href="#I"/><use transform="matrix(0.1111111111111111,0,0,0.1111111111111111,71.11111111111111,0)" xlink:href="#x"/><use transform="matrix(0.1111111111111111,0,0,0.1111111111111111,79.88888888888889,0)" xlink:href="#s"/><use transform="matrix(0.1111111111111111,0,0,0.1111111111111111,102.11111111111111,0)" xlink:href="#u"/><use transform="matrix(0.1111111111111111,0,0,0.1111111111111111,122.1111111111111,0)" xlink:href="#D"/><use transform="matrix(0.1111111111111111,0,0,0.1111111111111111,142.11111111111111,0)" xlink:href="#s"/><use transform="matrix(0.1111111111111111,0,0,0.1111111111111111,164.33333333333334,0)" xlink:href="#C"/><use transform="matrix(0.1111111111111111,0,0,0.1111111111111111,186.55555555555557,0)" xlink:href="#D"/><use transform="matrix(0.1111111111111111,0,0,0.1111111111111111,206.55555555555557,0)" xlink:href="#s"/></g><path d="M232-93c-1 65-40 97-104 97C67 4 28-28 28-90v-158h33c8 89-33 224 67 224 102 0 64-133 71-224h33v155" id="L"/><path d="M210-169c-67 3-38 105-44 169h-31v-121c0-29-5-50-35-48C34-165 62-65 56 0H25l-1-190h30c1 10-1 24 2 32 10-44 99-50 107 0 11-21 27-35 58-36 85-2 47 119 55 194h-31v-121c0-29-5-49-35-48" id="M"/><g id="i"><use transform="matrix(0.1111111111111111,0,0,0.1111111111111111,0,0)" xlink:href="#L"/><use transform="matrix(0.1111111111111111,0,0,0.1111111111111111,28.777777777777775,0)" xlink:href="#C"/><use transform="matrix(0.1111111111111111,0,0,0.1111111111111111,51,0)" xlink:href="#s"/><use transform="matrix(0.1111111111111111,0,0,0.1111111111111111,73.22222222222223,0)" xlink:href="#M"/><use transform="matrix(0.1111111111111111,0,0,0.1111111111111111,106.44444444444446,0)" xlink:href="#I"/><use transform="matrix(0.1111111111111111,0,0,0.1111111111111111,128.66666666666669,0)" xlink:href="#F"/><use transform="matrix(0.1111111111111111,0,0,0.1111111111111111,139.7777777777778,0)" xlink:href="#B"/><use transform="matrix(0.1111111111111111,0,0,0.1111111111111111,148.55555555555557,0)" xlink:href="#I"/><use transform="matrix(0.1111111111111111,0,0,0.1111111111111111,170.7777777777778,0)" xlink:href="#C"/><use transform="matrix(0.1111111111111111,0,0,0.1111111111111111,193.00000000000003,0)" xlink:href="#w"/><use transform="matrix(0.1111111111111111,0,0,0.1111111111111111,215.22222222222226,0)" xlink:href="#x"/></g><path d="M185-189c-5-48-123-54-124 2 14 75 158 14 163 119 3 78-121 87-175 55-17-10-28-26-33-46l33-7c5 56 141 63 141-1 0-78-155-14-162-118-5-82 145-84 179-34 5 7 8 16 11 25" id="N"/><path d="M233-177c-1 41-23 64-60 70L243 0h-38l-65-103H63V0H30v-248c88 3 205-21 203 71zM63-129c60-2 137 13 137-47 0-61-80-42-137-45v92" id="O"/><g id="j"><use transform="matrix(0.1111111111111111,0,0,0.1111111111111111,0,0)" xlink:href="#N"/><use transform="matrix(0.1111111111111111,0,0,0.1111111111111111,26.666666666666664,0)" xlink:href="#O"/><use transform="matrix(0.1111111111111111,0,0,0.1111111111111111,55.44444444444444,0)" xlink:href="#N"/></g><path d="M30-248c87 1 191-15 191 75 0 78-77 80-158 76V0H30v-248zm33 125c57 0 124 11 124-50 0-59-68-47-124-48v98" id="P"/><g id="k"><use transform="matrix(0.1111111111111111,0,0,0.1111111111111111,0,0)" xlink:href="#E"/><use transform="matrix(0.1111111111111111,0,0,0.1111111111111111,28.777777777777775,0)" xlink:href="#P"/><use transform="matrix(0.1111111111111111,0,0,0.1111111111111111,52.44444444444444,0)" xlink:href="#p"/></g><path d="M143 4C61 4 22-44 18-125c-5-107 100-154 193-111 17 8 29 25 37 43l-32 9c-13-25-37-40-76-40-61 0-88 39-88 99 0 61 29 100 91 101 35 0 62-11 79-27v-45h-74v-28h105v86C228-13 192 4 143 4" id="Q"/><g id="l"><use transform="matrix(0.1111111111111111,0,0,0.1111111111111111,0,0)" xlink:href="#E"/><use transform="matrix(0.1111111111111111,0,0,0.1111111111111111,28.777777777777775,0)" xlink:href="#P"/><use transform="matrix(0.1111111111111111,0,0,0.1111111111111111,55.44444444444444,0)" xlink:href="#Q"/></g><path d="M84 4C-5 8 30-112 23-190h32v120c0 31 7 50 39 49 72-2 45-101 50-169h31l1 190h-30c-1-10 1-25-2-33-11 22-28 36-60 37" id="R"/><g id="m"><use transform="matrix(0.1111111111111111,0,0,0.1111111111111111,0,0)" xlink:href="#N"/><use transform="matrix(0.1111111111111111,0,0,0.1111111111111111,26.666666666666664,0)" xlink:href="#F"/><use transform="matrix(0.1111111111111111,0,0,0.1111111111111111,37.77777777777777,0)" xlink:href="#R"/><use transform="matrix(0.1111111111111111,0,0,0.1111111111111111,60,0)" xlink:href="#q"/><use transform="matrix(0.1111111111111111,0,0,0.1111111111111111,82.22222222222221,0)" xlink:href="#y"/></g><path d="M27 0v-27h64v-190l-56 39v-29l58-41h29v221h61V0H27" id="S"/><path d="M33-154v-36h34v36H33zM33 0v-36h34V0H33" id="T"/><g id="n"><use transform="matrix(0.1111111111111111,0,0,0.1111111111111111,0,0)" xlink:href="#S"/><use transform="matrix(0.1111111111111111,0,0,0.1111111111111111,22.22222222222222,0)" xlink:href="#T"/></g><path d="M240 0l2-218c-23 76-54 145-80 218h-23L58-218 59 0H30v-248h44l77 211c21-75 51-140 76-211h43V0h-30" id="U"/><path d="M153-248C145-148 188 4 80 4 36 3 13-21 6-62l32-5c4 25 16 42 43 43 27 0 39-20 39-49v-147H72v-28h81" id="V"/><path d="M127-220V0H93v-220H8v-28h204v28h-85" id="W"/><path d="M212-179c-10-28-35-45-73-45-59 0-87 40-87 99 0 60 29 101 89 101 43 0 62-24 78-52l27 14C228-24 195 4 139 4 59 4 22-46 18-125c-6-104 99-153 187-111 19 9 31 26 39 46" id="X"/><g id="o"><use transform="matrix(0.1111111111111111,0,0,0.1111111111111111,0,0)" xlink:href="#U"/><use transform="matrix(0.1111111111111111,0,0,0.1111111111111111,33.22222222222222,0)" xlink:href="#V"/><use transform="matrix(0.1111111111111111,0,0,0.1111111111111111,53.22222222222222,0)" xlink:href="#W"/><use transform="matrix(0.1111111111111111,0,0,0.1111111111111111,77.55555555555556,0)" xlink:href="#X"/></g></defs></g></svg>